<svg xmlns="http://www.w3.org/2000/svg" viewBox="0 0 66.55 47.28"><defs><style>.cls-1{fill:#40454d;}</style></defs><title>any-device_icon</title><g id="Layer_2" data-name="Layer 2"><g id="Layer_1-2" data-name="Layer 1"><path class="cls-1" d="M14.79,6.84A1.35,1.35,0,0,0,13.44,8.2V31.32a1.34,1.34,0,0,0,1.35,1.35h37a1.35,1.35,0,0,0,1.35-1.35V8.2a1.36,1.36,0,0,0-1.35-1.36ZM31.58,9.55v8.77H16.14V9.55ZM16.14,21H31.58V30H16.14ZM34.29,30V21H50.4V30ZM50.4,18.32H34.29V9.55H50.4Z"/><path class="cls-1" d="M62.9,35.62H60.3V4.09A4.1,4.1,0,0,0,56.21,0H48a1.81,1.81,0,0,0,0,3.61h8.22a.49.49,0,0,1,.48.48V35.62H9.87V4.09a.48.48,0,0,1,.48-.48h29.4a1.81,1.81,0,0,0,0-3.61H10.35A4.09,4.09,0,0,0,6.26,4.09V35.62H3.66A3.66,3.66,0,0,0,0,39.28v1.63a6.37,6.37,0,0,0,6.37,6.37h4.77a1.8,1.8,0,1,0,0-3.6H6.37a2.77,2.77,0,0,1-2.76-2.77V39.28a0,0,0,0,1,.05-.05H24.11v.57a1.36,1.36,0,0,0,1.35,1.35H41.09a1.35,1.35,0,0,0,1.35-1.35v-.57H62.9a.05.05,0,0,1,.05.05v1.63a2.77,2.77,0,0,1-2.77,2.77H21a1.8,1.8,0,1,0,0,3.6H60.18a6.37,6.37,0,0,0,6.37-6.37V39.28A3.66,3.66,0,0,0,62.9,35.62Z"/></g></g></svg>