<svg xmlns="http://www.w3.org/2000/svg" xmlns:xlink="http://www.w3.org/1999/xlink" viewBox="0 0 70.68 71.32"><defs><style>.cls-1{fill:#40454d;}.cls-2{clip-path:url(#clip-path);}.cls-3{clip-path:url(#clip-path-2);}.cls-4{clip-path:url(#clip-path-3);}.cls-5{clip-path:url(#clip-path-4);}.cls-6{clip-path:url(#clip-path-5);}.cls-7{clip-path:url(#clip-path-6);}.cls-8{clip-path:url(#clip-path-7);}.cls-9{clip-path:url(#clip-path-8);}</style><clipPath id="clip-path"><circle class="cls-1" cx="65.87" cy="45.77" r="2.41"/></clipPath><clipPath id="clip-path-2"><circle class="cls-1" cx="67.36" cy="18.08" r="2.41"/></clipPath><clipPath id="clip-path-3"><circle class="cls-1" cx="3.73" cy="27.49" r="2.41"/></clipPath><clipPath id="clip-path-4"><circle class="cls-1" cx="4.78" cy="53.72" r="2.41"/></clipPath><clipPath id="clip-path-5"><circle class="cls-1" cx="44.16" cy="4.8" r="2.41"/></clipPath><clipPath id="clip-path-6"><circle class="cls-1" cx="16.48" cy="3.31" r="2.41"/></clipPath><clipPath id="clip-path-7"><circle class="cls-1" cx="25.89" cy="67.59" r="2.41"/></clipPath><clipPath id="clip-path-8"><circle class="cls-1" cx="52.11" cy="66.54" r="2.41"/></clipPath></defs><title>brain-tech_icon</title><g id="Layer_2" data-name="Layer 2"><g id="Layer_1-2" data-name="Layer 1"><path class="cls-1" d="M69.87,35.83h-17v-3H58.4a.81.81,0,1,0,0-1.61H52.85v-3H58a.82.82,0,0,0,.57-.24l9.41-9.41a.8.8,0,1,0-1.14-1.13l-9.17,9.17H52.85V19a1.07,1.07,0,0,0-1.07-1.07H45V4.8a.81.81,0,0,0-1.61,0V17.91h-3v-5.5a.81.81,0,0,0-1.61,0v5.5h-3V.8a.81.81,0,0,0-1.61,0V17.91h-3V12.27a.81.81,0,0,0-1.61,0v5.64h-3V12.72a.79.79,0,0,0-.23-.56L17.05,2.75a.8.8,0,1,0-1.14,1.13l9.18,9.18v4.85H18.9A1.07,1.07,0,0,0,17.83,19v7.75a1.09,1.09,0,0,0-.25,0H3.73a.81.81,0,0,0,0,1.61H17.58a1.09,1.09,0,0,0,.25,0v3a.73.73,0,0,0-.25,0H11.34a.81.81,0,0,0,0,1.61h6.24a1.09,1.09,0,0,0,.25,0v3a.73.73,0,0,0-.25,0H4.32a.8.8,0,1,0,0,1.6H17.58a1.07,1.07,0,0,0,.25,0v3a.73.73,0,0,0-.25,0H.8A.8.8,0,0,0,.8,42H17.58a.73.73,0,0,0,.25,0v3a.73.73,0,0,0-.25,0H12.72a.79.79,0,0,0-.56.23L4.21,53.15a.81.81,0,0,0,.57,1.37.77.77,0,0,0,.56-.24l7.72-7.71h4.52a.73.73,0,0,0,.25,0v5.8A1.06,1.06,0,0,0,18.9,53.4h6.26a.8.8,0,0,0-.07.34V67.59a.8.8,0,1,0,1.6,0V53.74a1,1,0,0,0-.07-.34h3.11a.81.81,0,0,0-.08.34V60a.81.81,0,1,0,1.61,0V53.74a1,1,0,0,0-.07-.34H34.3a.81.81,0,0,0-.08.34V67a.81.81,0,1,0,1.61,0V53.74a.81.81,0,0,0-.08-.34h3.11a1,1,0,0,0-.07.34V70.51a.81.81,0,1,0,1.61,0V53.74a.81.81,0,0,0-.08-.34h3.11a1,1,0,0,0-.07.34v4.85a.79.79,0,0,0,.23.57l7.95,8a.82.82,0,0,0,1.14,0,.81.81,0,0,0,0-1.14L45,58.26V53.74a.81.81,0,0,0-.08-.34h6.89a1.06,1.06,0,0,0,1.07-1.07V46.57h13a.8.8,0,1,0,0-1.6h-13V42h5.41a.8.8,0,1,0,0-1.6H52.85v-3h17a.8.8,0,1,0,0-1.6ZM50.71,51.26H20V20.05H50.71Z"/><path class="cls-1" d="M26.88,43.08a1.63,1.63,0,0,0,0,.25,4.58,4.58,0,0,0,4.65,4.47,4.67,4.67,0,0,0,3.8-1.91l.26.3A4.82,4.82,0,0,0,39,47.8a4.59,4.59,0,0,0,4.65-4.5.76.76,0,0,0,0-.15,5.33,5.33,0,0,0,1.48-1,5,5,0,0,0,1.51-3.57,4.94,4.94,0,0,0-1.21-3.24,4.33,4.33,0,0,0,.62-2.25,4.56,4.56,0,0,0-3.57-4.39,3.68,3.68,0,0,0,.2-1.2,4,4,0,0,0-4.08-3.95,4.84,4.84,0,0,0-3,1.08l-.34.31a3.34,3.34,0,0,0-.33-.32,4.46,4.46,0,0,0-2.91-1.07A4,4,0,0,0,28,27.47a3.72,3.72,0,0,0,.19,1.2,4.57,4.57,0,0,0-3.56,4.39,4.46,4.46,0,0,0,.61,2.25A5,5,0,0,0,24,38.55,5.08,5.08,0,0,0,26.88,43.08Zm2.39-12.39a1.09,1.09,0,0,0,1.07-1,1.08,1.08,0,0,0,.05-1.24,1.67,1.67,0,0,1-.28-.94,1.88,1.88,0,0,1,1.94-1.81,2,2,0,0,1,2.1,1.75,1.36,1.36,0,0,0,0,.2,3.58,3.58,0,0,0,.75,2,1.07,1.07,0,0,0,1.71-1.3,1.36,1.36,0,0,1-.32-.84c0-.91,1.15-1.81,2.32-1.81a1.88,1.88,0,0,1,1.94,1.81,1.84,1.84,0,0,1-1.25,1.7,1.07,1.07,0,0,0,.36,2.08.92.92,0,0,0,.36-.07,4,4,0,0,0,1-.49h.41a2.46,2.46,0,0,1,2.53,2.37,2.25,2.25,0,0,1-.2.93l-.32-.14a1.07,1.07,0,1,0-.79,2,3,3,0,0,1,1.9,2.71,2.9,2.9,0,0,1-.87,2.05,3.14,3.14,0,0,1-2.24.89,1.32,1.32,0,0,1-1.1-.45.67.67,0,0,1-.14-.49,1.07,1.07,0,0,0-1.8-1.17,2.56,2.56,0,0,0,0,2.56,3.32,3.32,0,0,0,3,1.69h.12a2.46,2.46,0,0,1-2.48,2,3.16,3.16,0,0,1-2.76-2.91v0l-.12-3.59v-.06a5,5,0,0,1,.11-1.6c.4-1.6,1.59-2.8,2.77-2.8a1.07,1.07,0,0,0,0-2.14A4.23,4.23,0,0,0,37.1,33a4.59,4.59,0,0,0-2.47-2.27,1.07,1.07,0,0,0-.78,2,2.4,2.4,0,0,1,1.48,1.64l0,.11A6.63,6.63,0,0,0,34.19,37c0,.13,0,.25-.08.38a4.11,4.11,0,0,0-2.57-.89,1.07,1.07,0,0,0,0,2.14c1.5,0,2.51,1.54,2.51,3.81v.91a2.51,2.51,0,0,1-5,0,.19.19,0,0,0,0-.08s-.06-1.14.74-1.42a1.07,1.07,0,1,0-.69-2A3,3,0,0,0,27.51,41a2.9,2.9,0,0,1-1.36-2.43,2.81,2.81,0,0,1,.57-1.7,4.63,4.63,0,0,0,.77.39,1.06,1.06,0,0,0,1.39-.6,1.07,1.07,0,0,0-.6-1.39,2.36,2.36,0,0,1-1.54-2.19A2.45,2.45,0,0,1,29.27,30.69Z"/><circle class="cls-1" cx="65.87" cy="45.77" r="2.41"/><g class="cls-2"><path class="cls-1" d="M63.47,43.36v0Z"/><rect class="cls-1" x="63.47" y="43.36" width="0.09" height="4.82"/><rect class="cls-1" x="63.55" y="43.36" width="0.09" height="4.82"/><rect class="cls-1" x="63.64" y="43.36" width="0.09" height="4.82"/><rect class="cls-1" x="63.73" y="43.36" width="0.09" height="4.82"/><rect class="cls-1" x="63.82" y="43.36" width="0.09" height="4.82"/><rect class="cls-1" x="63.9" y="43.36" width="0.09" height="4.82"/><rect class="cls-1" x="63.99" y="43.36" width="0.09" height="4.82"/><rect class="cls-1" x="64.08" y="43.36" width="0.09" height="4.82"/><rect class="cls-1" x="64.17" y="43.36" width="0.09" height="4.82"/><rect class="cls-1" x="64.25" y="43.36" width="0.09" height="4.82"/><rect class="cls-1" x="64.34" y="43.36" width="0.09" height="4.82"/><rect class="cls-1" x="64.43" y="43.36" width="0.09" height="4.82"/><rect class="cls-1" x="64.52" y="43.36" width="0.09" height="4.82"/><rect class="cls-1" x="64.6" y="43.36" width="0.09" height="4.82"/><rect class="cls-1" x="64.69" y="43.36" width="0.09" height="4.82"/><rect class="cls-1" x="64.78" y="43.36" width="0.09" height="4.82"/><rect class="cls-1" x="64.87" y="43.36" width="0.09" height="4.82"/><rect class="cls-1" x="64.95" y="43.36" width="0.09" height="4.82"/><rect class="cls-1" x="65.04" y="43.36" width="0.09" height="4.82"/><rect class="cls-1" x="65.13" y="43.36" width="0.09" height="4.82"/><rect class="cls-1" x="65.22" y="43.36" width="0.09" height="4.82"/><rect class="cls-1" x="65.31" y="43.36" width="0.09" height="4.82"/><rect class="cls-1" x="65.39" y="43.36" width="0.09" height="4.82"/><rect class="cls-1" x="65.48" y="43.36" width="0.09" height="4.82"/><rect class="cls-1" x="65.57" y="43.36" width="0.09" height="4.82"/><rect class="cls-1" x="65.66" y="43.36" width="0.09" height="4.82"/><rect class="cls-1" x="65.74" y="43.36" width="0.09" height="4.82"/><rect class="cls-1" x="65.83" y="43.36" width="0.09" height="4.82"/><rect class="cls-1" x="65.92" y="43.36" width="0.09" height="4.82"/><rect class="cls-1" x="66.01" y="43.36" width="0.09" height="4.82"/><rect class="cls-1" x="66.09" y="43.36" width="0.09" height="4.82"/><rect class="cls-1" x="66.18" y="43.36" width="0.09" height="4.82"/><rect class="cls-1" x="66.27" y="43.36" width="0.09" height="4.82"/><rect class="cls-1" x="66.36" y="43.36" width="0.09" height="4.82"/><rect class="cls-1" x="66.44" y="43.36" width="0.09" height="4.82"/><rect class="cls-1" x="66.53" y="43.36" width="0.09" height="4.82"/><rect class="cls-1" x="66.62" y="43.36" width="0.09" height="4.82"/><rect class="cls-1" x="66.71" y="43.36" width="0.09" height="4.82"/><rect class="cls-1" x="66.79" y="43.36" width="0.09" height="4.82"/><rect class="cls-1" x="66.88" y="43.36" width="0.09" height="4.82"/><rect class="cls-1" x="66.97" y="43.36" width="0.09" height="4.82"/><rect class="cls-1" x="67.06" y="43.36" width="0.09" height="4.82"/><rect class="cls-1" x="67.15" y="43.36" width="0.09" height="4.82"/><rect class="cls-1" x="67.23" y="43.36" width="0.09" height="4.82"/><rect class="cls-1" x="67.32" y="43.36" width="0.09" height="4.82"/><rect class="cls-1" x="67.41" y="43.36" width="0.09" height="4.82"/><rect class="cls-1" x="67.5" y="43.36" width="0.09" height="4.82"/><rect class="cls-1" x="67.58" y="43.36" width="0.09" height="4.82"/><rect class="cls-1" x="67.67" y="43.36" width="0.09" height="4.82"/><rect class="cls-1" x="67.76" y="43.36" width="0.09" height="4.82"/><rect class="cls-1" x="67.85" y="43.36" width="0.09" height="4.82"/><rect class="cls-1" x="67.93" y="43.36" width="0.09" height="4.82"/><rect class="cls-1" x="68.02" y="43.36" width="0.09" height="4.82"/><rect class="cls-1" x="68.11" y="43.36" width="0.09" height="4.82"/><rect class="cls-1" x="68.2" y="43.36" width="0.09" height="4.82"/><path class="cls-1" d="M68.28,48.18v0Z"/></g><circle class="cls-1" cx="67.36" cy="18.08" r="2.41"/><g class="cls-3"><path class="cls-1" d="M65,15.67v0Z"/><rect class="cls-1" x="64.95" y="15.67" width="0.09" height="4.82"/><rect class="cls-1" x="65.04" y="15.67" width="0.09" height="4.82"/><rect class="cls-1" x="65.13" y="15.67" width="0.09" height="4.82"/><rect class="cls-1" x="65.22" y="15.67" width="0.09" height="4.82"/><rect class="cls-1" x="65.3" y="15.67" width="0.09" height="4.82"/><rect class="cls-1" x="65.39" y="15.67" width="0.09" height="4.82"/><rect class="cls-1" x="65.48" y="15.67" width="0.09" height="4.82"/><rect class="cls-1" x="65.57" y="15.67" width="0.09" height="4.82"/><rect class="cls-1" x="65.65" y="15.67" width="0.09" height="4.82"/><rect class="cls-1" x="65.74" y="15.67" width="0.09" height="4.82"/><rect class="cls-1" x="65.83" y="15.67" width="0.09" height="4.82"/><rect class="cls-1" x="65.92" y="15.67" width="0.09" height="4.82"/><rect class="cls-1" x="66" y="15.67" width="0.09" height="4.82"/><rect class="cls-1" x="66.09" y="15.67" width="0.09" height="4.82"/><rect class="cls-1" x="66.18" y="15.67" width="0.09" height="4.82"/><rect class="cls-1" x="66.27" y="15.67" width="0.09" height="4.82"/><rect class="cls-1" x="66.35" y="15.67" width="0.09" height="4.82"/><rect class="cls-1" x="66.44" y="15.67" width="0.09" height="4.82"/><rect class="cls-1" x="66.53" y="15.67" width="0.09" height="4.82"/><rect class="cls-1" x="66.62" y="15.67" width="0.09" height="4.82"/><rect class="cls-1" x="66.7" y="15.67" width="0.09" height="4.82"/><rect class="cls-1" x="66.79" y="15.67" width="0.09" height="4.82"/><rect class="cls-1" x="66.88" y="15.67" width="0.09" height="4.82"/><rect class="cls-1" x="66.97" y="15.67" width="0.09" height="4.82"/><rect class="cls-1" x="67.06" y="15.67" width="0.09" height="4.82"/><rect class="cls-1" x="67.14" y="15.67" width="0.09" height="4.82"/><rect class="cls-1" x="67.23" y="15.67" width="0.09" height="4.82"/><rect class="cls-1" x="67.32" y="15.67" width="0.09" height="4.82"/><rect class="cls-1" x="67.41" y="15.67" width="0.09" height="4.82"/><rect class="cls-1" x="67.49" y="15.67" width="0.09" height="4.82"/><rect class="cls-1" x="67.58" y="15.67" width="0.09" height="4.82"/><rect class="cls-1" x="67.67" y="15.67" width="0.09" height="4.82"/><rect class="cls-1" x="67.76" y="15.67" width="0.09" height="4.82"/><rect class="cls-1" x="67.84" y="15.67" width="0.09" height="4.82"/><rect class="cls-1" x="67.93" y="15.67" width="0.09" height="4.82"/><rect class="cls-1" x="68.02" y="15.67" width="0.09" height="4.82"/><rect class="cls-1" x="68.11" y="15.67" width="0.09" height="4.82"/><rect class="cls-1" x="68.19" y="15.67" width="0.09" height="4.82"/><rect class="cls-1" x="68.28" y="15.67" width="0.09" height="4.82"/><rect class="cls-1" x="68.37" y="15.67" width="0.09" height="4.82"/><rect class="cls-1" x="68.46" y="15.67" width="0.09" height="4.82"/><rect class="cls-1" x="68.54" y="15.67" width="0.09" height="4.82"/><rect class="cls-1" x="68.63" y="15.67" width="0.09" height="4.82"/><rect class="cls-1" x="68.72" y="15.67" width="0.09" height="4.82"/><rect class="cls-1" x="68.81" y="15.67" width="0.09" height="4.82"/><rect class="cls-1" x="68.9" y="15.67" width="0.09" height="4.82"/><rect class="cls-1" x="68.98" y="15.67" width="0.09" height="4.82"/><rect class="cls-1" x="69.07" y="15.67" width="0.09" height="4.82"/><rect class="cls-1" x="69.16" y="15.67" width="0.09" height="4.82"/><rect class="cls-1" x="69.25" y="15.67" width="0.09" height="4.82"/><rect class="cls-1" x="69.33" y="15.67" width="0.09" height="4.82"/><rect class="cls-1" x="69.42" y="15.67" width="0.09" height="4.82"/><rect class="cls-1" x="69.51" y="15.67" width="0.09" height="4.82"/><rect class="cls-1" x="69.6" y="15.67" width="0.09" height="4.82"/><rect class="cls-1" x="69.68" y="15.67" width="0.09" height="4.82"/><path class="cls-1" d="M69.77,20.49v0Z"/></g><circle class="cls-1" cx="3.73" cy="27.49" r="2.41"/><g class="cls-4"><path class="cls-1" d="M1.32,25.09v0Z"/><rect class="cls-1" x="1.32" y="25.09" width="0.09" height="4.82"/><rect class="cls-1" x="1.41" y="25.09" width="0.09" height="4.82"/><rect class="cls-1" x="1.5" y="25.09" width="0.09" height="4.82"/><rect class="cls-1" x="1.58" y="25.09" width="0.09" height="4.82"/><rect class="cls-1" x="1.67" y="25.09" width="0.09" height="4.82"/><rect class="cls-1" x="1.76" y="25.09" width="0.09" height="4.82"/><rect class="cls-1" x="1.85" y="25.09" width="0.09" height="4.82"/><rect class="cls-1" x="1.93" y="25.09" width="0.09" height="4.82"/><rect class="cls-1" x="2.02" y="25.09" width="0.09" height="4.82"/><rect class="cls-1" x="2.11" y="25.09" width="0.09" height="4.82"/><rect class="cls-1" x="2.2" y="25.09" width="0.09" height="4.82"/><rect class="cls-1" x="2.28" y="25.09" width="0.09" height="4.82"/><rect class="cls-1" x="2.37" y="25.09" width="0.09" height="4.82"/><rect class="cls-1" x="2.46" y="25.09" width="0.09" height="4.82"/><rect class="cls-1" x="2.55" y="25.09" width="0.09" height="4.82"/><rect class="cls-1" x="2.63" y="25.09" width="0.09" height="4.82"/><rect class="cls-1" x="2.72" y="25.09" width="0.09" height="4.82"/><rect class="cls-1" x="2.81" y="25.09" width="0.09" height="4.82"/><rect class="cls-1" x="2.9" y="25.09" width="0.09" height="4.82"/><rect class="cls-1" x="2.99" y="25.09" width="0.09" height="4.82"/><rect class="cls-1" x="3.07" y="25.09" width="0.09" height="4.82"/><rect class="cls-1" x="3.16" y="25.09" width="0.09" height="4.82"/><rect class="cls-1" x="3.25" y="25.09" width="0.09" height="4.82"/><rect class="cls-1" x="3.34" y="25.09" width="0.09" height="4.82"/><rect class="cls-1" x="3.42" y="25.09" width="0.09" height="4.82"/><rect class="cls-1" x="3.51" y="25.09" width="0.09" height="4.82"/><rect class="cls-1" x="3.6" y="25.09" width="0.09" height="4.82"/><rect class="cls-1" x="3.69" y="25.09" width="0.09" height="4.82"/><rect class="cls-1" x="3.77" y="25.09" width="0.09" height="4.82"/><rect class="cls-1" x="3.86" y="25.09" width="0.09" height="4.82"/><rect class="cls-1" x="3.95" y="25.09" width="0.09" height="4.82"/><rect class="cls-1" x="4.04" y="25.09" width="0.09" height="4.82"/><rect class="cls-1" x="4.12" y="25.09" width="0.09" height="4.82"/><rect class="cls-1" x="4.21" y="25.09" width="0.09" height="4.82"/><rect class="cls-1" x="4.3" y="25.09" width="0.09" height="4.82"/><rect class="cls-1" x="4.39" y="25.09" width="0.09" height="4.82"/><rect class="cls-1" x="4.47" y="25.09" width="0.09" height="4.82"/><rect class="cls-1" x="4.56" y="25.09" width="0.09" height="4.82"/><rect class="cls-1" x="4.65" y="25.09" width="0.09" height="4.82"/><rect class="cls-1" x="4.74" y="25.09" width="0.09" height="4.82"/><rect class="cls-1" x="4.82" y="25.09" width="0.09" height="4.82"/><rect class="cls-1" x="4.91" y="25.09" width="0.09" height="4.82"/><rect class="cls-1" x="5" y="25.09" width="0.09" height="4.82"/><rect class="cls-1" x="5.09" y="25.09" width="0.09" height="4.82"/><rect class="cls-1" x="5.18" y="25.09" width="0.09" height="4.82"/><rect class="cls-1" x="5.26" y="25.09" width="0.09" height="4.82"/><rect class="cls-1" x="5.35" y="25.09" width="0.09" height="4.82"/><rect class="cls-1" x="5.44" y="25.09" width="0.09" height="4.82"/><rect class="cls-1" x="5.53" y="25.09" width="0.09" height="4.82"/><rect class="cls-1" x="5.61" y="25.09" width="0.09" height="4.82"/><rect class="cls-1" x="5.7" y="25.09" width="0.09" height="4.82"/><rect class="cls-1" x="5.79" y="25.09" width="0.09" height="4.82"/><rect class="cls-1" x="5.88" y="25.09" width="0.09" height="4.82"/><rect class="cls-1" x="5.96" y="25.09" width="0.09" height="4.82"/><rect class="cls-1" x="6.05" y="25.09" width="0.09" height="4.82"/><path class="cls-1" d="M6.14,29.9v0Z"/></g><circle class="cls-1" cx="4.78" cy="53.72" r="2.41"/><g class="cls-5"><path class="cls-1" d="M2.37,51.31v0Z"/><rect class="cls-1" x="2.37" y="51.31" width="0.09" height="4.82"/><rect class="cls-1" x="2.46" y="51.31" width="0.09" height="4.82"/><rect class="cls-1" x="2.54" y="51.31" width="0.09" height="4.82"/><rect class="cls-1" x="2.63" y="51.31" width="0.09" height="4.82"/><rect class="cls-1" x="2.72" y="51.31" width="0.09" height="4.82"/><rect class="cls-1" x="2.81" y="51.31" width="0.09" height="4.82"/><rect class="cls-1" x="2.89" y="51.31" width="0.09" height="4.82"/><rect class="cls-1" x="2.98" y="51.31" width="0.09" height="4.82"/><rect class="cls-1" x="3.07" y="51.31" width="0.09" height="4.82"/><rect class="cls-1" x="3.16" y="51.31" width="0.09" height="4.82"/><rect class="cls-1" x="3.24" y="51.31" width="0.09" height="4.82"/><rect class="cls-1" x="3.33" y="51.31" width="0.09" height="4.82"/><rect class="cls-1" x="3.42" y="51.31" width="0.09" height="4.82"/><rect class="cls-1" x="3.51" y="51.31" width="0.09" height="4.82"/><rect class="cls-1" x="3.59" y="51.31" width="0.09" height="4.82"/><rect class="cls-1" x="3.68" y="51.31" width="0.09" height="4.82"/><rect class="cls-1" x="3.77" y="51.31" width="0.09" height="4.82"/><rect class="cls-1" x="3.86" y="51.31" width="0.09" height="4.82"/><rect class="cls-1" x="3.94" y="51.31" width="0.09" height="4.82"/><rect class="cls-1" x="4.03" y="51.31" width="0.09" height="4.82"/><rect class="cls-1" x="4.12" y="51.31" width="0.09" height="4.82"/><rect class="cls-1" x="4.21" y="51.31" width="0.09" height="4.82"/><rect class="cls-1" x="4.29" y="51.31" width="0.09" height="4.82"/><rect class="cls-1" x="4.38" y="51.31" width="0.09" height="4.82"/><rect class="cls-1" x="4.47" y="51.31" width="0.09" height="4.82"/><rect class="cls-1" x="4.56" y="51.31" width="0.09" height="4.82"/><rect class="cls-1" x="4.65" y="51.31" width="0.09" height="4.82"/><rect class="cls-1" x="4.73" y="51.31" width="0.09" height="4.82"/><rect class="cls-1" x="4.82" y="51.31" width="0.09" height="4.82"/><rect class="cls-1" x="4.91" y="51.31" width="0.09" height="4.82"/><rect class="cls-1" x="5" y="51.31" width="0.09" height="4.82"/><rect class="cls-1" x="5.08" y="51.31" width="0.09" height="4.82"/><rect class="cls-1" x="5.17" y="51.31" width="0.09" height="4.82"/><rect class="cls-1" x="5.26" y="51.31" width="0.09" height="4.82"/><rect class="cls-1" x="5.35" y="51.31" width="0.09" height="4.82"/><rect class="cls-1" x="5.43" y="51.31" width="0.09" height="4.82"/><rect class="cls-1" x="5.52" y="51.31" width="0.09" height="4.82"/><rect class="cls-1" x="5.61" y="51.31" width="0.09" height="4.82"/><rect class="cls-1" x="5.7" y="51.31" width="0.09" height="4.82"/><rect class="cls-1" x="5.78" y="51.31" width="0.09" height="4.82"/><rect class="cls-1" x="5.87" y="51.31" width="0.09" height="4.82"/><rect class="cls-1" x="5.96" y="51.31" width="0.09" height="4.82"/><rect class="cls-1" x="6.05" y="51.31" width="0.09" height="4.82"/><rect class="cls-1" x="6.13" y="51.31" width="0.09" height="4.82"/><rect class="cls-1" x="6.22" y="51.31" width="0.09" height="4.82"/><rect class="cls-1" x="6.31" y="51.31" width="0.09" height="4.82"/><rect class="cls-1" x="6.4" y="51.31" width="0.09" height="4.82"/><rect class="cls-1" x="6.49" y="51.31" width="0.09" height="4.82"/><rect class="cls-1" x="6.57" y="51.31" width="0.09" height="4.82"/><rect class="cls-1" x="6.66" y="51.31" width="0.09" height="4.82"/><rect class="cls-1" x="6.75" y="51.31" width="0.09" height="4.82"/><rect class="cls-1" x="6.84" y="51.31" width="0.09" height="4.82"/><rect class="cls-1" x="6.92" y="51.31" width="0.09" height="4.82"/><rect class="cls-1" x="7.01" y="51.31" width="0.09" height="4.82"/><rect class="cls-1" x="7.1" y="51.31" width="0.09" height="4.82"/><path class="cls-1" d="M7.19,56.13v0Z"/></g><circle class="cls-1" cx="44.16" cy="4.8" r="2.41"/><g class="cls-6"><path class="cls-1" d="M41.75,2.39v0Z"/><rect class="cls-1" x="41.75" y="2.39" width="0.09" height="4.82"/><rect class="cls-1" x="41.84" y="2.39" width="0.09" height="4.82"/><rect class="cls-1" x="41.93" y="2.39" width="0.09" height="4.82"/><rect class="cls-1" x="42.02" y="2.39" width="0.09" height="4.82"/><rect class="cls-1" x="42.1" y="2.39" width="0.09" height="4.82"/><rect class="cls-1" x="42.19" y="2.39" width="0.09" height="4.82"/><rect class="cls-1" x="42.28" y="2.39" width="0.09" height="4.82"/><rect class="cls-1" x="42.37" y="2.39" width="0.09" height="4.82"/><rect class="cls-1" x="42.45" y="2.39" width="0.09" height="4.82"/><rect class="cls-1" x="42.54" y="2.39" width="0.09" height="4.82"/><rect class="cls-1" x="42.63" y="2.39" width="0.09" height="4.82"/><rect class="cls-1" x="42.72" y="2.39" width="0.09" height="4.82"/><rect class="cls-1" x="42.8" y="2.39" width="0.09" height="4.82"/><rect class="cls-1" x="42.89" y="2.39" width="0.09" height="4.82"/><rect class="cls-1" x="42.98" y="2.39" width="0.09" height="4.82"/><rect class="cls-1" x="43.07" y="2.39" width="0.09" height="4.82"/><rect class="cls-1" x="43.15" y="2.39" width="0.09" height="4.82"/><rect class="cls-1" x="43.24" y="2.39" width="0.09" height="4.82"/><rect class="cls-1" x="43.33" y="2.39" width="0.09" height="4.82"/><rect class="cls-1" x="43.42" y="2.39" width="0.09" height="4.82"/><rect class="cls-1" x="43.51" y="2.39" width="0.09" height="4.82"/><rect class="cls-1" x="43.59" y="2.39" width="0.09" height="4.82"/><rect class="cls-1" x="43.68" y="2.39" width="0.09" height="4.82"/><rect class="cls-1" x="43.77" y="2.39" width="0.09" height="4.82"/><rect class="cls-1" x="43.86" y="2.39" width="0.09" height="4.82"/><rect class="cls-1" x="43.94" y="2.39" width="0.09" height="4.82"/><rect class="cls-1" x="44.03" y="2.39" width="0.09" height="4.82"/><rect class="cls-1" x="44.12" y="2.39" width="0.09" height="4.82"/><rect class="cls-1" x="44.21" y="2.39" width="0.09" height="4.82"/><rect class="cls-1" x="44.29" y="2.39" width="0.09" height="4.82"/><rect class="cls-1" x="44.38" y="2.39" width="0.09" height="4.82"/><rect class="cls-1" x="44.47" y="2.39" width="0.09" height="4.82"/><rect class="cls-1" x="44.56" y="2.39" width="0.09" height="4.82"/><rect class="cls-1" x="44.64" y="2.39" width="0.09" height="4.82"/><rect class="cls-1" x="44.73" y="2.39" width="0.09" height="4.82"/><rect class="cls-1" x="44.82" y="2.39" width="0.09" height="4.82"/><rect class="cls-1" x="44.91" y="2.39" width="0.09" height="4.82"/><rect class="cls-1" x="44.99" y="2.39" width="0.09" height="4.82"/><rect class="cls-1" x="45.08" y="2.39" width="0.09" height="4.82"/><rect class="cls-1" x="45.17" y="2.39" width="0.09" height="4.82"/><rect class="cls-1" x="45.26" y="2.39" width="0.09" height="4.82"/><rect class="cls-1" x="45.35" y="2.39" width="0.09" height="4.82"/><rect class="cls-1" x="45.43" y="2.39" width="0.09" height="4.82"/><rect class="cls-1" x="45.52" y="2.39" width="0.09" height="4.82"/><rect class="cls-1" x="45.61" y="2.39" width="0.09" height="4.82"/><rect class="cls-1" x="45.7" y="2.39" width="0.09" height="4.82"/><rect class="cls-1" x="45.78" y="2.39" width="0.09" height="4.82"/><rect class="cls-1" x="45.87" y="2.39" width="0.09" height="4.82"/><rect class="cls-1" x="45.96" y="2.39" width="0.09" height="4.82"/><rect class="cls-1" x="46.05" y="2.39" width="0.09" height="4.82"/><rect class="cls-1" x="46.13" y="2.39" width="0.09" height="4.82"/><rect class="cls-1" x="46.22" y="2.39" width="0.09" height="4.82"/><rect class="cls-1" x="46.31" y="2.39" width="0.09" height="4.82"/><rect class="cls-1" x="46.4" y="2.39" width="0.09" height="4.82"/><rect class="cls-1" x="46.48" y="2.39" width="0.09" height="4.82"/><path class="cls-1" d="M46.57,7.21v0Z"/></g><circle class="cls-1" cx="16.48" cy="3.31" r="2.41"/><g class="cls-7"><path class="cls-1" d="M14.07.9v0Z"/><rect class="cls-1" x="14.07" y="0.9" width="0.09" height="4.82"/><rect class="cls-1" x="14.16" y="0.9" width="0.09" height="4.82"/><rect class="cls-1" x="14.24" y="0.9" width="0.09" height="4.82"/><rect class="cls-1" x="14.33" y="0.9" width="0.09" height="4.82"/><rect class="cls-1" x="14.42" y="0.9" width="0.09" height="4.82"/><rect class="cls-1" x="14.51" y="0.9" width="0.09" height="4.82"/><rect class="cls-1" x="14.59" y="0.9" width="0.09" height="4.82"/><rect class="cls-1" x="14.68" y="0.9" width="0.09" height="4.82"/><rect class="cls-1" x="14.77" y="0.9" width="0.09" height="4.82"/><rect class="cls-1" x="14.86" y="0.9" width="0.09" height="4.82"/><rect class="cls-1" x="14.94" y="0.9" width="0.09" height="4.82"/><rect class="cls-1" x="15.03" y="0.9" width="0.09" height="4.82"/><rect class="cls-1" x="15.12" y="0.9" width="0.09" height="4.82"/><rect class="cls-1" x="15.21" y="0.9" width="0.09" height="4.82"/><rect class="cls-1" x="15.29" y="0.9" width="0.09" height="4.82"/><rect class="cls-1" x="15.38" y="0.9" width="0.09" height="4.82"/><rect class="cls-1" x="15.47" y="0.9" width="0.09" height="4.82"/><rect class="cls-1" x="15.56" y="0.9" width="0.09" height="4.82"/><rect class="cls-1" x="15.65" y="0.9" width="0.09" height="4.82"/><rect class="cls-1" x="15.73" y="0.9" width="0.09" height="4.82"/><rect class="cls-1" x="15.82" y="0.9" width="0.09" height="4.82"/><rect class="cls-1" x="15.91" y="0.9" width="0.09" height="4.82"/><rect class="cls-1" x="16" y="0.9" width="0.09" height="4.82"/><rect class="cls-1" x="16.08" y="0.9" width="0.09" height="4.82"/><rect class="cls-1" x="16.17" y="0.9" width="0.09" height="4.82"/><rect class="cls-1" x="16.26" y="0.9" width="0.09" height="4.82"/><rect class="cls-1" x="16.35" y="0.9" width="0.09" height="4.82"/><rect class="cls-1" x="16.43" y="0.9" width="0.09" height="4.82"/><rect class="cls-1" x="16.52" y="0.9" width="0.09" height="4.82"/><rect class="cls-1" x="16.61" y="0.9" width="0.09" height="4.82"/><rect class="cls-1" x="16.7" y="0.9" width="0.09" height="4.82"/><rect class="cls-1" x="16.78" y="0.9" width="0.09" height="4.82"/><rect class="cls-1" x="16.87" y="0.9" width="0.09" height="4.82"/><rect class="cls-1" x="16.96" y="0.9" width="0.09" height="4.82"/><rect class="cls-1" x="17.05" y="0.9" width="0.09" height="4.82"/><rect class="cls-1" x="17.13" y="0.9" width="0.09" height="4.82"/><rect class="cls-1" x="17.22" y="0.9" width="0.09" height="4.82"/><rect class="cls-1" x="17.31" y="0.9" width="0.09" height="4.82"/><rect class="cls-1" x="17.4" y="0.9" width="0.09" height="4.82"/><rect class="cls-1" x="17.49" y="0.9" width="0.09" height="4.82"/><rect class="cls-1" x="17.57" y="0.9" width="0.09" height="4.82"/><rect class="cls-1" x="17.66" y="0.9" width="0.09" height="4.82"/><rect class="cls-1" x="17.75" y="0.9" width="0.09" height="4.82"/><rect class="cls-1" x="17.84" y="0.9" width="0.09" height="4.82"/><rect class="cls-1" x="17.92" y="0.9" width="0.09" height="4.82"/><rect class="cls-1" x="18.01" y="0.9" width="0.09" height="4.82"/><rect class="cls-1" x="18.1" y="0.9" width="0.09" height="4.82"/><rect class="cls-1" x="18.19" y="0.9" width="0.09" height="4.82"/><rect class="cls-1" x="18.27" y="0.9" width="0.09" height="4.82"/><rect class="cls-1" x="18.36" y="0.9" width="0.09" height="4.82"/><rect class="cls-1" x="18.45" y="0.9" width="0.09" height="4.82"/><rect class="cls-1" x="18.54" y="0.9" width="0.09" height="4.82"/><rect class="cls-1" x="18.62" y="0.9" width="0.09" height="4.82"/><rect class="cls-1" x="18.71" y="0.9" width="0.09" height="4.82"/><rect class="cls-1" x="18.8" y="0.9" width="0.09" height="4.82"/><path class="cls-1" d="M18.89,5.72v0Z"/></g><circle class="cls-1" cx="25.89" cy="67.59" r="2.41"/><g class="cls-8"><path class="cls-1" d="M23.48,65.18v0Z"/><rect class="cls-1" x="23.48" y="65.18" width="0.09" height="4.82"/><rect class="cls-1" x="23.57" y="65.18" width="0.09" height="4.82"/><rect class="cls-1" x="23.65" y="65.18" width="0.09" height="4.82"/><rect class="cls-1" x="23.74" y="65.18" width="0.09" height="4.82"/><rect class="cls-1" x="23.83" y="65.18" width="0.09" height="4.82"/><rect class="cls-1" x="23.92" y="65.18" width="0.09" height="4.82"/><rect class="cls-1" x="24" y="65.18" width="0.09" height="4.82"/><rect class="cls-1" x="24.09" y="65.18" width="0.09" height="4.82"/><rect class="cls-1" x="24.18" y="65.18" width="0.09" height="4.82"/><rect class="cls-1" x="24.27" y="65.18" width="0.09" height="4.82"/><rect class="cls-1" x="24.36" y="65.18" width="0.09" height="4.82"/><rect class="cls-1" x="24.44" y="65.18" width="0.09" height="4.82"/><rect class="cls-1" x="24.53" y="65.18" width="0.09" height="4.82"/><rect class="cls-1" x="24.62" y="65.18" width="0.09" height="4.82"/><rect class="cls-1" x="24.71" y="65.18" width="0.09" height="4.82"/><rect class="cls-1" x="24.79" y="65.18" width="0.09" height="4.82"/><rect class="cls-1" x="24.88" y="65.18" width="0.09" height="4.82"/><rect class="cls-1" x="24.97" y="65.18" width="0.09" height="4.82"/><rect class="cls-1" x="25.06" y="65.18" width="0.09" height="4.82"/><rect class="cls-1" x="25.14" y="65.18" width="0.09" height="4.82"/><rect class="cls-1" x="25.23" y="65.18" width="0.09" height="4.82"/><rect class="cls-1" x="25.32" y="65.18" width="0.09" height="4.82"/><rect class="cls-1" x="25.41" y="65.18" width="0.09" height="4.82"/><rect class="cls-1" x="25.49" y="65.18" width="0.09" height="4.82"/><rect class="cls-1" x="25.58" y="65.18" width="0.09" height="4.82"/><rect class="cls-1" x="25.67" y="65.18" width="0.09" height="4.82"/><rect class="cls-1" x="25.76" y="65.18" width="0.09" height="4.82"/><rect class="cls-1" x="25.84" y="65.18" width="0.09" height="4.82"/><rect class="cls-1" x="25.93" y="65.18" width="0.09" height="4.82"/><rect class="cls-1" x="26.02" y="65.18" width="0.09" height="4.82"/><rect class="cls-1" x="26.11" y="65.18" width="0.09" height="4.82"/><rect class="cls-1" x="26.19" y="65.18" width="0.09" height="4.82"/><rect class="cls-1" x="26.28" y="65.18" width="0.09" height="4.82"/><rect class="cls-1" x="26.37" y="65.18" width="0.09" height="4.82"/><rect class="cls-1" x="26.46" y="65.18" width="0.09" height="4.82"/><rect class="cls-1" x="26.55" y="65.18" width="0.09" height="4.82"/><rect class="cls-1" x="26.63" y="65.18" width="0.09" height="4.82"/><rect class="cls-1" x="26.72" y="65.18" width="0.09" height="4.82"/><rect class="cls-1" x="26.81" y="65.18" width="0.09" height="4.82"/><rect class="cls-1" x="26.9" y="65.18" width="0.09" height="4.82"/><rect class="cls-1" x="26.98" y="65.18" width="0.09" height="4.82"/><rect class="cls-1" x="27.07" y="65.18" width="0.09" height="4.82"/><rect class="cls-1" x="27.16" y="65.18" width="0.09" height="4.82"/><rect class="cls-1" x="27.25" y="65.18" width="0.09" height="4.82"/><rect class="cls-1" x="27.33" y="65.18" width="0.09" height="4.82"/><rect class="cls-1" x="27.42" y="65.18" width="0.09" height="4.82"/><rect class="cls-1" x="27.51" y="65.18" width="0.09" height="4.82"/><rect class="cls-1" x="27.6" y="65.18" width="0.09" height="4.82"/><rect class="cls-1" x="27.68" y="65.18" width="0.09" height="4.82"/><rect class="cls-1" x="27.77" y="65.18" width="0.09" height="4.82"/><rect class="cls-1" x="27.86" y="65.18" width="0.09" height="4.82"/><rect class="cls-1" x="27.95" y="65.18" width="0.09" height="4.82"/><rect class="cls-1" x="28.03" y="65.18" width="0.09" height="4.82"/><rect class="cls-1" x="28.12" y="65.18" width="0.09" height="4.82"/><rect class="cls-1" x="28.21" y="65.18" width="0.09" height="4.82"/><path class="cls-1" d="M28.3,70v0Z"/></g><circle class="cls-1" cx="52.11" cy="66.54" r="2.41"/><g class="cls-9"><path class="cls-1" d="M49.7,64.13v0Z"/><rect class="cls-1" x="49.7" y="64.13" width="0.09" height="4.82"/><rect class="cls-1" x="49.79" y="64.13" width="0.09" height="4.82"/><rect class="cls-1" x="49.88" y="64.13" width="0.09" height="4.82"/><rect class="cls-1" x="49.96" y="64.13" width="0.09" height="4.82"/><rect class="cls-1" x="50.05" y="64.13" width="0.09" height="4.82"/><rect class="cls-1" x="50.14" y="64.13" width="0.09" height="4.82"/><rect class="cls-1" x="50.23" y="64.13" width="0.09" height="4.82"/><rect class="cls-1" x="50.31" y="64.13" width="0.09" height="4.82"/><rect class="cls-1" x="50.4" y="64.13" width="0.09" height="4.82"/><rect class="cls-1" x="50.49" y="64.13" width="0.09" height="4.82"/><rect class="cls-1" x="50.58" y="64.13" width="0.09" height="4.82"/><rect class="cls-1" x="50.66" y="64.13" width="0.09" height="4.82"/><rect class="cls-1" x="50.75" y="64.13" width="0.09" height="4.82"/><rect class="cls-1" x="50.84" y="64.13" width="0.09" height="4.82"/><rect class="cls-1" x="50.93" y="64.13" width="0.09" height="4.82"/><rect class="cls-1" x="51.01" y="64.13" width="0.09" height="4.82"/><rect class="cls-1" x="51.1" y="64.13" width="0.09" height="4.82"/><rect class="cls-1" x="51.19" y="64.13" width="0.09" height="4.82"/><rect class="cls-1" x="51.28" y="64.13" width="0.09" height="4.82"/><rect class="cls-1" x="51.37" y="64.13" width="0.09" height="4.82"/><rect class="cls-1" x="51.45" y="64.13" width="0.09" height="4.82"/><rect class="cls-1" x="51.54" y="64.13" width="0.09" height="4.82"/><rect class="cls-1" x="51.63" y="64.13" width="0.09" height="4.82"/><rect class="cls-1" x="51.72" y="64.13" width="0.09" height="4.82"/><rect class="cls-1" x="51.8" y="64.13" width="0.09" height="4.82"/><rect class="cls-1" x="51.89" y="64.13" width="0.09" height="4.82"/><rect class="cls-1" x="51.98" y="64.13" width="0.09" height="4.82"/><rect class="cls-1" x="52.07" y="64.13" width="0.09" height="4.82"/><rect class="cls-1" x="52.15" y="64.13" width="0.09" height="4.82"/><rect class="cls-1" x="52.24" y="64.13" width="0.09" height="4.82"/><rect class="cls-1" x="52.33" y="64.13" width="0.09" height="4.82"/><rect class="cls-1" x="52.42" y="64.13" width="0.09" height="4.82"/><rect class="cls-1" x="52.5" y="64.13" width="0.09" height="4.82"/><rect class="cls-1" x="52.59" y="64.13" width="0.09" height="4.82"/><rect class="cls-1" x="52.68" y="64.13" width="0.09" height="4.82"/><rect class="cls-1" x="52.77" y="64.13" width="0.09" height="4.82"/><rect class="cls-1" x="52.85" y="64.13" width="0.09" height="4.82"/><rect class="cls-1" x="52.94" y="64.13" width="0.09" height="4.82"/><rect class="cls-1" x="53.03" y="64.13" width="0.09" height="4.82"/><rect class="cls-1" x="53.12" y="64.13" width="0.09" height="4.82"/><rect class="cls-1" x="53.2" y="64.13" width="0.09" height="4.82"/><rect class="cls-1" x="53.29" y="64.13" width="0.09" height="4.82"/><rect class="cls-1" x="53.38" y="64.13" width="0.09" height="4.82"/><rect class="cls-1" x="53.47" y="64.13" width="0.09" height="4.82"/><rect class="cls-1" x="53.56" y="64.13" width="0.09" height="4.82"/><rect class="cls-1" x="53.64" y="64.13" width="0.09" height="4.82"/><rect class="cls-1" x="53.73" y="64.13" width="0.09" height="4.82"/><rect class="cls-1" x="53.82" y="64.13" width="0.09" height="4.82"/><rect class="cls-1" x="53.91" y="64.13" width="0.09" height="4.82"/><rect class="cls-1" x="53.99" y="64.13" width="0.09" height="4.82"/><rect class="cls-1" x="54.08" y="64.13" width="0.09" height="4.82"/><rect class="cls-1" x="54.17" y="64.13" width="0.09" height="4.82"/><rect class="cls-1" x="54.26" y="64.13" width="0.09" height="4.82"/><rect class="cls-1" x="54.34" y="64.13" width="0.09" height="4.82"/><rect class="cls-1" x="54.43" y="64.13" width="0.09" height="4.82"/><path class="cls-1" d="M54.52,69v0Z"/></g></g></g></svg>