<svg xmlns="http://www.w3.org/2000/svg" xmlns:xlink="http://www.w3.org/1999/xlink" viewBox="0 0 284.27 211.5"><defs><style>.cls-1{isolation:isolate;}.cls-2{fill:url(#linear-gradient);}.cls-3{fill:url(#linear-gradient-2);}.cls-4{fill:url(#linear-gradient-3);}.cls-107,.cls-200,.cls-208,.cls-5,.cls-51{mix-blend-mode:multiply;}.cls-5{fill:url(#linear-gradient-4);}.cls-6{fill:url(#linear-gradient-5);}.cls-7{fill:url(#linear-gradient-6);}.cls-8{fill:url(#linear-gradient-7);}.cls-9{fill:url(#linear-gradient-8);}.cls-10{fill:url(#linear-gradient-9);}.cls-11{fill:url(#linear-gradient-10);}.cls-12{fill:url(#linear-gradient-11);}.cls-13{fill:url(#linear-gradient-12);}.cls-14{fill:url(#linear-gradient-13);}.cls-15{fill:url(#linear-gradient-14);}.cls-16{fill:url(#linear-gradient-15);}.cls-17{fill:url(#linear-gradient-16);}.cls-18{fill:url(#linear-gradient-17);}.cls-19{fill:url(#linear-gradient-18);}.cls-20{fill:url(#radial-gradient);}.cls-21{fill:url(#radial-gradient-2);}.cls-22{fill:url(#linear-gradient-19);}.cls-23{fill:url(#linear-gradient-20);}.cls-24{fill:url(#linear-gradient-21);}.cls-25{fill:url(#linear-gradient-22);}.cls-26{fill:url(#linear-gradient-23);}.cls-27{fill:url(#linear-gradient-24);}.cls-28{fill:url(#linear-gradient-25);}.cls-29{fill:url(#linear-gradient-26);}.cls-30{fill:url(#linear-gradient-27);}.cls-31{fill:url(#linear-gradient-28);}.cls-32{fill:url(#linear-gradient-29);}.cls-33{fill:url(#radial-gradient-3);}.cls-34{fill:url(#radial-gradient-4);}.cls-35{fill:url(#linear-gradient-30);}.cls-36{fill:url(#linear-gradient-31);}.cls-37{fill:url(#linear-gradient-32);}.cls-38{fill:url(#linear-gradient-33);}.cls-39{fill:url(#linear-gradient-34);}.cls-40{fill:url(#linear-gradient-35);}.cls-41{fill:url(#linear-gradient-36);}.cls-42{fill:url(#linear-gradient-37);}.cls-43{fill:url(#linear-gradient-38);}.cls-44{fill:url(#linear-gradient-39);}.cls-45{fill:url(#linear-gradient-40);}.cls-46{fill:url(#linear-gradient-41);}.cls-47{fill:url(#linear-gradient-42);}.cls-48{fill:url(#linear-gradient-43);}.cls-49{fill:url(#linear-gradient-44);}.cls-50{fill:url(#linear-gradient-45);}.cls-51{opacity:0.4;}.cls-52{fill:url(#linear-gradient-46);}.cls-53{fill:url(#linear-gradient-47);}.cls-54{fill:url(#linear-gradient-48);}.cls-55{fill:url(#linear-gradient-49);}.cls-56{fill:url(#linear-gradient-50);}.cls-57{fill:url(#linear-gradient-51);}.cls-58{fill:url(#linear-gradient-52);}.cls-59{fill:url(#linear-gradient-53);}.cls-60{fill:url(#linear-gradient-54);}.cls-61{fill:url(#linear-gradient-55);}.cls-62{fill:url(#linear-gradient-56);}.cls-63{fill:url(#linear-gradient-57);}.cls-64{fill:url(#linear-gradient-58);}.cls-65{fill:url(#linear-gradient-59);}.cls-66{fill:url(#linear-gradient-60);}.cls-67{fill:url(#linear-gradient-61);}.cls-68{fill:url(#linear-gradient-62);}.cls-69{fill:url(#linear-gradient-63);}.cls-70{fill:url(#linear-gradient-64);}.cls-71{fill:url(#linear-gradient-65);}.cls-72{fill:url(#linear-gradient-66);}.cls-73{fill:url(#linear-gradient-67);}.cls-74{fill:url(#linear-gradient-68);}.cls-75{fill:url(#linear-gradient-69);}.cls-76{fill:url(#linear-gradient-70);}.cls-77{fill:url(#linear-gradient-71);}.cls-78{fill:url(#linear-gradient-72);}.cls-79{fill:url(#linear-gradient-73);}.cls-80{fill:url(#linear-gradient-74);}.cls-81{fill:url(#linear-gradient-75);}.cls-82{fill:url(#linear-gradient-76);}.cls-83{fill:url(#linear-gradient-77);}.cls-84{fill:url(#linear-gradient-78);}.cls-85{fill:url(#linear-gradient-79);}.cls-86{fill:url(#linear-gradient-80);}.cls-87{fill:url(#linear-gradient-81);}.cls-88{fill:url(#linear-gradient-82);}.cls-89{fill:url(#linear-gradient-83);}.cls-90{fill:url(#linear-gradient-84);}.cls-91{fill:url(#linear-gradient-85);}.cls-92{fill:url(#linear-gradient-86);}.cls-93{fill:url(#linear-gradient-87);}.cls-94{fill:url(#linear-gradient-88);}.cls-95{fill:url(#linear-gradient-89);}.cls-96{fill:url(#linear-gradient-90);}.cls-97{fill:url(#linear-gradient-91);}.cls-98{fill:url(#linear-gradient-92);}.cls-99{fill:url(#linear-gradient-93);}.cls-100{fill:url(#linear-gradient-94);}.cls-101{fill:url(#linear-gradient-95);}.cls-102{fill:url(#linear-gradient-96);}.cls-103{fill:url(#linear-gradient-97);}.cls-104{fill:url(#linear-gradient-98);}.cls-105{fill:url(#linear-gradient-99);}.cls-106{fill:url(#linear-gradient-100);}.cls-108{fill:url(#linear-gradient-101);}.cls-109{fill:url(#linear-gradient-102);}.cls-110{fill:url(#linear-gradient-103);}.cls-111{fill:url(#linear-gradient-104);}.cls-112{fill:url(#linear-gradient-105);}.cls-113{fill:url(#linear-gradient-106);}.cls-114{fill:url(#linear-gradient-107);}.cls-115{fill:url(#linear-gradient-108);}.cls-116{fill:url(#linear-gradient-110);}.cls-117{fill:url(#linear-gradient-112);}.cls-118{fill:url(#linear-gradient-113);}.cls-119{fill:url(#linear-gradient-114);}.cls-120{fill:url(#linear-gradient-115);}.cls-121{fill:url(#linear-gradient-118);}.cls-122{fill:url(#linear-gradient-122);}.cls-123{fill:url(#linear-gradient-123);}.cls-124{fill:url(#linear-gradient-124);}.cls-125{fill:url(#linear-gradient-125);}.cls-126{fill:url(#linear-gradient-126);}.cls-127{fill:url(#linear-gradient-127);}.cls-128{fill:url(#linear-gradient-128);}.cls-129{fill:url(#linear-gradient-129);}.cls-130{fill:url(#linear-gradient-130);}.cls-131,.cls-144{opacity:0.1;}.cls-131{fill:url(#linear-gradient-131);}.cls-132{fill:url(#linear-gradient-132);}.cls-133{fill:url(#linear-gradient-133);}.cls-134{fill:url(#linear-gradient-134);}.cls-135{fill:url(#linear-gradient-135);}.cls-136{fill:url(#linear-gradient-136);}.cls-137{fill:url(#linear-gradient-137);}.cls-138{fill:url(#linear-gradient-138);}.cls-139{fill:url(#linear-gradient-139);}.cls-140{fill:url(#linear-gradient-140);}.cls-141{fill:url(#linear-gradient-141);}.cls-142{fill:url(#linear-gradient-142);}.cls-143{fill:url(#linear-gradient-143);}.cls-144{fill:url(#linear-gradient-144);}.cls-145{fill:url(#linear-gradient-145);}.cls-146{fill:url(#linear-gradient-146);}.cls-147{fill:url(#linear-gradient-147);}.cls-148{fill:url(#linear-gradient-148);}.cls-149{fill:url(#linear-gradient-149);}.cls-150{fill:url(#linear-gradient-150);}.cls-151{fill:url(#linear-gradient-151);}.cls-152{fill:url(#linear-gradient-152);}.cls-153{fill:url(#linear-gradient-153);}.cls-154{fill:url(#linear-gradient-154);}.cls-155{fill:url(#linear-gradient-155);}.cls-156{fill:url(#linear-gradient-156);}.cls-157{fill:url(#linear-gradient-157);}.cls-158{fill:url(#linear-gradient-158);}.cls-159{fill:url(#linear-gradient-160);}.cls-160{fill:url(#linear-gradient-162);}.cls-161{fill:url(#linear-gradient-163);}.cls-162{fill:url(#linear-gradient-164);}.cls-163{fill:url(#linear-gradient-165);}.cls-164{fill:url(#linear-gradient-168);}.cls-165{fill:url(#linear-gradient-172);}.cls-166{fill:url(#linear-gradient-173);}.cls-167{fill:url(#linear-gradient-174);}.cls-168{fill:url(#linear-gradient-175);}.cls-169{fill:url(#linear-gradient-176);}.cls-170{fill:url(#linear-gradient-177);}.cls-171{fill:url(#linear-gradient-178);}.cls-172{fill:url(#linear-gradient-179);}.cls-173{fill:url(#linear-gradient-180);}.cls-174{fill:url(#linear-gradient-181);}.cls-175{fill:url(#linear-gradient-182);}.cls-176{fill:url(#linear-gradient-183);}.cls-177{fill:url(#linear-gradient-184);}.cls-178{fill:url(#linear-gradient-185);}.cls-179{fill:url(#linear-gradient-186);}.cls-180{fill:url(#linear-gradient-187);}.cls-181{fill:url(#linear-gradient-188);}.cls-182{fill:url(#linear-gradient-189);}.cls-183{fill:url(#linear-gradient-190);}.cls-184{fill:url(#linear-gradient-191);}.cls-185{fill:url(#linear-gradient-192);}.cls-186{fill:url(#linear-gradient-193);}.cls-187{fill:url(#linear-gradient-194);}.cls-188{fill:url(#linear-gradient-195);}.cls-189{fill:url(#linear-gradient-196);}.cls-190{fill:url(#linear-gradient-197);}.cls-191{fill:url(#linear-gradient-198);}.cls-192{fill:url(#linear-gradient-199);}.cls-193{fill:url(#linear-gradient-200);}.cls-194{fill:url(#linear-gradient-201);}.cls-195{fill:url(#linear-gradient-202);}.cls-196{fill:url(#linear-gradient-203);}.cls-197{fill:url(#linear-gradient-204);}.cls-198{fill:url(#linear-gradient-205);}.cls-199{fill:url(#linear-gradient-206);}.cls-200{fill:url(#linear-gradient-207);}.cls-201{fill:url(#linear-gradient-208);}.cls-202{fill:url(#linear-gradient-209);}.cls-203{fill:url(#linear-gradient-210);}.cls-204{fill:url(#linear-gradient-211);}.cls-205{fill:url(#linear-gradient-212);}.cls-206{fill:url(#linear-gradient-213);}.cls-207{fill:url(#linear-gradient-214);}.cls-208{fill:url(#linear-gradient-215);}.cls-209{fill:url(#linear-gradient-216);}.cls-210{fill:url(#linear-gradient-217);}.cls-211{fill:url(#linear-gradient-218);}.cls-212{fill:url(#linear-gradient-219);}</style><linearGradient id="linear-gradient" x1="3141.76" y1="145.67" x2="3151.03" y2="128.08" gradientTransform="matrix(-1, 0, 0, 1, 3313.64, 0)" gradientUnits="userSpaceOnUse"><stop offset="0" stop-color="#d6d6d8"/><stop offset="1" stop-color="#b2b3b5"/></linearGradient><linearGradient id="linear-gradient-2" x1="3081.18" y1="132.1" x2="3154.58" y2="132.1" gradientTransform="matrix(-1, 0, 0, 1, 3313.64, 0)" gradientUnits="userSpaceOnUse"><stop offset="0" stop-color="#535967"/><stop offset="1" stop-color="#40454d"/></linearGradient><linearGradient id="linear-gradient-3" x1="3132.68" y1="146.98" x2="3154.73" y2="146.98" xlink:href="#linear-gradient-2"/><linearGradient id="linear-gradient-4" x1="3137.24" y1="154.8" x2="3151.7" y2="137.3" xlink:href="#linear-gradient-2"/><linearGradient id="linear-gradient-5" x1="3138.57" y1="146.98" x2="3148.84" y2="146.98" gradientTransform="matrix(-1, 0, 0, 1, 3313.64, 0)" gradientUnits="userSpaceOnUse"><stop offset="0" stop-color="#f9a033"/><stop offset="1" stop-color="#f47a20"/></linearGradient><linearGradient id="linear-gradient-6" x1="3111.91" y1="127.25" x2="3097.15" y2="141.79" xlink:href="#linear-gradient-5"/><linearGradient id="linear-gradient-7" x1="3113.6" y1="131.76" x2="3127.66" y2="110.57" gradientTransform="matrix(-1, 0, 0, 1, 3313.64, 0)" gradientUnits="userSpaceOnUse"><stop offset="0" stop-color="#f3f6fb"/><stop offset="0.15" stop-color="#ebeef2"/><stop offset="0.53" stop-color="#dcdcdf"/><stop offset="0.8" stop-color="#d6d6d8"/><stop offset="1" stop-color="#b6bbbf"/></linearGradient><linearGradient id="linear-gradient-8" x1="3144.84" y1="139.21" x2="3156.35" y2="131.3" gradientTransform="matrix(-1, 0, 0, 1, 3313.64, 0)" gradientUnits="userSpaceOnUse"><stop offset="0" stop-color="#fff"/><stop offset="1" stop-color="#f3f6fb"/></linearGradient><linearGradient id="linear-gradient-9" x1="217" y1="82.48" x2="220.17" y2="87.72" gradientTransform="matrix(1, 0, 0, 1, 0, 0)" xlink:href="#linear-gradient-2"/><linearGradient id="linear-gradient-10" x1="210.2" y1="86.21" x2="212.89" y2="89.83" gradientUnits="userSpaceOnUse"><stop offset="0" stop-color="#f3f6fb"/><stop offset="1" stop-color="#d6d6d8"/></linearGradient><linearGradient id="linear-gradient-11" x1="214.18" y1="40.43" x2="217.2" y2="46.28" gradientUnits="userSpaceOnUse"><stop offset="0" stop-color="#f7902a"/><stop offset="1" stop-color="#f47a20"/></linearGradient><linearGradient id="linear-gradient-12" x1="209.97" y1="34.85" x2="201.14" y2="53.62" gradientUnits="userSpaceOnUse"><stop offset="0" stop-color="#f9a033"/><stop offset="1" stop-color="#f68826"/></linearGradient><linearGradient id="linear-gradient-13" x1="185.62" y1="43.18" x2="220.61" y2="59.58" gradientTransform="matrix(1, 0, 0, 1, 0, 0)" xlink:href="#linear-gradient-5"/><linearGradient id="linear-gradient-14" x1="193.83" y1="36.53" x2="211.63" y2="65.54" gradientTransform="matrix(1, 0, 0, 1, 0, 0)" xlink:href="#linear-gradient-2"/><linearGradient id="linear-gradient-15" x1="209.2" y1="45.08" x2="177.09" y2="72.02" gradientUnits="userSpaceOnUse"><stop offset="0" stop-color="#363b42"/><stop offset="1" stop-color="#24282f"/></linearGradient><linearGradient id="linear-gradient-16" x1="206.15" y1="66.29" x2="200.94" y2="75.67" xlink:href="#linear-gradient-10"/><linearGradient id="linear-gradient-17" x1="200.49" y1="76.85" x2="202.48" y2="73.72" gradientTransform="matrix(1, 0, 0, 1, 0, 0)" xlink:href="#linear-gradient-2"/><linearGradient id="linear-gradient-18" x1="202.26" y1="74.83" x2="208.58" y2="68.69" xlink:href="#linear-gradient-15"/><radialGradient id="radial-gradient" cx="202.51" cy="50.69" r="10.28" gradientTransform="matrix(-0.53, -0.85, 0.56, -0.35, 280.7, 240.48)" gradientUnits="userSpaceOnUse"><stop offset="0.34" stop-color="#a7a9ab"/><stop offset="1" stop-color="#d0d3d9"/></radialGradient><radialGradient id="radial-gradient-2" cx="202.51" cy="50.69" r="7.81" gradientTransform="matrix(-0.52, -0.85, 0.58, -0.36, 278.98, 241.35)" gradientUnits="userSpaceOnUse"><stop offset="0.5" stop-color="#a7a9ab"/><stop offset="1" stop-color="#f3f6fb"/></radialGradient><linearGradient id="linear-gradient-19" x1="198.5" y1="47.7" x2="212.87" y2="58.4" xlink:href="#linear-gradient-15"/><linearGradient id="linear-gradient-20" x1="265.49" y1="110.65" x2="268.66" y2="115.89" gradientTransform="matrix(1, 0, 0, 1, 0, 0)" xlink:href="#linear-gradient-2"/><linearGradient id="linear-gradient-21" x1="258.69" y1="114.38" x2="261.39" y2="117.99" xlink:href="#linear-gradient-10"/><linearGradient id="linear-gradient-22" x1="262.67" y1="68.6" x2="265.69" y2="74.45" xlink:href="#linear-gradient-11"/><linearGradient id="linear-gradient-23" x1="258.47" y1="63.02" x2="249.63" y2="81.79" xlink:href="#linear-gradient-12"/><linearGradient id="linear-gradient-24" x1="234.12" y1="71.35" x2="269.1" y2="87.75" gradientTransform="matrix(1, 0, 0, 1, 0, 0)" xlink:href="#linear-gradient-5"/><linearGradient id="linear-gradient-25" x1="242.32" y1="64.7" x2="260.12" y2="93.71" gradientTransform="matrix(1, 0, 0, 1, 0, 0)" xlink:href="#linear-gradient-2"/><linearGradient id="linear-gradient-26" x1="257.7" y1="73.25" x2="225.58" y2="100.19" xlink:href="#linear-gradient-15"/><linearGradient id="linear-gradient-27" x1="254.64" y1="94.46" x2="249.43" y2="103.83" xlink:href="#linear-gradient-10"/><linearGradient id="linear-gradient-28" x1="248.98" y1="105.02" x2="250.97" y2="101.89" gradientTransform="matrix(1, 0, 0, 1, 0, 0)" xlink:href="#linear-gradient-2"/><linearGradient id="linear-gradient-29" x1="250.75" y1="102.99" x2="257.07" y2="96.85" xlink:href="#linear-gradient-15"/><radialGradient id="radial-gradient-3" cx="251.01" cy="78.86" r="10.28" gradientTransform="matrix(-0.53, -0.85, 0.56, -0.35, 338.91, 319.66)" xlink:href="#radial-gradient"/><radialGradient id="radial-gradient-4" cx="251.01" cy="78.86" r="7.81" gradientTransform="matrix(-0.52, -0.85, 0.58, -0.36, 336.49, 320.87)" xlink:href="#radial-gradient-2"/><linearGradient id="linear-gradient-30" x1="246.99" y1="75.87" x2="261.37" y2="86.57" xlink:href="#linear-gradient-15"/><linearGradient id="linear-gradient-31" x1="3069.02" y1="109.18" x2="3128.41" y2="72.68" gradientTransform="matrix(-1, 0, 0, 1, 3216.41, 0)" xlink:href="#linear-gradient"/><linearGradient id="linear-gradient-32" x1="3084.13" y1="97.44" x2="3121.59" y2="36.39" gradientTransform="matrix(-1, 0, 0, 1, 3216.41, 0)" xlink:href="#linear-gradient-10"/><linearGradient id="linear-gradient-33" x1="3098.26" y1="111.26" x2="3110.36" y2="111.26" gradientTransform="matrix(-1, 0, 0, 1, 3216.41, 0)" xlink:href="#linear-gradient-10"/><linearGradient id="linear-gradient-34" x1="3023.21" y1="90.26" x2="3030.92" y2="90.26" gradientTransform="matrix(-1, 0, 0, 1, 3216.41, 0)" xlink:href="#linear-gradient-5"/><linearGradient id="linear-gradient-35" x1="3077.2" y1="116.27" x2="3171.4" y2="116.27" gradientTransform="matrix(-1, 0, 0, 1, 3216.41, 0)" xlink:href="#linear-gradient-5"/><linearGradient id="linear-gradient-36" x1="3054.43" y1="105.83" x2="3064.28" y2="91.4" gradientTransform="matrix(-1, 0, 0, 1, 3216.41, 0)" xlink:href="#linear-gradient-15"/><linearGradient id="linear-gradient-37" x1="3050.66" y1="110.42" x2="3058.51" y2="101.08" gradientTransform="matrix(-1, 0, 0, 1, 3216.41, 0)" xlink:href="#linear-gradient-2"/><linearGradient id="linear-gradient-38" x1="3026.51" y1="101.76" x2="3034.36" y2="90.1" gradientTransform="matrix(-1, 0, 0, 1, 3216.41, 0)" xlink:href="#linear-gradient-2"/><linearGradient id="linear-gradient-39" x1="3134.67" y1="118.52" x2="3136.15" y2="118.52" gradientTransform="matrix(-1, 0, 0, 1, 3216.41, 0)" xlink:href="#linear-gradient-2"/><linearGradient id="linear-gradient-40" x1="3138.11" y1="116.54" x2="3139.6" y2="116.54" gradientTransform="matrix(-1, 0, 0, 1, 3216.41, 0)" xlink:href="#linear-gradient-2"/><linearGradient id="linear-gradient-41" x1="3141.56" y1="114.56" x2="3143.05" y2="114.56" gradientTransform="matrix(-1, 0, 0, 1, 3216.41, 0)" xlink:href="#linear-gradient-2"/><linearGradient id="linear-gradient-42" x1="3145.02" y1="112.57" x2="3146.5" y2="112.57" gradientTransform="matrix(-1, 0, 0, 1, 3216.41, 0)" xlink:href="#linear-gradient-2"/><linearGradient id="linear-gradient-43" x1="3148.47" y1="110.59" x2="3149.95" y2="110.59" gradientTransform="matrix(-1, 0, 0, 1, 3216.41, 0)" xlink:href="#linear-gradient-2"/><linearGradient id="linear-gradient-44" x1="3151.92" y1="108.61" x2="3153.4" y2="108.61" gradientTransform="matrix(-1, 0, 0, 1, 3216.41, 0)" xlink:href="#linear-gradient-2"/><linearGradient id="linear-gradient-45" x1="3155.36" y1="106.63" x2="3156.85" y2="106.63" gradientTransform="matrix(-1, 0, 0, 1, 3216.41, 0)" xlink:href="#linear-gradient-2"/><linearGradient id="linear-gradient-46" x1="3134.66" y1="118.52" x2="3136.15" y2="118.52" gradientTransform="matrix(-1, 0, 0, 1, 3216.41, 0)" xlink:href="#linear-gradient-2"/><linearGradient id="linear-gradient-47" x1="3138.11" y1="116.54" x2="3139.6" y2="116.54" gradientTransform="matrix(-1, 0, 0, 1, 3216.41, 0)" xlink:href="#linear-gradient-2"/><linearGradient id="linear-gradient-48" x1="3141.56" y1="114.56" x2="3143.05" y2="114.56" gradientTransform="matrix(-1, 0, 0, 1, 3216.41, 0)" xlink:href="#linear-gradient-2"/><linearGradient id="linear-gradient-49" x1="3145.02" y1="112.57" x2="3146.5" y2="112.57" gradientTransform="matrix(-1, 0, 0, 1, 3216.41, 0)" xlink:href="#linear-gradient-2"/><linearGradient id="linear-gradient-50" x1="3148.46" y1="110.59" x2="3149.94" y2="110.59" gradientTransform="matrix(-1, 0, 0, 1, 3216.41, 0)" xlink:href="#linear-gradient-2"/><linearGradient id="linear-gradient-51" x1="3151.92" y1="108.61" x2="3153.4" y2="108.61" gradientTransform="matrix(-1, 0, 0, 1, 3216.41, 0)" xlink:href="#linear-gradient-2"/><linearGradient id="linear-gradient-52" x1="3155.36" y1="106.63" x2="3156.85" y2="106.63" gradientTransform="matrix(-1, 0, 0, 1, 3216.41, 0)" xlink:href="#linear-gradient-2"/><linearGradient id="linear-gradient-53" x1="3090.82" y1="122.28" x2="3093.89" y2="134.48" gradientTransform="matrix(-1, 0, 0, 1, 3216.41, 0)" xlink:href="#linear-gradient-2"/><linearGradient id="linear-gradient-54" x1="3088.31" y1="127.39" x2="3093.11" y2="131.67" gradientTransform="matrix(-1, 0, 0, 1, 3216.41, 0)" gradientUnits="userSpaceOnUse"><stop offset="0" stop-color="#faa434"/><stop offset="1" stop-color="#f6871f"/></linearGradient><linearGradient id="linear-gradient-55" x1="3078.96" y1="129.73" x2="3088.96" y2="130.39" gradientTransform="matrix(-1, 0, 0, 1, 3216.41, 0)" xlink:href="#linear-gradient-5"/><linearGradient id="linear-gradient-56" x1="3078.87" y1="101.71" x2="3126.16" y2="89.44" gradientTransform="matrix(-1, 0, 0, 1, 3216.41, 0)" xlink:href="#linear-gradient-2"/><linearGradient id="linear-gradient-57" x1="3079.37" y1="103.63" x2="3126.66" y2="91.37" gradientTransform="matrix(-1, 0, 0, 1, 3216.41, 0)" xlink:href="#linear-gradient-2"/><linearGradient id="linear-gradient-58" x1="3079.88" y1="105.6" x2="3127.17" y2="93.34" gradientTransform="matrix(-1, 0, 0, 1, 3216.41, 0)" xlink:href="#linear-gradient-2"/><linearGradient id="linear-gradient-59" x1="3077.56" y1="96.65" x2="3124.84" y2="84.38" gradientTransform="matrix(-1, 0, 0, 1, 3216.41, 0)" xlink:href="#linear-gradient-2"/><linearGradient id="linear-gradient-60" x1="3078.06" y1="98.57" x2="3125.34" y2="86.3" gradientTransform="matrix(-1, 0, 0, 1, 3216.41, 0)" xlink:href="#linear-gradient-2"/><linearGradient id="linear-gradient-61" x1="3078.57" y1="100.54" x2="3125.85" y2="88.27" gradientTransform="matrix(-1, 0, 0, 1, 3216.41, 0)" xlink:href="#linear-gradient-2"/><linearGradient id="linear-gradient-62" x1="3076.23" y1="91.5" x2="3123.51" y2="79.23" gradientTransform="matrix(-1, 0, 0, 1, 3216.41, 0)" xlink:href="#linear-gradient-2"/><linearGradient id="linear-gradient-63" x1="3076.72" y1="93.42" x2="3124.01" y2="81.15" gradientTransform="matrix(-1, 0, 0, 1, 3216.41, 0)" xlink:href="#linear-gradient-2"/><linearGradient id="linear-gradient-64" x1="3077.23" y1="95.39" x2="3124.52" y2="83.12" gradientTransform="matrix(-1, 0, 0, 1, 3216.41, 0)" xlink:href="#linear-gradient-2"/><linearGradient id="linear-gradient-65" x1="3077.86" y1="97.82" x2="3125.15" y2="85.55" gradientTransform="matrix(-1, 0, 0, 1, 3216.41, 0)" xlink:href="#linear-gradient-2"/><linearGradient id="linear-gradient-66" x1="3078.38" y1="99.79" x2="3125.66" y2="87.52" gradientTransform="matrix(-1, 0, 0, 1, 3216.41, 0)" xlink:href="#linear-gradient-2"/><linearGradient id="linear-gradient-67" x1="3076.55" y1="92.75" x2="3123.83" y2="80.48" gradientTransform="matrix(-1, 0, 0, 1, 3216.41, 0)" xlink:href="#linear-gradient-2"/><linearGradient id="linear-gradient-68" x1="3077.06" y1="94.72" x2="3124.34" y2="82.45" gradientTransform="matrix(-1, 0, 0, 1, 3216.41, 0)" xlink:href="#linear-gradient-2"/><linearGradient id="linear-gradient-69" x1="3075.21" y1="87.61" x2="3122.5" y2="75.34" gradientTransform="matrix(-1, 0, 0, 1, 3216.41, 0)" xlink:href="#linear-gradient-2"/><linearGradient id="linear-gradient-70" x1="3075.73" y1="89.58" x2="3123.01" y2="77.31" gradientTransform="matrix(-1, 0, 0, 1, 3216.41, 0)" xlink:href="#linear-gradient-2"/><linearGradient id="linear-gradient-71" x1="3074.92" y1="86.48" x2="3122.21" y2="74.21" gradientTransform="matrix(-1, 0, 0, 1, 3216.41, 0)" xlink:href="#linear-gradient-2"/><linearGradient id="linear-gradient-72" x1="3075.42" y1="88.4" x2="3122.71" y2="76.14" gradientTransform="matrix(-1, 0, 0, 1, 3216.41, 0)" xlink:href="#linear-gradient-2"/><linearGradient id="linear-gradient-73" x1="3075.93" y1="90.37" x2="3123.22" y2="78.11" gradientTransform="matrix(-1, 0, 0, 1, 3216.41, 0)" xlink:href="#linear-gradient-2"/><linearGradient id="linear-gradient-74" x1="3073.59" y1="81.33" x2="3120.87" y2="69.07" gradientTransform="matrix(-1, 0, 0, 1, 3216.41, 0)" xlink:href="#linear-gradient-2"/><linearGradient id="linear-gradient-75" x1="3074.09" y1="83.26" x2="3121.37" y2="70.99" gradientTransform="matrix(-1, 0, 0, 1, 3216.41, 0)" xlink:href="#linear-gradient-2"/><linearGradient id="linear-gradient-76" x1="3074.6" y1="85.23" x2="3121.88" y2="72.96" gradientTransform="matrix(-1, 0, 0, 1, 3216.41, 0)" xlink:href="#linear-gradient-2"/><linearGradient id="linear-gradient-77" x1="3073.91" y1="82.59" x2="3121.2" y2="70.32" gradientTransform="matrix(-1, 0, 0, 1, 3216.41, 0)" xlink:href="#linear-gradient-2"/><linearGradient id="linear-gradient-78" x1="3074.42" y1="84.56" x2="3121.71" y2="72.29" gradientTransform="matrix(-1, 0, 0, 1, 3216.41, 0)" xlink:href="#linear-gradient-2"/><linearGradient id="linear-gradient-79" x1="3072.58" y1="77.44" x2="3119.86" y2="65.17" gradientTransform="matrix(-1, 0, 0, 1, 3216.41, 0)" xlink:href="#linear-gradient-2"/><linearGradient id="linear-gradient-80" x1="3073.09" y1="79.41" x2="3120.37" y2="67.14" gradientTransform="matrix(-1, 0, 0, 1, 3216.41, 0)" xlink:href="#linear-gradient-2"/><linearGradient id="linear-gradient-81" x1="3072.26" y1="76.23" x2="3119.55" y2="63.96" gradientTransform="matrix(-1, 0, 0, 1, 3216.41, 0)" xlink:href="#linear-gradient-2"/><linearGradient id="linear-gradient-82" x1="3072.76" y1="78.15" x2="3120.04" y2="65.88" gradientTransform="matrix(-1, 0, 0, 1, 3216.41, 0)" xlink:href="#linear-gradient-2"/><linearGradient id="linear-gradient-83" x1="3073.27" y1="80.12" x2="3120.56" y2="67.85" gradientTransform="matrix(-1, 0, 0, 1, 3216.41, 0)" xlink:href="#linear-gradient-2"/><linearGradient id="linear-gradient-84" x1="3070.93" y1="71.08" x2="3118.21" y2="58.81" gradientTransform="matrix(-1, 0, 0, 1, 3216.41, 0)" xlink:href="#linear-gradient-2"/><linearGradient id="linear-gradient-85" x1="3071.43" y1="73" x2="3118.71" y2="60.73" gradientTransform="matrix(-1, 0, 0, 1, 3216.41, 0)" xlink:href="#linear-gradient-2"/><linearGradient id="linear-gradient-86" x1="3071.94" y1="74.97" x2="3119.22" y2="62.7" gradientTransform="matrix(-1, 0, 0, 1, 3216.41, 0)" xlink:href="#linear-gradient-2"/><linearGradient id="linear-gradient-87" x1="3071.25" y1="72.33" x2="3118.54" y2="60.06" gradientTransform="matrix(-1, 0, 0, 1, 3216.41, 0)" xlink:href="#linear-gradient-2"/><linearGradient id="linear-gradient-88" x1="3071.76" y1="74.3" x2="3119.05" y2="62.03" gradientTransform="matrix(-1, 0, 0, 1, 3216.41, 0)" xlink:href="#linear-gradient-2"/><linearGradient id="linear-gradient-89" x1="3069.92" y1="67.19" x2="3117.2" y2="54.92" gradientTransform="matrix(-1, 0, 0, 1, 3216.41, 0)" xlink:href="#linear-gradient-2"/><linearGradient id="linear-gradient-90" x1="3070.43" y1="69.16" x2="3117.71" y2="56.89" gradientTransform="matrix(-1, 0, 0, 1, 3216.41, 0)" xlink:href="#linear-gradient-2"/><linearGradient id="linear-gradient-91" x1="3069.62" y1="66.06" x2="3116.91" y2="53.79" gradientTransform="matrix(-1, 0, 0, 1, 3216.41, 0)" xlink:href="#linear-gradient-2"/><linearGradient id="linear-gradient-92" x1="3070.12" y1="67.98" x2="3117.41" y2="55.72" gradientTransform="matrix(-1, 0, 0, 1, 3216.41, 0)" xlink:href="#linear-gradient-2"/><linearGradient id="linear-gradient-93" x1="3070.63" y1="69.95" x2="3117.92" y2="57.68" gradientTransform="matrix(-1, 0, 0, 1, 3216.41, 0)" xlink:href="#linear-gradient-2"/><linearGradient id="linear-gradient-94" x1="3068.29" y1="60.91" x2="3115.57" y2="48.65" gradientTransform="matrix(-1, 0, 0, 1, 3216.41, 0)" xlink:href="#linear-gradient-2"/><linearGradient id="linear-gradient-95" x1="3068.79" y1="62.84" x2="3116.07" y2="50.57" gradientTransform="matrix(-1, 0, 0, 1, 3216.41, 0)" xlink:href="#linear-gradient-2"/><linearGradient id="linear-gradient-96" x1="3069.3" y1="64.81" x2="3116.58" y2="52.54" gradientTransform="matrix(-1, 0, 0, 1, 3216.41, 0)" xlink:href="#linear-gradient-2"/><linearGradient id="linear-gradient-97" x1="3068.61" y1="62.17" x2="3115.9" y2="49.9" gradientTransform="matrix(-1, 0, 0, 1, 3216.41, 0)" xlink:href="#linear-gradient-2"/><linearGradient id="linear-gradient-98" x1="3069.13" y1="64.14" x2="3116.41" y2="51.87" gradientTransform="matrix(-1, 0, 0, 1, 3216.41, 0)" xlink:href="#linear-gradient-2"/><linearGradient id="linear-gradient-99" x1="3067.28" y1="57.02" x2="3114.56" y2="44.75" gradientTransform="matrix(-1, 0, 0, 1, 3216.41, 0)" xlink:href="#linear-gradient-2"/><linearGradient id="linear-gradient-100" x1="3067.79" y1="58.99" x2="3115.07" y2="46.72" gradientTransform="matrix(-1, 0, 0, 1, 3216.41, 0)" xlink:href="#linear-gradient-2"/><linearGradient id="linear-gradient-101" x1="110.24" y1="64.91" x2="143.01" y2="64.91" gradientTransform="matrix(1, 0, 0, 1, 0, 0)" xlink:href="#linear-gradient-2"/><linearGradient id="linear-gradient-102" x1="110.24" y1="67.02" x2="143.01" y2="67.02" gradientTransform="matrix(1, 0, 0, 1, 0, 0)" xlink:href="#linear-gradient-2"/><linearGradient id="linear-gradient-103" x1="110.24" y1="69.12" x2="143.01" y2="69.12" gradientTransform="matrix(1, 0, 0, 1, 0, 0)" xlink:href="#linear-gradient-2"/><linearGradient id="linear-gradient-104" x1="110.24" y1="62.83" x2="143.01" y2="62.83" gradientTransform="matrix(1, 0, 0, 1, 0, 0)" xlink:href="#linear-gradient-2"/><linearGradient id="linear-gradient-105" x1="110.24" y1="64.93" x2="143.01" y2="64.93" gradientTransform="matrix(1, 0, 0, 1, 0, 0)" xlink:href="#linear-gradient-2"/><linearGradient id="linear-gradient-106" x1="110.24" y1="67.04" x2="143.01" y2="67.04" gradientTransform="matrix(1, 0, 0, 1, 0, 0)" xlink:href="#linear-gradient-2"/><linearGradient id="linear-gradient-107" x1="110.24" y1="60.7" x2="143.01" y2="60.7" gradientTransform="matrix(1, 0, 0, 1, 0, 0)" xlink:href="#linear-gradient-2"/><linearGradient id="linear-gradient-108" x1="110.24" y1="62.8" x2="143.01" y2="62.8" gradientTransform="matrix(1, 0, 0, 1, 0, 0)" xlink:href="#linear-gradient-2"/><linearGradient id="linear-gradient-110" x1="110.24" y1="60.72" x2="143.01" y2="60.72" gradientTransform="matrix(1, 0, 0, 1, 0, 0)" xlink:href="#linear-gradient-2"/><linearGradient id="linear-gradient-112" x1="110.24" y1="58.63" x2="143.01" y2="58.63" gradientTransform="matrix(1, 0, 0, 1, 0, 0)" xlink:href="#linear-gradient-2"/><linearGradient id="linear-gradient-113" x1="110.24" y1="60.74" x2="143.01" y2="60.74" gradientTransform="matrix(1, 0, 0, 1, 0, 0)" xlink:href="#linear-gradient-2"/><linearGradient id="linear-gradient-114" x1="110.24" y1="56.51" x2="143.01" y2="56.51" gradientTransform="matrix(1, 0, 0, 1, 0, 0)" xlink:href="#linear-gradient-2"/><linearGradient id="linear-gradient-115" x1="110.24" y1="58.61" x2="143.01" y2="58.61" gradientTransform="matrix(1, 0, 0, 1, 0, 0)" xlink:href="#linear-gradient-2"/><linearGradient id="linear-gradient-118" x1="110.24" y1="62.85" x2="143.01" y2="62.85" gradientTransform="matrix(1, 0, 0, 1, 0, 0)" xlink:href="#linear-gradient-2"/><linearGradient id="linear-gradient-122" x1="110.24" y1="54.44" x2="143.01" y2="54.44" gradientTransform="matrix(1, 0, 0, 1, 0, 0)" xlink:href="#linear-gradient-2"/><linearGradient id="linear-gradient-123" x1="110.24" y1="56.55" x2="143.01" y2="56.55" gradientTransform="matrix(1, 0, 0, 1, 0, 0)" xlink:href="#linear-gradient-2"/><linearGradient id="linear-gradient-124" x1="110.24" y1="52.32" x2="143.01" y2="52.32" gradientTransform="matrix(1, 0, 0, 1, 0, 0)" xlink:href="#linear-gradient-2"/><linearGradient id="linear-gradient-125" x1="110.24" y1="54.42" x2="143.01" y2="54.42" gradientTransform="matrix(1, 0, 0, 1, 0, 0)" xlink:href="#linear-gradient-2"/><linearGradient id="linear-gradient-126" x1="114.54" y1="68.28" x2="122.69" y2="57.4" gradientTransform="matrix(1, 0, 0, 1, 0, 0)" xlink:href="#linear-gradient-5"/><linearGradient id="linear-gradient-127" x1="144.87" y1="62.74" x2="143.78" y2="60.89" gradientTransform="matrix(1, 0, 0, 1, 0, 0)" xlink:href="#linear-gradient-2"/><linearGradient id="linear-gradient-128" x1="144.82" y1="62.88" x2="141.92" y2="58.68" gradientUnits="userSpaceOnUse"><stop offset="0" stop-color="#383d44"/><stop offset="1" stop-color="#24282f"/></linearGradient><linearGradient id="linear-gradient-129" x1="117.65" y1="62.61" x2="128.85" y2="43.91" gradientTransform="matrix(1, 0, 0, 1, 0, 0)" xlink:href="#linear-gradient-54"/><linearGradient id="linear-gradient-130" x1="110.47" y1="56.58" x2="154.08" y2="30.71" gradientTransform="matrix(1, 0, 0, 1, 0, 0)" xlink:href="#linear-gradient"/><linearGradient id="linear-gradient-131" x1="69.18" y1="47.16" x2="156.96" y2="47.16" gradientUnits="userSpaceOnUse"><stop offset="0" stop-color="#888385"/><stop offset="1" stop-color="#40454d"/></linearGradient><linearGradient id="linear-gradient-132" x1="97.89" y1="42.66" x2="156.38" y2="42.66" xlink:href="#linear-gradient-10"/><linearGradient id="linear-gradient-133" x1="114.54" y1="54.57" x2="122.69" y2="43.7" gradientTransform="matrix(1, 0, 0, 1, 0, 0)" xlink:href="#linear-gradient-5"/><linearGradient id="linear-gradient-134" x1="115.12" y1="35.25" x2="177.62" y2="23.66" gradientTransform="matrix(1, 0, 0, 1, 0, 0)" xlink:href="#linear-gradient-54"/><linearGradient id="linear-gradient-135" x1="144.87" y1="49.03" x2="143.78" y2="47.19" gradientTransform="matrix(1, 0, 0, 1, 0, 0)" xlink:href="#linear-gradient-2"/><linearGradient id="linear-gradient-136" x1="144.82" y1="49.18" x2="141.92" y2="44.98" xlink:href="#linear-gradient-128"/><linearGradient id="linear-gradient-137" x1="118.08" y1="51.46" x2="120.32" y2="54.64" gradientTransform="matrix(1, 0, 0, 1, 0, 0)" xlink:href="#linear-gradient-5"/><linearGradient id="linear-gradient-138" x1="115.48" y1="52" x2="117.87" y2="52" gradientTransform="matrix(1, 0, 0, 1, 0, 0)" xlink:href="#linear-gradient-5"/><linearGradient id="linear-gradient-139" x1="112.41" y1="50.11" x2="114.79" y2="50.11" gradientTransform="matrix(1, 0, 0, 1, 0, 0)" xlink:href="#linear-gradient-5"/><linearGradient id="linear-gradient-140" x1="120.07" y1="53.07" x2="118.68" y2="54.89" xlink:href="#linear-gradient-10"/><linearGradient id="linear-gradient-141" x1="115.19" y1="52.15" x2="117.58" y2="52.15" xlink:href="#linear-gradient-10"/><linearGradient id="linear-gradient-142" x1="112.12" y1="50.25" x2="114.5" y2="50.25" xlink:href="#linear-gradient-10"/><linearGradient id="linear-gradient-143" x1="110.47" y1="42.8" x2="154.08" y2="16.93" gradientTransform="matrix(1, 0, 0, 1, 0, 0)" xlink:href="#linear-gradient"/><linearGradient id="linear-gradient-144" x1="69.18" y1="33.38" x2="156.96" y2="33.38" xlink:href="#linear-gradient-131"/><linearGradient id="linear-gradient-145" x1="97.89" y1="28.88" x2="156.38" y2="28.88" xlink:href="#linear-gradient-10"/><linearGradient id="linear-gradient-146" x1="114.54" y1="40.8" x2="122.69" y2="29.92" gradientTransform="matrix(1, 0, 0, 1, 0, 0)" xlink:href="#linear-gradient-5"/><linearGradient id="linear-gradient-147" x1="115.12" y1="21.48" x2="177.62" y2="9.88" gradientTransform="matrix(1, 0, 0, 1, 0, 0)" xlink:href="#linear-gradient-54"/><linearGradient id="linear-gradient-148" x1="110.47" y1="29.01" x2="154.08" y2="3.14" gradientUnits="userSpaceOnUse"><stop offset="0" stop-color="#f9a033"/><stop offset="0.94" stop-color="#f47a20"/></linearGradient><linearGradient id="linear-gradient-149" x1="72.55" y1="19.21" x2="155.08" y2="19.21" gradientUnits="userSpaceOnUse"><stop offset="0" stop-color="#f47a20"/><stop offset="1" stop-color="#f26322"/></linearGradient><linearGradient id="linear-gradient-150" x1="100.44" y1="19.44" x2="154.52" y2="18.86" gradientTransform="matrix(1, 0, 0, 1, 0, 0)" xlink:href="#linear-gradient-2"/><linearGradient id="linear-gradient-151" x1="110.24" y1="23.51" x2="143.01" y2="23.51" xlink:href="#linear-gradient-128"/><linearGradient id="linear-gradient-152" x1="110.24" y1="25.62" x2="143.01" y2="25.62" xlink:href="#linear-gradient-128"/><linearGradient id="linear-gradient-153" x1="110.24" y1="27.72" x2="143.01" y2="27.72" xlink:href="#linear-gradient-128"/><linearGradient id="linear-gradient-154" x1="110.24" y1="21.43" x2="143.01" y2="21.43" xlink:href="#linear-gradient-128"/><linearGradient id="linear-gradient-155" x1="110.24" y1="23.53" x2="143.01" y2="23.53" xlink:href="#linear-gradient-128"/><linearGradient id="linear-gradient-156" x1="110.24" y1="25.64" x2="143.01" y2="25.64" xlink:href="#linear-gradient-128"/><linearGradient id="linear-gradient-157" x1="110.24" y1="19.3" x2="143.01" y2="19.3" xlink:href="#linear-gradient-128"/><linearGradient id="linear-gradient-158" x1="110.24" y1="21.41" x2="143.01" y2="21.41" xlink:href="#linear-gradient-128"/><linearGradient id="linear-gradient-160" x1="110.24" y1="19.32" x2="143.01" y2="19.32" xlink:href="#linear-gradient-128"/><linearGradient id="linear-gradient-162" x1="110.24" y1="17.24" x2="143.01" y2="17.24" xlink:href="#linear-gradient-128"/><linearGradient id="linear-gradient-163" x1="110.24" y1="19.34" x2="143.01" y2="19.34" xlink:href="#linear-gradient-128"/><linearGradient id="linear-gradient-164" x1="110.24" y1="15.11" x2="143.01" y2="15.11" xlink:href="#linear-gradient-128"/><linearGradient id="linear-gradient-165" x1="110.24" y1="17.22" x2="143.01" y2="17.22" xlink:href="#linear-gradient-128"/><linearGradient id="linear-gradient-168" x1="110.24" y1="21.45" x2="143.01" y2="21.45" xlink:href="#linear-gradient-128"/><linearGradient id="linear-gradient-172" x1="110.24" y1="13.05" x2="143.01" y2="13.05" xlink:href="#linear-gradient-128"/><linearGradient id="linear-gradient-173" x1="110.24" y1="15.15" x2="143.01" y2="15.15" xlink:href="#linear-gradient-128"/><linearGradient id="linear-gradient-174" x1="110.24" y1="10.92" x2="143.01" y2="10.92" xlink:href="#linear-gradient-128"/><linearGradient id="linear-gradient-175" x1="110.24" y1="13.02" x2="143.01" y2="13.02" xlink:href="#linear-gradient-128"/><linearGradient id="linear-gradient-176" x1="144.87" y1="35.26" x2="143.78" y2="33.41" gradientTransform="matrix(1, 0, 0, 1, 0, 0)" xlink:href="#linear-gradient-2"/><linearGradient id="linear-gradient-177" x1="144.82" y1="35.41" x2="141.92" y2="31.2" xlink:href="#linear-gradient-128"/><linearGradient id="linear-gradient-178" x1="118.08" y1="37.69" x2="120.32" y2="40.86" gradientTransform="matrix(1, 0, 0, 1, 0, 0)" xlink:href="#linear-gradient-5"/><linearGradient id="linear-gradient-179" x1="115.48" y1="38.22" x2="117.87" y2="38.22" gradientTransform="matrix(1, 0, 0, 1, 0, 0)" xlink:href="#linear-gradient-5"/><linearGradient id="linear-gradient-180" x1="112.41" y1="36.33" x2="114.79" y2="36.33" gradientTransform="matrix(1, 0, 0, 1, 0, 0)" xlink:href="#linear-gradient-5"/><linearGradient id="linear-gradient-181" x1="120.07" y1="39.29" x2="118.68" y2="41.11" xlink:href="#linear-gradient-10"/><linearGradient id="linear-gradient-182" x1="115.19" y1="38.37" x2="117.58" y2="38.37" xlink:href="#linear-gradient-10"/><linearGradient id="linear-gradient-183" x1="112.12" y1="36.48" x2="114.5" y2="36.48" xlink:href="#linear-gradient-10"/><linearGradient id="linear-gradient-184" x1="2950.88" y1="66.24" x2="2954.54" y2="66.24" gradientTransform="matrix(-1, 0, 0, 1, 3034.5, 0)" xlink:href="#linear-gradient-5"/><linearGradient id="linear-gradient-185" x1="2946.77" y1="63.71" x2="2950.64" y2="63.71" gradientTransform="matrix(-1, 0, 0, 1, 3034.5, 0)" xlink:href="#linear-gradient-10"/><linearGradient id="linear-gradient-186" x1="2959.14" y1="81.85" x2="2965.96" y2="81.98" gradientTransform="matrix(-1, 0, 0, 1, 3034.5, 0)" xlink:href="#linear-gradient"/><linearGradient id="linear-gradient-187" x1="2951.46" y1="79.23" x2="2965.6" y2="73.67" gradientTransform="matrix(-1, 0, 0, 1, 3034.5, 0)" gradientUnits="userSpaceOnUse"><stop offset="0" stop-color="#fafafd"/><stop offset="1" stop-color="#d6d6d8"/></linearGradient><linearGradient id="linear-gradient-188" x1="2959.34" y1="72.9" x2="2966.25" y2="72.73" gradientTransform="matrix(-1, 0, 0, 1, 3034.5, 0)" xlink:href="#linear-gradient-10"/><linearGradient id="linear-gradient-189" x1="2969.62" y1="35.27" x2="2967.18" y2="49.15" gradientTransform="matrix(-1, 0, 0, 1, 3034.5, 0)" xlink:href="#linear-gradient-5"/><linearGradient id="linear-gradient-190" x1="2944.12" y1="38.93" x2="2966.59" y2="55.59" gradientTransform="matrix(-1, 0, 0, 1, 3034.5, 0)" xlink:href="#linear-gradient-5"/><linearGradient id="linear-gradient-191" x1="2948.25" y1="33.95" x2="2962.73" y2="60.63" gradientTransform="matrix(-1, 0, 0, 1, 3034.5, 0)" xlink:href="#linear-gradient-10"/><linearGradient id="linear-gradient-192" x1="2962.21" y1="59.71" x2="2952.28" y2="41.37" gradientTransform="matrix(-1, 0, 0, 1, 3034.5, 0)" xlink:href="#linear-gradient-2"/><linearGradient id="linear-gradient-193" x1="2950.7" y1="52.54" x2="2960.17" y2="43.41" gradientTransform="matrix(-1, 0, 0, 1, 3034.5, 0)" xlink:href="#linear-gradient-15"/><linearGradient id="linear-gradient-194" x1="2988.63" y1="122.22" x2="2992.29" y2="122.22" gradientTransform="matrix(-1, 0, 0, 1, 3034.5, 0)" xlink:href="#linear-gradient-5"/><linearGradient id="linear-gradient-195" x1="2984.52" y1="119.69" x2="2988.4" y2="119.69" gradientTransform="matrix(-1, 0, 0, 1, 3034.5, 0)" xlink:href="#linear-gradient-10"/><linearGradient id="linear-gradient-196" x1="2996.89" y1="137.83" x2="3003.71" y2="137.95" gradientTransform="matrix(-1, 0, 0, 1, 3034.5, 0)" xlink:href="#linear-gradient"/><linearGradient id="linear-gradient-197" x1="2989.22" y1="135.2" x2="3003.36" y2="129.65" xlink:href="#linear-gradient-187"/><linearGradient id="linear-gradient-198" x1="2997.1" y1="128.87" x2="3004" y2="128.7" gradientTransform="matrix(-1, 0, 0, 1, 3034.5, 0)" xlink:href="#linear-gradient-10"/><linearGradient id="linear-gradient-199" x1="3007.37" y1="91.24" x2="3004.93" y2="105.13" gradientTransform="matrix(-1, 0, 0, 1, 3034.5, 0)" xlink:href="#linear-gradient-5"/><linearGradient id="linear-gradient-200" x1="2981.87" y1="94.9" x2="3004.34" y2="111.57" gradientTransform="matrix(-1, 0, 0, 1, 3034.5, 0)" xlink:href="#linear-gradient-5"/><linearGradient id="linear-gradient-201" x1="2986.01" y1="89.93" x2="3000.48" y2="116.61" gradientTransform="matrix(-1, 0, 0, 1, 3034.5, 0)" xlink:href="#linear-gradient-10"/><linearGradient id="linear-gradient-202" x1="2999.97" y1="115.69" x2="2990.04" y2="97.34" gradientTransform="matrix(-1, 0, 0, 1, 3034.5, 0)" xlink:href="#linear-gradient-2"/><linearGradient id="linear-gradient-203" x1="2988.45" y1="108.52" x2="2997.92" y2="99.39" gradientTransform="matrix(-1, 0, 0, 1, 3034.5, 0)" xlink:href="#linear-gradient-15"/><linearGradient id="linear-gradient-204" x1="232.94" y1="191.83" x2="242.22" y2="174.25" gradientTransform="translate(-105.04)" xlink:href="#linear-gradient"/><linearGradient id="linear-gradient-205" x1="172.36" y1="178.27" x2="245.77" y2="178.27" gradientTransform="translate(-105.04)" xlink:href="#linear-gradient-2"/><linearGradient id="linear-gradient-206" x1="223.86" y1="193.14" x2="245.91" y2="193.14" gradientTransform="translate(-105.04)" xlink:href="#linear-gradient-2"/><linearGradient id="linear-gradient-207" x1="228.42" y1="200.96" x2="242.88" y2="183.46" gradientTransform="translate(-105.04)" xlink:href="#linear-gradient-2"/><linearGradient id="linear-gradient-208" x1="229.75" y1="193.14" x2="240.02" y2="193.14" gradientTransform="translate(-105.04)" xlink:href="#linear-gradient-5"/><linearGradient id="linear-gradient-209" x1="203.09" y1="173.41" x2="188.34" y2="187.95" gradientTransform="translate(-105.04)" xlink:href="#linear-gradient-5"/><linearGradient id="linear-gradient-210" x1="204.79" y1="177.92" x2="218.84" y2="156.74" gradientTransform="translate(-105.04)" xlink:href="#linear-gradient-7"/><linearGradient id="linear-gradient-211" x1="236.02" y1="185.38" x2="247.53" y2="177.47" gradientTransform="translate(-105.04)" xlink:href="#linear-gradient-8"/><linearGradient id="linear-gradient-212" x1="167.3" y1="193.03" x2="176.57" y2="175.45" gradientTransform="translate(-105.04)" xlink:href="#linear-gradient"/><linearGradient id="linear-gradient-213" x1="106.71" y1="179.47" x2="180.12" y2="179.47" gradientTransform="translate(-105.04)" xlink:href="#linear-gradient-2"/><linearGradient id="linear-gradient-214" x1="158.21" y1="194.34" x2="180.26" y2="194.34" gradientTransform="translate(-105.04)" xlink:href="#linear-gradient-2"/><linearGradient id="linear-gradient-215" x1="162.77" y1="202.16" x2="177.24" y2="184.66" gradientTransform="translate(-105.04)" xlink:href="#linear-gradient-2"/><linearGradient id="linear-gradient-216" x1="164.1" y1="194.34" x2="174.37" y2="194.34" gradientTransform="translate(-105.04)" xlink:href="#linear-gradient-5"/><linearGradient id="linear-gradient-217" x1="137.44" y1="174.61" x2="122.69" y2="189.15" gradientTransform="translate(-105.04)" xlink:href="#linear-gradient-5"/><linearGradient id="linear-gradient-218" x1="139.14" y1="179.12" x2="153.19" y2="157.93" gradientTransform="translate(-105.04)" xlink:href="#linear-gradient-7"/><linearGradient id="linear-gradient-219" x1="170.37" y1="186.58" x2="181.88" y2="178.66" gradientTransform="translate(-105.04)" xlink:href="#linear-gradient-8"/></defs><title>cameras</title><g class="cls-1"><g id="Layer_2" data-name="Layer 2"><g id="Layer_1-2" data-name="Layer 1"><path class="cls-2" d="M156.43,132.07a.86.86,0,0,1,1.22-1.12l20,12a9.6,9.6,0,0,1,3.82,4.16l.47,9.35-16.71-6.58Z"/><path class="cls-3" d="M159.06,130.86a1.74,1.74,0,0,1,2.47-.8l16.74,9.78a5.44,5.44,0,0,1,2.7,4.71v17.84a2.52,2.52,0,0,1-.72,1.41c3.14-1.58,51-33,51.68-33.72a.77.77,0,0,0,.18-.53,1.79,1.79,0,0,0,.2-.8l.15-14.32a5.3,5.3,0,0,0-.45-2.17,4.92,4.92,0,0,0-.3-.61,5.36,5.36,0,0,0-1.94-1.93l-16-9.07a1.68,1.68,0,0,0-1.28-.19,1.16,1.16,0,0,0-.76.13c-1.51.88-50,28.21-52,29.33A1.46,1.46,0,0,0,159.06,130.86Z"/><path class="cls-4" d="M158.92,131.56v17.85a5.44,5.44,0,0,0,2.69,4.7l16.74,9.79a1.73,1.73,0,0,0,2.14-.31h0a1.73,1.73,0,0,0,.47-1.2V144.55a5.44,5.44,0,0,0-2.7-4.71l-16.74-9.78a1.74,1.74,0,0,0-2.47.8.08.08,0,0,0,0,0A1.59,1.59,0,0,0,158.92,131.56Z"/><path class="cls-5" d="M170.22,137.63l1.05.61a15,15,0,0,1,7.41,12.91h0a6,6,0,0,1-9,5.18l-1.06-.62a15,15,0,0,1-7.4-12.91h0A6,6,0,0,1,170.22,137.63Z"/><path class="cls-6" d="M164.81,144.52a8.8,8.8,0,0,0,4.35,7.59l.62.36a3.51,3.51,0,0,0,5.3-3,8.8,8.8,0,0,0-4.36-7.59l-.61-.35a3.44,3.44,0,0,0-1.77-.49A3.53,3.53,0,0,0,164.81,144.52Zm1,.49a2.83,2.83,0,0,1,2.83-2.83,2.74,2.74,0,0,1,1.42.39l.5.29a7,7,0,0,1,3.49,6.08,2.82,2.82,0,0,1-4.25,2.44l-.49-.29A7.05,7.05,0,0,1,165.82,145Z"/><path class="cls-7" d="M165.61,126.51a1.66,1.66,0,0,1,1.17.22l16.89,9.86a5.49,5.49,0,0,1,2.72,4.76v18c0,.48-.06.85.17.79,13.58-7.72,46.63-30.44,47.21-31a.8.8,0,0,0,.18-.53,1.78,1.78,0,0,0,.19-.8V113.54a5.51,5.51,0,0,0-.45-2.17c-.09-.21-.19-.41-.3-.61a5.36,5.36,0,0,0-1.94-1.93l-16.74-9.78a1.68,1.68,0,0,0-1.28-.19,1.16,1.16,0,0,0-.76.13Z"/><path class="cls-8" d="M156.54,131.14a.82.82,0,0,1,1.1-.19l20,12a9.6,9.6,0,0,1,3.82,4.16l2.59,5.49a2.88,2.88,0,0,0,4.36,1l27.35-21.15,3.91-3,10.58-8.18a4.21,4.21,0,0,0,1.64-3.33h0c0-3.87-.55-4.88-3.95-6.89l-17.46-10.2a3.14,3.14,0,0,0-3-.1l-.05,0-.2.08c-2.26,1.14-50,29.35-50,29.35A1.56,1.56,0,0,0,156.54,131.14Z"/><path class="cls-9" d="M156.54,131.14a.82.82,0,0,1,1.1-.19l20,12a9.6,9.6,0,0,1,3.82,4.16l2.6,5.48a2.87,2.87,0,0,0,3.69,1.44,2.88,2.88,0,0,1-2.64-1.64l-2.6-5.49a9.63,9.63,0,0,0-3.82-4.17L157.93,130.3a.77.77,0,0,0-.76-.06A1.49,1.49,0,0,0,156.54,131.14Z"/><path class="cls-10" d="M235.78,76.3a3.07,3.07,0,0,1-1.17,2.42h0a1.73,1.73,0,0,1-.38.3c-1,.58-13.22,7.4-15.32,8.46a2,2,0,0,1-2.93-.81s-32.6-19.53-32.87-21.36a3.3,3.3,0,0,1,1.47-3.16c.37-.2,11.44-5.83,13.64-7.51a7.74,7.74,0,0,1,1.27-.82,3.06,3.06,0,0,1,3.31-.15l29.9,17.24A6.21,6.21,0,0,1,235,73.19,6.29,6.29,0,0,1,235.78,76.3Z"/><path class="cls-11" d="M217.4,79.42,187.5,62.18a3.09,3.09,0,0,0-4.63,2.67h0A6.22,6.22,0,0,0,186,70.23l29.9,17.24a3.09,3.09,0,0,0,4.63-2.67h0A6.22,6.22,0,0,0,217.4,79.42Z"/><path class="cls-12" d="M233,37.84V64.16a2.52,2.52,0,0,1-.89,1.94l-.06.05a1.71,1.71,0,0,1-.32.26s-14.4,8-15.54,8.49-1.58-.23-1.58-.23l0-1.44L213,72.59s-25.55-41.7-25.59-43.47a3,3,0,0,1,1.18-2.59s13.26-7,14.67-8a4.73,4.73,0,0,1,.46-.28l.06,0a2.52,2.52,0,0,1,2.61,0L229.28,31.4A7.42,7.42,0,0,1,233,37.84Z"/><path class="cls-13" d="M213.92,74.78,191,61.56a7.42,7.42,0,0,1-3.72-6.43V28.81a2.55,2.55,0,0,1,3.81-2.21L214,39.81a7.45,7.45,0,0,1,3.72,6.44V72.57A2.55,2.55,0,0,1,213.92,74.78Z"/><path class="cls-14" d="M212.86,73.55,191.34,61.14a7,7,0,0,1-3.5-6V30.37a2.39,2.39,0,0,1,3.59-2.07L213,40.71a7,7,0,0,1,3.49,6V71.48A2.39,2.39,0,0,1,212.86,73.55Z"/><path class="cls-15" d="M211.66,68.84,193.8,58.55a5,5,0,0,1-2.48-4.31V33.72a1.36,1.36,0,0,1,2.05-1.18l17.86,10.29a5,5,0,0,1,2.48,4.31V67.66A1.36,1.36,0,0,1,211.66,68.84Z"/><path class="cls-16" d="M202.2,61.36l-.07,0a18.08,18.08,0,0,1-9-15.67h0A6.5,6.5,0,0,1,202.83,40l.07,0a18.08,18.08,0,0,1,9,15.67h0A6.51,6.51,0,0,1,202.2,61.36Z"/><path class="cls-17" d="M216.69,79.85,187.31,62.91A2.9,2.9,0,0,0,183,65.43h0a5.48,5.48,0,0,0,2.73,4.74l29.74,17.14a2.67,2.67,0,0,0,4-2.31v-.37A5.52,5.52,0,0,0,216.69,79.85Z"/><path class="cls-18" d="M214.9,82v.18a1.55,1.55,0,0,1-2.34,1.35L190.19,70.65a3.28,3.28,0,0,1-1.64-2.83v-.18a1.55,1.55,0,0,1,1.9-1.52,1.66,1.66,0,0,1,.45.17l22.36,12.88A3.29,3.29,0,0,1,214.9,82Z"/><path class="cls-19" d="M214.9,82v.18a1.57,1.57,0,0,1-.16.7,1.49,1.49,0,0,1-.44-.17L191.93,69.83A3.29,3.29,0,0,1,190.29,67v-.19a1.56,1.56,0,0,1,.16-.69,1.66,1.66,0,0,1,.45.17l22.36,12.88A3.29,3.29,0,0,1,214.9,82Z"/><path class="cls-20" d="M202.26,59.5l-.06,0a14.93,14.93,0,0,1-7.47-12.94h0a5.36,5.36,0,0,1,8-4.65l.06,0a15,15,0,0,1,7.47,12.94h0A5.36,5.36,0,0,1,202.26,59.5Z"/><path class="cls-21" d="M202.33,57l0,0a10.76,10.76,0,0,1-5.39-9.32h0a3.87,3.87,0,0,1,5.8-3.35l0,0a10.76,10.76,0,0,1,5.39,9.32h0A3.87,3.87,0,0,1,202.33,57Z"/><path class="cls-22" d="M202.38,55.16l0,0a7.58,7.58,0,0,1-3.79-6.56h0a2.73,2.73,0,0,1,4.09-2.36l0,0a7.56,7.56,0,0,1,3.79,6.56h0A2.72,2.72,0,0,1,202.38,55.16Z"/><path class="cls-23" d="M284.27,104.47a3,3,0,0,1-1.17,2.41l0,0a3.4,3.4,0,0,1-.39.3c-1,.58-13.21,7.4-15.32,8.46a2,2,0,0,1-2.92-.81s-32.61-19.53-32.87-21.36A3.27,3.27,0,0,1,233,90.33c.37-.2,11.45-5.83,13.64-7.51A9.85,9.85,0,0,1,248,82a3.06,3.06,0,0,1,3.32-.14l29.89,17.23a6.31,6.31,0,0,1,2.28,2.28A6.23,6.23,0,0,1,284.27,104.47Z"/><path class="cls-24" d="M265.89,107.59,236,90.35A3.09,3.09,0,0,0,231.37,93h0a6.2,6.2,0,0,0,3.11,5.38l29.89,17.24A3.09,3.09,0,0,0,269,113h0A6.2,6.2,0,0,0,265.89,107.59Z"/><path class="cls-25" d="M281.5,66V92.33a2.53,2.53,0,0,1-.9,1.94l-.06,0a1.71,1.71,0,0,1-.32.26s-14.4,8-15.54,8.49-1.58-.23-1.58-.23l0-1.44-1.64-.65s-25.56-41.69-25.6-43.46a3,3,0,0,1,1.18-2.59s13.26-7,14.68-8c.15-.1.31-.19.46-.27l.05,0a2.52,2.52,0,0,1,2.61,0l22.92,13.21A7.44,7.44,0,0,1,281.5,66Z"/><path class="cls-26" d="M262.42,102.94,239.5,89.73a7.41,7.41,0,0,1-3.71-6.43V57a2.54,2.54,0,0,1,3.81-2.2L262.51,68a7.44,7.44,0,0,1,3.72,6.44v26.32A2.54,2.54,0,0,1,262.42,102.94Z"/><path class="cls-27" d="M261.35,101.72,239.83,89.31a7,7,0,0,1-3.49-6V58.54a2.39,2.39,0,0,1,3.58-2.07l21.52,12.41a7,7,0,0,1,3.49,6V99.65A2.39,2.39,0,0,1,261.35,101.72Z"/><path class="cls-28" d="M260.15,97,242.29,86.72a5,5,0,0,1-2.48-4.31V61.89a1.36,1.36,0,0,1,2.05-1.18L259.72,71a5,5,0,0,1,2.49,4.3V95.83A1.37,1.37,0,0,1,260.15,97Z"/><path class="cls-29" d="M250.69,89.53l-.06,0a18.08,18.08,0,0,1-9-15.67h0a6.5,6.5,0,0,1,9.74-5.63l.07,0a18.08,18.08,0,0,1,9.05,15.66h0A6.51,6.51,0,0,1,250.69,89.53Z"/><path class="cls-30" d="M265.18,108,235.8,91.08a2.9,2.9,0,0,0-4.34,2.51h0a5.45,5.45,0,0,0,2.74,4.74l29.74,17.15a2.67,2.67,0,0,0,4-2.31v-.37A5.52,5.52,0,0,0,265.18,108Z"/><path class="cls-31" d="M263.39,110.17v.18a1.45,1.45,0,0,1-.16.7,1.56,1.56,0,0,1-2.17.65L238.68,98.82A3.27,3.27,0,0,1,237.05,96v-.18a1.56,1.56,0,0,1,1.9-1.53,1.64,1.64,0,0,1,.44.18l22.37,12.88A3.27,3.27,0,0,1,263.39,110.17Z"/><path class="cls-32" d="M263.39,110.17v.18a1.45,1.45,0,0,1-.16.7,1.49,1.49,0,0,1-.44-.17L240.42,98a3.3,3.3,0,0,1-1.64-2.84V95a1.51,1.51,0,0,1,.17-.7,1.64,1.64,0,0,1,.44.18l22.37,12.88A3.27,3.27,0,0,1,263.39,110.17Z"/><path class="cls-33" d="M250.75,87.67l-.06,0a15,15,0,0,1-7.47-12.94h0a5.37,5.37,0,0,1,8.05-4.65l0,0A14.93,14.93,0,0,1,258.8,83h0A5.37,5.37,0,0,1,250.75,87.67Z"/><path class="cls-34" d="M250.82,85.21l0,0a10.76,10.76,0,0,1-5.39-9.32h0a3.87,3.87,0,0,1,5.8-3.35l0,0a10.77,10.77,0,0,1,5.39,9.33h0A3.87,3.87,0,0,1,250.82,85.21Z"/><path class="cls-35" d="M250.88,83.33l0,0a7.56,7.56,0,0,1-3.79-6.56h0a2.72,2.72,0,0,1,4.08-2.36l0,0A7.58,7.58,0,0,1,255,81h0A2.73,2.73,0,0,1,250.88,83.33Z"/><path class="cls-36" d="M46.6,80.07A3.2,3.2,0,0,0,45,82.84v23.65c0,2.36,3,7.64,5,8.81l57.74,33.6a6.56,6.56,0,0,0,6.58,0l75.24-43.36a6.61,6.61,0,0,0,3.29-5.71l.34-26.66a3.18,3.18,0,0,0-1.61-2.77L130.33,35.26a6.16,6.16,0,0,0-6.16,0Z"/><path class="cls-37" d="M189.42,70.79,130.69,37.11a7.54,7.54,0,0,0-7.51,0l-74.41,43a.6.6,0,0,0,0,1L107.5,115a7.53,7.53,0,0,0,7.53,0l74.4-43.13A.61.61,0,0,0,189.42,70.79Z"/><path class="cls-38" d="M45,82.91v26.18a8.25,8.25,0,0,0,4.14,7.15l57.69,33.07a8.21,8.21,0,0,0,8.23,0l74-42.91a8.24,8.24,0,0,0,4.11-7.13v-26a1.11,1.11,0,0,0-1.67-1L115.07,116.6a8.23,8.23,0,0,1-8.24,0L46.66,82A1.11,1.11,0,0,0,45,82.91Z"/><polygon class="cls-39" points="193.2 87.14 185.48 91.61 185.48 93.39 193.2 88.91 193.2 87.14"/><path class="cls-40" d="M45,97v1.78l62.59,35.9a6.72,6.72,0,0,0,6.72,0l24.9-14.44v-1.77l-24.9,14.43a6.72,6.72,0,0,1-6.72,0Z"/><polygon class="cls-41" points="139.2 126.01 185.48 99.2 185.48 86.73 139.2 113.55 139.2 126.01"/><polygon class="cls-42" points="139.21 121.11 139.21 126.02 185.48 99.2 185.48 86.73 180.94 89.36 180.94 96.93 139.21 121.11"/><polygon class="cls-43" points="180.94 89.36 180.94 96.93 185.48 99.2 185.48 86.73 180.94 89.36"/><path class="cls-44" d="M80.26,109.4v15.68a2.94,2.94,0,0,0,1.48,2.56h0V112a2.94,2.94,0,0,0-1.47-2.55Z"/><path class="cls-45" d="M76.81,107.42V123.1a3,3,0,0,0,1.47,2.56h0V110a3,3,0,0,0-1.47-2.55Z"/><path class="cls-46" d="M73.36,105.43v15.7a2.94,2.94,0,0,0,1.47,2.55h0V108a2.92,2.92,0,0,0-1.47-2.54Z"/><path class="cls-47" d="M69.9,103.44v15.71a3,3,0,0,0,1.48,2.55h0V106a2.94,2.94,0,0,0-1.47-2.55Z"/><path class="cls-48" d="M66.46,101.46v15.71a2.94,2.94,0,0,0,1.48,2.56h0V104a3,3,0,0,0-1.47-2.55Z"/><path class="cls-49" d="M63,99.47v15.72a2.92,2.92,0,0,0,1.48,2.55h0V102A3,3,0,0,0,63,99.47Z"/><path class="cls-50" d="M59.56,97.48v15.74A3,3,0,0,0,61,115.77h0V100a3,3,0,0,0-1.47-2.55Z"/><g class="cls-51"><path class="cls-52" d="M80.26,109.41v15.68a2.94,2.94,0,0,0,1.48,2.55v-.77a3,3,0,0,1-.59-1.78V110.2a2.78,2.78,0,0,0-.88-.79Z"/><path class="cls-53" d="M76.81,107.42v15.69a2.91,2.91,0,0,0,1.48,2.54h0v-.77a3,3,0,0,1-.61-1.78V108.19a2.66,2.66,0,0,0-.87-.76Z"/><path class="cls-54" d="M73.35,105.43v15.7a3,3,0,0,0,1.48,2.55h0v-.77a3,3,0,0,1-.6-1.78V106.2a2.66,2.66,0,0,0-.87-.76Z"/><path class="cls-55" d="M69.91,103.44v15.71a2.92,2.92,0,0,0,1.47,2.54h0v-.77a3,3,0,0,1-.59-1.78V104.22a2.83,2.83,0,0,0-.88-.77Z"/><path class="cls-56" d="M66.46,101.46v15.71a2.92,2.92,0,0,0,1.48,2.55h0V119a3,3,0,0,1-.59-1.79V102.25a2.78,2.78,0,0,0-.88-.79Z"/><path class="cls-57" d="M63,99.47v15.72a3,3,0,0,0,1.48,2.55V117a2.89,2.89,0,0,1-.59-1.76v-15a3.09,3.09,0,0,0-.88-.77Z"/><path class="cls-58" d="M59.55,97.48v15.73A2.94,2.94,0,0,0,61,115.77h0V115a2.93,2.93,0,0,1-.61-1.79v-15a2.78,2.78,0,0,0-.87-.76Z"/></g><path class="cls-59" d="M124.53,134.43h0a11.42,11.42,0,0,0,5.83-10h0a4.3,4.3,0,0,0-6.4-3.75h0a11.41,11.41,0,0,0-5.84,10h0A4.31,4.31,0,0,0,124.53,134.43Z"/><path class="cls-60" d="M119.58,130.63a3.71,3.71,0,0,0,1.08,2.67,2,2,0,0,0,.58.48,17.91,17.91,0,0,0,5.8,1.71,2.72,2.72,0,0,0,2.32-.68,7.81,7.81,0,0,0,4.15-7.57c0-1.28-2-3.65-3.67-4.7-.58-.35-1.35-.86-1.48-.9a3.46,3.46,0,0,0-1.72-.36,3.77,3.77,0,0,0-1.86.5h0A10.1,10.1,0,0,0,119.58,130.63Z"/><path class="cls-61" d="M129.54,135.12h0a8.06,8.06,0,0,0,4.13-7h0a3,3,0,0,0-4.53-2.66h0a8.08,8.08,0,0,0-4.13,7h0A3,3,0,0,0,129.54,135.12Z"/><path class="cls-62" d="M96.57,91.54h0a3,3,0,0,1-3,0h0a1,1,0,0,1,0-1.7h0a3,3,0,0,1,3,0h0A1,1,0,0,1,96.57,91.54Z"/><path class="cls-63" d="M103.16,95.3h0a3,3,0,0,1-3,0h0a1,1,0,0,1,0-1.7h0a3,3,0,0,1,3,0h0A1,1,0,0,1,103.16,95.3Z"/><path class="cls-64" d="M109.56,99.06h0a3,3,0,0,1-3,0h0a1,1,0,0,1,0-1.7h0a3,3,0,0,1,3,0h0A1,1,0,0,1,109.56,99.06Z"/><path class="cls-65" d="M103.05,87.81h0a3,3,0,0,1-3,0h0a1,1,0,0,1,0-1.7l0,0a3,3,0,0,1,3,0h0A1,1,0,0,1,103.05,87.81Z"/><path class="cls-66" d="M109.64,91.57l0,0a3,3,0,0,1-3,0h0a1,1,0,0,1,0-1.7h0a3,3,0,0,1,3,0h0A1,1,0,0,1,109.64,91.57Z"/><path class="cls-67" d="M116,95.34h0a3,3,0,0,1-3,0h0a1,1,0,0,1,0-1.7h0a3,3,0,0,1,3,0h0A1,1,0,0,1,116,95.34Z"/><path class="cls-68" d="M109.56,84h0a3,3,0,0,1-3,0h0a1,1,0,0,1,0-1.7h0a3,3,0,0,1,3,0h0A1,1,0,0,1,109.56,84Z"/><path class="cls-69" d="M116.16,87.77h0a3,3,0,0,1-3,0h0a1,1,0,0,1,0-1.7h0a2.94,2.94,0,0,1,3,0h0A1,1,0,0,1,116.16,87.77Z"/><path class="cls-70" d="M122.56,91.54h0a3,3,0,0,1-3,0h0a1,1,0,0,1,0-1.7h0a3,3,0,0,1,3,0h0A1,1,0,0,1,122.56,91.54Z"/><path class="cls-71" d="M83.73,84.05h0a3,3,0,0,1-3,0h0a1,1,0,0,1,0-1.7h0a3,3,0,0,1,3,0h0A1,1,0,0,1,83.73,84.05Z"/><path class="cls-72" d="M90.13,87.81h0a3,3,0,0,1-3,0h0a1,1,0,0,1,0-1.7l0,0a3,3,0,0,1,3,0h0A1,1,0,0,1,90.13,87.81Z"/><path class="cls-73" d="M90.2,80.32l0,0a3,3,0,0,1-3,0h0a1,1,0,0,1,0-1.7h0a3,3,0,0,1,3,0h0A1,1,0,0,1,90.2,80.32Z"/><path class="cls-74" d="M96.61,84.09h0a3,3,0,0,1-3,0h0a1,1,0,0,1,0-1.7h0a3,3,0,0,1,3,0h0A1,1,0,0,1,96.61,84.09Z"/><path class="cls-75" d="M96.72,76.52h0a3,3,0,0,1-3,0h0a1,1,0,0,1,0-1.7l0,0a3,3,0,0,1,3,0h0A1,1,0,0,1,96.72,76.52Z"/><path class="cls-76" d="M103.12,80.28l0,0a3,3,0,0,1-3,0h0a1,1,0,0,1,0-1.7h0a3,3,0,0,1,3,0h0A1,1,0,0,1,103.12,80.28Z"/><path class="cls-77" d="M116,80.32l0,0a3,3,0,0,1-3,0h0a1,1,0,0,1,0-1.7h0a3,3,0,0,1,3,0h0A1,1,0,0,1,116,80.32Z"/><path class="cls-78" d="M122.6,84.09h0a3,3,0,0,1-3,0h0a1,1,0,0,1,0-1.7h0a3,3,0,0,1,3,0h0A1,1,0,0,1,122.6,84.09Z"/><path class="cls-79" d="M129,87.85h0a3,3,0,0,1-3,0h0a1,1,0,0,1,0-1.69l0,0a3,3,0,0,1,3,0h0A1,1,0,0,1,129,87.85Z"/><path class="cls-80" d="M122.52,76.52h0a3,3,0,0,1-3,0h0a1,1,0,0,1,0-1.7l0,0a3,3,0,0,1,3,0h0A1,1,0,0,1,122.52,76.52Z"/><path class="cls-81" d="M129.12,80.28l0,0a3,3,0,0,1-3,0h0a1,1,0,0,1,0-1.7h0a3,3,0,0,1,3,0h0A1,1,0,0,1,129.12,80.28Z"/><path class="cls-82" d="M135.52,84.05h0a3,3,0,0,1-3,0h0a1,1,0,0,1,0-1.7h0a3,3,0,0,1,3,0h0A1,1,0,0,1,135.52,84.05Z"/><path class="cls-83" d="M103.16,72.83l0,0a3,3,0,0,1-3,0h0a1,1,0,0,1,0-1.7h0a3,3,0,0,1,3,0h0A1,1,0,0,1,103.16,72.83Z"/><path class="cls-84" d="M109.56,76.6h0a3,3,0,0,1-3,0h0a1,1,0,0,1,0-1.7h0a3,3,0,0,1,3,0h0A1,1,0,0,1,109.56,76.6Z"/><path class="cls-85" d="M109.68,69l0,0a3,3,0,0,1-3,0h0a1,1,0,0,1,0-1.7h0a3,3,0,0,1,3,0h0A1,1,0,0,1,109.68,69Z"/><path class="cls-86" d="M116.08,72.8h0a3,3,0,0,1-3,0h0a1,1,0,0,1,0-1.7h0a3,3,0,0,1,3,0h0A1,1,0,0,1,116.08,72.8Z"/><path class="cls-87" d="M129,72.75l0,0a3,3,0,0,1-3,0h0a1,1,0,0,1,0-1.7h0a3,3,0,0,1,3,0h0A1,1,0,0,1,129,72.75Z"/><path class="cls-88" d="M135.61,76.52h0a3,3,0,0,1-3,0h0a1,1,0,0,1,0-1.7h0a3,3,0,0,1,3,0h0A1,1,0,0,1,135.61,76.52Z"/><path class="cls-89" d="M142,80.28h0a3,3,0,0,1-3,0h0a1,1,0,0,1,0-1.7h0a3,3,0,0,1,3,0h0A1,1,0,0,1,142,80.28Z"/><path class="cls-90" d="M135.54,69h0a3,3,0,0,1-3,0h0a1,1,0,0,1,0-1.7h0a3,3,0,0,1,3,0h0A1,1,0,0,1,135.54,69Z"/><path class="cls-91" d="M142.13,72.72h0a3,3,0,0,1-3,0h0a1,1,0,0,1,0-1.7h0a3,3,0,0,1,3,0h0A1,1,0,0,1,142.13,72.72Z"/><path class="cls-92" d="M148.53,76.48h0a3,3,0,0,1-3,0h0a1,1,0,0,1,0-1.69l0,0a3,3,0,0,1,3,0h0A1,1,0,0,1,148.53,76.48Z"/><path class="cls-93" d="M116.18,65.27h0a3,3,0,0,1-3,0h0a1,1,0,0,1,0-1.7h0a3,3,0,0,1,3,0h0A1,1,0,0,1,116.18,65.27Z"/><path class="cls-94" d="M122.58,69h0a3,3,0,0,1-3,0h0a1,1,0,0,1,0-1.69l0,0a3,3,0,0,1,3,0h0A1,1,0,0,1,122.58,69Z"/><path class="cls-95" d="M122.69,61.46l0,0a3,3,0,0,1-3,0h0a1,1,0,0,1,0-1.7h0a3,3,0,0,1,3,0h0A1,1,0,0,1,122.69,61.46Z"/><path class="cls-96" d="M129.1,65.23h0a3,3,0,0,1-3,0h0a1,1,0,0,1,0-1.7h0a3,3,0,0,1,3,0h0A1,1,0,0,1,129.1,65.23Z"/><path class="cls-97" d="M142,65.27h0a3,3,0,0,1-2.95,0h0a1,1,0,0,1,0-1.7h0a3,3,0,0,1,3,0h0A1,1,0,0,1,142,65.27Z"/><path class="cls-98" d="M148.57,69h0a3,3,0,0,1-3,0h0a1,1,0,0,1,0-1.69l0,0a3,3,0,0,1,3,0h0A1,1,0,0,1,148.57,69Z"/><path class="cls-99" d="M155,72.79l0,0a3,3,0,0,1-3,0h0a1,1,0,0,1,0-1.7h0a3,3,0,0,1,3,0h0A1,1,0,0,1,155,72.79Z"/><path class="cls-100" d="M148.49,61.46l0,0a3,3,0,0,1-3,0h0a1,1,0,0,1,0-1.7h0a3,3,0,0,1,3,0h0A1,1,0,0,1,148.49,61.46Z"/><path class="cls-101" d="M155.09,65.23h0a3,3,0,0,1-3,0h0a1,1,0,0,1,0-1.7h0a3,3,0,0,1,3,0h0A1,1,0,0,1,155.09,65.23Z"/><path class="cls-102" d="M161.49,69h0a3,3,0,0,1-3,0h0a1,1,0,0,1,0-1.7h0a2.94,2.94,0,0,1,3,0h0A1,1,0,0,1,161.49,69Z"/><path class="cls-103" d="M129.13,57.78h0a3,3,0,0,1-3,0h0a1,1,0,0,1,0-1.69l0,0a3,3,0,0,1,3,0h0A1,1,0,0,1,129.13,57.78Z"/><path class="cls-104" d="M135.54,61.54h0a3,3,0,0,1-3,0h0a1,1,0,0,1,0-1.7h0a3,3,0,0,1,3,0h0A1,1,0,0,1,135.54,61.54Z"/><path class="cls-105" d="M135.65,54h0a3,3,0,0,1-3,0h0a1,1,0,0,1,0-1.7h0a3,3,0,0,1,3,0h0A1,1,0,0,1,135.65,54Z"/><path class="cls-106" d="M142.05,57.74h0a3,3,0,0,1-3,0h0a1,1,0,0,1,0-1.69l0,0a3,3,0,0,1,3,0h0A1,1,0,0,1,142.05,57.74Z"/><g class="cls-107"><path class="cls-108" d="M133.67,65.38h0a1.69,1.69,0,0,0,1.66,0h0a.55.55,0,0,0,0-1h0a1.66,1.66,0,0,0-1.67,0h0A.55.55,0,0,0,133.67,65.38Z"/><path class="cls-109" d="M130,67.49h0a1.67,1.67,0,0,0,1.66,0h0a.55.55,0,0,0,0-1h0a1.66,1.66,0,0,0-1.67,0h0A.55.55,0,0,0,130,67.49Z"/><path class="cls-110" d="M126.39,69.59h0a1.67,1.67,0,0,0,1.65,0h0a.55.55,0,0,0,0-.95h0a1.69,1.69,0,0,0-1.67,0h0A.54.54,0,0,0,126.39,69.59Z"/><path class="cls-111" d="M130,63.3h0a1.67,1.67,0,0,0,1.66,0h0a.55.55,0,0,0,0-1h0a1.66,1.66,0,0,0-1.67,0h0A.55.55,0,0,0,130,63.3Z"/><path class="cls-112" d="M126.35,65.4h0a1.69,1.69,0,0,0,1.66,0h0a.55.55,0,0,0,0-1h0a1.71,1.71,0,0,0-1.67,0h0A.55.55,0,0,0,126.35,65.4Z"/><path class="cls-113" d="M122.77,67.51h0a1.69,1.69,0,0,0,1.66,0h0a.55.55,0,0,0,0-1h0a1.66,1.66,0,0,0-1.67,0h0A.55.55,0,0,0,122.77,67.51Z"/><path class="cls-114" d="M126.39,61.17h0a1.67,1.67,0,0,0,1.65,0h0a.55.55,0,0,0,0-1h0a1.66,1.66,0,0,0-1.67,0h0A.55.55,0,0,0,126.39,61.17Z"/><path class="cls-115" d="M122.7,63.27h0a1.65,1.65,0,0,0,1.65,0h0a.55.55,0,0,0,0-1h0a1.66,1.66,0,0,0-1.67,0h0A.54.54,0,0,0,122.7,63.27Z"/><path class="cls-108" d="M119.12,65.38h0a1.69,1.69,0,0,0,1.66,0h0a.55.55,0,0,0,0-1h0a1.66,1.66,0,0,0-1.67,0h0A.55.55,0,0,0,119.12,65.38Z"/><path class="cls-116" d="M140.85,61.19h0a1.67,1.67,0,0,0,1.65,0h0a.55.55,0,0,0,0-1h0a1.66,1.66,0,0,0-1.67,0h0A.55.55,0,0,0,140.85,61.19Z"/><path class="cls-111" d="M137.27,63.3h0a1.67,1.67,0,0,0,1.66,0h0a.55.55,0,0,0,0-1h0a1.66,1.66,0,0,0-1.67,0h0A.55.55,0,0,0,137.27,63.3Z"/><path class="cls-117" d="M137.23,59.11h0a1.67,1.67,0,0,0,1.66,0h0a.55.55,0,0,0,0-1h0a1.66,1.66,0,0,0-1.67,0h0A.55.55,0,0,0,137.23,59.11Z"/><path class="cls-118" d="M133.65,61.21h0a1.69,1.69,0,0,0,1.66,0h0a.55.55,0,0,0,0-.95h0a1.71,1.71,0,0,0-1.67,0h0A.55.55,0,0,0,133.65,61.21Z"/><path class="cls-119" d="M133.58,57h0a1.69,1.69,0,0,0,1.66,0h0a.55.55,0,0,0,0-1h0a1.66,1.66,0,0,0-1.67,0h0A.55.55,0,0,0,133.58,57Z"/><path class="cls-120" d="M130,59.08h0a1.67,1.67,0,0,0,1.66,0h0a.55.55,0,0,0,0-1h0a1.66,1.66,0,0,0-1.67,0h0A.54.54,0,0,0,130,59.08Z"/><path class="cls-117" d="M122.79,59.11h0a1.67,1.67,0,0,0,1.66,0h0a.55.55,0,0,0,0-1h0a1.66,1.66,0,0,0-1.67,0h0A.55.55,0,0,0,122.79,59.11Z"/><path class="cls-118" d="M119.1,61.21h0a1.69,1.69,0,0,0,1.66,0h0a.55.55,0,0,0,0-.95h0a1.71,1.71,0,0,0-1.67,0h0A.55.55,0,0,0,119.1,61.21Z"/><path class="cls-121" d="M115.52,63.32h0a1.67,1.67,0,0,0,1.65,0h0a.55.55,0,0,0,0-.95h0a1.64,1.64,0,0,0-1.66,0h0A.55.55,0,0,0,115.52,63.32Z"/><path class="cls-119" d="M119.14,57h0a1.69,1.69,0,0,0,1.66,0h0a.55.55,0,0,0,0-1h0a1.66,1.66,0,0,0-1.67,0h0A.55.55,0,0,0,119.14,57Z"/><path class="cls-120" d="M115.45,59.08h0a1.67,1.67,0,0,0,1.66,0h0a.55.55,0,0,0,0-1h0a1.66,1.66,0,0,0-1.67,0h0A.54.54,0,0,0,115.45,59.08Z"/><path class="cls-116" d="M111.87,61.19h0a1.69,1.69,0,0,0,1.66,0h0a.55.55,0,0,0,0-1h0a1.66,1.66,0,0,0-1.67,0h0A.55.55,0,0,0,111.87,61.19Z"/><path class="cls-122" d="M130,54.92h0a1.67,1.67,0,0,0,1.66,0h0a.55.55,0,0,0,0-1h0A1.66,1.66,0,0,0,130,54h0A.55.55,0,0,0,130,54.92Z"/><path class="cls-123" d="M126.39,57h0a1.65,1.65,0,0,0,1.65,0h0a.55.55,0,0,0,0-1h0a1.71,1.71,0,0,0-1.67,0h0A.55.55,0,0,0,126.39,57Z"/><path class="cls-124" d="M126.33,52.79h0a1.67,1.67,0,0,0,1.66,0h0a.55.55,0,0,0,0-.95h0a1.66,1.66,0,0,0-1.67,0h0A.55.55,0,0,0,126.33,52.79Z"/><path class="cls-125" d="M122.75,54.89h0a1.67,1.67,0,0,0,1.66,0h0a.55.55,0,0,0,0-.95h0a1.69,1.69,0,0,0-1.67,0h0A.54.54,0,0,0,122.75,54.89Z"/></g><path class="cls-126" d="M158.56,46.84v7.81A4.76,4.76,0,0,1,156.12,59L132.55,72.39a10.89,10.89,0,0,1-10.89-.07L98.1,58.56a4.77,4.77,0,0,1-2.38-4.4V46.55s31.27-17,31.66-16.92Z"/><path class="cls-127" d="M156.13,55.24v.13a1.42,1.42,0,0,1-.72,1.24L133.55,69.1a.63.63,0,0,1-.91-.37.57.57,0,0,1,0-.18,1.44,1.44,0,0,1,.72-1.23L155.2,54.7l.14-.07A.63.63,0,0,1,156.13,55.24Z"/><path class="cls-128" d="M155.37,54.81v.12a1.45,1.45,0,0,1-.72,1.25L132.78,68.66a.61.61,0,0,1-.14.07.57.57,0,0,1,0-.18,1.44,1.44,0,0,1,.72-1.23L155.2,54.7l.14-.07A.57.57,0,0,1,155.37,54.81Z"/><path class="cls-129" d="M132.88,64.52,156.17,51.1a4.79,4.79,0,0,0,0-8.28L133,29.14a11.36,11.36,0,0,0-11.39-.08L98.12,42.44a4.78,4.78,0,0,0-.05,8.28l23.38,13.75A11.37,11.37,0,0,0,132.88,64.52Z"/><path class="cls-130" d="M132.76,64.08l23.17-13.35a4.46,4.46,0,0,0,0-7.7l-23.1-13.61a11.1,11.1,0,0,0-11.16-.08L98.36,42.65a4.45,4.45,0,0,0-.06,7.71L121.56,64A11.13,11.13,0,0,0,132.76,64.08Z"/><path class="cls-131" d="M155.82,49.21l-.32.21L130.91,63.18a7.79,7.79,0,0,1-7.56,0L99,48.94a3.53,3.53,0,0,1-.32-.21A2.59,2.59,0,0,1,99,44.36l24.39-13.23a7.8,7.8,0,0,1,7.58,0L155.5,44.83A2.6,2.6,0,0,1,155.82,49.21Z"/><path class="cls-132" d="M156.38,38v8.24c0,1.56-.71,2.16-2.26,3.05l-22,12.49c-3.62,2.11-6.35,2.11-10.13-.06L100.11,48.9c-1.56-.92-2.3-1.55-2.21-3.12V37.72S127,21.88,127.36,22Z"/><path class="cls-133" d="M158.56,33.14v7.8a4.77,4.77,0,0,1-2.43,4.33L132.55,58.69a10.89,10.89,0,0,1-10.89-.07L98.1,44.86a4.78,4.78,0,0,1-2.38-4.41v-7.6s31.27-17,31.66-16.92Z"/><path class="cls-134" d="M132.88,50.73,156.17,37.3a4.78,4.78,0,0,0,0-8.27L133,15.35a11.34,11.34,0,0,0-11.39-.08L98.12,28.65a4.78,4.78,0,0,0-.05,8.28l23.38,13.75A11.37,11.37,0,0,0,132.88,50.73Z"/><path class="cls-135" d="M156.13,41.54v.13a1.42,1.42,0,0,1-.72,1.24L133.55,55.4a.63.63,0,0,1-.91-.37.58.58,0,0,1,0-.19,1.44,1.44,0,0,1,.72-1.22L155.2,41l.14-.07A.63.63,0,0,1,156.13,41.54Z"/><path class="cls-136" d="M155.37,41.1v.13a1.45,1.45,0,0,1-.72,1.25L132.78,55a.61.61,0,0,1-.14.07.58.58,0,0,1,0-.19,1.44,1.44,0,0,1,.72-1.22L155.2,41l.14-.07A.55.55,0,0,1,155.37,41.1Z"/><path class="cls-137" d="M118.32,53.05l.19.15a1.8,1.8,0,0,0,1,1.83l.06.23a1,1,0,0,0,1.4-.8h0a2.49,2.49,0,0,0-1.23-2.15h0A1,1,0,0,0,118.32,53.05Z"/><path class="cls-138" d="M115.48,51.29h0a2.41,2.41,0,0,0,1.21,2.09h0a.79.79,0,0,0,1.18-.68h0a2.41,2.41,0,0,0-1.2-2.09h0A.78.78,0,0,0,115.48,51.29Z"/><path class="cls-139" d="M112.41,49.4h0a2.42,2.42,0,0,0,1.2,2.09h0a.78.78,0,0,0,1.17-.68h0a2.4,2.4,0,0,0-1.19-2.09h0A.78.78,0,0,0,112.41,49.4Z"/><path class="cls-140" d="M118.27,53.16h0a2.42,2.42,0,0,0,1.2,2.09h0a.78.78,0,0,0,1.17-.68h0a2.4,2.4,0,0,0-1.19-2.09h0A.78.78,0,0,0,118.27,53.16Z"/><path class="cls-141" d="M115.19,51.44h0a2.39,2.39,0,0,0,1.21,2.08h0a.79.79,0,0,0,1.18-.67h0a2.41,2.41,0,0,0-1.19-2.09h0A.79.79,0,0,0,115.19,51.44Z"/><path class="cls-142" d="M112.12,49.55h0a2.41,2.41,0,0,0,1.2,2.08h0A.78.78,0,0,0,114.5,51h0a2.39,2.39,0,0,0-1.19-2.09h0A.78.78,0,0,0,112.12,49.55Z"/><path class="cls-143" d="M132.76,50.31,155.93,37a4.46,4.46,0,0,0,0-7.71l-23.1-13.61a11.1,11.1,0,0,0-11.16-.08L98.36,28.87a4.46,4.46,0,0,0-.06,7.72l23.26,13.67A11.13,11.13,0,0,0,132.76,50.31Z"/><path class="cls-144" d="M155.82,35.43a2.53,2.53,0,0,1-.32.21L130.91,49.41a7.79,7.79,0,0,1-7.56,0L99,35.16a3.53,3.53,0,0,1-.32-.21A2.59,2.59,0,0,1,99,30.58l24.39-13.23a7.83,7.83,0,0,1,7.58,0L155.5,31.05A2.6,2.6,0,0,1,155.82,35.43Z"/><path class="cls-145" d="M156.38,24.21v8.24c0,1.57-.71,2.17-2.26,3L132.17,48c-3.62,2.11-6.35,2.11-10.13-.06L100.11,35.12c-1.56-.91-2.3-1.55-2.21-3.12V23.94S127,8.1,127.36,8.19Z"/><path class="cls-146" d="M158.56,19.36v7.81a4.76,4.76,0,0,1-2.43,4.32L132.55,44.91a10.92,10.92,0,0,1-10.89-.06L98.1,31.08a4.77,4.77,0,0,1-2.38-4.4V19.07S127,2.06,127.38,2.15Z"/><path class="cls-147" d="M132.88,37l23.29-13.42a4.78,4.78,0,0,0,0-8.27L133,1.57a11.36,11.36,0,0,0-11.39-.08L98.12,14.87a4.78,4.78,0,0,0-.05,8.28L121.45,36.9A11.37,11.37,0,0,0,132.88,37Z"/><path class="cls-148" d="M132.76,36.51l23.17-13.35a4.46,4.46,0,0,0,0-7.7L132.87,1.85a11.1,11.1,0,0,0-11.16-.08L98.36,15.08a4.45,4.45,0,0,0-.06,7.71l23.26,13.68A11.13,11.13,0,0,0,132.76,36.51Z"/><path class="cls-149" d="M154,21.2a2.23,2.23,0,0,1-.3.2L130.67,34.74a7.08,7.08,0,0,1-7.08,0l-23-13.24c-.11-.07-.21-.13-.3-.2a2.56,2.56,0,0,1,.29-4.24l23-13.38a7.07,7.07,0,0,1,7.1,0l23,13.28A2.57,2.57,0,0,1,154,21.2Z"/><path class="cls-150" d="M130.41,34l22.84-13.13a2,2,0,0,0,0-3.48L130.51,4.3a6.79,6.79,0,0,0-6.81,0L101,17.54a1.94,1.94,0,0,0,0,3.36L123.58,34A6.78,6.78,0,0,0,130.41,34Z"/><path class="cls-151" d="M133.67,24h0a1.69,1.69,0,0,0,1.66,0h0a.55.55,0,0,0,0-.95h0a1.71,1.71,0,0,0-1.67,0h0A.55.55,0,0,0,133.67,24Z"/><path class="cls-152" d="M130,26.09h0a1.69,1.69,0,0,0,1.66,0h0a.55.55,0,0,0,0-1h0a1.66,1.66,0,0,0-1.67,0h0A.55.55,0,0,0,130,26.09Z"/><path class="cls-153" d="M126.39,28.2h0a1.65,1.65,0,0,0,1.65,0h0a.55.55,0,0,0,0-.95h0a1.66,1.66,0,0,0-1.67,0h0A.55.55,0,0,0,126.39,28.2Z"/><path class="cls-154" d="M130,21.9h0a1.69,1.69,0,0,0,1.66,0h0a.55.55,0,0,0,0-.95h0A1.66,1.66,0,0,0,130,21h0A.55.55,0,0,0,130,21.9Z"/><path class="cls-155" d="M126.35,24h0A1.67,1.67,0,0,0,128,24h0a.55.55,0,0,0,0-1h0a1.66,1.66,0,0,0-1.67,0h0A.54.54,0,0,0,126.35,24Z"/><path class="cls-156" d="M122.77,26.11h0a1.69,1.69,0,0,0,1.66,0h0a.55.55,0,0,0,0-.95h0a1.66,1.66,0,0,0-1.67,0h0A.55.55,0,0,0,122.77,26.11Z"/><path class="cls-157" d="M126.39,19.77h0a1.67,1.67,0,0,0,1.65,0h0a.55.55,0,0,0,0-1h0a1.66,1.66,0,0,0-1.67,0h0A.55.55,0,0,0,126.39,19.77Z"/><path class="cls-158" d="M122.7,21.88h0a1.65,1.65,0,0,0,1.65,0h0a.55.55,0,0,0,0-1h0a1.66,1.66,0,0,0-1.67,0h0A.55.55,0,0,0,122.7,21.88Z"/><path class="cls-151" d="M119.12,24h0a1.69,1.69,0,0,0,1.66,0h0a.55.55,0,0,0,0-.95h0a1.71,1.71,0,0,0-1.67,0h0A.55.55,0,0,0,119.12,24Z"/><path class="cls-159" d="M140.85,19.79h0a1.67,1.67,0,0,0,1.65,0h0a.55.55,0,0,0,0-.95h0a1.71,1.71,0,0,0-1.67,0h0A.55.55,0,0,0,140.85,19.79Z"/><path class="cls-154" d="M137.27,21.9h0a1.69,1.69,0,0,0,1.66,0h0a.55.55,0,0,0,0-.95h0a1.66,1.66,0,0,0-1.67,0h0A.55.55,0,0,0,137.27,21.9Z"/><path class="cls-160" d="M137.23,17.71h0a1.69,1.69,0,0,0,1.66,0h0a.55.55,0,0,0,0-.95h0a1.66,1.66,0,0,0-1.67,0h0A.55.55,0,0,0,137.23,17.71Z"/><path class="cls-161" d="M133.65,19.81h0a1.67,1.67,0,0,0,1.66,0h0a.55.55,0,0,0,0-.95h0a1.66,1.66,0,0,0-1.67,0h0A.54.54,0,0,0,133.65,19.81Z"/><path class="cls-162" d="M133.58,15.58h0a1.69,1.69,0,0,0,1.66,0h0a.55.55,0,0,0,0-.95h0a1.66,1.66,0,0,0-1.67,0h0A.55.55,0,0,0,133.58,15.58Z"/><path class="cls-163" d="M130,17.69h0a1.67,1.67,0,0,0,1.66,0h0a.55.55,0,0,0,0-1h0a1.66,1.66,0,0,0-1.67,0h0A.55.55,0,0,0,130,17.69Z"/><path class="cls-160" d="M122.79,17.71h0a1.69,1.69,0,0,0,1.66,0h0a.55.55,0,0,0,0-.95h0a1.66,1.66,0,0,0-1.67,0h0A.55.55,0,0,0,122.79,17.71Z"/><path class="cls-161" d="M119.1,19.81h0a1.67,1.67,0,0,0,1.66,0h0a.55.55,0,0,0,0-.95h0a1.66,1.66,0,0,0-1.67,0h0A.54.54,0,0,0,119.1,19.81Z"/><path class="cls-164" d="M115.52,21.92h0a1.67,1.67,0,0,0,1.65,0h0a.55.55,0,0,0,0-.95h0a1.64,1.64,0,0,0-1.66,0h0A.55.55,0,0,0,115.52,21.92Z"/><path class="cls-162" d="M119.14,15.58h0a1.69,1.69,0,0,0,1.66,0h0a.55.55,0,0,0,0-.95h0a1.66,1.66,0,0,0-1.67,0h0A.55.55,0,0,0,119.14,15.58Z"/><path class="cls-163" d="M115.45,17.69h0a1.67,1.67,0,0,0,1.66,0h0a.55.55,0,0,0,0-1h0a1.66,1.66,0,0,0-1.67,0h0A.55.55,0,0,0,115.45,17.69Z"/><path class="cls-159" d="M111.87,19.79h0a1.69,1.69,0,0,0,1.66,0h0a.55.55,0,0,0,0-.95h0a1.71,1.71,0,0,0-1.67,0h0A.55.55,0,0,0,111.87,19.79Z"/><path class="cls-165" d="M130,13.52h0a1.67,1.67,0,0,0,1.66,0h0a.55.55,0,0,0,0-.95h0a1.66,1.66,0,0,0-1.67,0h0A.55.55,0,0,0,130,13.52Z"/><path class="cls-166" d="M126.39,15.62h0a1.65,1.65,0,0,0,1.65,0h0a.55.55,0,0,0,0-1h0a1.69,1.69,0,0,0-1.67,0h0A.54.54,0,0,0,126.39,15.62Z"/><path class="cls-167" d="M126.33,11.39h0a1.69,1.69,0,0,0,1.66,0h0a.55.55,0,0,0,0-1h0a1.66,1.66,0,0,0-1.67,0h0A.55.55,0,0,0,126.33,11.39Z"/><path class="cls-168" d="M122.75,13.5h0a1.67,1.67,0,0,0,1.66,0h0a.55.55,0,0,0,0-.95h0a1.66,1.66,0,0,0-1.67,0h0A.55.55,0,0,0,122.75,13.5Z"/><path class="cls-169" d="M156.13,27.76v.13a1.42,1.42,0,0,1-.72,1.24L133.55,41.62a.62.62,0,0,1-.91-.37.57.57,0,0,1,0-.18,1.44,1.44,0,0,1,.72-1.23L155.2,27.22a.35.35,0,0,1,.14-.06A.62.62,0,0,1,156.13,27.76Z"/><path class="cls-170" d="M155.37,27.33v.12a1.45,1.45,0,0,1-.72,1.25L132.78,41.18a.61.61,0,0,1-.14.07.57.57,0,0,1,0-.18,1.44,1.44,0,0,1,.72-1.23L155.2,27.22a.35.35,0,0,1,.14-.06A.47.47,0,0,1,155.37,27.33Z"/><path class="cls-171" d="M118.32,39.27l.19.15a1.8,1.8,0,0,0,1,1.83l.06.23a1,1,0,0,0,1.4-.79h0a2.51,2.51,0,0,0-1.23-2.16h0A1,1,0,0,0,118.32,39.27Z"/><path class="cls-172" d="M115.48,37.52h0a2.39,2.39,0,0,0,1.21,2.08h0a.79.79,0,0,0,1.18-.67h0a2.4,2.4,0,0,0-1.2-2.09h0A.78.78,0,0,0,115.48,37.52Z"/><path class="cls-173" d="M112.41,35.63h0a2.42,2.42,0,0,0,1.2,2.09h0a.78.78,0,0,0,1.17-.68h0A2.42,2.42,0,0,0,113.6,35h0A.78.78,0,0,0,112.41,35.63Z"/><path class="cls-174" d="M118.27,39.39h0a2.41,2.41,0,0,0,1.2,2.08h0a.78.78,0,0,0,1.17-.67h0a2.39,2.39,0,0,0-1.19-2.09h0A.78.78,0,0,0,118.27,39.39Z"/><path class="cls-175" d="M115.19,37.66h0a2.39,2.39,0,0,0,1.21,2.08h0a.79.79,0,0,0,1.18-.68h0A2.41,2.41,0,0,0,116.39,37h0A.79.79,0,0,0,115.19,37.66Z"/><path class="cls-176" d="M112.12,35.77h0a2.41,2.41,0,0,0,1.2,2.08h0a.77.77,0,0,0,1.17-.67h0a2.39,2.39,0,0,0-1.19-2.09h0A.79.79,0,0,0,112.12,35.77Z"/><path class="cls-177" d="M83.62,65.73a9.78,9.78,0,0,1-3.66,1c.39,0,.69,0,.8-.05A8.81,8.81,0,0,0,83.62,65.73Z"/><path class="cls-178" d="M83.86,65.6a9.57,9.57,0,0,0,3.88-3.78A11.57,11.57,0,0,1,83.86,65.6Z"/><path class="cls-179" d="M53.31,77.23v2.4a1.25,1.25,0,0,0,.63,1.09l15,8.59a7.12,7.12,0,0,0,7.1,0L91,80.64a1.26,1.26,0,0,0,.63-1.09v-2.4A1.58,1.58,0,0,0,91,76c-1.69-1.48-6.94-.23-9.43-1.45A8,8,0,0,0,75.43,74l-.51.18a7.69,7.69,0,0,1-5.1,0l-.35-.13a8.09,8.09,0,0,0-6.23.5c-2.51,1.21-7.72,0-9.4,1.47A1.57,1.57,0,0,0,53.31,77.23Z"/><path class="cls-180" d="M54.21,77l14.7,8.43a7.12,7.12,0,0,0,7.1,0L90.68,77a.74.74,0,0,0,.12-1.19c-2.55-2.26-10.53-5.11-10.53-9.48l-7.9-1.78L64.6,66.31c0,4.38-8,7.26-10.51,9.53A.73.73,0,0,0,54.21,77Z"/><path class="cls-181" d="M55.34,76.07,69.13,84a6.66,6.66,0,0,0,6.66,0l13.76-8a.7.7,0,0,0,.12-1.12c-2.4-2.12-9.88-9.79-9.88-13.89l-7.42,3.33L65.09,61c0,4.11-7.48,11.82-9.87,14A.69.69,0,0,0,55.34,76.07Z"/><path class="cls-182" d="M53.22,50.55C55,65.47,71.1,67.12,76.49,66.88c.25,0,1.43,0,2.49-.09a9.78,9.78,0,0,1-8.14-4.47,28.15,28.15,0,0,1-1.65-28.14l.07-.16a9.88,9.88,0,0,1,8.82-5.49C67.33,27.32,51.36,35.17,53.22,50.55Z"/><path class="cls-183" d="M66.19,46.81a28.12,28.12,0,0,0,4.65,15.51A9.78,9.78,0,0,0,79,66.79h.51l.42,0h0a9.78,9.78,0,0,0,3.66-1,.94.94,0,0,0,.24-.13,11.57,11.57,0,0,0,3.88-3.78,21.1,21.1,0,0,0,3.07-8.16,27.39,27.39,0,0,0-3-18.44c-.4-.75-.84-1.49-1.3-2.21a9.94,9.94,0,0,0-17.2,1l-.07.16A28.16,28.16,0,0,0,66.19,46.81Z"/><path class="cls-184" d="M70.11,35.33l.07-.15A9.13,9.13,0,0,1,86,34.26h0a25.92,25.92,0,0,1,1.51,25.83l-.07.14a9.12,9.12,0,0,1-15.78.92h0A25.85,25.85,0,0,1,70.11,35.33Z"/><path class="cls-185" d="M71.91,37.23l0-.12a7.19,7.19,0,0,1,12.43-.73h0a21.86,21.86,0,0,1,1.28,21.8l-.06.12A7.19,7.19,0,0,1,73.18,59h0A21.86,21.86,0,0,1,71.91,37.23Z"/><path class="cls-186" d="M75.59,47.4a8.83,8.83,0,0,1,.93-3.93l0,0a2.31,2.31,0,0,1,4-.23,8.73,8.73,0,0,1,.52,8.74l0,0a2.31,2.31,0,0,1-4,.23A8.71,8.71,0,0,1,75.59,47.4Z"/><path class="cls-187" d="M45.87,121.71a10,10,0,0,1-3.66,1c.39,0,.68,0,.8,0A8.88,8.88,0,0,0,45.87,121.71Z"/><path class="cls-188" d="M46.1,121.58A9.51,9.51,0,0,0,50,117.8,11.57,11.57,0,0,1,46.1,121.58Z"/><path class="cls-189" d="M15.56,133.21v2.4a1.24,1.24,0,0,0,.63,1.08l15,8.59a7.12,7.12,0,0,0,7.1,0l14.94-8.65a1.25,1.25,0,0,0,.62-1.08v-2.41a1.57,1.57,0,0,0-.53-1.18c-1.69-1.48-6.95-.22-9.44-1.45a8,8,0,0,0-6.18-.48l-.51.18a7.73,7.73,0,0,1-5.09,0l-.36-.12a8.06,8.06,0,0,0-6.23.49c-2.5,1.21-7.72,0-9.39,1.48A1.54,1.54,0,0,0,15.56,133.21Z"/><path class="cls-190" d="M16.46,133l14.7,8.43a7.12,7.12,0,0,0,7.1,0l14.66-8.5a.73.73,0,0,0,.13-1.19c-2.56-2.26-10.53-5.11-10.53-9.48l-7.91-1.78-7.76,1.81c0,4.38-8,7.26-10.52,9.53A.73.73,0,0,0,16.46,133Z"/><path class="cls-191" d="M17.58,132,31.38,140a6.66,6.66,0,0,0,6.66,0l13.76-8a.69.69,0,0,0,.11-1.12C49.52,128.73,42,121.05,42,117l-7.42,3.33L27.33,117c0,4.11-7.47,11.81-9.86,13.94A.69.69,0,0,0,17.58,132Z"/><path class="cls-192" d="M15.46,106.52c1.81,14.92,17.89,16.57,23.28,16.33l2.49-.08a9.85,9.85,0,0,1-8.15-4.48,28.21,28.21,0,0,1-1.65-28.14l.08-.16a9.86,9.86,0,0,1,8.81-5.48C29.58,83.29,13.61,91.14,15.46,106.52Z"/><path class="cls-193" d="M28.44,102.79a28.18,28.18,0,0,0,4.64,15.5,9.85,9.85,0,0,0,8.15,4.48,4.35,4.35,0,0,0,.51,0l.42,0h.05a10,10,0,0,0,3.66-1c.07,0,.16-.08.23-.13A11.57,11.57,0,0,0,50,117.8a21.22,21.22,0,0,0,3.08-8.17A27.3,27.3,0,0,0,50,91.2,24.57,24.57,0,0,0,48.7,89a9.94,9.94,0,0,0-17.19,1l-.08.16A28.19,28.19,0,0,0,28.44,102.79Z"/><path class="cls-194" d="M32.35,91.3l.07-.14a9.12,9.12,0,0,1,15.78-.93h0a25.89,25.89,0,0,1,1.52,25.83l-.08.14a9.12,9.12,0,0,1-15.78.93h0A25.92,25.92,0,0,1,32.35,91.3Z"/><path class="cls-195" d="M34.15,93.2l.06-.11a7.18,7.18,0,0,1,12.43-.73h0a21.86,21.86,0,0,1,1.27,21.8l0,.11a7.18,7.18,0,0,1-12.43.73h0A21.86,21.86,0,0,1,34.15,93.2Z"/><path class="cls-196" d="M37.84,103.37a8.65,8.65,0,0,1,.93-3.92l0,0a2.31,2.31,0,0,1,4-.23,8.76,8.76,0,0,1,.51,8.74l0,0a2.31,2.31,0,0,1-4,.23A8.74,8.74,0,0,1,37.84,103.37Z"/><path class="cls-197" d="M143.36,178.23a.86.86,0,0,0-1.22-1.12l-20,12a9.63,9.63,0,0,0-3.82,4.15l-.47,9.35L134.55,196Z"/><path class="cls-198" d="M140.73,177a1.74,1.74,0,0,0-2.47-.8L121.52,186a5.44,5.44,0,0,0-2.7,4.71v17.85a2.52,2.52,0,0,0,.72,1.4c-3.14-1.57-51-33-51.68-33.72a.75.75,0,0,1-.18-.53,1.75,1.75,0,0,1-.2-.8l-.15-14.32a5.34,5.34,0,0,1,.45-2.17,4.2,4.2,0,0,1,.3-.6A5.38,5.38,0,0,1,70,155.88l16-9.07a1.73,1.73,0,0,1,1.28-.19,1.16,1.16,0,0,1,.76.13c1.51.88,50,28.22,52,29.33A1.43,1.43,0,0,1,140.73,177Z"/><path class="cls-199" d="M140.87,177.72v17.85a5.45,5.45,0,0,1-2.69,4.71l-16.74,9.78a1.73,1.73,0,0,1-2.14-.3h0a1.7,1.7,0,0,1-.47-1.19V190.71a5.44,5.44,0,0,1,2.7-4.71l16.74-9.78a1.74,1.74,0,0,1,2.47.8.09.09,0,0,1,0,0A1.51,1.51,0,0,1,140.87,177.72Z"/><path class="cls-200" d="M129.57,183.79l-1,.61a15,15,0,0,0-7.41,12.92h0a6,6,0,0,0,9,5.17l1.05-.62a15,15,0,0,0,7.4-12.91h0A6,6,0,0,0,129.57,183.79Z"/><path class="cls-201" d="M131.45,187.16a3.44,3.44,0,0,0-1.77.49l-.61.36a8.78,8.78,0,0,0-4.36,7.58,3.51,3.51,0,0,0,5.3,3l.62-.36a8.79,8.79,0,0,0,4.35-7.59A3.52,3.52,0,0,0,131.45,187.16Zm-1,10.1-.49.29a2.89,2.89,0,0,1-1.43.38,2.82,2.82,0,0,1-2.82-2.82,7.07,7.07,0,0,1,3.49-6.09l.5-.29a2.74,2.74,0,0,1,1.42-.39,2.83,2.83,0,0,1,2.83,2.83A7.07,7.07,0,0,1,130.47,197.26Z"/><path class="cls-202" d="M134.19,172.67a1.73,1.73,0,0,0-1.18.22l-16.89,9.87a5.48,5.48,0,0,0-2.72,4.75v18c0,.48.06.86-.17.79-13.58-7.72-46.63-30.43-47.21-31a.8.8,0,0,1-.18-.53,1.75,1.75,0,0,1-.19-.8V159.7a5.51,5.51,0,0,1,.45-2.17,5.59,5.59,0,0,1,.3-.6A5.41,5.41,0,0,1,68.35,155l16.73-9.78a1.73,1.73,0,0,1,1.28-.19,1.16,1.16,0,0,1,.76.13Z"/><path class="cls-203" d="M143.25,177.3a.82.82,0,0,0-1.1-.19l-20,12a9.63,9.63,0,0,0-3.82,4.17l-2.59,5.48a2.87,2.87,0,0,1-4.35,1L84,178.63l-3.91-3-10.58-8.17a4.25,4.25,0,0,1-1.64-3.34h0c0-3.87.55-4.87,4-6.89L89.29,147a3.14,3.14,0,0,1,3-.1l0,0a.88.88,0,0,1,.2.09c2.26,1.13,50,29.34,50,29.34A1.56,1.56,0,0,1,143.25,177.3Z"/><path class="cls-204" d="M143.25,177.3a.82.82,0,0,0-1.1-.19l-20,12a9.63,9.63,0,0,0-3.82,4.17l-2.6,5.48a2.86,2.86,0,0,1-3.68,1.43,2.87,2.87,0,0,0,2.63-1.64l2.6-5.49a9.6,9.6,0,0,1,3.82-4.16l20.78-12.42a.8.8,0,0,1,.76-.06A1.49,1.49,0,0,1,143.25,177.3Z"/><path class="cls-205" d="M77.71,179.43a.86.86,0,0,0-1.21-1.12l-20,12a9.63,9.63,0,0,0-3.81,4.16l-.47,9.35,16.7-6.58Z"/><path class="cls-206" d="M75.08,178.22a1.74,1.74,0,0,0-2.47-.8L55.87,187.2a5.46,5.46,0,0,0-2.7,4.71v17.84a2.52,2.52,0,0,0,.72,1.41c-3.14-1.58-51-33-51.68-33.72a.8.8,0,0,1-.18-.53,1.78,1.78,0,0,1-.19-.8l-.16-14.32a5.51,5.51,0,0,1,.45-2.17,5.59,5.59,0,0,1,.3-.6,5.38,5.38,0,0,1,1.94-1.94l16-9.07a1.68,1.68,0,0,1,1.28-.19,1.16,1.16,0,0,1,.76.13c1.52.88,50,28.22,52,29.33A1.4,1.4,0,0,1,75.08,178.22Z"/><path class="cls-207" d="M75.23,178.92v17.85a5.46,5.46,0,0,1-2.7,4.71l-16.74,9.78a1.71,1.71,0,0,1-2.13-.3h0a1.71,1.71,0,0,1-.47-1.2V191.91a5.46,5.46,0,0,1,2.7-4.71l16.74-9.78a1.74,1.74,0,0,1,2.47.8s0,0,0,.05A1.67,1.67,0,0,1,75.23,178.92Z"/><path class="cls-208" d="M63.92,185l-1.05.61a15,15,0,0,0-7.41,12.91h0a6,6,0,0,0,9,5.18l1-.62a14.94,14.94,0,0,0,7.41-12.91h0A6,6,0,0,0,63.92,185Z"/><path class="cls-209" d="M65.81,188.36a3.44,3.44,0,0,0-1.78.49l-.61.36a8.76,8.76,0,0,0-4.35,7.58,3.51,3.51,0,0,0,5.3,3l.61-.36a8.77,8.77,0,0,0,4.35-7.59A3.52,3.52,0,0,0,65.81,188.36Zm-1,10.09-.5.29a2.82,2.82,0,0,1-4.25-2.43,7.06,7.06,0,0,1,3.49-6.09l.5-.29a2.74,2.74,0,0,1,1.42-.39,2.83,2.83,0,0,1,2.83,2.83A7,7,0,0,1,64.83,198.45Z"/><path class="cls-210" d="M68.54,173.87a1.73,1.73,0,0,0-1.18.22L50.47,184a5.51,5.51,0,0,0-2.72,4.76v18c0,.48.06.85-.17.79C34,199.78,1,177.06.37,176.48A.8.8,0,0,1,.19,176a1.75,1.75,0,0,1-.19-.8V160.9a5.51,5.51,0,0,1,.45-2.17,4.25,4.25,0,0,1,.31-.6,5.38,5.38,0,0,1,1.94-1.94l16.73-9.78a1.73,1.73,0,0,1,1.28-.19,1.16,1.16,0,0,1,.76.13Z"/><path class="cls-211" d="M77.61,178.5a.84.84,0,0,0-1.11-.19l-20,12a9.63,9.63,0,0,0-3.82,4.17l-2.59,5.48a2.87,2.87,0,0,1-4.35,1L18.36,179.83l-3.9-3L3.88,168.64a4.22,4.22,0,0,1-1.64-3.34h0c0-3.87.54-4.88,4-6.89l17.45-10.2a3.14,3.14,0,0,1,3-.1l.05,0a.88.88,0,0,1,.2.09c2.26,1.13,50,29.34,50,29.34A1.6,1.6,0,0,1,77.61,178.5Z"/><path class="cls-212" d="M77.61,178.5a.84.84,0,0,0-1.11-.19l-20,12a9.63,9.63,0,0,0-3.82,4.17l-2.59,5.48a2.87,2.87,0,0,1-3.69,1.43A2.89,2.89,0,0,0,49,199.73l2.59-5.49a9.6,9.6,0,0,1,3.82-4.16l20.78-12.42a.8.8,0,0,1,.76-.06A1.54,1.54,0,0,1,77.61,178.5Z"/></g></g></g></svg>