<svg xmlns="http://www.w3.org/2000/svg" xmlns:xlink="http://www.w3.org/1999/xlink" viewBox="0 0 62.12 58.82"><defs><style>.cls-1{fill:#40454d;}.cls-2{clip-path:url(#clip-path);}.cls-3{clip-path:url(#clip-path-2);}.cls-4{clip-path:url(#clip-path-3);}.cls-5{clip-path:url(#clip-path-4);}.cls-6{clip-path:url(#clip-path-5);}.cls-7{clip-path:url(#clip-path-6);}.cls-8{clip-path:url(#clip-path-7);}.cls-9{clip-path:url(#clip-path-8);}.cls-10{clip-path:url(#clip-path-9);}</style><clipPath id="clip-path"><circle class="cls-1" cx="32.48" cy="52.87" r="1.5"/></clipPath><clipPath id="clip-path-2"><path class="cls-1" d="M36.49,54.37A1.5,1.5,0,1,0,35,52.87,1.5,1.5,0,0,0,36.49,54.37Z"/></clipPath><clipPath id="clip-path-3"><circle class="cls-1" cx="40.51" cy="52.87" r="1.5"/></clipPath><clipPath id="clip-path-4"><circle class="cls-1" cx="32.48" cy="38.29" r="1.5"/></clipPath><clipPath id="clip-path-5"><path class="cls-1" d="M36.49,39.79A1.5,1.5,0,1,0,35,38.29,1.5,1.5,0,0,0,36.49,39.79Z"/></clipPath><clipPath id="clip-path-6"><circle class="cls-1" cx="40.51" cy="38.29" r="1.5"/></clipPath><clipPath id="clip-path-7"><circle class="cls-1" cx="32.48" cy="23.73" r="1.5"/></clipPath><clipPath id="clip-path-8"><path class="cls-1" d="M36.49,25.22A1.5,1.5,0,1,0,35,23.73,1.5,1.5,0,0,0,36.49,25.22Z"/></clipPath><clipPath id="clip-path-9"><circle class="cls-1" cx="40.51" cy="23.73" r="1.5"/></clipPath></defs><title>cloud-storage_icon</title><g id="Layer_2" data-name="Layer 2"><g id="Layer_1-2" data-name="Layer 1"><path class="cls-1" d="M45.79,17.77H17.59a1.35,1.35,0,0,0-1.35,1.36v9.15a1.34,1.34,0,0,0,1.35,1.35h2.23v2.69H17.59a1.34,1.34,0,0,0-1.35,1.35v9.15a1.35,1.35,0,0,0,1.35,1.36h2.23V47H17.59a1.35,1.35,0,0,0-1.35,1.36v9.15a1.34,1.34,0,0,0,1.35,1.35h28.2a1.35,1.35,0,0,0,1.36-1.35V48.32A1.36,1.36,0,0,0,45.79,47H43.56V44.18h2.23a1.36,1.36,0,0,0,1.36-1.36V33.67a1.35,1.35,0,0,0-1.36-1.35H43.56V29.63h2.23a1.35,1.35,0,0,0,1.36-1.35V19.13A1.36,1.36,0,0,0,45.79,17.77ZM44.62,56.3H18.76V49.49H44.62ZM39.86,47H23.52V44.18H39.86Zm4.76-5.31H18.76V34.84H44.62Zm-4.76-9.33H23.52V29.63H39.86Zm4.76-5.21H18.76V20.3H44.62Z"/><path class="cls-1" d="M62.12,21.82c0-.13,0-.25,0-.38v0l0-.37v0c0-.12,0-.23,0-.35v-.05c0-.11,0-.23-.05-.34l0-.06-.06-.32,0-.08c0-.1-.05-.2-.08-.3l0-.1-.07-.22L61.64,19l-.06-.15c0-.09-.07-.18-.11-.27l0-.07a8.3,8.3,0,0,0-1.57-2.43,8.4,8.4,0,0,0-3.67-2.32h0l-.06,0a11.6,11.6,0,0,0-19.7-8.16h0c-.18-.22-.36-.42-.54-.63h0l-.27-.28,0,0c-.19-.2-.38-.38-.57-.56l0,0-.27-.25,0,0L34,3.24h0A15.1,15.1,0,0,0,26.4.1h0L25.56,0h-.9a15.2,15.2,0,0,0-15,13.14H9.32A9.33,9.33,0,0,0,0,22.45H0a9.33,9.33,0,0,0,9.32,9.32,1.81,1.81,0,0,0,0-3.61,5.71,5.71,0,1,1,1.5-11.22h.06A5.87,5.87,0,0,1,12,17.4a1.8,1.8,0,1,0,1.7-3.18c-.18-.1-.35-.18-.53-.26A11.58,11.58,0,0,1,24.66,3.61h.81l.33,0h0l.37,0h0a11.61,11.61,0,0,1,8.51,5.75l0,0a11.35,11.35,0,0,1,1.08,2.64,1.81,1.81,0,0,0,1.74,1.34,1.89,1.89,0,0,0,.47-.06,1.81,1.81,0,0,0,1.27-2.22,15,15,0,0,0-.9-2.48,8,8,0,0,1,14.08,4.72,7.9,7.9,0,0,0-1.66.41A1.8,1.8,0,1,0,52,17.26,4.74,4.74,0,0,1,53.67,17a3.1,3.1,0,0,1,.43,0h.14l.1,0,.13,0h.1l.14,0,.09,0,.15,0,.06,0,.17,0h0a4.9,4.9,0,0,1,3.28,4.13v0a1.15,1.15,0,0,1,0,.19.61.61,0,0,1,0,.14v.09a4.85,4.85,0,0,1-4.85,4.85,1.81,1.81,0,0,0,0,3.61,8.46,8.46,0,0,0,8.46-8.46Z"/><circle class="cls-1" cx="32.48" cy="52.87" r="1.5"/><g class="cls-2"><polygon class="cls-1" points="31.31 51.37 30.99 51.67 30.99 51.37 31.31 51.37"/><polygon class="cls-1" points="33.2 51.37 30.99 53.36 30.99 51.67 31.31 51.37 33.2 51.37"/><polygon class="cls-1" points="33.62 51.37 33.98 51.77 33.98 52.37 31.75 54.37 31.35 54.37 30.99 53.97 30.99 53.36 33.2 51.37 33.62 51.37"/><polygon class="cls-1" points="33.98 54.06 33.64 54.37 31.75 54.37 33.98 52.37 33.98 54.06"/><polygon class="cls-1" points="33.64 54.37 33.98 54.06 33.98 54.37 33.64 54.37"/></g><path class="cls-1" d="M36.49,54.37A1.5,1.5,0,1,0,35,52.87,1.5,1.5,0,0,0,36.49,54.37Z"/><g class="cls-3"><polygon class="cls-1" points="35.09 51.37 35 51.45 35 51.37 35.09 51.37"/><polygon class="cls-1" points="36.97 51.37 35 53.15 35 51.45 35.09 51.37 36.97 51.37"/><polygon class="cls-1" points="37.63 51.37 37.99 51.77 37.99 52.15 35.52 54.37 35.36 54.37 35 53.97 35 53.15 36.97 51.37 37.63 51.37"/><polygon class="cls-1" points="37.99 53.85 37.41 54.37 35.52 54.37 37.99 52.15 37.99 53.85"/><polygon class="cls-1" points="37.41 54.37 37.99 53.85 37.99 54.37 37.41 54.37"/></g><circle class="cls-1" cx="40.51" cy="52.87" r="1.5"/><g class="cls-4"><polygon class="cls-1" points="40.75 51.37 39.01 52.93 39.01 51.37 40.75 51.37"/><polygon class="cls-1" points="41.64 51.37 42 51.77 42 51.94 39.34 54.33 39.01 53.97 39.01 52.93 40.75 51.37 41.64 51.37"/><polygon class="cls-1" points="42 53.63 41.18 54.37 39.37 54.37 39.34 54.33 42 51.94 42 53.63"/><polygon class="cls-1" points="41.18 54.37 42 53.63 42 54.37 41.18 54.37"/></g><circle class="cls-1" cx="32.48" cy="38.29" r="1.5"/><g class="cls-5"><polygon class="cls-1" points="32.37 36.79 30.99 38.04 30.99 36.79 32.37 36.79"/><polygon class="cls-1" points="33.62 36.79 33.91 37.11 31.16 39.58 30.99 39.39 30.99 38.04 32.37 36.79 33.62 36.79"/><polygon class="cls-1" points="33.91 37.11 33.98 37.19 33.98 38.73 32.81 39.79 31.35 39.79 31.16 39.58 33.91 37.11"/><polygon class="cls-1" points="32.81 39.79 33.98 38.73 33.98 39.79 32.81 39.79"/></g><path class="cls-1" d="M36.49,39.79A1.5,1.5,0,1,0,35,38.29,1.5,1.5,0,0,0,36.49,39.79Z"/><g class="cls-6"><polygon class="cls-1" points="36.14 36.79 35 37.82 35 36.79 36.14 36.79"/><polygon class="cls-1" points="37.63 36.79 37.81 36.99 35.06 39.46 35 39.39 35 37.82 36.14 36.79 37.63 36.79"/><polygon class="cls-1" points="37.81 36.99 37.99 37.19 37.99 38.52 36.58 39.79 35.36 39.79 35.06 39.46 37.81 36.99"/><polygon class="cls-1" points="36.58 39.79 37.99 38.52 37.99 39.79 36.58 39.79"/></g><circle class="cls-1" cx="40.51" cy="38.29" r="1.5"/><g class="cls-7"><polygon class="cls-1" points="39.92 36.79 39.01 37.61 39.01 36.79 39.92 36.79"/><polygon class="cls-1" points="41.64 36.79 41.72 36.87 39.01 39.3 39.01 37.61 39.92 36.79 41.64 36.79"/><polygon class="cls-1" points="41.72 36.87 42 37.19 42 38.31 40.35 39.79 39.37 39.79 39.01 39.39 39.01 39.3 41.72 36.87"/><polygon class="cls-1" points="40.35 39.79 42 38.31 42 39.79 40.35 39.79"/></g><circle class="cls-1" cx="32.48" cy="23.73" r="1.5"/><g class="cls-8"><polygon class="cls-1" points="31.42 22.23 30.99 22.62 30.99 22.23 31.42 22.23"/><polygon class="cls-1" points="33.31 22.23 30.99 24.31 30.99 22.62 31.42 22.23 33.31 22.23"/><polygon class="cls-1" points="33.62 22.23 33.98 22.63 33.98 23.32 31.86 25.23 31.35 25.23 30.99 24.82 30.99 24.31 33.31 22.23 33.62 22.23"/><polygon class="cls-1" points="33.98 25.01 33.74 25.23 31.86 25.23 33.98 23.32 33.98 25.01"/><polygon class="cls-1" points="33.74 25.23 33.98 25.01 33.98 25.23 33.74 25.23"/></g><path class="cls-1" d="M36.49,25.22A1.5,1.5,0,1,0,35,23.73,1.5,1.5,0,0,0,36.49,25.22Z"/><g class="cls-9"><polygon class="cls-1" points="35.2 22.23 35 22.41 35 22.23 35.2 22.23"/><polygon class="cls-1" points="37.08 22.23 35 24.1 35 22.41 35.2 22.23 37.08 22.23"/><polygon class="cls-1" points="37.63 22.23 37.99 22.63 37.99 23.11 35.63 25.23 35.36 25.23 35 24.82 35 24.1 37.08 22.23 37.63 22.23"/><polygon class="cls-1" points="37.99 24.8 37.52 25.23 35.63 25.23 37.99 23.11 37.99 24.8"/><polygon class="cls-1" points="37.52 25.23 37.99 24.8 37.99 25.23 37.52 25.23"/></g><circle class="cls-1" cx="40.51" cy="23.73" r="1.5"/><g class="cls-10"><polygon class="cls-1" points="40.85 22.23 39.01 23.89 39.01 22.23 40.85 22.23"/><polygon class="cls-1" points="41.64 22.23 42 22.63 42 22.89 39.4 25.23 39.37 25.23 39.01 24.82 39.01 23.89 40.85 22.23 41.64 22.23"/><polygon class="cls-1" points="42 24.59 41.29 25.23 39.4 25.23 42 22.89 42 24.59"/><polygon class="cls-1" points="41.29 25.23 42 24.59 42 25.23 41.29 25.23"/></g></g></g></svg>