<svg xmlns="http://www.w3.org/2000/svg" xmlns:xlink="http://www.w3.org/1999/xlink" viewBox="0 0 211.4 191.73"><defs><style>.cls-1{isolation:isolate;}.cls-2{fill:url(#linear-gradient);}.cls-3{fill:url(#linear-gradient-2);}.cls-4{fill:url(#linear-gradient-3);}.cls-5{fill:url(#linear-gradient-4);}.cls-6{fill:url(#linear-gradient-5);}.cls-7{opacity:0.3;fill:url(#linear-gradient-6);}.cls-8{fill:url(#linear-gradient-7);}.cls-9{opacity:0.15;fill:url(#linear-gradient-8);}.cls-10{opacity:0.7;fill:url(#linear-gradient-9);}.cls-11{fill:url(#linear-gradient-10);}.cls-12{fill:url(#linear-gradient-11);}.cls-13{fill:url(#linear-gradient-12);}.cls-14{fill:url(#linear-gradient-13);}.cls-116,.cls-129,.cls-15,.cls-165,.cls-30,.cls-43,.cls-79{opacity:0.1;}.cls-15,.cls-86{mix-blend-mode:multiply;}.cls-16{fill:url(#linear-gradient-14);}.cls-17{fill:url(#linear-gradient-15);}.cls-18{fill:url(#linear-gradient-16);}.cls-19{fill:url(#linear-gradient-17);}.cls-20{fill:url(#linear-gradient-18);}.cls-21{fill:url(#linear-gradient-19);}.cls-22{fill:url(#linear-gradient-20);}.cls-23{fill:url(#linear-gradient-21);}.cls-24{fill:url(#linear-gradient-22);}.cls-25{fill:url(#linear-gradient-23);}.cls-26{fill:url(#linear-gradient-24);}.cls-27{fill:url(#linear-gradient-25);}.cls-28{fill:url(#linear-gradient-26);}.cls-29{fill:url(#linear-gradient-27);}.cls-30{fill:url(#linear-gradient-28);}.cls-31{fill:url(#linear-gradient-29);}.cls-32{fill:url(#linear-gradient-30);}.cls-33{fill:url(#linear-gradient-31);}.cls-34{fill:url(#linear-gradient-32);}.cls-35{fill:url(#linear-gradient-33);}.cls-36{fill:url(#linear-gradient-34);}.cls-37{fill:url(#linear-gradient-35);}.cls-38{fill:url(#linear-gradient-36);}.cls-39{fill:url(#linear-gradient-37);}.cls-40{fill:url(#linear-gradient-38);}.cls-41{fill:url(#linear-gradient-39);}.cls-42{fill:url(#linear-gradient-40);}.cls-43{fill:url(#linear-gradient-41);}.cls-44{fill:url(#linear-gradient-42);}.cls-45{fill:url(#linear-gradient-43);}.cls-46{fill:url(#linear-gradient-44);}.cls-47{fill:url(#linear-gradient-45);}.cls-48{fill:url(#linear-gradient-46);}.cls-49{fill:url(#linear-gradient-47);}.cls-50{fill:url(#linear-gradient-48);}.cls-51{fill:url(#linear-gradient-49);}.cls-52{fill:url(#linear-gradient-50);}.cls-53{fill:url(#linear-gradient-51);}.cls-54{fill:url(#linear-gradient-52);}.cls-55{fill:url(#linear-gradient-53);}.cls-56{fill:url(#linear-gradient-54);}.cls-57{fill:url(#linear-gradient-55);}.cls-58{fill:url(#linear-gradient-57);}.cls-59{fill:url(#linear-gradient-59);}.cls-60{fill:url(#linear-gradient-60);}.cls-61{fill:url(#linear-gradient-61);}.cls-62{fill:url(#linear-gradient-62);}.cls-63{fill:url(#linear-gradient-65);}.cls-64{fill:url(#linear-gradient-69);}.cls-65{fill:url(#linear-gradient-70);}.cls-66{fill:url(#linear-gradient-71);}.cls-67{fill:url(#linear-gradient-72);}.cls-68{fill:url(#linear-gradient-73);}.cls-69{fill:url(#linear-gradient-74);}.cls-70{fill:url(#linear-gradient-75);}.cls-71{fill:url(#linear-gradient-76);}.cls-72{fill:url(#linear-gradient-77);}.cls-73{fill:url(#linear-gradient-78);}.cls-74{fill:url(#linear-gradient-79);}.cls-75{fill:url(#linear-gradient-80);}.cls-76{fill:url(#linear-gradient-81);}.cls-77{fill:url(#linear-gradient-82);}.cls-78{fill:url(#linear-gradient-83);}.cls-79{fill:url(#linear-gradient-84);}.cls-80{fill:url(#linear-gradient-85);}.cls-81{fill:url(#linear-gradient-86);}.cls-82{fill:url(#linear-gradient-87);}.cls-83{fill:url(#linear-gradient-88);}.cls-84{fill:url(#linear-gradient-89);}.cls-85{fill:url(#linear-gradient-90);}.cls-87{fill:url(#linear-gradient-91);}.cls-88{fill:url(#linear-gradient-92);}.cls-89{fill:url(#linear-gradient-93);}.cls-90{fill:url(#linear-gradient-94);}.cls-91{fill:url(#linear-gradient-95);}.cls-92{fill:url(#linear-gradient-96);}.cls-93{fill:url(#linear-gradient-97);}.cls-94{fill:url(#linear-gradient-98);}.cls-95{fill:url(#linear-gradient-100);}.cls-96{fill:url(#linear-gradient-102);}.cls-97{fill:url(#linear-gradient-103);}.cls-98{fill:url(#linear-gradient-104);}.cls-99{fill:url(#linear-gradient-105);}.cls-100{fill:url(#linear-gradient-108);}.cls-101{fill:url(#linear-gradient-112);}.cls-102{fill:url(#linear-gradient-113);}.cls-103{fill:url(#linear-gradient-114);}.cls-104{fill:url(#linear-gradient-115);}.cls-105{fill:url(#linear-gradient-116);}.cls-106{fill:url(#linear-gradient-117);}.cls-107{fill:url(#linear-gradient-118);}.cls-108{fill:url(#linear-gradient-119);}.cls-109{fill:url(#linear-gradient-120);}.cls-110{fill:url(#linear-gradient-121);}.cls-111{fill:url(#linear-gradient-122);}.cls-112{fill:url(#linear-gradient-123);}.cls-113{fill:url(#linear-gradient-124);}.cls-114{fill:url(#linear-gradient-125);}.cls-115{fill:url(#linear-gradient-126);}.cls-116{fill:url(#linear-gradient-127);}.cls-117{fill:url(#linear-gradient-128);}.cls-118{fill:url(#linear-gradient-129);}.cls-119{fill:url(#linear-gradient-130);}.cls-120{fill:url(#linear-gradient-131);}.cls-121{fill:url(#linear-gradient-132);}.cls-122{fill:url(#linear-gradient-133);}.cls-123{fill:url(#linear-gradient-134);}.cls-124{fill:url(#linear-gradient-135);}.cls-125{fill:url(#linear-gradient-136);}.cls-126{fill:url(#linear-gradient-137);}.cls-127{fill:url(#linear-gradient-138);}.cls-128{fill:url(#linear-gradient-139);}.cls-129{fill:url(#linear-gradient-140);}.cls-130{fill:url(#linear-gradient-141);}.cls-131{fill:url(#linear-gradient-142);}.cls-132{fill:url(#linear-gradient-143);}.cls-133{fill:url(#linear-gradient-144);}.cls-134{fill:url(#linear-gradient-145);}.cls-135{fill:url(#linear-gradient-146);}.cls-136{fill:url(#linear-gradient-147);}.cls-137{fill:url(#linear-gradient-148);}.cls-138{fill:url(#linear-gradient-149);}.cls-139{fill:url(#linear-gradient-150);}.cls-140{fill:url(#linear-gradient-151);}.cls-141{fill:url(#linear-gradient-152);}.cls-142{fill:url(#linear-gradient-153);}.cls-143{fill:url(#linear-gradient-154);}.cls-144{fill:url(#linear-gradient-156);}.cls-145{fill:url(#linear-gradient-158);}.cls-146{fill:url(#linear-gradient-159);}.cls-147{fill:url(#linear-gradient-160);}.cls-148{fill:url(#linear-gradient-161);}.cls-149{fill:url(#linear-gradient-164);}.cls-150{fill:url(#linear-gradient-168);}.cls-151{fill:url(#linear-gradient-169);}.cls-152{fill:url(#linear-gradient-170);}.cls-153{fill:url(#linear-gradient-171);}.cls-154{fill:url(#linear-gradient-172);}.cls-155{fill:url(#linear-gradient-173);}.cls-156{fill:url(#linear-gradient-174);}.cls-157{fill:url(#linear-gradient-175);}.cls-158{fill:url(#linear-gradient-176);}.cls-159{fill:url(#linear-gradient-177);}.cls-160{fill:url(#linear-gradient-178);}.cls-161{fill:url(#linear-gradient-179);}.cls-162{fill:url(#linear-gradient-180);}.cls-163{fill:url(#linear-gradient-181);}.cls-164{fill:url(#linear-gradient-182);}.cls-165{fill:url(#linear-gradient-183);}.cls-166{fill:url(#linear-gradient-184);}.cls-167{fill:url(#linear-gradient-185);}.cls-168{fill:url(#linear-gradient-186);}.cls-169{fill:url(#linear-gradient-187);}.cls-170{fill:url(#linear-gradient-188);}.cls-171{fill:url(#linear-gradient-189);}.cls-172{fill:url(#linear-gradient-190);}.cls-173{fill:url(#linear-gradient-191);}.cls-174{fill:url(#linear-gradient-192);}.cls-175{fill:url(#linear-gradient-193);}.cls-176{fill:url(#linear-gradient-194);}.cls-177{fill:url(#linear-gradient-195);}.cls-178{fill:url(#linear-gradient-196);}.cls-179{fill:url(#linear-gradient-197);}.cls-180{fill:url(#linear-gradient-199);}.cls-181{fill:url(#linear-gradient-201);}.cls-182{fill:url(#linear-gradient-202);}.cls-183{fill:url(#linear-gradient-203);}.cls-184{fill:url(#linear-gradient-204);}.cls-185{fill:url(#linear-gradient-207);}.cls-186{fill:url(#linear-gradient-211);}.cls-187{fill:url(#linear-gradient-212);}.cls-188{fill:url(#linear-gradient-213);}.cls-189{fill:url(#linear-gradient-214);}.cls-190{fill:url(#linear-gradient-215);}.cls-191{fill:url(#linear-gradient-216);}.cls-192{fill:url(#linear-gradient-217);}.cls-193{fill:url(#linear-gradient-218);}.cls-194{fill:url(#linear-gradient-219);}.cls-195{fill:url(#linear-gradient-220);}.cls-196{fill:url(#linear-gradient-221);}.cls-197{fill:url(#linear-gradient-222);}.cls-198{fill:url(#linear-gradient-223);}.cls-199{fill:url(#linear-gradient-224);}</style><linearGradient id="linear-gradient" x1="2311.45" y1="-36.79" x2="2305.01" y2="-24.92" gradientTransform="translate(2337.34 -23.18) rotate(180)" gradientUnits="userSpaceOnUse"><stop offset="0" stop-color="#535967"/><stop offset="1" stop-color="#40454d"/></linearGradient><linearGradient id="linear-gradient-2" x1="133.3" y1="176.32" x2="128.85" y2="184.52" gradientUnits="userSpaceOnUse"><stop offset="0" stop-color="#d6d6d8"/><stop offset="1" stop-color="#b2b3b5"/></linearGradient><linearGradient id="linear-gradient-3" x1="188.05" y1="166.85" x2="184.25" y2="173.84" gradientTransform="matrix(1, 0, 0, 1, 0, 0)" xlink:href="#linear-gradient"/><linearGradient id="linear-gradient-4" x1="121.02" y1="14.2" x2="115.57" y2="24.26" gradientTransform="matrix(1, 0, 0, 1, 0, 0)" xlink:href="#linear-gradient"/><linearGradient id="linear-gradient-5" x1="30.63" y1="7.68" x2="38.19" y2="7.68" gradientTransform="translate(4.65 26.58) rotate(-45)" gradientUnits="userSpaceOnUse"><stop offset="0" stop-color="#f9a033"/><stop offset="1" stop-color="#f47a20"/></linearGradient><linearGradient id="linear-gradient-6" x1="168.7" y1="11.82" x2="173.37" y2="11.82" gradientTransform="translate(41.73 124.4) rotate(-45)" xlink:href="#linear-gradient-5"/><linearGradient id="linear-gradient-7" x1="115.74" y1="170.49" x2="120.19" y2="170.49" gradientTransform="translate(-86.01 133.35) rotate(-45)" xlink:href="#linear-gradient"/><linearGradient id="linear-gradient-8" x1="170.91" y1="18.64" x2="178.28" y2="18.64" gradientTransform="translate(37.96 128.92) rotate(-45)" xlink:href="#linear-gradient"/><linearGradient id="linear-gradient-9" x1="0" y1="107.53" x2="6" y2="107.53" gradientTransform="matrix(1, 0, 0, 1, 0, 0)" xlink:href="#linear-gradient-5"/><linearGradient id="linear-gradient-10" x1="18.41" y1="121.11" x2="18.41" y2="64.22" gradientUnits="userSpaceOnUse"><stop offset="0" stop-color="#f9a033" stop-opacity="0"/><stop offset="0.09" stop-color="#f99f33" stop-opacity="0.03"/><stop offset="0.22" stop-color="#f99e32" stop-opacity="0.1"/><stop offset="0.37" stop-color="#f99c30" stop-opacity="0.23"/><stop offset="0.55" stop-color="#f8982f" stop-opacity="0.4"/><stop offset="0.73" stop-color="#f8942c" stop-opacity="0.62"/><stop offset="0.93" stop-color="#f78f29" stop-opacity="0.89"/><stop offset="1" stop-color="#f78d28"/></linearGradient><linearGradient id="linear-gradient-11" x1="18.38" y1="71.27" x2="18.42" y2="63.46" gradientTransform="matrix(1, 0, 0, 1, 0, 0)" xlink:href="#linear-gradient-5"/><linearGradient id="linear-gradient-12" x1="192.67" y1="62.79" x2="192.67" y2="5.89" gradientUnits="userSpaceOnUse"><stop offset="0" stop-color="#f9a033" stop-opacity="0"/><stop offset="0.15" stop-color="#f9a033" stop-opacity="0.01"/><stop offset="0.28" stop-color="#f99f32" stop-opacity="0.06"/><stop offset="0.4" stop-color="#f99e32" stop-opacity="0.13"/><stop offset="0.52" stop-color="#f99c30" stop-opacity="0.23"/><stop offset="0.64" stop-color="#f8992f" stop-opacity="0.37"/><stop offset="0.75" stop-color="#f8962d" stop-opacity="0.53"/><stop offset="0.87" stop-color="#f8922b" stop-opacity="0.73"/><stop offset="0.97" stop-color="#f78e29" stop-opacity="0.94"/><stop offset="1" stop-color="#f78d28"/></linearGradient><linearGradient id="linear-gradient-13" x1="192.63" y1="17.33" x2="192.68" y2="3.47" gradientTransform="matrix(1, 0, 0, 1, 0, 0)" xlink:href="#linear-gradient-5"/><linearGradient id="linear-gradient-14" x1="208.93" y1="58.89" x2="208.93" y2="23.1" gradientUnits="userSpaceOnUse"><stop offset="0" stop-color="#888385"/><stop offset="1" stop-color="#40454d"/></linearGradient><linearGradient id="linear-gradient-15" x1="208.9" y1="30.29" x2="208.94" y2="21.57" xlink:href="#linear-gradient-14"/><linearGradient id="linear-gradient-16" x1="56.39" y1="111.17" x2="69.48" y2="93.72" gradientTransform="matrix(1, 0, 0, 1, 0, 0)" xlink:href="#linear-gradient-5"/><linearGradient id="linear-gradient-17" x1="57.33" y1="80.16" x2="157.64" y2="61.56" gradientUnits="userSpaceOnUse"><stop offset="0" stop-color="#faa434"/><stop offset="1" stop-color="#f6871f"/></linearGradient><linearGradient id="linear-gradient-18" x1="49.87" y1="92.26" x2="119.85" y2="50.74" gradientUnits="userSpaceOnUse"><stop offset="0" stop-color="#f9a033"/><stop offset="0.94" stop-color="#f47a20"/></linearGradient><linearGradient id="linear-gradient-19" x1="105.07" y1="102.28" x2="103.32" y2="99.31" gradientTransform="matrix(1, 0, 0, 1, 0, 0)" xlink:href="#linear-gradient"/><linearGradient id="linear-gradient-20" x1="105" y1="102.52" x2="100.34" y2="95.77" gradientUnits="userSpaceOnUse"><stop offset="0" stop-color="#383d44"/><stop offset="1" stop-color="#24282f"/></linearGradient><linearGradient id="linear-gradient-21" x1="62.08" y1="106.18" x2="65.67" y2="111.28" gradientTransform="matrix(1, 0, 0, 1, 0, 0)" xlink:href="#linear-gradient-5"/><linearGradient id="linear-gradient-22" x1="57.91" y1="107.05" x2="61.73" y2="107.05" gradientTransform="matrix(1, 0, 0, 1, 0, 0)" xlink:href="#linear-gradient-5"/><linearGradient id="linear-gradient-23" x1="52.97" y1="104.01" x2="56.8" y2="104.01" gradientTransform="matrix(1, 0, 0, 1, 0, 0)" xlink:href="#linear-gradient-5"/><linearGradient id="linear-gradient-24" x1="65.27" y1="108.76" x2="63.04" y2="111.68" gradientUnits="userSpaceOnUse"><stop offset="0" stop-color="#f3f6fb"/><stop offset="1" stop-color="#d6d6d8"/></linearGradient><linearGradient id="linear-gradient-25" x1="57.44" y1="107.28" x2="61.27" y2="107.28" xlink:href="#linear-gradient-24"/><linearGradient id="linear-gradient-26" x1="52.51" y1="104.24" x2="56.34" y2="104.24" xlink:href="#linear-gradient-24"/><linearGradient id="linear-gradient-27" x1="49.87" y1="92.05" x2="119.85" y2="50.53" xlink:href="#linear-gradient-2"/><linearGradient id="linear-gradient-28" x1="-16.42" y1="76.93" x2="124.48" y2="76.93" xlink:href="#linear-gradient-14"/><linearGradient id="linear-gradient-29" x1="29.67" y1="69.71" x2="123.55" y2="69.71" xlink:href="#linear-gradient-24"/><linearGradient id="linear-gradient-30" x1="56.39" y1="88.83" x2="69.48" y2="71.38" gradientTransform="matrix(1, 0, 0, 1, 0, 0)" xlink:href="#linear-gradient-5"/><linearGradient id="linear-gradient-31" x1="105.07" y1="79.94" x2="103.32" y2="76.97" gradientTransform="matrix(1, 0, 0, 1, 0, 0)" xlink:href="#linear-gradient"/><linearGradient id="linear-gradient-32" x1="105" y1="80.18" x2="100.34" y2="73.43" xlink:href="#linear-gradient-20"/><linearGradient id="linear-gradient-33" x1="62.08" y1="83.84" x2="65.67" y2="88.94" gradientTransform="matrix(1, 0, 0, 1, 0, 0)" xlink:href="#linear-gradient-5"/><linearGradient id="linear-gradient-34" x1="57.91" y1="84.71" x2="61.73" y2="84.71" gradientTransform="matrix(1, 0, 0, 1, 0, 0)" xlink:href="#linear-gradient-5"/><linearGradient id="linear-gradient-35" x1="52.97" y1="81.67" x2="56.8" y2="81.67" gradientTransform="matrix(1, 0, 0, 1, 0, 0)" xlink:href="#linear-gradient-5"/><linearGradient id="linear-gradient-36" x1="65.27" y1="86.42" x2="63.04" y2="89.34" xlink:href="#linear-gradient-24"/><linearGradient id="linear-gradient-37" x1="57.44" y1="84.94" x2="61.27" y2="84.94" xlink:href="#linear-gradient-24"/><linearGradient id="linear-gradient-38" x1="52.51" y1="81.9" x2="56.34" y2="81.9" xlink:href="#linear-gradient-24"/><linearGradient id="linear-gradient-39" x1="61.39" y1="79.74" x2="79.37" y2="49.72" xlink:href="#linear-gradient-17"/><linearGradient id="linear-gradient-40" x1="49.87" y1="70.06" x2="119.85" y2="28.54" xlink:href="#linear-gradient-2"/><linearGradient id="linear-gradient-41" x1="-16.42" y1="54.93" x2="124.48" y2="54.93" xlink:href="#linear-gradient-14"/><linearGradient id="linear-gradient-42" x1="29.67" y1="47.72" x2="123.55" y2="47.72" xlink:href="#linear-gradient-24"/><linearGradient id="linear-gradient-43" x1="56.39" y1="66.84" x2="69.48" y2="49.39" gradientTransform="matrix(1, 0, 0, 1, 0, 0)" xlink:href="#linear-gradient-5"/><linearGradient id="linear-gradient-44" x1="57.33" y1="35.83" x2="157.64" y2="17.23" xlink:href="#linear-gradient-17"/><linearGradient id="linear-gradient-45" x1="49.87" y1="47.93" x2="119.85" y2="6.41" xlink:href="#linear-gradient-18"/><linearGradient id="linear-gradient-46" x1="-11" y1="32.19" x2="121.47" y2="32.19" gradientUnits="userSpaceOnUse"><stop offset="0" stop-color="#f47a20"/><stop offset="1" stop-color="#f26322"/></linearGradient><linearGradient id="linear-gradient-47" x1="33.77" y1="32.57" x2="120.57" y2="31.64" gradientTransform="matrix(1, 0, 0, 1, 0, 0)" xlink:href="#linear-gradient"/><linearGradient id="linear-gradient-48" x1="49.49" y1="39.1" x2="102.09" y2="39.1" xlink:href="#linear-gradient-20"/><linearGradient id="linear-gradient-49" x1="49.49" y1="42.48" x2="102.09" y2="42.48" xlink:href="#linear-gradient-20"/><linearGradient id="linear-gradient-50" x1="49.49" y1="45.86" x2="102.09" y2="45.86" xlink:href="#linear-gradient-20"/><linearGradient id="linear-gradient-51" x1="49.49" y1="35.75" x2="102.09" y2="35.75" xlink:href="#linear-gradient-20"/><linearGradient id="linear-gradient-52" x1="49.49" y1="39.13" x2="102.09" y2="39.13" xlink:href="#linear-gradient-20"/><linearGradient id="linear-gradient-53" x1="49.49" y1="42.51" x2="102.09" y2="42.51" xlink:href="#linear-gradient-20"/><linearGradient id="linear-gradient-54" x1="49.49" y1="32.34" x2="102.09" y2="32.34" xlink:href="#linear-gradient-20"/><linearGradient id="linear-gradient-55" x1="49.49" y1="35.72" x2="102.09" y2="35.72" xlink:href="#linear-gradient-20"/><linearGradient id="linear-gradient-57" x1="49.49" y1="32.37" x2="102.09" y2="32.37" xlink:href="#linear-gradient-20"/><linearGradient id="linear-gradient-59" x1="49.49" y1="29.03" x2="102.09" y2="29.03" xlink:href="#linear-gradient-20"/><linearGradient id="linear-gradient-60" x1="49.49" y1="32.41" x2="102.09" y2="32.41" xlink:href="#linear-gradient-20"/><linearGradient id="linear-gradient-61" x1="49.49" y1="25.61" x2="102.09" y2="25.61" xlink:href="#linear-gradient-20"/><linearGradient id="linear-gradient-62" x1="49.49" y1="28.99" x2="102.09" y2="28.99" xlink:href="#linear-gradient-20"/><linearGradient id="linear-gradient-65" x1="49.49" y1="35.79" x2="102.09" y2="35.79" xlink:href="#linear-gradient-20"/><linearGradient id="linear-gradient-69" x1="49.49" y1="22.3" x2="102.09" y2="22.3" xlink:href="#linear-gradient-20"/><linearGradient id="linear-gradient-70" x1="49.49" y1="25.68" x2="102.09" y2="25.68" xlink:href="#linear-gradient-20"/><linearGradient id="linear-gradient-71" x1="49.49" y1="18.89" x2="102.09" y2="18.89" xlink:href="#linear-gradient-20"/><linearGradient id="linear-gradient-72" x1="49.49" y1="22.27" x2="102.09" y2="22.27" xlink:href="#linear-gradient-20"/><linearGradient id="linear-gradient-73" x1="105.07" y1="57.95" x2="103.32" y2="54.98" gradientTransform="matrix(1, 0, 0, 1, 0, 0)" xlink:href="#linear-gradient"/><linearGradient id="linear-gradient-74" x1="105" y1="58.19" x2="100.34" y2="51.44" xlink:href="#linear-gradient-20"/><linearGradient id="linear-gradient-75" x1="62.08" y1="61.85" x2="65.67" y2="66.95" gradientTransform="matrix(1, 0, 0, 1, 0, 0)" xlink:href="#linear-gradient-5"/><linearGradient id="linear-gradient-76" x1="57.91" y1="62.71" x2="61.73" y2="62.71" gradientTransform="matrix(1, 0, 0, 1, 0, 0)" xlink:href="#linear-gradient-5"/><linearGradient id="linear-gradient-77" x1="52.97" y1="59.68" x2="56.8" y2="59.68" gradientTransform="matrix(1, 0, 0, 1, 0, 0)" xlink:href="#linear-gradient-5"/><linearGradient id="linear-gradient-78" x1="65.27" y1="64.43" x2="63.04" y2="67.35" xlink:href="#linear-gradient-24"/><linearGradient id="linear-gradient-79" x1="57.44" y1="62.94" x2="61.27" y2="62.94" xlink:href="#linear-gradient-24"/><linearGradient id="linear-gradient-80" x1="52.51" y1="59.91" x2="56.34" y2="59.91" xlink:href="#linear-gradient-24"/><linearGradient id="linear-gradient-81" x1="131.73" y1="154.76" x2="144.82" y2="137.31" gradientTransform="matrix(1, 0, 0, 1, 0, 0)" xlink:href="#linear-gradient-5"/><linearGradient id="linear-gradient-82" x1="136.73" y1="145.52" x2="154.7" y2="115.5" xlink:href="#linear-gradient-17"/><linearGradient id="linear-gradient-83" x1="125.21" y1="135.84" x2="195.19" y2="94.32" xlink:href="#linear-gradient-2"/><linearGradient id="linear-gradient-84" x1="58.92" y1="120.71" x2="199.81" y2="120.71" xlink:href="#linear-gradient-14"/><linearGradient id="linear-gradient-85" x1="105.01" y1="113.5" x2="198.89" y2="113.5" xlink:href="#linear-gradient-24"/><linearGradient id="linear-gradient-86" x1="131.73" y1="132.62" x2="144.82" y2="115.17" gradientTransform="matrix(1, 0, 0, 1, 0, 0)" xlink:href="#linear-gradient-5"/><linearGradient id="linear-gradient-87" x1="132.66" y1="101.61" x2="232.98" y2="83.01" xlink:href="#linear-gradient-17"/><linearGradient id="linear-gradient-88" x1="125.21" y1="113.7" x2="195.19" y2="72.18" xlink:href="#linear-gradient-18"/><linearGradient id="linear-gradient-89" x1="64.33" y1="97.97" x2="196.81" y2="97.97" xlink:href="#linear-gradient-46"/><linearGradient id="linear-gradient-90" x1="109.11" y1="98.35" x2="195.91" y2="97.41" gradientTransform="matrix(1, 0, 0, 1, 0, 0)" xlink:href="#linear-gradient"/><linearGradient id="linear-gradient-91" x1="124.83" y1="104.88" x2="177.42" y2="104.88" gradientTransform="matrix(1, 0, 0, 1, 0, 0)" xlink:href="#linear-gradient"/><linearGradient id="linear-gradient-92" x1="124.83" y1="108.26" x2="177.42" y2="108.26" gradientTransform="matrix(1, 0, 0, 1, 0, 0)" xlink:href="#linear-gradient"/><linearGradient id="linear-gradient-93" x1="124.83" y1="111.64" x2="177.42" y2="111.64" gradientTransform="matrix(1, 0, 0, 1, 0, 0)" xlink:href="#linear-gradient"/><linearGradient id="linear-gradient-94" x1="124.83" y1="101.53" x2="177.42" y2="101.53" gradientTransform="matrix(1, 0, 0, 1, 0, 0)" xlink:href="#linear-gradient"/><linearGradient id="linear-gradient-95" x1="124.83" y1="104.91" x2="177.42" y2="104.91" gradientTransform="matrix(1, 0, 0, 1, 0, 0)" xlink:href="#linear-gradient"/><linearGradient id="linear-gradient-96" x1="124.83" y1="108.29" x2="177.42" y2="108.29" gradientTransform="matrix(1, 0, 0, 1, 0, 0)" xlink:href="#linear-gradient"/><linearGradient id="linear-gradient-97" x1="124.83" y1="98.12" x2="177.42" y2="98.12" gradientTransform="matrix(1, 0, 0, 1, 0, 0)" xlink:href="#linear-gradient"/><linearGradient id="linear-gradient-98" x1="124.83" y1="101.5" x2="177.42" y2="101.5" gradientTransform="matrix(1, 0, 0, 1, 0, 0)" xlink:href="#linear-gradient"/><linearGradient id="linear-gradient-100" x1="124.83" y1="98.15" x2="177.42" y2="98.15" gradientTransform="matrix(1, 0, 0, 1, 0, 0)" xlink:href="#linear-gradient"/><linearGradient id="linear-gradient-102" x1="124.83" y1="94.81" x2="177.42" y2="94.81" gradientTransform="matrix(1, 0, 0, 1, 0, 0)" xlink:href="#linear-gradient"/><linearGradient id="linear-gradient-103" x1="124.83" y1="98.19" x2="177.42" y2="98.19" gradientTransform="matrix(1, 0, 0, 1, 0, 0)" xlink:href="#linear-gradient"/><linearGradient id="linear-gradient-104" x1="124.83" y1="91.39" x2="177.42" y2="91.39" gradientTransform="matrix(1, 0, 0, 1, 0, 0)" xlink:href="#linear-gradient"/><linearGradient id="linear-gradient-105" x1="124.83" y1="94.77" x2="177.42" y2="94.77" gradientTransform="matrix(1, 0, 0, 1, 0, 0)" xlink:href="#linear-gradient"/><linearGradient id="linear-gradient-108" x1="124.83" y1="101.57" x2="177.42" y2="101.57" gradientTransform="matrix(1, 0, 0, 1, 0, 0)" xlink:href="#linear-gradient"/><linearGradient id="linear-gradient-112" x1="124.83" y1="88.08" x2="177.42" y2="88.08" gradientTransform="matrix(1, 0, 0, 1, 0, 0)" xlink:href="#linear-gradient"/><linearGradient id="linear-gradient-113" x1="124.83" y1="91.46" x2="177.42" y2="91.46" gradientTransform="matrix(1, 0, 0, 1, 0, 0)" xlink:href="#linear-gradient"/><linearGradient id="linear-gradient-114" x1="124.83" y1="84.67" x2="177.42" y2="84.67" gradientTransform="matrix(1, 0, 0, 1, 0, 0)" xlink:href="#linear-gradient"/><linearGradient id="linear-gradient-115" x1="124.83" y1="88.05" x2="177.42" y2="88.05" gradientTransform="matrix(1, 0, 0, 1, 0, 0)" xlink:href="#linear-gradient"/><linearGradient id="linear-gradient-116" x1="180.41" y1="145.6" x2="178.66" y2="142.64" gradientTransform="matrix(1, 0, 0, 1, 0, 0)" xlink:href="#linear-gradient"/><linearGradient id="linear-gradient-117" x1="180.33" y1="145.84" x2="175.68" y2="139.1" xlink:href="#linear-gradient-20"/><linearGradient id="linear-gradient-118" x1="180.41" y1="123.73" x2="178.66" y2="120.76" gradientTransform="matrix(1, 0, 0, 1, 0, 0)" xlink:href="#linear-gradient"/><linearGradient id="linear-gradient-119" x1="180.33" y1="123.97" x2="175.68" y2="117.22" xlink:href="#linear-gradient-20"/><linearGradient id="linear-gradient-120" x1="137.42" y1="127.63" x2="141" y2="132.73" gradientTransform="matrix(1, 0, 0, 1, 0, 0)" xlink:href="#linear-gradient-5"/><linearGradient id="linear-gradient-121" x1="133.24" y1="128.49" x2="137.07" y2="128.49" gradientTransform="matrix(1, 0, 0, 1, 0, 0)" xlink:href="#linear-gradient-5"/><linearGradient id="linear-gradient-122" x1="128.31" y1="125.46" x2="132.14" y2="125.46" gradientTransform="matrix(1, 0, 0, 1, 0, 0)" xlink:href="#linear-gradient-5"/><linearGradient id="linear-gradient-123" x1="140.61" y1="130.21" x2="138.38" y2="133.13" xlink:href="#linear-gradient-24"/><linearGradient id="linear-gradient-124" x1="132.78" y1="128.72" x2="136.61" y2="128.72" xlink:href="#linear-gradient-24"/><linearGradient id="linear-gradient-125" x1="127.85" y1="125.69" x2="131.67" y2="125.69" xlink:href="#linear-gradient-24"/><linearGradient id="linear-gradient-126" x1="125.21" y1="113.5" x2="195.19" y2="71.98" xlink:href="#linear-gradient-2"/><linearGradient id="linear-gradient-127" x1="58.92" y1="98.37" x2="199.81" y2="98.37" xlink:href="#linear-gradient-14"/><linearGradient id="linear-gradient-128" x1="105.01" y1="91.16" x2="198.89" y2="91.16" xlink:href="#linear-gradient-24"/><linearGradient id="linear-gradient-129" x1="131.73" y1="110.28" x2="144.82" y2="92.83" gradientTransform="matrix(1, 0, 0, 1, 0, 0)" xlink:href="#linear-gradient-5"/><linearGradient id="linear-gradient-130" x1="180.41" y1="101.39" x2="178.66" y2="98.42" gradientTransform="matrix(1, 0, 0, 1, 0, 0)" xlink:href="#linear-gradient"/><linearGradient id="linear-gradient-131" x1="180.33" y1="101.63" x2="175.68" y2="94.88" xlink:href="#linear-gradient-20"/><linearGradient id="linear-gradient-132" x1="137.42" y1="105.29" x2="141" y2="110.39" gradientTransform="matrix(1, 0, 0, 1, 0, 0)" xlink:href="#linear-gradient-5"/><linearGradient id="linear-gradient-133" x1="133.24" y1="106.15" x2="137.07" y2="106.15" gradientTransform="matrix(1, 0, 0, 1, 0, 0)" xlink:href="#linear-gradient-5"/><linearGradient id="linear-gradient-134" x1="128.31" y1="103.12" x2="132.14" y2="103.12" gradientTransform="matrix(1, 0, 0, 1, 0, 0)" xlink:href="#linear-gradient-5"/><linearGradient id="linear-gradient-135" x1="140.61" y1="107.87" x2="138.38" y2="110.79" xlink:href="#linear-gradient-24"/><linearGradient id="linear-gradient-136" x1="132.78" y1="106.38" x2="136.61" y2="106.38" xlink:href="#linear-gradient-24"/><linearGradient id="linear-gradient-137" x1="127.85" y1="103.35" x2="131.67" y2="103.35" xlink:href="#linear-gradient-24"/><linearGradient id="linear-gradient-138" x1="136.73" y1="101.19" x2="154.7" y2="71.17" xlink:href="#linear-gradient-17"/><linearGradient id="linear-gradient-139" x1="125.21" y1="91.51" x2="195.19" y2="49.99" xlink:href="#linear-gradient-2"/><linearGradient id="linear-gradient-140" x1="58.92" y1="76.38" x2="199.81" y2="76.38" xlink:href="#linear-gradient-14"/><linearGradient id="linear-gradient-141" x1="105.01" y1="69.16" x2="198.89" y2="69.16" xlink:href="#linear-gradient-24"/><linearGradient id="linear-gradient-142" x1="131.73" y1="88.29" x2="144.82" y2="70.84" gradientTransform="matrix(1, 0, 0, 1, 0, 0)" xlink:href="#linear-gradient-5"/><linearGradient id="linear-gradient-143" x1="132.66" y1="57.28" x2="232.98" y2="38.67" xlink:href="#linear-gradient-17"/><linearGradient id="linear-gradient-144" x1="125.21" y1="69.37" x2="195.19" y2="27.85" xlink:href="#linear-gradient-18"/><linearGradient id="linear-gradient-145" x1="64.33" y1="53.64" x2="196.81" y2="53.64" xlink:href="#linear-gradient-46"/><linearGradient id="linear-gradient-146" x1="109.11" y1="54.01" x2="195.91" y2="53.08" gradientTransform="matrix(1, 0, 0, 1, 0, 0)" xlink:href="#linear-gradient"/><linearGradient id="linear-gradient-147" x1="124.83" y1="60.55" x2="177.42" y2="60.55" xlink:href="#linear-gradient-20"/><linearGradient id="linear-gradient-148" x1="124.83" y1="63.93" x2="177.42" y2="63.93" xlink:href="#linear-gradient-20"/><linearGradient id="linear-gradient-149" x1="124.83" y1="67.31" x2="177.42" y2="67.31" xlink:href="#linear-gradient-20"/><linearGradient id="linear-gradient-150" x1="124.83" y1="57.2" x2="177.42" y2="57.2" xlink:href="#linear-gradient-20"/><linearGradient id="linear-gradient-151" x1="124.83" y1="60.58" x2="177.42" y2="60.58" xlink:href="#linear-gradient-20"/><linearGradient id="linear-gradient-152" x1="124.83" y1="63.96" x2="177.42" y2="63.96" xlink:href="#linear-gradient-20"/><linearGradient id="linear-gradient-153" x1="124.83" y1="53.79" x2="177.42" y2="53.79" xlink:href="#linear-gradient-20"/><linearGradient id="linear-gradient-154" x1="124.83" y1="57.17" x2="177.42" y2="57.17" xlink:href="#linear-gradient-20"/><linearGradient id="linear-gradient-156" x1="124.83" y1="53.82" x2="177.42" y2="53.82" xlink:href="#linear-gradient-20"/><linearGradient id="linear-gradient-158" x1="124.83" y1="50.48" x2="177.42" y2="50.48" xlink:href="#linear-gradient-20"/><linearGradient id="linear-gradient-159" x1="124.83" y1="53.86" x2="177.42" y2="53.86" xlink:href="#linear-gradient-20"/><linearGradient id="linear-gradient-160" x1="124.83" y1="47.06" x2="177.42" y2="47.06" xlink:href="#linear-gradient-20"/><linearGradient id="linear-gradient-161" x1="124.83" y1="50.44" x2="177.42" y2="50.44" xlink:href="#linear-gradient-20"/><linearGradient id="linear-gradient-164" x1="124.83" y1="57.24" x2="177.42" y2="57.24" xlink:href="#linear-gradient-20"/><linearGradient id="linear-gradient-168" x1="124.83" y1="43.75" x2="177.42" y2="43.75" xlink:href="#linear-gradient-20"/><linearGradient id="linear-gradient-169" x1="124.83" y1="47.13" x2="177.42" y2="47.13" xlink:href="#linear-gradient-20"/><linearGradient id="linear-gradient-170" x1="124.83" y1="40.33" x2="177.42" y2="40.33" xlink:href="#linear-gradient-20"/><linearGradient id="linear-gradient-171" x1="124.83" y1="43.71" x2="177.42" y2="43.71" xlink:href="#linear-gradient-20"/><linearGradient id="linear-gradient-172" x1="180.41" y1="79.4" x2="178.66" y2="76.43" gradientTransform="matrix(1, 0, 0, 1, 0, 0)" xlink:href="#linear-gradient"/><linearGradient id="linear-gradient-173" x1="180.33" y1="79.64" x2="175.68" y2="72.89" xlink:href="#linear-gradient-20"/><linearGradient id="linear-gradient-174" x1="137.42" y1="83.3" x2="141" y2="88.4" gradientTransform="matrix(1, 0, 0, 1, 0, 0)" xlink:href="#linear-gradient-5"/><linearGradient id="linear-gradient-175" x1="133.24" y1="84.16" x2="137.07" y2="84.16" gradientTransform="matrix(1, 0, 0, 1, 0, 0)" xlink:href="#linear-gradient-5"/><linearGradient id="linear-gradient-176" x1="128.31" y1="81.13" x2="132.14" y2="81.13" gradientTransform="matrix(1, 0, 0, 1, 0, 0)" xlink:href="#linear-gradient-5"/><linearGradient id="linear-gradient-177" x1="140.61" y1="85.88" x2="138.38" y2="88.8" xlink:href="#linear-gradient-24"/><linearGradient id="linear-gradient-178" x1="132.78" y1="84.39" x2="136.61" y2="84.39" xlink:href="#linear-gradient-24"/><linearGradient id="linear-gradient-179" x1="127.85" y1="81.36" x2="131.67" y2="81.36" xlink:href="#linear-gradient-24"/><linearGradient id="linear-gradient-180" x1="40.43" y1="182.84" x2="53.52" y2="165.39" gradientTransform="matrix(1, 0, 0, 1, 0, 0)" xlink:href="#linear-gradient-5"/><linearGradient id="linear-gradient-181" x1="45.43" y1="173.6" x2="63.41" y2="143.58" xlink:href="#linear-gradient-17"/><linearGradient id="linear-gradient-182" x1="33.91" y1="163.93" x2="103.89" y2="122.41" xlink:href="#linear-gradient-2"/><linearGradient id="linear-gradient-183" x1="-32.38" y1="148.8" x2="108.51" y2="148.8" xlink:href="#linear-gradient-14"/><linearGradient id="linear-gradient-184" x1="13.71" y1="141.58" x2="107.59" y2="141.58" xlink:href="#linear-gradient-24"/><linearGradient id="linear-gradient-185" x1="40.43" y1="160.71" x2="53.52" y2="143.25" gradientTransform="matrix(1, 0, 0, 1, 0, 0)" xlink:href="#linear-gradient-5"/><linearGradient id="linear-gradient-186" x1="41.36" y1="129.69" x2="141.68" y2="111.09" xlink:href="#linear-gradient-17"/><linearGradient id="linear-gradient-187" x1="33.91" y1="141.79" x2="103.89" y2="100.27" xlink:href="#linear-gradient-18"/><linearGradient id="linear-gradient-188" x1="-26.96" y1="126.06" x2="105.51" y2="126.06" xlink:href="#linear-gradient-46"/><linearGradient id="linear-gradient-189" x1="17.81" y1="126.43" x2="104.61" y2="125.5" gradientTransform="matrix(1, 0, 0, 1, 0, 0)" xlink:href="#linear-gradient"/><linearGradient id="linear-gradient-190" x1="33.53" y1="132.96" x2="86.12" y2="132.96" xlink:href="#linear-gradient-20"/><linearGradient id="linear-gradient-191" x1="33.53" y1="136.34" x2="86.12" y2="136.34" xlink:href="#linear-gradient-20"/><linearGradient id="linear-gradient-192" x1="33.53" y1="139.72" x2="86.12" y2="139.72" xlink:href="#linear-gradient-20"/><linearGradient id="linear-gradient-193" x1="33.53" y1="129.62" x2="86.12" y2="129.62" xlink:href="#linear-gradient-20"/><linearGradient id="linear-gradient-194" x1="33.53" y1="133" x2="86.12" y2="133" xlink:href="#linear-gradient-20"/><linearGradient id="linear-gradient-195" x1="33.53" y1="136.38" x2="86.12" y2="136.38" xlink:href="#linear-gradient-20"/><linearGradient id="linear-gradient-196" x1="33.53" y1="126.2" x2="86.12" y2="126.2" xlink:href="#linear-gradient-20"/><linearGradient id="linear-gradient-197" x1="33.53" y1="129.58" x2="86.12" y2="129.58" xlink:href="#linear-gradient-20"/><linearGradient id="linear-gradient-199" x1="33.53" y1="126.24" x2="86.12" y2="126.24" xlink:href="#linear-gradient-20"/><linearGradient id="linear-gradient-201" x1="33.53" y1="122.89" x2="86.12" y2="122.89" xlink:href="#linear-gradient-20"/><linearGradient id="linear-gradient-202" x1="33.53" y1="126.27" x2="86.12" y2="126.27" xlink:href="#linear-gradient-20"/><linearGradient id="linear-gradient-203" x1="33.53" y1="119.48" x2="86.12" y2="119.48" xlink:href="#linear-gradient-20"/><linearGradient id="linear-gradient-204" x1="33.53" y1="122.86" x2="86.12" y2="122.86" xlink:href="#linear-gradient-20"/><linearGradient id="linear-gradient-207" x1="33.53" y1="129.65" x2="86.12" y2="129.65" xlink:href="#linear-gradient-20"/><linearGradient id="linear-gradient-211" x1="33.53" y1="116.17" x2="86.12" y2="116.17" xlink:href="#linear-gradient-20"/><linearGradient id="linear-gradient-212" x1="33.53" y1="119.55" x2="86.12" y2="119.55" xlink:href="#linear-gradient-20"/><linearGradient id="linear-gradient-213" x1="33.53" y1="112.75" x2="86.12" y2="112.75" xlink:href="#linear-gradient-20"/><linearGradient id="linear-gradient-214" x1="33.53" y1="116.13" x2="86.12" y2="116.13" xlink:href="#linear-gradient-20"/><linearGradient id="linear-gradient-215" x1="89.11" y1="173.69" x2="87.36" y2="170.72" gradientTransform="matrix(1, 0, 0, 1, 0, 0)" xlink:href="#linear-gradient"/><linearGradient id="linear-gradient-216" x1="89.04" y1="173.93" x2="84.38" y2="167.18" xlink:href="#linear-gradient-20"/><linearGradient id="linear-gradient-217" x1="89.11" y1="151.81" x2="87.36" y2="148.85" gradientTransform="matrix(1, 0, 0, 1, 0, 0)" xlink:href="#linear-gradient"/><linearGradient id="linear-gradient-218" x1="89.04" y1="152.05" x2="84.38" y2="145.3" xlink:href="#linear-gradient-20"/><linearGradient id="linear-gradient-219" x1="46.12" y1="155.71" x2="49.7" y2="160.81" gradientTransform="matrix(1, 0, 0, 1, 0, 0)" xlink:href="#linear-gradient-5"/><linearGradient id="linear-gradient-220" x1="41.94" y1="156.58" x2="45.77" y2="156.58" gradientTransform="matrix(1, 0, 0, 1, 0, 0)" xlink:href="#linear-gradient-5"/><linearGradient id="linear-gradient-221" x1="37.01" y1="153.54" x2="40.84" y2="153.54" gradientTransform="matrix(1, 0, 0, 1, 0, 0)" xlink:href="#linear-gradient-5"/><linearGradient id="linear-gradient-222" x1="49.31" y1="158.29" x2="47.08" y2="161.22" xlink:href="#linear-gradient-24"/><linearGradient id="linear-gradient-223" x1="41.48" y1="156.81" x2="45.31" y2="156.81" xlink:href="#linear-gradient-24"/><linearGradient id="linear-gradient-224" x1="36.55" y1="153.77" x2="40.38" y2="153.77" xlink:href="#linear-gradient-24"/></defs><title>ella-enterprise_box</title><g class="cls-1"><g id="Layer_2" data-name="Layer 2"><g id="Layer_1-2" data-name="Layer 1"><path class="cls-2" d="M29.11,0l7.68,7.68-7.68,7.67L21.43,7.68Zm3.44,7.68L29.11,4.24,25.68,7.68l3.43,3.43Z"/><path class="cls-3" d="M131.07,185.08a4.67,4.67,0,1,1,4.67-4.66A4.66,4.66,0,0,1,131.07,185.08Zm0-7.33a2.67,2.67,0,1,0,2.67,2.67A2.67,2.67,0,0,0,131.07,177.75Z"/><path class="cls-4" d="M186.15,174.32a4,4,0,1,1,4-4A4,4,0,0,1,186.15,174.32Zm0-6.25a2.28,2.28,0,1,0,2.27,2.27A2.28,2.28,0,0,0,186.15,168.07Z"/><path class="cls-5" d="M118.3,25A5.72,5.72,0,1,1,124,19.23,5.72,5.72,0,0,1,118.3,25Zm0-10.44A4.72,4.72,0,1,0,123,19.23,4.72,4.72,0,0,0,118.3,14.51Z"/><rect class="cls-6" x="31.74" y="5.01" width="5.34" height="5.34" transform="translate(15.51 -22.08) rotate(45)"/><rect class="cls-7" x="169.39" y="10.17" width="3.3" height="3.3" transform="translate(58.46 -117.48) rotate(45)"/><rect class="cls-8" x="116.39" y="168.92" width="3.14" height="3.14" transform="translate(155.11 -33.48) rotate(45)"/><rect class="cls-9" x="171.99" y="16.04" width="5.21" height="5.21" transform="translate(64.32 -118) rotate(45)"/><circle class="cls-10" cx="3" cy="107.53" r="3"/><path class="cls-11" d="M18.86,65l-.45,55.73L18,65c0-.41.2-.74.45-.75s.46.33.46.73Z"/><circle class="cls-12" cx="18.41" cy="65.61" r="2.22"/><path class="cls-13" d="M193.4,6.63l-.73,55.74-.74-55.74a.74.74,0,0,1,1.47,0Z"/><circle class="cls-14" cx="192.67" cy="7.29" r="3.93"/><g class="cls-15"><path class="cls-16" d="M209.39,23.56l-.46,35.07-.47-35.07a.48.48,0,0,1,.46-.47.47.47,0,0,1,.47.46Z"/><circle class="cls-17" cx="208.93" cy="23.97" r="2.47"/></g><path class="cls-18" d="M127,76.77V89.3a7.68,7.68,0,0,1-3.9,6.94L85.3,117.78a17.52,17.52,0,0,1-17.48-.11L30,95.58a7.65,7.65,0,0,1-3.82-7.07V76.3S76.38,49,77,49.15Z"/><path class="cls-19" d="M85.83,105l37.38-21.54a7.69,7.69,0,0,0,.07-13.28L86,48.22a18.23,18.23,0,0,0-18.29-.13L30,69.56A7.69,7.69,0,0,0,30,82.86l37.53,22.06A18.27,18.27,0,0,0,85.83,105Z"/><path class="cls-20" d="M85.64,104.3l37.19-21.43a7.15,7.15,0,0,0,.06-12.36L85.82,48.66a17.88,17.88,0,0,0-17.92-.13L30.42,69.89a7.16,7.16,0,0,0-.08,12.39l37.32,21.94A17.87,17.87,0,0,0,85.64,104.3Z"/><path class="cls-21" d="M123.15,90.25v.21a2.29,2.29,0,0,1-1.16,2l-35.09,20a1,1,0,0,1-1.46-.6.92.92,0,0,1,0-.29,2.31,2.31,0,0,1,1.15-2l35.1-20.26a.82.82,0,0,1,.24-.1A1,1,0,0,1,123.15,90.25Z"/><path class="cls-22" d="M121.93,89.55v.21a2.34,2.34,0,0,1-1.16,2l-35.09,20a1.22,1.22,0,0,1-.24.1.92.92,0,0,1,0-.29,2.31,2.31,0,0,1,1.15-2l35.1-20.26a.82.82,0,0,1,.24-.1A.84.84,0,0,1,121.93,89.55Z"/><path class="cls-23" d="M62.47,108.72l.3.25a2.89,2.89,0,0,0,1.62,2.94l.1.36A1.61,1.61,0,0,0,66.73,111h0a4,4,0,0,0-2-3.47h0A1.58,1.58,0,0,0,62.47,108.72Z"/><path class="cls-24" d="M57.91,105.91h0a3.86,3.86,0,0,0,1.93,3.35h0a1.25,1.25,0,0,0,1.88-1.08h0a3.87,3.87,0,0,0-1.91-3.36h0A1.26,1.26,0,0,0,57.91,105.91Z"/><path class="cls-25" d="M53,102.87v0a3.84,3.84,0,0,0,1.94,3.34h0a1.26,1.26,0,0,0,1.89-1.09h0a3.84,3.84,0,0,0-1.91-3.35h0A1.26,1.26,0,0,0,53,102.87Z"/><path class="cls-26" d="M62.38,108.91v0a3.86,3.86,0,0,0,1.93,3.34h0a1.26,1.26,0,0,0,1.89-1.09h0a3.87,3.87,0,0,0-1.92-3.35l0,0A1.26,1.26,0,0,0,62.38,108.91Z"/><path class="cls-27" d="M57.44,106.14h0a3.86,3.86,0,0,0,1.94,3.35h0a1.25,1.25,0,0,0,1.89-1.08h0a3.87,3.87,0,0,0-1.91-3.36h0A1.27,1.27,0,0,0,57.44,106.14Z"/><path class="cls-28" d="M52.51,103.11h0a3.88,3.88,0,0,0,1.93,3.35h0a1.26,1.26,0,0,0,1.89-1.09h0A3.88,3.88,0,0,0,54.42,102h0A1.25,1.25,0,0,0,52.51,103.11Z"/><path class="cls-29" d="M85.64,104.1l37.19-21.43a7.15,7.15,0,0,0,.06-12.37L85.82,48.46a17.88,17.88,0,0,0-17.92-.13L30.42,69.69a7.16,7.16,0,0,0-.08,12.39L67.66,104A17.87,17.87,0,0,0,85.64,104.1Z"/><path class="cls-30" d="M122.65,80.22a3.2,3.2,0,0,1-.51.33l-39.47,22.1a12.52,12.52,0,0,1-12.13,0L31.41,79.79a3.89,3.89,0,0,1-.52-.34,4.17,4.17,0,0,1,.5-7L70.54,51.21a12.5,12.5,0,0,1,12.16,0l39.43,22A4.17,4.17,0,0,1,122.65,80.22Z"/><path class="cls-31" d="M123.55,62.22V75.44c.07,2.51-1.14,3.48-3.63,4.89l-35.22,20c-5.82,3.39-10.2,3.39-16.27-.1L33.23,79.72c-2.5-1.46-3.68-2.48-3.55-5V61.78S76.39,36.36,77,36.51Z"/><path class="cls-32" d="M127,54.43V67a7.68,7.68,0,0,1-3.9,6.94L85.3,95.43a17.49,17.49,0,0,1-17.48-.1L30,73.24a7.65,7.65,0,0,1-3.82-7.07V54S76.38,26.65,77,26.81Z"/><path class="cls-33" d="M123.15,67.91v.21a2.29,2.29,0,0,1-1.16,2l-35.09,20a1,1,0,0,1-1.46-.6.92.92,0,0,1,0-.29,2.3,2.3,0,0,1,1.15-2L121.65,67a.82.82,0,0,1,.24-.1A1,1,0,0,1,123.15,67.91Z"/><path class="cls-34" d="M121.93,67.21v.21a2.34,2.34,0,0,1-1.16,2l-35.09,20-.24.1a.92.92,0,0,1,0-.29,2.3,2.3,0,0,1,1.15-2L121.65,67a.82.82,0,0,1,.24-.1A.84.84,0,0,1,121.93,67.21Z"/><path class="cls-35" d="M62.47,86.38l.3.25a2.89,2.89,0,0,0,1.62,2.94l.1.36a1.61,1.61,0,0,0,2.24-1.27h0a4,4,0,0,0-2-3.47h0A1.58,1.58,0,0,0,62.47,86.38Z"/><path class="cls-36" d="M57.91,83.57h0a3.86,3.86,0,0,0,1.93,3.35h0a1.25,1.25,0,0,0,1.88-1.08h0a3.87,3.87,0,0,0-1.91-3.36h0A1.26,1.26,0,0,0,57.91,83.57Z"/><path class="cls-37" d="M53,80.53v0a3.85,3.85,0,0,0,1.94,3.34h0a1.26,1.26,0,0,0,1.89-1.09h0a3.84,3.84,0,0,0-1.91-3.35h0A1.26,1.26,0,0,0,53,80.53Z"/><path class="cls-38" d="M62.38,86.57v0a3.86,3.86,0,0,0,1.93,3.34h0a1.26,1.26,0,0,0,1.89-1.08h0a3.87,3.87,0,0,0-1.92-3.35l0,0A1.26,1.26,0,0,0,62.38,86.57Z"/><path class="cls-39" d="M57.44,83.8h0a3.86,3.86,0,0,0,1.94,3.35h0a1.26,1.26,0,0,0,1.89-1.08h0a3.87,3.87,0,0,0-1.91-3.36h0A1.27,1.27,0,0,0,57.44,83.8Z"/><path class="cls-40" d="M52.51,80.76v0a3.88,3.88,0,0,0,1.93,3.35h0A1.26,1.26,0,0,0,56.34,83h0a3.87,3.87,0,0,0-1.92-3.35h0A1.25,1.25,0,0,0,52.51,80.76Z"/><path class="cls-41" d="M85.83,82.8l37.38-21.54A7.69,7.69,0,0,0,123.28,48L86,26a18.23,18.23,0,0,0-18.29-.13L30,47.36A7.69,7.69,0,0,0,30,60.66L67.48,82.72A18.22,18.22,0,0,0,85.83,82.8Z"/><path class="cls-42" d="M85.64,82.11l37.19-21.43a7.15,7.15,0,0,0,.06-12.37L85.82,26.47a17.83,17.83,0,0,0-17.92-.13L30.42,47.7a7.16,7.16,0,0,0-.08,12.39L67.66,82A17.87,17.87,0,0,0,85.64,82.11Z"/><path class="cls-43" d="M122.65,58.23a3.2,3.2,0,0,1-.51.33L82.67,80.66a12.52,12.52,0,0,1-12.13,0L31.41,57.8a5.19,5.19,0,0,1-.52-.34,4.17,4.17,0,0,1,.5-7L70.54,29.22a12.5,12.5,0,0,1,12.16,0l39.43,22A4.17,4.17,0,0,1,122.65,58.23Z"/><path class="cls-44" d="M123.55,40.22V53.45c.07,2.51-1.14,3.47-3.63,4.89l-35.22,20c-5.82,3.39-10.2,3.39-16.27-.1L33.23,57.73c-2.5-1.46-3.68-2.48-3.55-5V39.79S76.39,14.37,77,14.51Z"/><path class="cls-45" d="M127,32.44V45a7.7,7.7,0,0,1-3.9,6.95L85.3,73.44a17.49,17.49,0,0,1-17.48-.1L30,51.25a7.65,7.65,0,0,1-3.82-7.07V32S76.38,4.66,77,4.82Z"/><path class="cls-46" d="M85.83,60.66l37.38-21.54a7.68,7.68,0,0,0,.07-13.27L86,3.89a18.25,18.25,0,0,0-18.29-.14L30,25.23A7.69,7.69,0,0,0,30,38.53l37.53,22A18.22,18.22,0,0,0,85.83,60.66Z"/><path class="cls-47" d="M85.64,60l37.19-21.43a7.15,7.15,0,0,0,.06-12.36L85.82,4.33A17.88,17.88,0,0,0,67.9,4.2L30.42,25.56A7.16,7.16,0,0,0,30.34,38L67.66,59.89A17.87,17.87,0,0,0,85.64,60Z"/><path class="cls-48" d="M119.76,35.39a4.45,4.45,0,0,1-.48.32l-37,21.41a11.4,11.4,0,0,1-11.37,0L34,35.88a4.08,4.08,0,0,1,0-7.12l37-21.48a11.41,11.41,0,0,1,11.4,0l37,21.32A4.12,4.12,0,0,1,119.76,35.39Z"/><path class="cls-49" d="M81.86,56l36.67-21.08a3.23,3.23,0,0,0,0-5.59L82,8.27A10.92,10.92,0,0,0,71.1,8.19L34.62,29.51a3.12,3.12,0,0,0,0,5.39L70.9,56A10.88,10.88,0,0,0,81.86,56Z"/><path class="cls-50" d="M87.1,39.86h0a2.69,2.69,0,0,0,2.65,0h0a.88.88,0,0,0,0-1.53h0a2.7,2.7,0,0,0-2.67,0h0A.88.88,0,0,0,87.1,39.86Z"/><path class="cls-51" d="M81.17,43.24h0a2.71,2.71,0,0,0,2.66,0h0a.88.88,0,0,0,0-1.53h0a2.72,2.72,0,0,0-2.68,0h0A.89.89,0,0,0,81.17,43.24Z"/><path class="cls-52" d="M75.42,46.62h0a2.71,2.71,0,0,0,2.66,0h0a.88.88,0,0,0,0-1.53h0a2.72,2.72,0,0,0-2.68,0h0A.88.88,0,0,0,75.42,46.62Z"/><path class="cls-53" d="M81.28,36.51h0a2.67,2.67,0,0,0,2.65,0h0A.87.87,0,0,0,84,35h0a2.66,2.66,0,0,0-2.67,0h0A.87.87,0,0,0,81.28,36.51Z"/><path class="cls-54" d="M75.35,39.89h0a2.69,2.69,0,0,0,2.66,0h0a.87.87,0,0,0,0-1.52h0a2.67,2.67,0,0,0-2.68,0h0A.88.88,0,0,0,75.35,39.89Z"/><path class="cls-55" d="M69.6,43.27h0a2.66,2.66,0,0,0,2.66,0h0a.87.87,0,0,0,0-1.52h0a2.67,2.67,0,0,0-2.68,0h0A.87.87,0,0,0,69.6,43.27Z"/><path class="cls-56" d="M75.42,33.09l0,0a2.71,2.71,0,0,0,2.66,0h0a.88.88,0,0,0,0-1.53h0a2.67,2.67,0,0,0-2.68,0h0A.87.87,0,0,0,75.42,33.09Z"/><path class="cls-57" d="M69.5,36.48h0a2.71,2.71,0,0,0,2.66,0h0a.88.88,0,0,0,0-1.53h0a2.7,2.7,0,0,0-2.68,0h0A.88.88,0,0,0,69.5,36.48Z"/><path class="cls-50" d="M63.75,39.86h0a2.71,2.71,0,0,0,2.66,0h0a.88.88,0,0,0,0-1.53h0a2.72,2.72,0,0,0-2.68,0h0A.88.88,0,0,0,63.75,39.86Z"/><path class="cls-58" d="M98.63,33.13h0a2.69,2.69,0,0,0,2.66,0h0a.87.87,0,0,0,0-1.52h0a2.67,2.67,0,0,0-2.68,0h0A.87.87,0,0,0,98.63,33.13Z"/><path class="cls-53" d="M92.88,36.51h0a2.69,2.69,0,0,0,2.66,0h0a.87.87,0,0,0,0-1.52h0a2.67,2.67,0,0,0-2.68,0h0A.87.87,0,0,0,92.88,36.51Z"/><path class="cls-59" d="M92.81,29.78l0,0a2.69,2.69,0,0,0,2.66,0h0a.88.88,0,0,0,0-1.53h0a2.67,2.67,0,0,0-2.68,0h0A.88.88,0,0,0,92.81,29.78Z"/><path class="cls-60" d="M87.06,33.16l0,0a2.71,2.71,0,0,0,2.66,0h0a.88.88,0,0,0,0-1.53h0a2.67,2.67,0,0,0-2.68,0h0A.87.87,0,0,0,87.06,33.16Z"/><path class="cls-61" d="M87,26.37h0a2.69,2.69,0,0,0,2.66,0h0a.87.87,0,0,0,0-1.52h0a2.67,2.67,0,0,0-2.68,0h0A.87.87,0,0,0,87,26.37Z"/><path class="cls-62" d="M81.21,29.75h0a2.69,2.69,0,0,0,2.66,0h0a.87.87,0,0,0,0-1.52h0a2.67,2.67,0,0,0-2.68,0h0A.87.87,0,0,0,81.21,29.75Z"/><path class="cls-59" d="M69.64,29.78l0,0a2.67,2.67,0,0,0,2.65,0h0a.88.88,0,0,0,0-1.53h0a2.66,2.66,0,0,0-2.67,0h0A.87.87,0,0,0,69.64,29.78Z"/><path class="cls-60" d="M63.71,33.16l0,0a2.71,2.71,0,0,0,2.66,0h0a.88.88,0,0,0,0-1.53h0a2.67,2.67,0,0,0-2.68,0h0A.88.88,0,0,0,63.71,33.16Z"/><path class="cls-63" d="M58,36.55h0a2.71,2.71,0,0,0,2.66,0h0a.88.88,0,0,0,0-1.53h0A2.67,2.67,0,0,0,58,35h0A.88.88,0,0,0,58,36.55Z"/><path class="cls-61" d="M63.78,26.37h0a2.69,2.69,0,0,0,2.66,0h0a.87.87,0,0,0,0-1.52h0a2.67,2.67,0,0,0-2.68,0h0A.87.87,0,0,0,63.78,26.37Z"/><path class="cls-62" d="M57.86,29.75h0a2.69,2.69,0,0,0,2.66,0h0a.87.87,0,0,0,0-1.52h0a2.67,2.67,0,0,0-2.68,0h0A.87.87,0,0,0,57.86,29.75Z"/><path class="cls-58" d="M52.11,33.13h0a2.69,2.69,0,0,0,2.66,0h0a.87.87,0,0,0,0-1.52h0a2.67,2.67,0,0,0-2.68,0h0A.87.87,0,0,0,52.11,33.13Z"/><path class="cls-64" d="M81.17,23.06h0a2.69,2.69,0,0,0,2.66,0h0a.87.87,0,0,0,0-1.52h0a2.67,2.67,0,0,0-2.68,0h0A.88.88,0,0,0,81.17,23.06Z"/><path class="cls-65" d="M75.42,26.44h0a2.69,2.69,0,0,0,2.66,0h0a.87.87,0,0,0,0-1.52h0a2.67,2.67,0,0,0-2.68,0h0A.87.87,0,0,0,75.42,26.44Z"/><path class="cls-66" d="M75.32,19.64h0a2.66,2.66,0,0,0,2.66,0h0a.88.88,0,0,0,0-1.53h0a2.67,2.67,0,0,0-2.68,0h0A.87.87,0,0,0,75.32,19.64Z"/><path class="cls-67" d="M69.57,23h0a2.66,2.66,0,0,0,2.66,0h0a.88.88,0,0,0,0-1.53h0a2.67,2.67,0,0,0-2.68,0h0A.87.87,0,0,0,69.57,23Z"/><path class="cls-68" d="M123.15,45.92v.21a2.29,2.29,0,0,1-1.16,2l-35.09,20a1,1,0,0,1-1.46-.59.92.92,0,0,1,0-.29,2.3,2.3,0,0,1,1.15-2l35.1-20.26a.82.82,0,0,1,.24-.1A1,1,0,0,1,123.15,45.92Z"/><path class="cls-69" d="M121.93,45.22v.21a2.34,2.34,0,0,1-1.16,2l-35.09,20a1.28,1.28,0,0,1-.24.11.92.92,0,0,1,0-.29,2.3,2.3,0,0,1,1.15-2l35.1-20.26a.82.82,0,0,1,.24-.1A.8.8,0,0,1,121.93,45.22Z"/><path class="cls-70" d="M62.47,64.39l.3.25a2.9,2.9,0,0,0,1.62,2.94l.1.36a1.61,1.61,0,0,0,2.24-1.28h0a4,4,0,0,0-2-3.46h0A1.58,1.58,0,0,0,62.47,64.39Z"/><path class="cls-71" d="M57.91,61.58h0a3.86,3.86,0,0,0,1.93,3.35h0a1.25,1.25,0,0,0,1.88-1.08h0a3.87,3.87,0,0,0-1.91-3.36h0A1.26,1.26,0,0,0,57.91,61.58Z"/><path class="cls-72" d="M53,58.54v0a3.85,3.85,0,0,0,1.94,3.34h0a1.26,1.26,0,0,0,1.89-1.09h0a3.84,3.84,0,0,0-1.91-3.35l0,0A1.27,1.27,0,0,0,53,58.54Z"/><path class="cls-73" d="M62.38,64.58h0a3.88,3.88,0,0,0,1.93,3.35h0a1.26,1.26,0,0,0,1.89-1.08h0a3.9,3.9,0,0,0-1.92-3.36h0A1.26,1.26,0,0,0,62.38,64.58Z"/><path class="cls-74" d="M57.44,61.81h0a3.87,3.87,0,0,0,1.94,3.35h0a1.26,1.26,0,0,0,1.89-1.08h0a3.87,3.87,0,0,0-1.91-3.36h0A1.27,1.27,0,0,0,57.44,61.81Z"/><path class="cls-75" d="M52.51,58.77v0a3.86,3.86,0,0,0,1.93,3.34h0a1.26,1.26,0,0,0,1.89-1.09h0a3.87,3.87,0,0,0-1.92-3.35h0A1.25,1.25,0,0,0,52.51,58.77Z"/><path class="cls-76" d="M202.38,120.36v12.52a7.65,7.65,0,0,1-3.89,6.94l-37.84,21.54a17.49,17.49,0,0,1-17.48-.1l-37.82-22.1a7.66,7.66,0,0,1-3.81-7.06V119.89s50.19-27.31,50.82-27.15Z"/><path class="cls-77" d="M161.16,148.58,198.55,127a7.69,7.69,0,0,0,.06-13.28l-37.26-22a18.23,18.23,0,0,0-18.29-.13l-37.68,21.47a7.69,7.69,0,0,0-.09,13.3l37.53,22.06A18.2,18.2,0,0,0,161.16,148.58Z"/><path class="cls-78" d="M161,147.89l37.19-21.43a7.16,7.16,0,0,0,.06-12.37L161.16,92.25a17.83,17.83,0,0,0-17.92-.13l-37.48,21.36a7.15,7.15,0,0,0-.09,12.38l37.33,22A17.87,17.87,0,0,0,161,147.89Z"/><path class="cls-79" d="M198,124a4.45,4.45,0,0,1-.51.33L158,146.44a12.54,12.54,0,0,1-12.14,0l-39.13-22.89a5.69,5.69,0,0,1-.52-.33,4.17,4.17,0,0,1,.51-7L145.87,95A12.52,12.52,0,0,1,158,95l39.43,22A4.18,4.18,0,0,1,198,124Z"/><path class="cls-80" d="M198.89,106v13.23c.08,2.51-1.14,3.47-3.62,4.89l-35.23,20c-5.81,3.39-10.2,3.39-16.26-.1l-35.2-20.56c-2.5-1.46-3.68-2.48-3.55-5V105.57s46.72-25.42,47.31-25.28Z"/><path class="cls-81" d="M202.38,98.22v12.52a7.67,7.67,0,0,1-3.89,7l-37.84,21.53a17.49,17.49,0,0,1-17.48-.1L105.34,117a7.66,7.66,0,0,1-3.81-7.07V97.75s50.19-27.31,50.82-27.15Z"/><path class="cls-82" d="M161.16,126.44l37.39-21.54a7.68,7.68,0,0,0,.06-13.27l-37.26-22a18.25,18.25,0,0,0-18.29-.14L105.38,91a7.69,7.69,0,0,0-.09,13.3l37.53,22A18.2,18.2,0,0,0,161.16,126.44Z"/><path class="cls-83" d="M161,125.75l37.19-21.43A7.16,7.16,0,0,0,198.23,92L161.16,70.11A17.88,17.88,0,0,0,143.24,70L105.76,91.34a7.16,7.16,0,0,0-.09,12.39L143,125.67A17.87,17.87,0,0,0,161,125.75Z"/><path class="cls-84" d="M195.1,101.17a5.72,5.72,0,0,1-.48.32l-37,21.41a11.42,11.42,0,0,1-11.38,0l-37-21.25a4,4,0,0,1-.48-.32,4.11,4.11,0,0,1,.47-6.8l37-21.48a11.4,11.4,0,0,1,11.41,0l37,21.32A4.12,4.12,0,0,1,195.1,101.17Z"/><path class="cls-85" d="M157.2,121.78l36.66-21.08a3.22,3.22,0,0,0,0-5.59L157.36,74.05A10.9,10.9,0,0,0,146.44,74L110,95.29a3.12,3.12,0,0,0,0,5.39l36.27,21A10.9,10.9,0,0,0,157.2,121.78Z"/><g class="cls-86"><path class="cls-87" d="M162.43,105.64h0a2.71,2.71,0,0,0,2.66,0h0a.88.88,0,0,0,0-1.53h0a2.67,2.67,0,0,0-2.68,0h0A.89.89,0,0,0,162.43,105.64Z"/><path class="cls-88" d="M156.51,109h0a2.71,2.71,0,0,0,2.66,0h0a.88.88,0,0,0,0-1.53h0a2.72,2.72,0,0,0-2.68,0h0A.88.88,0,0,0,156.51,109Z"/><path class="cls-89" d="M150.76,112.4h0a2.71,2.71,0,0,0,2.66,0h0a.88.88,0,0,0,0-1.53h0a2.72,2.72,0,0,0-2.68,0h0A.88.88,0,0,0,150.76,112.4Z"/><path class="cls-90" d="M156.61,102.29h0a2.69,2.69,0,0,0,2.66,0h0a.87.87,0,0,0,0-1.52h0a2.67,2.67,0,0,0-2.68,0h0A.88.88,0,0,0,156.61,102.29Z"/><path class="cls-91" d="M150.69,105.67h0a2.69,2.69,0,0,0,2.66,0h0a.87.87,0,0,0,0-1.52h0a2.67,2.67,0,0,0-2.68,0h0A.87.87,0,0,0,150.69,105.67Z"/><path class="cls-92" d="M144.94,109.05h0a2.69,2.69,0,0,0,2.66,0h0a.87.87,0,0,0,0-1.52h0a2.67,2.67,0,0,0-2.68,0h0A.87.87,0,0,0,144.94,109.05Z"/><path class="cls-93" d="M150.76,98.87l0,0a2.71,2.71,0,0,0,2.66,0h0a.88.88,0,0,0,0-1.53h0a2.67,2.67,0,0,0-2.68,0h0A.87.87,0,0,0,150.76,98.87Z"/><path class="cls-94" d="M144.83,102.25l0,0a2.71,2.71,0,0,0,2.66,0h0a.88.88,0,0,0,0-1.53h0a2.67,2.67,0,0,0-2.68,0h0A.88.88,0,0,0,144.83,102.25Z"/><path class="cls-87" d="M139.08,105.64h0a2.71,2.71,0,0,0,2.66,0h0a.88.88,0,0,0,0-1.53h0a2.67,2.67,0,0,0-2.68,0h0A.89.89,0,0,0,139.08,105.64Z"/><path class="cls-95" d="M174,98.91h0a2.69,2.69,0,0,0,2.66,0h0a.87.87,0,0,0,0-1.52h0a2.67,2.67,0,0,0-2.68,0h0A.87.87,0,0,0,174,98.91Z"/><path class="cls-90" d="M168.22,102.29h0a2.69,2.69,0,0,0,2.66,0h0a.88.88,0,0,0,0-1.52h0a2.67,2.67,0,0,0-2.68,0h0A.87.87,0,0,0,168.22,102.29Z"/><path class="cls-96" d="M168.15,95.56h0a2.66,2.66,0,0,0,2.66,0h0a.88.88,0,0,0,0-1.53h0a2.67,2.67,0,0,0-2.68,0h0A.87.87,0,0,0,168.15,95.56Z"/><path class="cls-97" d="M162.4,98.94l0,0a2.69,2.69,0,0,0,2.66,0h0a.89.89,0,0,0,0-1.53h0a2.67,2.67,0,0,0-2.68,0h0A.87.87,0,0,0,162.4,98.94Z"/><path class="cls-98" d="M162.29,92.15h0a2.69,2.69,0,0,0,2.66,0h0a.87.87,0,0,0,0-1.52h0a2.67,2.67,0,0,0-2.68,0h0A.88.88,0,0,0,162.29,92.15Z"/><path class="cls-99" d="M156.54,95.53h0a2.69,2.69,0,0,0,2.66,0h0a.87.87,0,0,0,0-1.52h0a2.67,2.67,0,0,0-2.68,0h0A.88.88,0,0,0,156.54,95.53Z"/><path class="cls-96" d="M145,95.56h0a2.66,2.66,0,0,0,2.66,0h0a.88.88,0,0,0,0-1.53h0A2.67,2.67,0,0,0,145,94h0A.88.88,0,0,0,145,95.56Z"/><path class="cls-97" d="M139.05,98.94l0,0a2.69,2.69,0,0,0,2.66,0h0a.88.88,0,0,0,0-1.53h0a2.67,2.67,0,0,0-2.68,0h0A.87.87,0,0,0,139.05,98.94Z"/><path class="cls-100" d="M133.3,102.32l0,0a2.71,2.71,0,0,0,2.66,0h0a.88.88,0,0,0,0-1.53h0a2.67,2.67,0,0,0-2.68,0h0A.87.87,0,0,0,133.3,102.32Z"/><path class="cls-98" d="M139.12,92.15h0a2.69,2.69,0,0,0,2.66,0h0a.87.87,0,0,0,0-1.52h0a2.67,2.67,0,0,0-2.68,0h0A.87.87,0,0,0,139.12,92.15Z"/><path class="cls-99" d="M133.19,95.53h0a2.69,2.69,0,0,0,2.66,0h0a.87.87,0,0,0,0-1.52h0a2.67,2.67,0,0,0-2.68,0h0A.88.88,0,0,0,133.19,95.53Z"/><path class="cls-95" d="M127.44,98.91h0a2.69,2.69,0,0,0,2.66,0h0a.87.87,0,0,0,0-1.52h0a2.67,2.67,0,0,0-2.68,0h0A.88.88,0,0,0,127.44,98.91Z"/><path class="cls-101" d="M156.51,88.84h0a2.69,2.69,0,0,0,2.66,0h0a.87.87,0,0,0,0-1.52l0,0a2.7,2.7,0,0,0-2.68,0h0A.87.87,0,0,0,156.51,88.84Z"/><path class="cls-102" d="M150.76,92.22h0a2.69,2.69,0,0,0,2.66,0h0a.87.87,0,0,0,0-1.52l0,0a2.7,2.7,0,0,0-2.68,0h0A.87.87,0,0,0,150.76,92.22Z"/><path class="cls-103" d="M150.65,85.42h0a2.66,2.66,0,0,0,2.66,0h0a.88.88,0,0,0,0-1.53h0a2.67,2.67,0,0,0-2.68,0h0A.88.88,0,0,0,150.65,85.42Z"/><path class="cls-104" d="M144.9,88.8h0a2.66,2.66,0,0,0,2.66,0h0a.88.88,0,0,0,0-1.53h0a2.67,2.67,0,0,0-2.68,0h0A.88.88,0,0,0,144.9,88.8Z"/></g><path class="cls-105" d="M198.49,133.58v.2a2.27,2.27,0,0,1-1.17,2l-35.08,20a1,1,0,0,1-1.46-.6.88.88,0,0,1-.05-.29,2.31,2.31,0,0,1,1.16-2L197,132.7l.23-.1A1,1,0,0,1,198.49,133.58Z"/><path class="cls-106" d="M197.27,132.88v.2a2.31,2.31,0,0,1-1.16,2l-35.1,20a.67.67,0,0,1-.23.1.88.88,0,0,1-.05-.29,2.31,2.31,0,0,1,1.16-2L197,132.7l.23-.1A.87.87,0,0,1,197.27,132.88Z"/><path class="cls-107" d="M198.49,111.7v.2a2.28,2.28,0,0,1-1.17,2l-35.08,20a1,1,0,0,1-1.46-.59.93.93,0,0,1-.05-.29,2.33,2.33,0,0,1,1.16-2L197,110.83a.77.77,0,0,1,.23-.1A1,1,0,0,1,198.49,111.7Z"/><path class="cls-108" d="M197.27,111v.21a2.34,2.34,0,0,1-1.16,2l-35.1,20a1,1,0,0,1-.23.11.93.93,0,0,1-.05-.29,2.33,2.33,0,0,1,1.16-2L197,110.83a.77.77,0,0,1,.23-.1A.81.81,0,0,1,197.27,111Z"/><path class="cls-109" d="M137.81,130.17l.3.25a2.9,2.9,0,0,0,1.62,2.94l.1.36a1.61,1.61,0,0,0,2.24-1.28h0a4,4,0,0,0-2-3.46h0A1.58,1.58,0,0,0,137.81,130.17Z"/><path class="cls-110" d="M133.24,127.36h0a3.87,3.87,0,0,0,1.94,3.35h0a1.26,1.26,0,0,0,1.89-1.08h0a3.87,3.87,0,0,0-1.91-3.36h0A1.26,1.26,0,0,0,133.24,127.36Z"/><path class="cls-111" d="M128.31,124.32v0a3.86,3.86,0,0,0,1.93,3.34h0a1.26,1.26,0,0,0,1.89-1.08h0a3.87,3.87,0,0,0-1.92-3.35l0,0A1.26,1.26,0,0,0,128.31,124.32Z"/><path class="cls-112" d="M137.71,130.36h0a3.87,3.87,0,0,0,1.94,3.35h0a1.26,1.26,0,0,0,1.89-1.08h0a3.87,3.87,0,0,0-1.91-3.36h0A1.27,1.27,0,0,0,137.71,130.36Z"/><path class="cls-113" d="M132.78,127.59h0a3.88,3.88,0,0,0,1.93,3.35h0a1.26,1.26,0,0,0,1.89-1.08h0a3.86,3.86,0,0,0-1.92-3.36h0A1.27,1.27,0,0,0,132.78,127.59Z"/><path class="cls-114" d="M127.85,124.55v0a3.84,3.84,0,0,0,1.93,3.34h0a1.26,1.26,0,0,0,1.88-1.09h0a3.84,3.84,0,0,0-1.91-3.35h0A1.25,1.25,0,0,0,127.85,124.55Z"/><path class="cls-115" d="M161,125.55l37.19-21.43a7.16,7.16,0,0,0,.06-12.37L161.16,69.91a17.83,17.83,0,0,0-17.92-.13L105.76,91.14a7.15,7.15,0,0,0-.09,12.38l37.33,22A17.87,17.87,0,0,0,161,125.55Z"/><path class="cls-116" d="M198,101.67a4.45,4.45,0,0,1-.51.33L158,124.1a12.54,12.54,0,0,1-12.14,0l-39.13-22.89a5.69,5.69,0,0,1-.52-.33,4.17,4.17,0,0,1,.51-7l39.14-21.23a12.54,12.54,0,0,1,12.17,0l39.43,22A4.18,4.18,0,0,1,198,101.67Z"/><path class="cls-117" d="M198.89,83.66V96.89c.08,2.51-1.14,3.47-3.62,4.89l-35.23,20c-5.81,3.39-10.2,3.39-16.26-.1l-35.2-20.56c-2.5-1.47-3.68-2.48-3.55-5V83.23S151.73,57.81,152.32,58Z"/><path class="cls-118" d="M202.38,75.88V88.4a7.67,7.67,0,0,1-3.89,6.95l-37.84,21.53a17.49,17.49,0,0,1-17.48-.1L105.34,94.69a7.66,7.66,0,0,1-3.81-7.07V75.41s50.19-27.31,50.82-27.15Z"/><path class="cls-119" d="M198.49,89.36v.2a2.28,2.28,0,0,1-1.17,2l-35.08,20a1,1,0,0,1-1.46-.59.93.93,0,0,1-.05-.29,2.33,2.33,0,0,1,1.16-2L197,88.49a.77.77,0,0,1,.23-.1A1,1,0,0,1,198.49,89.36Z"/><path class="cls-120" d="M197.27,88.66v.21a2.34,2.34,0,0,1-1.16,2l-35.1,20a1,1,0,0,1-.23.11.93.93,0,0,1-.05-.29,2.33,2.33,0,0,1,1.16-2L197,88.49a.77.77,0,0,1,.23-.1A.81.81,0,0,1,197.27,88.66Z"/><path class="cls-121" d="M137.81,107.83l.3.25a2.9,2.9,0,0,0,1.62,2.94l.1.36a1.61,1.61,0,0,0,2.24-1.28h0a4,4,0,0,0-2-3.46h0A1.58,1.58,0,0,0,137.81,107.83Z"/><path class="cls-122" d="M133.24,105h0a3.87,3.87,0,0,0,1.94,3.35h0a1.26,1.26,0,0,0,1.89-1.09h0a3.86,3.86,0,0,0-1.91-3.35h0A1.26,1.26,0,0,0,133.24,105Z"/><path class="cls-123" d="M128.31,102h0a3.87,3.87,0,0,0,1.93,3.35h0a1.26,1.26,0,0,0,1.89-1.08h0a3.87,3.87,0,0,0-1.92-3.35l0,0A1.26,1.26,0,0,0,128.31,102Z"/><path class="cls-124" d="M137.71,108h0a3.87,3.87,0,0,0,1.94,3.35h0a1.26,1.26,0,0,0,1.89-1.08h0a3.87,3.87,0,0,0-1.91-3.36h0A1.27,1.27,0,0,0,137.71,108Z"/><path class="cls-125" d="M132.78,105.25h0a3.88,3.88,0,0,0,1.93,3.35h0a1.26,1.26,0,0,0,1.89-1.08h0a3.86,3.86,0,0,0-1.92-3.36h0A1.27,1.27,0,0,0,132.78,105.25Z"/><path class="cls-126" d="M127.85,102.21v0a3.84,3.84,0,0,0,1.93,3.34h0a1.26,1.26,0,0,0,1.88-1.09h0a3.84,3.84,0,0,0-1.91-3.35l0,0A1.26,1.26,0,0,0,127.85,102.21Z"/><path class="cls-127" d="M161.16,104.25l37.39-21.54a7.69,7.69,0,0,0,.06-13.28l-37.26-22a18.23,18.23,0,0,0-18.29-.13L105.38,68.81a7.69,7.69,0,0,0-.09,13.3l37.53,22.06A18.25,18.25,0,0,0,161.16,104.25Z"/><path class="cls-128" d="M161,103.55l37.19-21.42a7.16,7.16,0,0,0,.06-12.37L161.16,47.91a17.88,17.88,0,0,0-17.92-.13L105.76,69.15a7.15,7.15,0,0,0-.09,12.38l37.33,22A17.89,17.89,0,0,0,161,103.55Z"/><path class="cls-129" d="M198,79.68c-.16.12-.33.22-.51.33L158,102.11a12.54,12.54,0,0,1-12.14,0L106.74,79.24a5.69,5.69,0,0,1-.52-.33,4.17,4.17,0,0,1,.51-7l39.14-21.23a12.54,12.54,0,0,1,12.17,0l39.43,22A4.18,4.18,0,0,1,198,79.68Z"/><path class="cls-130" d="M198.89,61.67V74.9c.08,2.51-1.14,3.47-3.62,4.89L160,99.83c-5.81,3.4-10.2,3.4-16.26-.09l-35.2-20.56c-2.5-1.47-3.68-2.48-3.55-5V61.23S151.73,35.82,152.32,36Z"/><path class="cls-131" d="M202.38,53.89V66.41a7.64,7.64,0,0,1-3.89,6.94L160.64,94.89a17.49,17.49,0,0,1-17.48-.1L105.34,72.7a7.68,7.68,0,0,1-3.81-7.07V53.42s50.19-27.31,50.82-27.15Z"/><path class="cls-132" d="M161.16,82.11l37.39-21.54a7.69,7.69,0,0,0,.06-13.28l-37.26-22a18.25,18.25,0,0,0-18.29-.13L105.38,46.67a7.69,7.69,0,0,0-.09,13.3L142.82,82A18.2,18.2,0,0,0,161.16,82.11Z"/><path class="cls-133" d="M161,81.42,198.17,60a7.16,7.16,0,0,0,.06-12.37L161.16,25.78a17.85,17.85,0,0,0-17.92-.13L105.76,47a7.16,7.16,0,0,0-.09,12.39L143,81.34A17.87,17.87,0,0,0,161,81.42Z"/><path class="cls-134" d="M195.1,56.83a5.78,5.78,0,0,1-.48.33l-37,21.41a11.42,11.42,0,0,1-11.38,0l-37-21.25a5.72,5.72,0,0,1-.48-.32,4.11,4.11,0,0,1,.47-6.8l37-21.49a11.4,11.4,0,0,1,11.41,0l37,21.31A4.12,4.12,0,0,1,195.1,56.83Z"/><path class="cls-135" d="M157.2,77.45l36.66-21.09a3.22,3.22,0,0,0,0-5.58L157.36,29.72a10.9,10.9,0,0,0-10.92-.08L110,51a3.12,3.12,0,0,0,0,5.39L146.24,77.4A10.93,10.93,0,0,0,157.2,77.45Z"/><path class="cls-136" d="M162.43,61.3h0a2.66,2.66,0,0,0,2.66,0h0a.88.88,0,0,0,0-1.53h0a2.67,2.67,0,0,0-2.68,0h0A.88.88,0,0,0,162.43,61.3Z"/><path class="cls-137" d="M156.51,64.68l0,0a2.69,2.69,0,0,0,2.66,0h0a.88.88,0,0,0,0-1.53h0a2.67,2.67,0,0,0-2.68,0h0A.87.87,0,0,0,156.51,64.68Z"/><path class="cls-138" d="M150.76,68.06l0,0a2.69,2.69,0,0,0,2.66,0h0a.88.88,0,0,0,0-1.53h0a2.67,2.67,0,0,0-2.68,0h0A.87.87,0,0,0,150.76,68.06Z"/><path class="cls-139" d="M156.61,58h0a2.69,2.69,0,0,0,2.66,0h0a.87.87,0,0,0,0-1.52l0,0a2.7,2.7,0,0,0-2.68,0h0A.88.88,0,0,0,156.61,58Z"/><path class="cls-140" d="M150.69,61.34h0a2.69,2.69,0,0,0,2.66,0h0a.87.87,0,0,0,0-1.52h0a2.67,2.67,0,0,0-2.68,0h0A.87.87,0,0,0,150.69,61.34Z"/><path class="cls-141" d="M144.94,64.72h0a2.69,2.69,0,0,0,2.66,0h0a.87.87,0,0,0,0-1.52h0a2.67,2.67,0,0,0-2.68,0h0A.87.87,0,0,0,144.94,64.72Z"/><path class="cls-142" d="M150.76,54.54h0a2.66,2.66,0,0,0,2.66,0h0a.88.88,0,0,0,0-1.53h0a2.67,2.67,0,0,0-2.68,0h0A.87.87,0,0,0,150.76,54.54Z"/><path class="cls-143" d="M144.83,57.92h0a2.66,2.66,0,0,0,2.66,0h0a.88.88,0,0,0,0-1.53h0a2.67,2.67,0,0,0-2.68,0h0A.88.88,0,0,0,144.83,57.92Z"/><path class="cls-136" d="M139.08,61.3h0a2.66,2.66,0,0,0,2.66,0h0a.88.88,0,0,0,0-1.53h0a2.67,2.67,0,0,0-2.68,0h0A.88.88,0,0,0,139.08,61.3Z"/><path class="cls-144" d="M174,54.58h0a2.71,2.71,0,0,0,2.66,0h0a.87.87,0,0,0,0-1.52l0,0a2.72,2.72,0,0,0-2.68,0h0A.88.88,0,0,0,174,54.58Z"/><path class="cls-139" d="M168.22,58h0a2.69,2.69,0,0,0,2.66,0h0a.88.88,0,0,0,0-1.52l0,0a2.7,2.7,0,0,0-2.68,0h0A.87.87,0,0,0,168.22,58Z"/><path class="cls-145" d="M168.15,51.23h0a2.66,2.66,0,0,0,2.66,0h0a.87.87,0,0,0,0-1.52h0a2.67,2.67,0,0,0-2.68,0h0A.87.87,0,0,0,168.15,51.23Z"/><path class="cls-146" d="M162.4,54.61h0a2.66,2.66,0,0,0,2.66,0h0a.89.89,0,0,0,0-1.53h0a2.67,2.67,0,0,0-2.68,0h0A.87.87,0,0,0,162.4,54.61Z"/><path class="cls-147" d="M162.29,47.82h0a2.71,2.71,0,0,0,2.66,0h0a.88.88,0,0,0,0-1.53h0a2.72,2.72,0,0,0-2.68,0h0A.89.89,0,0,0,162.29,47.82Z"/><path class="cls-148" d="M156.54,51.2h0a2.71,2.71,0,0,0,2.66,0h0a.88.88,0,0,0,0-1.53h0a2.72,2.72,0,0,0-2.68,0h0A.89.89,0,0,0,156.54,51.2Z"/><path class="cls-145" d="M145,51.23h0a2.66,2.66,0,0,0,2.66,0h0a.87.87,0,0,0,0-1.52h0a2.67,2.67,0,0,0-2.68,0h0A.88.88,0,0,0,145,51.23Z"/><path class="cls-146" d="M139.05,54.61h0a2.66,2.66,0,0,0,2.66,0h0a.88.88,0,0,0,0-1.53h0a2.67,2.67,0,0,0-2.68,0h0A.87.87,0,0,0,139.05,54.61Z"/><path class="cls-149" d="M133.3,58h0A2.66,2.66,0,0,0,136,58h0a.88.88,0,0,0,0-1.53h0a2.67,2.67,0,0,0-2.68,0h0A.87.87,0,0,0,133.3,58Z"/><path class="cls-147" d="M139.12,47.82h0a2.71,2.71,0,0,0,2.66,0h0a.88.88,0,0,0,0-1.53h0a2.72,2.72,0,0,0-2.68,0h0A.88.88,0,0,0,139.12,47.82Z"/><path class="cls-148" d="M133.19,51.2h0a2.71,2.71,0,0,0,2.66,0h0a.88.88,0,0,0,0-1.53h0a2.72,2.72,0,0,0-2.68,0h0A.89.89,0,0,0,133.19,51.2Z"/><path class="cls-144" d="M127.44,54.58h0a2.71,2.71,0,0,0,2.66,0h0a.87.87,0,0,0,0-1.52l0,0a2.72,2.72,0,0,0-2.68,0h0A.89.89,0,0,0,127.44,54.58Z"/><path class="cls-150" d="M156.51,44.51h0a2.71,2.71,0,0,0,2.66,0h0a.88.88,0,0,0,0-1.53h0a2.7,2.7,0,0,0-2.68,0h0A.88.88,0,0,0,156.51,44.51Z"/><path class="cls-151" d="M150.76,47.89h0a2.71,2.71,0,0,0,2.66,0h0a.88.88,0,0,0,0-1.53h0a2.72,2.72,0,0,0-2.68,0h0A.88.88,0,0,0,150.76,47.89Z"/><path class="cls-152" d="M150.65,41.09h0a2.69,2.69,0,0,0,2.66,0h0a.87.87,0,0,0,0-1.52h0a2.67,2.67,0,0,0-2.68,0h0A.88.88,0,0,0,150.65,41.09Z"/><path class="cls-153" d="M144.9,44.47h0a2.69,2.69,0,0,0,2.66,0h0a.87.87,0,0,0,0-1.52h0a2.67,2.67,0,0,0-2.68,0h0A.88.88,0,0,0,144.9,44.47Z"/><path class="cls-154" d="M198.49,67.37v.2a2.28,2.28,0,0,1-1.17,2l-35.08,20a1,1,0,0,1-1.46-.6.84.84,0,0,1-.05-.29,2.33,2.33,0,0,1,1.16-2L197,66.5a1.2,1.2,0,0,1,.23-.11A1,1,0,0,1,198.49,67.37Z"/><path class="cls-155" d="M197.27,66.67v.2a2.34,2.34,0,0,1-1.16,2l-35.1,20a.67.67,0,0,1-.23.1.84.84,0,0,1-.05-.29,2.33,2.33,0,0,1,1.16-2L197,66.5a1.2,1.2,0,0,1,.23-.11A.92.92,0,0,1,197.27,66.67Z"/><path class="cls-156" d="M137.81,85.84l.3.25A2.88,2.88,0,0,0,139.73,89l.1.37a1.62,1.62,0,0,0,2.24-1.28h0a4,4,0,0,0-2-3.46h0A1.57,1.57,0,0,0,137.81,85.84Z"/><path class="cls-157" d="M133.24,83h0a3.87,3.87,0,0,0,1.94,3.35h0a1.26,1.26,0,0,0,1.89-1.09h0A3.85,3.85,0,0,0,135.16,82h0A1.26,1.26,0,0,0,133.24,83Z"/><path class="cls-158" d="M128.31,80h0a3.88,3.88,0,0,0,1.93,3.35h0a1.26,1.26,0,0,0,1.89-1.08h0a3.9,3.9,0,0,0-1.92-3.36h0A1.26,1.26,0,0,0,128.31,80Z"/><path class="cls-159" d="M137.71,86h0a3.87,3.87,0,0,0,1.94,3.35h0a1.26,1.26,0,0,0,1.89-1.08h0A3.87,3.87,0,0,0,139.63,85h0A1.26,1.26,0,0,0,137.71,86Z"/><path class="cls-160" d="M132.78,83.26h0a3.88,3.88,0,0,0,1.93,3.35h0a1.26,1.26,0,0,0,1.89-1.09h0a3.85,3.85,0,0,0-1.92-3.35h0A1.26,1.26,0,0,0,132.78,83.26Z"/><path class="cls-161" d="M127.85,80.22h0a3.85,3.85,0,0,0,1.93,3.35h0a1.25,1.25,0,0,0,1.88-1.08h0a3.87,3.87,0,0,0-1.91-3.36h0A1.26,1.26,0,0,0,127.85,80.22Z"/><path class="cls-162" d="M111.08,148.44V161a7.69,7.69,0,0,1-3.9,6.94L69.34,189.44a17.49,17.49,0,0,1-17.48-.1L14.05,167.25a7.65,7.65,0,0,1-3.82-7.07V148S60.42,120.66,61,120.82Z"/><path class="cls-163" d="M69.87,176.66l37.38-21.54a7.67,7.67,0,0,0,.06-13.27l-37.26-22a18.23,18.23,0,0,0-18.29-.13L14.08,141.23a7.69,7.69,0,0,0-.09,13.3l37.53,22.06A18.24,18.24,0,0,0,69.87,176.66Z"/><path class="cls-164" d="M69.68,176l37.19-21.43a7.15,7.15,0,0,0,.06-12.36L69.86,120.33a17.88,17.88,0,0,0-17.92-.13L14.46,141.56A7.16,7.16,0,0,0,14.37,154L51.7,175.89A17.87,17.87,0,0,0,69.68,176Z"/><path class="cls-165" d="M106.69,152.09a3.77,3.77,0,0,1-.51.34l-39.47,22.1a12.51,12.51,0,0,1-12.14,0L15.45,151.66a5.16,5.16,0,0,1-.52-.33,4.17,4.17,0,0,1,.5-7l39.14-21.23a12.52,12.52,0,0,1,12.17,0l39.43,22A4.17,4.17,0,0,1,106.69,152.09Z"/><path class="cls-166" d="M107.59,134.09v13.22c.08,2.51-1.14,3.48-3.62,4.9l-35.22,20c-5.82,3.39-10.2,3.39-16.27-.09l-35.2-20.57c-2.5-1.46-3.68-2.48-3.55-5V133.65S60.43,108.23,61,108.38Z"/><path class="cls-167" d="M111.08,126.31v12.52a7.68,7.68,0,0,1-3.9,6.94L69.34,167.31a17.54,17.54,0,0,1-17.48-.1l-37.81-22.1A7.65,7.65,0,0,1,10.23,138v-12.2S60.42,98.53,61,98.68Z"/><path class="cls-168" d="M69.87,154.53,107.25,133a7.68,7.68,0,0,0,.06-13.28l-37.26-22a18.23,18.23,0,0,0-18.29-.13L14.08,119.09a7.69,7.69,0,0,0-.09,13.3l37.53,22.06A18.27,18.27,0,0,0,69.87,154.53Z"/><path class="cls-169" d="M69.68,153.83l37.19-21.42a7.16,7.16,0,0,0,.06-12.37L69.86,98.19a17.88,17.88,0,0,0-17.92-.13L14.46,119.43a7.15,7.15,0,0,0-.09,12.38L51.7,153.76A17.89,17.89,0,0,0,69.68,153.83Z"/><path class="cls-170" d="M103.8,129.25a4,4,0,0,1-.48.32L66.33,151A11.38,11.38,0,0,1,55,151L18,129.75a5.78,5.78,0,0,1-.48-.33,4.11,4.11,0,0,1,.47-6.8l37-21.48a11.38,11.38,0,0,1,11.4,0l37,21.31A4.12,4.12,0,0,1,103.8,129.25Z"/><path class="cls-171" d="M65.9,149.86l36.67-21.08a3.22,3.22,0,0,0,0-5.58L66.06,102.14a10.85,10.85,0,0,0-10.92-.08L18.66,123.38a3.12,3.12,0,0,0,0,5.39l36.27,21A10.88,10.88,0,0,0,65.9,149.86Z"/><path class="cls-172" d="M71.14,133.72h0a2.67,2.67,0,0,0,2.65,0h0a.87.87,0,0,0,0-1.52h0a2.67,2.67,0,0,0-2.68,0h0A.88.88,0,0,0,71.14,133.72Z"/><path class="cls-173" d="M65.21,137.1h0a2.69,2.69,0,0,0,2.66,0h0a.87.87,0,0,0,0-1.52h0a2.67,2.67,0,0,0-2.68,0h0A.87.87,0,0,0,65.21,137.1Z"/><path class="cls-174" d="M59.46,140.48h0a2.69,2.69,0,0,0,2.66,0h0a.87.87,0,0,0,0-1.52h0a2.67,2.67,0,0,0-2.68,0h0A.87.87,0,0,0,59.46,140.48Z"/><path class="cls-175" d="M65.32,130.37l0,0a2.67,2.67,0,0,0,2.65,0h0a.88.88,0,0,0,0-1.53h0a2.67,2.67,0,0,0-2.68,0h0A.88.88,0,0,0,65.32,130.37Z"/><path class="cls-176" d="M59.39,133.75l0,0a2.71,2.71,0,0,0,2.66,0h0a.88.88,0,0,0,0-1.53h0a2.67,2.67,0,0,0-2.68,0h0A.87.87,0,0,0,59.39,133.75Z"/><path class="cls-177" d="M53.64,137.14h0a2.71,2.71,0,0,0,2.66,0h0a.88.88,0,0,0,0-1.53h0a2.67,2.67,0,0,0-2.68,0h0A.88.88,0,0,0,53.64,137.14Z"/><path class="cls-178" d="M59.46,127h0a2.69,2.69,0,0,0,2.66,0h0a.87.87,0,0,0,0-1.52h0a2.67,2.67,0,0,0-2.68,0h0A.87.87,0,0,0,59.46,127Z"/><path class="cls-179" d="M53.54,130.34h0a2.67,2.67,0,0,0,2.65,0h0a.87.87,0,0,0,0-1.52h0a2.66,2.66,0,0,0-2.67,0h0A.87.87,0,0,0,53.54,130.34Z"/><path class="cls-172" d="M47.79,133.72h0a2.67,2.67,0,0,0,2.65,0h0a.87.87,0,0,0,0-1.52h0a2.67,2.67,0,0,0-2.68,0h0A.88.88,0,0,0,47.79,133.72Z"/><path class="cls-180" d="M82.67,127l0,0a2.69,2.69,0,0,0,2.66,0h0a.88.88,0,0,0,0-1.53h0a2.67,2.67,0,0,0-2.68,0h0A.87.87,0,0,0,82.67,127Z"/><path class="cls-175" d="M76.92,130.37l0,0a2.69,2.69,0,0,0,2.66,0h0a.88.88,0,0,0,0-1.53h0a2.67,2.67,0,0,0-2.68,0h0A.87.87,0,0,0,76.92,130.37Z"/><path class="cls-181" d="M76.85,123.65h0a2.69,2.69,0,0,0,2.66,0h0a.87.87,0,0,0,0-1.52l0,0a2.7,2.7,0,0,0-2.68,0h0A.87.87,0,0,0,76.85,123.65Z"/><path class="cls-182" d="M71.1,127h0a2.69,2.69,0,0,0,2.66,0h0a.87.87,0,0,0,0-1.52h0a2.67,2.67,0,0,0-2.68,0h0A.87.87,0,0,0,71.1,127Z"/><path class="cls-183" d="M71,120.23h0a2.64,2.64,0,0,0,2.65,0h0a.88.88,0,0,0,0-1.53h0a2.66,2.66,0,0,0-2.67,0h0A.87.87,0,0,0,71,120.23Z"/><path class="cls-184" d="M65.25,123.61h0a2.64,2.64,0,0,0,2.65,0h0a.88.88,0,0,0,0-1.53h0a2.67,2.67,0,0,0-2.68,0h0A.88.88,0,0,0,65.25,123.61Z"/><path class="cls-181" d="M53.68,123.65h0a2.67,2.67,0,0,0,2.65,0h0a.87.87,0,0,0,0-1.52l0,0a2.7,2.7,0,0,0-2.68,0h0A.88.88,0,0,0,53.68,123.65Z"/><path class="cls-182" d="M47.75,127h0a2.69,2.69,0,0,0,2.66,0h0a.87.87,0,0,0,0-1.52h0a2.67,2.67,0,0,0-2.68,0h0A.87.87,0,0,0,47.75,127Z"/><path class="cls-185" d="M42,130.41h0a2.69,2.69,0,0,0,2.66,0h0a.87.87,0,0,0,0-1.52h0a2.67,2.67,0,0,0-2.68,0h0A.87.87,0,0,0,42,130.41Z"/><path class="cls-183" d="M47.82,120.23h0a2.66,2.66,0,0,0,2.66,0h0a.88.88,0,0,0,0-1.53h0a2.67,2.67,0,0,0-2.68,0h0A.87.87,0,0,0,47.82,120.23Z"/><path class="cls-184" d="M41.9,123.61h0a2.64,2.64,0,0,0,2.65,0h0a.88.88,0,0,0,0-1.53h0a2.66,2.66,0,0,0-2.67,0h0A.87.87,0,0,0,41.9,123.61Z"/><path class="cls-180" d="M36.15,127l0,0a2.67,2.67,0,0,0,2.65,0h0a.88.88,0,0,0,0-1.53h0a2.67,2.67,0,0,0-2.68,0h0A.88.88,0,0,0,36.15,127Z"/><path class="cls-186" d="M65.21,116.92h0a2.66,2.66,0,0,0,2.66,0h0a.88.88,0,0,0,0-1.53h0a2.67,2.67,0,0,0-2.68,0h0A.87.87,0,0,0,65.21,116.92Z"/><path class="cls-187" d="M59.46,120.3h0a2.66,2.66,0,0,0,2.66,0h0a.88.88,0,0,0,0-1.53h0a2.67,2.67,0,0,0-2.68,0h0A.87.87,0,0,0,59.46,120.3Z"/><path class="cls-188" d="M59.36,113.51h0a2.69,2.69,0,0,0,2.65,0h0a.88.88,0,0,0,0-1.53h0a2.7,2.7,0,0,0-2.67,0h0A.88.88,0,0,0,59.36,113.51Z"/><path class="cls-189" d="M53.61,116.89h0a2.69,2.69,0,0,0,2.65,0h0a.88.88,0,0,0,0-1.53h0a2.72,2.72,0,0,0-2.68,0h0A.89.89,0,0,0,53.61,116.89Z"/><path class="cls-190" d="M107.19,161.66v.2a2.29,2.29,0,0,1-1.16,2l-35.09,20a1,1,0,0,1-1.46-.59.93.93,0,0,1,0-.29,2.33,2.33,0,0,1,1.16-2l35.1-20.26a.89.89,0,0,1,.23-.1A1,1,0,0,1,107.19,161.66Z"/><path class="cls-191" d="M106,161v.21a2.34,2.34,0,0,1-1.16,2l-35.09,20a1.28,1.28,0,0,1-.24.11.93.93,0,0,1,0-.29,2.33,2.33,0,0,1,1.16-2l35.1-20.26a.89.89,0,0,1,.23-.1A.62.62,0,0,1,106,161Z"/><path class="cls-192" d="M107.19,139.79v.2a2.28,2.28,0,0,1-1.16,2L70.94,162a1,1,0,0,1-1.46-.6.93.93,0,0,1,0-.29,2.31,2.31,0,0,1,1.16-2l35.1-20.27a1.46,1.46,0,0,1,.23-.1A1,1,0,0,1,107.19,139.79Z"/><path class="cls-193" d="M106,139.09v.2a2.33,2.33,0,0,1-1.16,2l-35.09,20a.82.82,0,0,1-.24.1.93.93,0,0,1,0-.29,2.31,2.31,0,0,1,1.16-2l35.1-20.27a1.46,1.46,0,0,1,.23-.1A.66.66,0,0,1,106,139.09Z"/><path class="cls-194" d="M46.51,158.25l.3.25a2.89,2.89,0,0,0,1.62,2.94l.1.36a1.61,1.61,0,0,0,2.24-1.27h0a4,4,0,0,0-2-3.47h0A1.59,1.59,0,0,0,46.51,158.25Z"/><path class="cls-195" d="M41.94,155.44v0a3.85,3.85,0,0,0,1.94,3.34h0a1.25,1.25,0,0,0,1.89-1.08h0a3.84,3.84,0,0,0-1.91-3.35l0,0A1.27,1.27,0,0,0,41.94,155.44Z"/><path class="cls-196" d="M37,152.41h0a3.88,3.88,0,0,0,1.93,3.35h0a1.26,1.26,0,0,0,1.89-1.09h0a3.84,3.84,0,0,0-1.92-3.35h0A1.26,1.26,0,0,0,37,152.41Z"/><path class="cls-197" d="M46.42,158.44v0a3.84,3.84,0,0,0,1.93,3.34h0a1.26,1.26,0,0,0,1.89-1.09h0a3.87,3.87,0,0,0-1.92-3.35h0A1.25,1.25,0,0,0,46.42,158.44Z"/><path class="cls-198" d="M41.48,155.67v0A3.85,3.85,0,0,0,43.42,159h0A1.26,1.26,0,0,0,45.31,158h0a3.84,3.84,0,0,0-1.91-3.35h0A1.26,1.26,0,0,0,41.48,155.67Z"/><path class="cls-199" d="M36.55,152.64h0A3.88,3.88,0,0,0,38.48,156h0a1.26,1.26,0,0,0,1.89-1.08h0a3.9,3.9,0,0,0-1.92-3.36h0A1.25,1.25,0,0,0,36.55,152.64Z"/></g></g></g></svg>