<svg xmlns="http://www.w3.org/2000/svg" xmlns:xlink="http://www.w3.org/1999/xlink" viewBox="0 0 173.15 186.57"><defs><style>.cls-1{isolation:isolate;}.cls-2{fill:url(#linear-gradient);}.cls-3{fill:url(#linear-gradient-2);}.cls-4{fill:url(#linear-gradient-3);}.cls-5{fill:url(#linear-gradient-4);}.cls-6{fill:url(#linear-gradient-5);}.cls-7{opacity:0.7;fill:url(#linear-gradient-6);}.cls-8{fill:url(#linear-gradient-7);}.cls-9{fill:url(#linear-gradient-8);}.cls-10{fill:url(#linear-gradient-9);}.cls-11{fill:url(#linear-gradient-10);}.cls-12{fill:url(#linear-gradient-11);}.cls-13{fill:url(#linear-gradient-12);}.cls-14{fill:url(#linear-gradient-13);}.cls-15{fill:url(#linear-gradient-14);}.cls-16{fill:url(#linear-gradient-15);}.cls-17,.cls-54,.cls-67{opacity:0.1;}.cls-17{fill:url(#linear-gradient-16);}.cls-18{fill:url(#linear-gradient-17);}.cls-19{fill:url(#linear-gradient-18);}.cls-20{fill:url(#linear-gradient-19);}.cls-21{fill:url(#linear-gradient-20);}.cls-22{fill:url(#linear-gradient-21);}.cls-23{fill:url(#linear-gradient-22);}.cls-24{mix-blend-mode:multiply;}.cls-25{fill:url(#linear-gradient-23);}.cls-26{fill:url(#linear-gradient-24);}.cls-27{fill:url(#linear-gradient-25);}.cls-28{fill:url(#linear-gradient-26);}.cls-29{fill:url(#linear-gradient-27);}.cls-30{fill:url(#linear-gradient-28);}.cls-31{fill:url(#linear-gradient-29);}.cls-32{fill:url(#linear-gradient-30);}.cls-33{fill:url(#linear-gradient-32);}.cls-34{fill:url(#linear-gradient-34);}.cls-35{fill:url(#linear-gradient-35);}.cls-36{fill:url(#linear-gradient-36);}.cls-37{fill:url(#linear-gradient-37);}.cls-38{fill:url(#linear-gradient-40);}.cls-39{fill:url(#linear-gradient-44);}.cls-40{fill:url(#linear-gradient-45);}.cls-41{fill:url(#linear-gradient-46);}.cls-42{fill:url(#linear-gradient-47);}.cls-43{fill:url(#linear-gradient-48);}.cls-44{fill:url(#linear-gradient-49);}.cls-45{fill:url(#linear-gradient-50);}.cls-46{fill:url(#linear-gradient-51);}.cls-47{fill:url(#linear-gradient-52);}.cls-48{fill:url(#linear-gradient-53);}.cls-49{fill:url(#linear-gradient-54);}.cls-50{fill:url(#linear-gradient-55);}.cls-51{fill:url(#linear-gradient-56);}.cls-52{fill:url(#linear-gradient-57);}.cls-53{fill:url(#linear-gradient-58);}.cls-54{fill:url(#linear-gradient-59);}.cls-55{fill:url(#linear-gradient-60);}.cls-56{fill:url(#linear-gradient-61);}.cls-57{fill:url(#linear-gradient-62);}.cls-58{fill:url(#linear-gradient-63);}.cls-59{fill:url(#linear-gradient-64);}.cls-60{fill:url(#linear-gradient-65);}.cls-61{fill:url(#linear-gradient-66);}.cls-62{fill:url(#linear-gradient-67);}.cls-63{fill:url(#linear-gradient-68);}.cls-64{fill:url(#linear-gradient-69);}.cls-65{fill:url(#linear-gradient-70);}.cls-66{fill:url(#linear-gradient-71);}.cls-67{fill:url(#linear-gradient-72);}.cls-68{fill:url(#linear-gradient-73);}.cls-69{fill:url(#linear-gradient-74);}.cls-70{fill:url(#linear-gradient-75);}.cls-71{fill:url(#linear-gradient-76);}.cls-72{fill:url(#linear-gradient-77);}.cls-73{fill:url(#linear-gradient-78);}.cls-74{fill:url(#linear-gradient-79);}.cls-75{fill:url(#linear-gradient-80);}.cls-76{fill:url(#linear-gradient-81);}.cls-77{fill:url(#linear-gradient-82);}.cls-78{fill:url(#linear-gradient-83);}.cls-79{fill:url(#linear-gradient-84);}.cls-80{fill:url(#linear-gradient-85);}.cls-81{fill:url(#linear-gradient-86);}.cls-82{fill:url(#linear-gradient-88);}.cls-83{fill:url(#linear-gradient-90);}.cls-84{fill:url(#linear-gradient-91);}.cls-85{fill:url(#linear-gradient-92);}.cls-86{fill:url(#linear-gradient-93);}.cls-87{fill:url(#linear-gradient-96);}.cls-88{fill:url(#linear-gradient-100);}.cls-89{fill:url(#linear-gradient-101);}.cls-90{fill:url(#linear-gradient-102);}.cls-91{fill:url(#linear-gradient-103);}.cls-92{fill:url(#linear-gradient-104);}.cls-93{fill:url(#linear-gradient-105);}.cls-94{fill:url(#linear-gradient-106);}.cls-95{fill:url(#linear-gradient-107);}.cls-96{fill:url(#linear-gradient-108);}.cls-97{fill:url(#linear-gradient-109);}.cls-98{fill:url(#linear-gradient-110);}.cls-99{fill:url(#linear-gradient-111);}</style><linearGradient id="linear-gradient" x1="355.93" y1="444.4" x2="348.91" y2="457.34" gradientTransform="translate(195.77 -560.33) rotate(45)" gradientUnits="userSpaceOnUse"><stop offset="0" stop-color="#535967"/><stop offset="1" stop-color="#40454d"/></linearGradient><linearGradient id="linear-gradient-2" x1="166.89" y1="86.48" x2="162.44" y2="94.68" gradientUnits="userSpaceOnUse"><stop offset="0" stop-color="#d6d6d8"/><stop offset="1" stop-color="#b2b3b5"/></linearGradient><linearGradient id="linear-gradient-3" x1="163.84" y1="164.47" x2="158.38" y2="174.52" gradientTransform="matrix(1, 0, 0, 1, 0, 0)" xlink:href="#linear-gradient"/><linearGradient id="linear-gradient-4" x1="33.05" y1="25.6" x2="40.61" y2="25.6" gradientTransform="translate(-7.31 33.54) rotate(-45)" gradientUnits="userSpaceOnUse"><stop offset="0" stop-color="#f9a033"/><stop offset="1" stop-color="#f47a20"/></linearGradient><linearGradient id="linear-gradient-5" x1="0.91" y1="143.73" x2="5.36" y2="143.73" gradientTransform="translate(-100.71 44.31) rotate(-45)" xlink:href="#linear-gradient"/><linearGradient id="linear-gradient-6" x1="45.24" y1="16.67" x2="51.24" y2="16.67" gradientTransform="matrix(1, 0, 0, 1, 0, 0)" xlink:href="#linear-gradient-4"/><linearGradient id="linear-gradient-7" x1="170.93" y1="72.31" x2="170.93" y2="15.41" gradientUnits="userSpaceOnUse"><stop offset="0" stop-color="#f9a033" stop-opacity="0"/><stop offset="0.09" stop-color="#f99f33" stop-opacity="0.03"/><stop offset="0.22" stop-color="#f99e32" stop-opacity="0.1"/><stop offset="0.37" stop-color="#f99c30" stop-opacity="0.23"/><stop offset="0.55" stop-color="#f8982f" stop-opacity="0.4"/><stop offset="0.73" stop-color="#f8942c" stop-opacity="0.62"/><stop offset="0.93" stop-color="#f78f29" stop-opacity="0.89"/><stop offset="1" stop-color="#f78d28"/></linearGradient><linearGradient id="linear-gradient-8" x1="170.91" y1="22.46" x2="170.94" y2="14.65" gradientTransform="matrix(1, 0, 0, 1, 0, 0)" xlink:href="#linear-gradient-4"/><linearGradient id="linear-gradient-9" x1="3.93" y1="130.08" x2="3.93" y2="73.19" gradientUnits="userSpaceOnUse"><stop offset="0" stop-color="#f9a033" stop-opacity="0"/><stop offset="0.15" stop-color="#f9a033" stop-opacity="0.01"/><stop offset="0.28" stop-color="#f99f32" stop-opacity="0.06"/><stop offset="0.4" stop-color="#f99e32" stop-opacity="0.13"/><stop offset="0.52" stop-color="#f99c30" stop-opacity="0.23"/><stop offset="0.64" stop-color="#f8992f" stop-opacity="0.37"/><stop offset="0.75" stop-color="#f8962d" stop-opacity="0.53"/><stop offset="0.87" stop-color="#f8922b" stop-opacity="0.73"/><stop offset="0.97" stop-color="#f78e29" stop-opacity="0.94"/><stop offset="1" stop-color="#f78d28"/></linearGradient><linearGradient id="linear-gradient-10" x1="3.89" y1="84.63" x2="3.95" y2="70.76" gradientTransform="matrix(1, 0, 0, 1, 0, 0)" xlink:href="#linear-gradient-4"/><linearGradient id="linear-gradient-11" x1="13.78" y1="79.91" x2="13.78" y2="44.12" gradientUnits="userSpaceOnUse"><stop offset="0" stop-color="#535967" stop-opacity="0"/><stop offset="0.27" stop-color="#525866" stop-opacity="0.04"/><stop offset="0.48" stop-color="#505663" stop-opacity="0.17"/><stop offset="0.68" stop-color="#4c515d" stop-opacity="0.39"/><stop offset="0.86" stop-color="#464b55" stop-opacity="0.69"/><stop offset="1" stop-color="#40454d"/></linearGradient><linearGradient id="linear-gradient-12" x1="13.75" y1="51.31" x2="13.79" y2="42.59" gradientTransform="matrix(1, 0, 0, 1, 0, 0)" xlink:href="#linear-gradient"/><linearGradient id="linear-gradient-13" x1="64.04" y1="175.46" x2="80.39" y2="153.65" gradientTransform="matrix(1, 0, 0, 1, 0, 0)" xlink:href="#linear-gradient-4"/><linearGradient id="linear-gradient-14" x1="70.29" y1="163.91" x2="92.75" y2="126.4" gradientUnits="userSpaceOnUse"><stop offset="0" stop-color="#faa434"/><stop offset="1" stop-color="#f6871f"/></linearGradient><linearGradient id="linear-gradient-15" x1="55.89" y1="151.82" x2="143.34" y2="99.94" xlink:href="#linear-gradient-2"/><linearGradient id="linear-gradient-16" x1="-26.93" y1="132.92" x2="149.11" y2="132.92" gradientUnits="userSpaceOnUse"><stop offset="0" stop-color="#888385"/><stop offset="1" stop-color="#40454d"/></linearGradient><linearGradient id="linear-gradient-17" x1="30.65" y1="123.9" x2="147.96" y2="123.9" gradientUnits="userSpaceOnUse"><stop offset="0" stop-color="#f3f6fb"/><stop offset="1" stop-color="#d6d6d8"/></linearGradient><linearGradient id="linear-gradient-18" x1="64.04" y1="147.8" x2="80.39" y2="125.99" gradientTransform="matrix(1, 0, 0, 1, 0, 0)" xlink:href="#linear-gradient-4"/><linearGradient id="linear-gradient-19" x1="65.21" y1="109.05" x2="190.55" y2="85.8" xlink:href="#linear-gradient-14"/><linearGradient id="linear-gradient-20" x1="55.89" y1="124.16" x2="143.34" y2="72.28" gradientUnits="userSpaceOnUse"><stop offset="0" stop-color="#f9a033"/><stop offset="0.94" stop-color="#f47a20"/></linearGradient><linearGradient id="linear-gradient-21" x1="-20.17" y1="104.51" x2="145.35" y2="104.51" gradientUnits="userSpaceOnUse"><stop offset="0" stop-color="#f47a20"/><stop offset="1" stop-color="#f26322"/></linearGradient><linearGradient id="linear-gradient-22" x1="35.78" y1="104.97" x2="144.23" y2="103.81" gradientTransform="matrix(1, 0, 0, 1, 0, 0)" xlink:href="#linear-gradient"/><linearGradient id="linear-gradient-23" x1="55.42" y1="113.14" x2="121.14" y2="113.14" gradientTransform="matrix(1, 0, 0, 1, 0, 0)" xlink:href="#linear-gradient"/><linearGradient id="linear-gradient-24" x1="55.42" y1="117.36" x2="121.14" y2="117.36" gradientTransform="matrix(1, 0, 0, 1, 0, 0)" xlink:href="#linear-gradient"/><linearGradient id="linear-gradient-25" x1="55.42" y1="121.58" x2="121.14" y2="121.58" gradientTransform="matrix(1, 0, 0, 1, 0, 0)" xlink:href="#linear-gradient"/><linearGradient id="linear-gradient-26" x1="55.42" y1="108.96" x2="121.14" y2="108.96" gradientTransform="matrix(1, 0, 0, 1, 0, 0)" xlink:href="#linear-gradient"/><linearGradient id="linear-gradient-27" x1="55.42" y1="113.18" x2="121.14" y2="113.18" gradientTransform="matrix(1, 0, 0, 1, 0, 0)" xlink:href="#linear-gradient"/><linearGradient id="linear-gradient-28" x1="55.42" y1="117.4" x2="121.14" y2="117.4" gradientTransform="matrix(1, 0, 0, 1, 0, 0)" xlink:href="#linear-gradient"/><linearGradient id="linear-gradient-29" x1="55.42" y1="104.69" x2="121.14" y2="104.69" gradientTransform="matrix(1, 0, 0, 1, 0, 0)" xlink:href="#linear-gradient"/><linearGradient id="linear-gradient-30" x1="55.42" y1="108.91" x2="121.14" y2="108.91" gradientTransform="matrix(1, 0, 0, 1, 0, 0)" xlink:href="#linear-gradient"/><linearGradient id="linear-gradient-32" x1="55.42" y1="104.73" x2="121.14" y2="104.73" gradientTransform="matrix(1, 0, 0, 1, 0, 0)" xlink:href="#linear-gradient"/><linearGradient id="linear-gradient-34" x1="55.42" y1="100.55" x2="121.14" y2="100.55" gradientTransform="matrix(1, 0, 0, 1, 0, 0)" xlink:href="#linear-gradient"/><linearGradient id="linear-gradient-35" x1="55.42" y1="104.78" x2="121.14" y2="104.78" gradientTransform="matrix(1, 0, 0, 1, 0, 0)" xlink:href="#linear-gradient"/><linearGradient id="linear-gradient-36" x1="55.42" y1="96.28" x2="121.14" y2="96.28" gradientTransform="matrix(1, 0, 0, 1, 0, 0)" xlink:href="#linear-gradient"/><linearGradient id="linear-gradient-37" x1="55.42" y1="100.51" x2="121.14" y2="100.51" gradientTransform="matrix(1, 0, 0, 1, 0, 0)" xlink:href="#linear-gradient"/><linearGradient id="linear-gradient-40" x1="55.42" y1="109" x2="121.14" y2="109" gradientTransform="matrix(1, 0, 0, 1, 0, 0)" xlink:href="#linear-gradient"/><linearGradient id="linear-gradient-44" x1="55.42" y1="92.15" x2="121.14" y2="92.15" gradientTransform="matrix(1, 0, 0, 1, 0, 0)" xlink:href="#linear-gradient"/><linearGradient id="linear-gradient-45" x1="55.42" y1="96.37" x2="121.14" y2="96.37" gradientTransform="matrix(1, 0, 0, 1, 0, 0)" xlink:href="#linear-gradient"/><linearGradient id="linear-gradient-46" x1="55.42" y1="87.88" x2="121.14" y2="87.88" gradientTransform="matrix(1, 0, 0, 1, 0, 0)" xlink:href="#linear-gradient"/><linearGradient id="linear-gradient-47" x1="55.42" y1="92.1" x2="121.14" y2="92.1" gradientTransform="matrix(1, 0, 0, 1, 0, 0)" xlink:href="#linear-gradient"/><linearGradient id="linear-gradient-48" x1="124.86" y1="164.02" x2="122.68" y2="160.31" gradientTransform="matrix(1, 0, 0, 1, 0, 0)" xlink:href="#linear-gradient"/><linearGradient id="linear-gradient-49" x1="124.77" y1="164.32" x2="118.96" y2="155.89" gradientUnits="userSpaceOnUse"><stop offset="0" stop-color="#383d44"/><stop offset="1" stop-color="#24282f"/></linearGradient><linearGradient id="linear-gradient-50" x1="124.86" y1="136.69" x2="122.68" y2="132.98" gradientTransform="matrix(1, 0, 0, 1, 0, 0)" xlink:href="#linear-gradient"/><linearGradient id="linear-gradient-51" x1="124.77" y1="136.99" x2="118.96" y2="128.56" xlink:href="#linear-gradient-49"/><linearGradient id="linear-gradient-52" x1="71.15" y1="141.56" x2="75.63" y2="147.93" gradientTransform="matrix(1, 0, 0, 1, 0, 0)" xlink:href="#linear-gradient-4"/><linearGradient id="linear-gradient-53" x1="65.93" y1="142.64" x2="70.72" y2="142.64" gradientTransform="matrix(1, 0, 0, 1, 0, 0)" xlink:href="#linear-gradient-4"/><linearGradient id="linear-gradient-54" x1="59.77" y1="138.85" x2="64.55" y2="138.85" gradientTransform="matrix(1, 0, 0, 1, 0, 0)" xlink:href="#linear-gradient-4"/><linearGradient id="linear-gradient-55" x1="75.14" y1="144.78" x2="72.35" y2="148.44" xlink:href="#linear-gradient-17"/><linearGradient id="linear-gradient-56" x1="65.36" y1="142.93" x2="70.14" y2="142.93" xlink:href="#linear-gradient-17"/><linearGradient id="linear-gradient-57" x1="59.19" y1="139.14" x2="63.97" y2="139.14" xlink:href="#linear-gradient-17"/><linearGradient id="linear-gradient-58" x1="55.89" y1="123.91" x2="143.34" y2="72.03" xlink:href="#linear-gradient-2"/><linearGradient id="linear-gradient-59" x1="-26.93" y1="105.01" x2="149.11" y2="105.01" xlink:href="#linear-gradient-16"/><linearGradient id="linear-gradient-60" x1="30.65" y1="95.99" x2="147.96" y2="95.99" xlink:href="#linear-gradient-17"/><linearGradient id="linear-gradient-61" x1="64.04" y1="119.89" x2="80.39" y2="98.08" gradientTransform="matrix(1, 0, 0, 1, 0, 0)" xlink:href="#linear-gradient-4"/><linearGradient id="linear-gradient-62" x1="124.86" y1="108.77" x2="122.68" y2="105.07" gradientTransform="matrix(1, 0, 0, 1, 0, 0)" xlink:href="#linear-gradient"/><linearGradient id="linear-gradient-63" x1="124.77" y1="109.07" x2="118.96" y2="100.64" xlink:href="#linear-gradient-49"/><linearGradient id="linear-gradient-64" x1="71.15" y1="113.65" x2="75.63" y2="120.02" gradientTransform="matrix(1, 0, 0, 1, 0, 0)" xlink:href="#linear-gradient-4"/><linearGradient id="linear-gradient-65" x1="65.93" y1="114.73" x2="70.72" y2="114.73" gradientTransform="matrix(1, 0, 0, 1, 0, 0)" xlink:href="#linear-gradient-4"/><linearGradient id="linear-gradient-66" x1="59.77" y1="110.93" x2="64.55" y2="110.93" gradientTransform="matrix(1, 0, 0, 1, 0, 0)" xlink:href="#linear-gradient-4"/><linearGradient id="linear-gradient-67" x1="75.14" y1="116.87" x2="72.35" y2="120.52" xlink:href="#linear-gradient-17"/><linearGradient id="linear-gradient-68" x1="65.36" y1="115.02" x2="70.14" y2="115.02" xlink:href="#linear-gradient-17"/><linearGradient id="linear-gradient-69" x1="59.19" y1="111.22" x2="63.97" y2="111.22" xlink:href="#linear-gradient-17"/><linearGradient id="linear-gradient-70" x1="70.29" y1="108.52" x2="92.75" y2="71.01" xlink:href="#linear-gradient-14"/><linearGradient id="linear-gradient-71" x1="55.89" y1="96.43" x2="143.34" y2="44.55" xlink:href="#linear-gradient-2"/><linearGradient id="linear-gradient-72" x1="-26.93" y1="77.53" x2="149.11" y2="77.53" xlink:href="#linear-gradient-16"/><linearGradient id="linear-gradient-73" x1="30.65" y1="68.51" x2="147.96" y2="68.51" xlink:href="#linear-gradient-17"/><linearGradient id="linear-gradient-74" x1="64.04" y1="92.41" x2="80.39" y2="70.6" gradientTransform="matrix(1, 0, 0, 1, 0, 0)" xlink:href="#linear-gradient-4"/><linearGradient id="linear-gradient-75" x1="65.21" y1="53.66" x2="190.55" y2="30.41" xlink:href="#linear-gradient-14"/><linearGradient id="linear-gradient-76" x1="55.89" y1="68.77" x2="143.34" y2="16.89" xlink:href="#linear-gradient-20"/><linearGradient id="linear-gradient-77" x1="-20.17" y1="49.11" x2="145.35" y2="49.11" xlink:href="#linear-gradient-21"/><linearGradient id="linear-gradient-78" x1="35.78" y1="49.58" x2="144.23" y2="48.42" gradientTransform="matrix(1, 0, 0, 1, 0, 0)" xlink:href="#linear-gradient"/><linearGradient id="linear-gradient-79" x1="55.42" y1="57.74" x2="121.14" y2="57.74" xlink:href="#linear-gradient-49"/><linearGradient id="linear-gradient-80" x1="55.42" y1="61.97" x2="121.14" y2="61.97" xlink:href="#linear-gradient-49"/><linearGradient id="linear-gradient-81" x1="55.42" y1="66.19" x2="121.14" y2="66.19" xlink:href="#linear-gradient-49"/><linearGradient id="linear-gradient-82" x1="55.42" y1="53.56" x2="121.14" y2="53.56" xlink:href="#linear-gradient-49"/><linearGradient id="linear-gradient-83" x1="55.42" y1="57.79" x2="121.14" y2="57.79" xlink:href="#linear-gradient-49"/><linearGradient id="linear-gradient-84" x1="55.42" y1="62.01" x2="121.14" y2="62.01" xlink:href="#linear-gradient-49"/><linearGradient id="linear-gradient-85" x1="55.42" y1="49.3" x2="121.14" y2="49.3" xlink:href="#linear-gradient-49"/><linearGradient id="linear-gradient-86" x1="55.42" y1="53.52" x2="121.14" y2="53.52" xlink:href="#linear-gradient-49"/><linearGradient id="linear-gradient-88" x1="55.42" y1="49.34" x2="121.14" y2="49.34" xlink:href="#linear-gradient-49"/><linearGradient id="linear-gradient-90" x1="55.42" y1="45.16" x2="121.14" y2="45.16" xlink:href="#linear-gradient-49"/><linearGradient id="linear-gradient-91" x1="55.42" y1="49.38" x2="121.14" y2="49.38" xlink:href="#linear-gradient-49"/><linearGradient id="linear-gradient-92" x1="55.42" y1="40.89" x2="121.14" y2="40.89" xlink:href="#linear-gradient-49"/><linearGradient id="linear-gradient-93" x1="55.42" y1="45.12" x2="121.14" y2="45.12" xlink:href="#linear-gradient-49"/><linearGradient id="linear-gradient-96" x1="55.42" y1="53.61" x2="121.14" y2="53.61" xlink:href="#linear-gradient-49"/><linearGradient id="linear-gradient-100" x1="55.42" y1="36.76" x2="121.14" y2="36.76" xlink:href="#linear-gradient-49"/><linearGradient id="linear-gradient-101" x1="55.42" y1="40.98" x2="121.14" y2="40.98" xlink:href="#linear-gradient-49"/><linearGradient id="linear-gradient-102" x1="55.42" y1="32.49" x2="121.14" y2="32.49" xlink:href="#linear-gradient-49"/><linearGradient id="linear-gradient-103" x1="55.42" y1="36.71" x2="121.14" y2="36.71" xlink:href="#linear-gradient-49"/><linearGradient id="linear-gradient-104" x1="124.86" y1="81.3" x2="122.68" y2="77.59" gradientTransform="matrix(1, 0, 0, 1, 0, 0)" xlink:href="#linear-gradient"/><linearGradient id="linear-gradient-105" x1="124.77" y1="81.6" x2="118.96" y2="73.16" xlink:href="#linear-gradient-49"/><linearGradient id="linear-gradient-106" x1="71.15" y1="86.17" x2="75.63" y2="92.54" gradientTransform="matrix(1, 0, 0, 1, 0, 0)" xlink:href="#linear-gradient-4"/><linearGradient id="linear-gradient-107" x1="65.93" y1="87.25" x2="70.72" y2="87.25" gradientTransform="matrix(1, 0, 0, 1, 0, 0)" xlink:href="#linear-gradient-4"/><linearGradient id="linear-gradient-108" x1="59.77" y1="83.46" x2="64.55" y2="83.46" gradientTransform="matrix(1, 0, 0, 1, 0, 0)" xlink:href="#linear-gradient-4"/><linearGradient id="linear-gradient-109" x1="75.14" y1="89.39" x2="72.35" y2="93.05" xlink:href="#linear-gradient-17"/><linearGradient id="linear-gradient-110" x1="65.36" y1="87.54" x2="70.14" y2="87.54" xlink:href="#linear-gradient-17"/><linearGradient id="linear-gradient-111" x1="59.19" y1="83.74" x2="63.97" y2="83.74" xlink:href="#linear-gradient-17"/></defs><title>ella-pro_box</title><g class="cls-1"><g id="Layer_2" data-name="Layer 2"><g id="Layer_1-2" data-name="Layer 1"><path class="cls-2" d="M126.15,15.35l-7.67-7.67L126.15,0l7.68,7.68Zm-3.43-7.67,3.43,3.43,3.44-3.43-3.44-3.44Z"/><path class="cls-3" d="M164.67,95.24a4.67,4.67,0,1,1,4.66-4.66A4.67,4.67,0,0,1,164.67,95.24Zm0-7.33a2.67,2.67,0,1,0,2.66,2.67A2.68,2.68,0,0,0,164.67,87.91Z"/><path class="cls-4" d="M161.11,175.22a5.72,5.72,0,1,1,5.72-5.72A5.73,5.73,0,0,1,161.11,175.22Zm0-10.44a4.72,4.72,0,1,0,4.72,4.72A4.72,4.72,0,0,0,161.11,164.78Z"/><rect class="cls-5" x="34.16" y="22.93" width="5.34" height="5.34" transform="translate(28.89 -18.55) rotate(45)"/><rect class="cls-6" x="1.56" y="142.16" width="3.14" height="3.14" transform="translate(102.55 39.88) rotate(45)"/><circle class="cls-7" cx="48.24" cy="16.67" r="3"/><path class="cls-8" d="M171.39,16.15l-.46,55.74-.45-55.74c0-.41.2-.74.45-.74s.45.32.46.73Z"/><circle class="cls-9" cx="170.93" cy="16.8" r="2.22"/><path class="cls-10" d="M4.67,73.93l-.74,55.73L3.19,73.93a.75.75,0,0,1,.74-.75.74.74,0,0,1,.74.73Z"/><circle class="cls-11" cx="3.93" cy="74.58" r="3.93"/><path class="cls-12" d="M14.24,44.58l-.46,35.07-.47-35.07a.47.47,0,0,1,.46-.46.45.45,0,0,1,.47.46Z"/><circle class="cls-13" cx="13.78" cy="44.99" r="2.47"/><path class="cls-14" d="M152.32,132.48v15.64a9.58,9.58,0,0,1-4.87,8.68l-47.28,26.91a21.88,21.88,0,0,1-21.83-.13L31.07,156a9.55,9.55,0,0,1-4.76-8.83V131.89S89,97.77,89.8,98Z"/><path class="cls-15" d="M100.82,167.74l46.71-26.91a9.6,9.6,0,0,0,.08-16.59L101.05,96.8a22.79,22.79,0,0,0-22.85-.17L31.12,123.46A9.6,9.6,0,0,0,31,140.08L77.9,167.64A22.8,22.8,0,0,0,100.82,167.74Z"/><path class="cls-16" d="M100.59,166.87l46.47-26.77a8.94,8.94,0,0,0,.08-15.45l-46.32-27.3a22.36,22.36,0,0,0-22.4-.16L31.59,123.88a8.94,8.94,0,0,0-.1,15.48l46.64,27.41A22.3,22.3,0,0,0,100.59,166.87Z"/><path class="cls-17" d="M146.84,137a5.84,5.84,0,0,1-.64.41L96.88,165.07a15.67,15.67,0,0,1-15.17,0L32.82,136.5c-.23-.14-.44-.27-.65-.42a5.21,5.21,0,0,1,.63-8.77l48.91-26.52a15.62,15.62,0,0,1,15.21,0l49.27,27.49A5.22,5.22,0,0,1,146.84,137Z"/><path class="cls-18" d="M148,114.54v16.53c.09,3.13-1.43,4.34-4.53,6.11l-44,25c-7.27,4.24-12.74,4.24-20.32-.11l-44-25.7c-3.13-1.83-4.61-3.1-4.44-6.26V114S89,82.23,89.76,82.42Z"/><path class="cls-19" d="M152.32,104.82v15.64a9.58,9.58,0,0,1-4.87,8.68l-47.28,26.91a21.85,21.85,0,0,1-21.83-.13L31.07,128.31a9.55,9.55,0,0,1-4.76-8.83V104.23S89,70.11,89.8,70.3Z"/><path class="cls-20" d="M100.82,140.08l46.71-26.91a9.6,9.6,0,0,0,.08-16.59L101.05,69.14A22.79,22.79,0,0,0,78.2,69L31.12,95.8A9.6,9.6,0,0,0,31,112.42L77.9,140A22.8,22.8,0,0,0,100.82,140.08Z"/><path class="cls-21" d="M100.59,139.21l46.47-26.77A8.94,8.94,0,0,0,147.14,97l-46.32-27.3a22.36,22.36,0,0,0-22.4-.16L31.59,96.22a8.94,8.94,0,0,0-.1,15.48l46.64,27.41A22.3,22.3,0,0,0,100.59,139.21Z"/><path class="cls-22" d="M143.22,108.5a5.68,5.68,0,0,1-.6.4L96.4,135.65a14.25,14.25,0,0,1-14.21,0L36,109.11a4.93,4.93,0,0,1-.61-.4,5.14,5.14,0,0,1,.59-8.5l46.2-26.84a14.25,14.25,0,0,1,14.25,0L142.61,100A5.15,5.15,0,0,1,143.22,108.5Z"/><path class="cls-23" d="M95.86,134.25l45.82-26.34a4,4,0,0,0,0-7L96.07,74.62a13.59,13.59,0,0,0-13.65-.1L36.84,101.16a3.9,3.9,0,0,0,0,6.73l45.32,26.3A13.6,13.6,0,0,0,95.86,134.25Z"/><g class="cls-24"><path class="cls-25" d="M102.41,114.08h0a3.34,3.34,0,0,0,3.32,0h0a1.1,1.1,0,0,0,0-1.91h0a3.32,3.32,0,0,0-3.34,0h0A1.09,1.09,0,0,0,102.41,114.08Z"/><path class="cls-26" d="M95,118.3l0,0a3.36,3.36,0,0,0,3.32,0h0a1.1,1.1,0,0,0,0-1.91h0a3.37,3.37,0,0,0-3.35,0h0A1.1,1.1,0,0,0,95,118.3Z"/><path class="cls-27" d="M87.82,122.53h0a3.35,3.35,0,0,0,3.33,0h0a1.09,1.09,0,0,0,0-1.9h0a3.34,3.34,0,0,0-3.35,0h0A1.1,1.1,0,0,0,87.82,122.53Z"/><path class="cls-28" d="M95.14,109.9h0a3.34,3.34,0,0,0,3.32,0h0a1.1,1.1,0,0,0,0-1.91h0a3.34,3.34,0,0,0-3.35,0h0A1.09,1.09,0,0,0,95.14,109.9Z"/><path class="cls-29" d="M87.73,114.12l0,0a3.36,3.36,0,0,0,3.32,0h0a1.1,1.1,0,0,0,0-1.91h0a3.34,3.34,0,0,0-3.35,0h0A1.1,1.1,0,0,0,87.73,114.12Z"/><path class="cls-30" d="M80.55,118.35h0a3.33,3.33,0,0,0,3.32,0h0a1.09,1.09,0,0,0,0-1.9l0,0a3.35,3.35,0,0,0-3.34,0h0A1.09,1.09,0,0,0,80.55,118.35Z"/><path class="cls-31" d="M87.82,105.63l0,0a3.38,3.38,0,0,0,3.33,0h0a1.1,1.1,0,0,0,0-1.91h0a3.34,3.34,0,0,0-3.35,0h0A1.1,1.1,0,0,0,87.82,105.63Z"/><path class="cls-32" d="M80.42,109.86h0a3.33,3.33,0,0,0,3.32,0h0a1.09,1.09,0,0,0,0-1.9l0,0a3.37,3.37,0,0,0-3.34,0h0A1.1,1.1,0,0,0,80.42,109.86Z"/><path class="cls-25" d="M73.23,114.08h0a3.33,3.33,0,0,0,3.32,0h0a1.1,1.1,0,0,0,0-1.91h0a3.34,3.34,0,0,0-3.35,0h0A1.1,1.1,0,0,0,73.23,114.08Z"/><path class="cls-33" d="M116.82,105.68h0a3.33,3.33,0,0,0,3.32,0h0a1.09,1.09,0,0,0,0-1.9l0,0a3.39,3.39,0,0,0-3.35,0h0A1.11,1.11,0,0,0,116.82,105.68Z"/><path class="cls-28" d="M109.64,109.9h0a3.34,3.34,0,0,0,3.32,0h0a1.1,1.1,0,0,0,0-1.91h0a3.34,3.34,0,0,0-3.35,0h0A1.09,1.09,0,0,0,109.64,109.9Z"/><path class="cls-34" d="M109.55,101.5h0a3.33,3.33,0,0,0,3.32,0h0a1.09,1.09,0,0,0,0-1.9l0,0a3.37,3.37,0,0,0-3.34,0h0A1.1,1.1,0,0,0,109.55,101.5Z"/><path class="cls-35" d="M102.36,105.72h0a3.36,3.36,0,0,0,3.32,0h0a1.1,1.1,0,0,0,0-1.91h0a3.34,3.34,0,0,0-3.35,0h0A1.1,1.1,0,0,0,102.36,105.72Z"/><path class="cls-36" d="M102.23,97.23h0a3.33,3.33,0,0,0,3.32,0h0a1.1,1.1,0,0,0,0-1.91h0a3.34,3.34,0,0,0-3.35,0h0A1.1,1.1,0,0,0,102.23,97.23Z"/><path class="cls-37" d="M95.05,101.45l0,0a3.36,3.36,0,0,0,3.32,0h0a1.1,1.1,0,0,0,0-1.91h0a3.32,3.32,0,0,0-3.34,0h0A1.09,1.09,0,0,0,95.05,101.45Z"/><path class="cls-34" d="M80.59,101.5h0a3.33,3.33,0,0,0,3.32,0h0a1.09,1.09,0,0,0,0-1.9l0,0a3.39,3.39,0,0,0-3.35,0h0A1.11,1.11,0,0,0,80.59,101.5Z"/><path class="cls-35" d="M73.19,105.72h0a3.38,3.38,0,0,0,3.33,0h0a1.1,1.1,0,0,0,0-1.91h0a3.34,3.34,0,0,0-3.35,0h0A1.09,1.09,0,0,0,73.19,105.72Z"/><path class="cls-38" d="M66,109.94l0,0a3.36,3.36,0,0,0,3.32,0h0a1.1,1.1,0,0,0,0-1.91h0A3.34,3.34,0,0,0,66,108h0A1.1,1.1,0,0,0,66,109.94Z"/><path class="cls-36" d="M73.28,97.23h0a3.33,3.33,0,0,0,3.32,0h0a1.1,1.1,0,0,0,0-1.91h0a3.34,3.34,0,0,0-3.35,0h0A1.09,1.09,0,0,0,73.28,97.23Z"/><path class="cls-37" d="M65.87,101.45l0,0a3.36,3.36,0,0,0,3.32,0h0a1.1,1.1,0,0,0,0-1.91h0a3.34,3.34,0,0,0-3.35,0h0A1.1,1.1,0,0,0,65.87,101.45Z"/><path class="cls-33" d="M58.69,105.68h0a3.33,3.33,0,0,0,3.32,0h0a1.09,1.09,0,0,0,0-1.9l0,0a3.37,3.37,0,0,0-3.34,0h0A1.1,1.1,0,0,0,58.69,105.68Z"/><path class="cls-39" d="M95,93.09l0,0a3.36,3.36,0,0,0,3.32,0h0a1.1,1.1,0,0,0,0-1.91h0a3.34,3.34,0,0,0-3.35,0h0A1.1,1.1,0,0,0,95,93.09Z"/><path class="cls-40" d="M87.82,97.32h0a3.35,3.35,0,0,0,3.33,0h0a1.09,1.09,0,0,0,0-1.9l0,0a3.39,3.39,0,0,0-3.35,0h0A1.11,1.11,0,0,0,87.82,97.32Z"/><path class="cls-41" d="M87.69,88.82l0,0a3.38,3.38,0,0,0,3.33,0h0a1.09,1.09,0,0,0,0-1.9l0,0a3.39,3.39,0,0,0-3.35,0h0A1.09,1.09,0,0,0,87.69,88.82Z"/><path class="cls-42" d="M80.5,93.05h0a3.33,3.33,0,0,0,3.32,0h0a1.1,1.1,0,0,0,0-1.91h0a3.34,3.34,0,0,0-3.35,0h0A1.1,1.1,0,0,0,80.5,93.05Z"/></g><path class="cls-43" d="M147.46,149v.26a2.85,2.85,0,0,1-1.46,2.49l-43.83,25a1.25,1.25,0,0,1-1.83-.74,1.1,1.1,0,0,1-.06-.37,2.89,2.89,0,0,1,1.44-2.45l43.86-25.32a1.3,1.3,0,0,1,.3-.13A1.27,1.27,0,0,1,147.46,149Z"/><path class="cls-44" d="M145.93,148.12v.25a2.92,2.92,0,0,1-1.45,2.51l-43.85,25a1.08,1.08,0,0,1-.29.13,1.1,1.1,0,0,1-.06-.37,2.89,2.89,0,0,1,1.44-2.45l43.86-25.32a1.3,1.3,0,0,1,.3-.13A1.34,1.34,0,0,1,145.93,148.12Z"/><path class="cls-45" d="M147.46,121.66v.25a2.86,2.86,0,0,1-1.46,2.5l-43.83,25a1.26,1.26,0,0,1-1.83-.74,1.1,1.1,0,0,1-.06-.37,2.89,2.89,0,0,1,1.44-2.45l43.86-25.32a1.3,1.3,0,0,1,.3-.13A1.27,1.27,0,0,1,147.46,121.66Z"/><path class="cls-46" d="M145.93,120.79V121a2.91,2.91,0,0,1-1.45,2.5l-43.85,25a1.08,1.08,0,0,1-.29.13,1.1,1.1,0,0,1-.06-.37,2.89,2.89,0,0,1,1.44-2.45l43.86-25.32a1.3,1.3,0,0,1,.3-.13A1.34,1.34,0,0,1,145.93,120.79Z"/><path class="cls-47" d="M71.64,144.74l.38.31a3.62,3.62,0,0,0,2,3.67l.13.45a2,2,0,0,0,2.8-1.59h0a5,5,0,0,0-2.47-4.33l0,0A2,2,0,0,0,71.64,144.74Z"/><path class="cls-48" d="M65.93,141.22v0a4.84,4.84,0,0,0,2.42,4.18h0a1.57,1.57,0,0,0,2.36-1.35h0a4.83,4.83,0,0,0-2.39-4.19l0,0A1.58,1.58,0,0,0,65.93,141.22Z"/><path class="cls-49" d="M59.77,137.43v0a4.82,4.82,0,0,0,2.42,4.18h0a1.58,1.58,0,0,0,2.36-1.35h0a4.83,4.83,0,0,0-2.39-4.2h0A1.58,1.58,0,0,0,59.77,137.43Z"/><path class="cls-50" d="M71.52,145v0a4.81,4.81,0,0,0,2.42,4.18h0a1.57,1.57,0,0,0,2.35-1.36h0a4.82,4.82,0,0,0-2.39-4.19l0,0A1.58,1.58,0,0,0,71.52,145Z"/><path class="cls-51" d="M65.36,141.51v0a4.83,4.83,0,0,0,2.41,4.18h0a1.57,1.57,0,0,0,2.36-1.35h0a4.81,4.81,0,0,0-2.39-4.19l0,0A1.57,1.57,0,0,0,65.36,141.51Z"/><path class="cls-52" d="M59.19,137.72h0a4.83,4.83,0,0,0,2.42,4.19h0A1.57,1.57,0,0,0,64,140.56h0a4.82,4.82,0,0,0-2.39-4.19h0A1.58,1.58,0,0,0,59.19,137.72Z"/><path class="cls-53" d="M100.59,139l46.47-26.78a8.94,8.94,0,0,0,.08-15.45L100.82,69.44a22.33,22.33,0,0,0-22.4-.17L31.59,96a8.94,8.94,0,0,0-.1,15.47l46.64,27.42A22.33,22.33,0,0,0,100.59,139Z"/><path class="cls-54" d="M146.84,109.13a5.84,5.84,0,0,1-.64.41L96.88,137.15a15.62,15.62,0,0,1-15.17,0L32.82,108.58a7.14,7.14,0,0,1-.65-.41,5.22,5.22,0,0,1,.63-8.78L81.71,72.87a15.67,15.67,0,0,1,15.21,0l49.27,27.49A5.23,5.23,0,0,1,146.84,109.13Z"/><path class="cls-55" d="M148,86.63v16.52c.09,3.14-1.43,4.34-4.53,6.11l-44,25c-7.27,4.24-12.74,4.24-20.32-.12l-44-25.69c-3.13-1.83-4.61-3.1-4.44-6.26V86.08S89,54.32,89.76,54.5Z"/><path class="cls-56" d="M152.32,76.9V92.55a9.55,9.55,0,0,1-4.87,8.67l-47.28,26.91A21.85,21.85,0,0,1,78.33,128L31.07,100.4a9.56,9.56,0,0,1-4.76-8.83V76.32S89,42.19,89.8,42.39Z"/><path class="cls-57" d="M147.46,93.74V94A2.85,2.85,0,0,1,146,96.49l-43.83,25.05a1.26,1.26,0,0,1-1.83-.75,1,1,0,0,1-.06-.36,2.92,2.92,0,0,1,1.44-2.46l43.86-25.31a1.3,1.3,0,0,1,.3-.13A1.26,1.26,0,0,1,147.46,93.74Z"/><path class="cls-58" d="M145.93,92.87v.26a2.91,2.91,0,0,1-1.45,2.5l-43.85,25a1.08,1.08,0,0,1-.29.13,1,1,0,0,1-.06-.36,2.92,2.92,0,0,1,1.44-2.46l43.86-25.31a1.3,1.3,0,0,1,.3-.13A1.27,1.27,0,0,1,145.93,92.87Z"/><path class="cls-59" d="M71.64,116.82l.38.31a3.62,3.62,0,0,0,2,3.67l.13.46a2,2,0,0,0,2.8-1.6h0a5,5,0,0,0-2.47-4.32l0,0A2,2,0,0,0,71.64,116.82Z"/><path class="cls-60" d="M65.93,113.31h0a4.85,4.85,0,0,0,2.42,4.19h0a1.58,1.58,0,0,0,2.36-1.36h0A4.84,4.84,0,0,0,68.33,112h0A1.58,1.58,0,0,0,65.93,113.31Z"/><path class="cls-61" d="M59.77,109.51v0a4.81,4.81,0,0,0,2.42,4.18h0a1.58,1.58,0,0,0,2.36-1.36h0a4.82,4.82,0,0,0-2.39-4.19h0A1.57,1.57,0,0,0,59.77,109.51Z"/><path class="cls-62" d="M71.52,117.06v0a4.82,4.82,0,0,0,2.42,4.18h0a1.57,1.57,0,0,0,2.35-1.35h0a4.83,4.83,0,0,0-2.39-4.2h0A1.58,1.58,0,0,0,71.52,117.06Z"/><path class="cls-63" d="M65.36,113.6h0a4.85,4.85,0,0,0,2.41,4.19h0a1.58,1.58,0,0,0,2.36-1.36h0a4.82,4.82,0,0,0-2.39-4.19h0A1.56,1.56,0,0,0,65.36,113.6Z"/><path class="cls-64" d="M59.19,109.8v0A4.81,4.81,0,0,0,61.61,114h0A1.57,1.57,0,0,0,64,112.65h0a4.82,4.82,0,0,0-2.39-4.19l0,0A1.58,1.58,0,0,0,59.19,109.8Z"/><path class="cls-65" d="M100.82,112.35l46.71-26.92a9.6,9.6,0,0,0,.08-16.59L101.05,41.41a22.79,22.79,0,0,0-22.85-.17L31.12,68.07A9.6,9.6,0,0,0,31,84.69L77.9,112.25A22.8,22.8,0,0,0,100.82,112.35Z"/><path class="cls-66" d="M100.59,111.48l46.47-26.77a9,9,0,0,0,.08-15.46L100.82,42a22.33,22.33,0,0,0-22.4-.16L31.59,68.49A8.94,8.94,0,0,0,31.49,84l46.64,27.41A22.33,22.33,0,0,0,100.59,111.48Z"/><path class="cls-67" d="M146.84,81.65a5.84,5.84,0,0,1-.64.41L96.88,109.68a15.67,15.67,0,0,1-15.17,0L32.82,81.1a7.14,7.14,0,0,1-.65-.41,5.21,5.21,0,0,1,.63-8.77L81.71,45.39a15.67,15.67,0,0,1,15.21,0l49.27,27.5A5.22,5.22,0,0,1,146.84,81.65Z"/><path class="cls-68" d="M148,59.15V75.67c.09,3.14-1.43,4.34-4.53,6.12l-44,25c-7.27,4.24-12.74,4.24-20.32-.12L35.11,81c-3.13-1.83-4.61-3.1-4.44-6.26V58.6S89,26.84,89.76,27Z"/><path class="cls-69" d="M152.32,49.43V65.07a9.58,9.58,0,0,1-4.87,8.68l-47.28,26.91a21.88,21.88,0,0,1-21.83-.13L31.07,72.92a9.55,9.55,0,0,1-4.76-8.83V48.84S89,14.72,89.8,14.91Z"/><path class="cls-70" d="M100.82,84.69l46.71-26.92a9.6,9.6,0,0,0,.08-16.59L101.05,13.75a22.79,22.79,0,0,0-22.85-.17L31.12,40.41A9.6,9.6,0,0,0,31,57L77.9,84.59A22.8,22.8,0,0,0,100.82,84.69Z"/><path class="cls-71" d="M100.59,83.82l46.47-26.77a9,9,0,0,0,.08-15.46L100.82,14.3a22.33,22.33,0,0,0-22.4-.16L31.59,40.83a8.94,8.94,0,0,0-.1,15.48L78.13,83.72A22.33,22.33,0,0,0,100.59,83.82Z"/><path class="cls-72" d="M143.22,53.1a4.51,4.51,0,0,1-.6.41L96.4,80.26a14.25,14.25,0,0,1-14.21,0L36,53.72a4.93,4.93,0,0,1-.61-.4,5.14,5.14,0,0,1,.59-8.5L82.19,18a14.25,14.25,0,0,1,14.25,0L142.61,44.6A5.14,5.14,0,0,1,143.22,53.1Z"/><path class="cls-73" d="M95.86,78.86l45.82-26.34a4,4,0,0,0,0-7L96.07,19.22a13.62,13.62,0,0,0-13.65-.09L36.84,45.77a3.9,3.9,0,0,0,0,6.73L82.17,78.8A13.62,13.62,0,0,0,95.86,78.86Z"/><path class="cls-74" d="M102.41,58.69h0a3.33,3.33,0,0,0,3.32,0h0a1.1,1.1,0,0,0,0-1.91h0a3.32,3.32,0,0,0-3.34,0h0A1.09,1.09,0,0,0,102.41,58.69Z"/><path class="cls-75" d="M95,62.91l0,0a3.36,3.36,0,0,0,3.32,0h0a1.1,1.1,0,0,0,0-1.91h0A3.34,3.34,0,0,0,95,61h0A1.1,1.1,0,0,0,95,62.91Z"/><path class="cls-76" d="M87.82,67.14h0a3.35,3.35,0,0,0,3.33,0h0a1.09,1.09,0,0,0,0-1.9l0,0a3.39,3.39,0,0,0-3.35,0h0A1.11,1.11,0,0,0,87.82,67.14Z"/><path class="cls-77" d="M95.14,54.51h0a3.33,3.33,0,0,0,3.32,0h0a1.1,1.1,0,0,0,0-1.91h0a3.34,3.34,0,0,0-3.35,0h0A1.09,1.09,0,0,0,95.14,54.51Z"/><path class="cls-78" d="M87.73,58.73l0,0a3.36,3.36,0,0,0,3.32,0h0a1.1,1.1,0,0,0,0-1.91h0a3.34,3.34,0,0,0-3.35,0h0A1.1,1.1,0,0,0,87.73,58.73Z"/><path class="cls-79" d="M80.55,63h0a3.33,3.33,0,0,0,3.32,0h0a1.09,1.09,0,0,0,0-1.9l0,0a3.37,3.37,0,0,0-3.34,0h0A1.1,1.1,0,0,0,80.55,63Z"/><path class="cls-80" d="M87.82,50.24l0,0a3.38,3.38,0,0,0,3.33,0h0a1.1,1.1,0,0,0,0-1.91h0a3.34,3.34,0,0,0-3.35,0h0A1.1,1.1,0,0,0,87.82,50.24Z"/><path class="cls-81" d="M80.42,54.46l0,0a3.36,3.36,0,0,0,3.32,0h0a1.09,1.09,0,0,0,0-1.9l0,0a3.37,3.37,0,0,0-3.34,0h0A1.09,1.09,0,0,0,80.42,54.46Z"/><path class="cls-74" d="M73.23,58.69h0a3.33,3.33,0,0,0,3.32,0h0a1.1,1.1,0,0,0,0-1.91h0a3.34,3.34,0,0,0-3.35,0h0A1.1,1.1,0,0,0,73.23,58.69Z"/><path class="cls-82" d="M116.82,50.28l0,0a3.36,3.36,0,0,0,3.32,0h0a1.09,1.09,0,0,0,0-1.9l0,0a3.37,3.37,0,0,0-3.35,0h0A1.1,1.1,0,0,0,116.82,50.28Z"/><path class="cls-77" d="M109.64,54.51h0a3.33,3.33,0,0,0,3.32,0h0a1.1,1.1,0,0,0,0-1.91h0a3.34,3.34,0,0,0-3.35,0h0A1.09,1.09,0,0,0,109.64,54.51Z"/><path class="cls-83" d="M109.55,46.1l0,0a3.36,3.36,0,0,0,3.32,0h0a1.1,1.1,0,0,0,0-1.91h0a3.35,3.35,0,0,0-3.34,0h0A1.09,1.09,0,0,0,109.55,46.1Z"/><path class="cls-84" d="M102.36,50.33h0a3.33,3.33,0,0,0,3.32,0h0a1.09,1.09,0,0,0,0-1.9h0a3.34,3.34,0,0,0-3.35,0h0A1.1,1.1,0,0,0,102.36,50.33Z"/><path class="cls-85" d="M102.23,41.84h0a3.33,3.33,0,0,0,3.32,0h0a1.09,1.09,0,0,0,0-1.9l0,0a3.39,3.39,0,0,0-3.35,0h0A1.11,1.11,0,0,0,102.23,41.84Z"/><path class="cls-86" d="M95.05,46.06h0a3.34,3.34,0,0,0,3.32,0h0a1.1,1.1,0,0,0,0-1.91h0a3.32,3.32,0,0,0-3.34,0h0A1.09,1.09,0,0,0,95.05,46.06Z"/><path class="cls-83" d="M80.59,46.1l0,0a3.36,3.36,0,0,0,3.32,0h0a1.1,1.1,0,0,0,0-1.91h0a3.37,3.37,0,0,0-3.35,0h0A1.1,1.1,0,0,0,80.59,46.1Z"/><path class="cls-84" d="M73.19,50.33h0a3.35,3.35,0,0,0,3.33,0h0a1.09,1.09,0,0,0,0-1.9h0a3.34,3.34,0,0,0-3.35,0h0A1.09,1.09,0,0,0,73.19,50.33Z"/><path class="cls-87" d="M66,54.55l0,0a3.36,3.36,0,0,0,3.32,0h0a1.1,1.1,0,0,0,0-1.91h0a3.34,3.34,0,0,0-3.35,0h0A1.1,1.1,0,0,0,66,54.55Z"/><path class="cls-85" d="M73.28,41.84h0a3.33,3.33,0,0,0,3.32,0h0a1.09,1.09,0,0,0,0-1.9l0,0a3.39,3.39,0,0,0-3.35,0h0A1.1,1.1,0,0,0,73.28,41.84Z"/><path class="cls-86" d="M65.87,46.06h0a3.34,3.34,0,0,0,3.32,0h0a1.1,1.1,0,0,0,0-1.91h0a3.34,3.34,0,0,0-3.35,0h0A1.1,1.1,0,0,0,65.87,46.06Z"/><path class="cls-82" d="M58.69,50.28l0,0a3.36,3.36,0,0,0,3.32,0h0a1.09,1.09,0,0,0,0-1.9l0,0a3.35,3.35,0,0,0-3.34,0h0A1.09,1.09,0,0,0,58.69,50.28Z"/><path class="cls-88" d="M95,37.7h0a3.36,3.36,0,0,0,3.32,0h0a1.1,1.1,0,0,0,0-1.91h0a3.34,3.34,0,0,0-3.35,0h0A1.1,1.1,0,0,0,95,37.7Z"/><path class="cls-89" d="M87.82,41.92l0,0a3.38,3.38,0,0,0,3.33,0h0a1.1,1.1,0,0,0,0-1.91h0a3.34,3.34,0,0,0-3.35,0h0A1.1,1.1,0,0,0,87.82,41.92Z"/><path class="cls-90" d="M87.69,33.43l0,0a3.38,3.38,0,0,0,3.33,0h0a1.1,1.1,0,0,0,0-1.91h0a3.34,3.34,0,0,0-3.35,0h0A1.09,1.09,0,0,0,87.69,33.43Z"/><path class="cls-91" d="M80.5,37.66h0a3.33,3.33,0,0,0,3.32,0h0a1.09,1.09,0,0,0,0-1.9l0,0a3.39,3.39,0,0,0-3.35,0h0A1.11,1.11,0,0,0,80.5,37.66Z"/><path class="cls-92" d="M147.46,66.27v.25A2.85,2.85,0,0,1,146,69l-43.83,25a1.26,1.26,0,0,1-1.83-.75,1,1,0,0,1-.06-.36,2.89,2.89,0,0,1,1.44-2.45l43.86-25.32a1.3,1.3,0,0,1,.3-.13A1.26,1.26,0,0,1,147.46,66.27Z"/><path class="cls-93" d="M145.93,65.39v.26a2.91,2.91,0,0,1-1.45,2.5l-43.85,25a1.48,1.48,0,0,1-.29.12,1,1,0,0,1-.06-.36,2.89,2.89,0,0,1,1.44-2.45l43.86-25.32a1.3,1.3,0,0,1,.3-.13A1.33,1.33,0,0,1,145.93,65.39Z"/><path class="cls-94" d="M71.64,89.34l.38.31a3.6,3.6,0,0,0,2,3.67l.13.46A2,2,0,0,0,77,92.19h0a5,5,0,0,0-2.47-4.33l0,0A2,2,0,0,0,71.64,89.34Z"/><path class="cls-95" d="M65.93,85.83v0A4.84,4.84,0,0,0,68.35,90h0a1.58,1.58,0,0,0,2.36-1.35h0a4.83,4.83,0,0,0-2.39-4.19l0,0A1.58,1.58,0,0,0,65.93,85.83Z"/><path class="cls-96" d="M59.77,82h0a4.84,4.84,0,0,0,2.42,4.19h0a1.58,1.58,0,0,0,2.36-1.36h0a4.82,4.82,0,0,0-2.39-4.19h0A1.57,1.57,0,0,0,59.77,82Z"/><path class="cls-97" d="M71.52,89.58v0a4.82,4.82,0,0,0,2.42,4.18h0a1.56,1.56,0,0,0,2.35-1.35h0a4.81,4.81,0,0,0-2.39-4.19l0,0A1.58,1.58,0,0,0,71.52,89.58Z"/><path class="cls-98" d="M65.36,86.12v0a4.83,4.83,0,0,0,2.41,4.18h0A1.58,1.58,0,0,0,70.14,89h0a4.83,4.83,0,0,0-2.39-4.2h0A1.57,1.57,0,0,0,65.36,86.12Z"/><path class="cls-99" d="M59.19,82.33h0a4.81,4.81,0,0,0,2.42,4.18h0A1.57,1.57,0,0,0,64,85.17h0A4.82,4.82,0,0,0,61.58,81h0A1.57,1.57,0,0,0,59.19,82.33Z"/></g></g></g></svg>