<svg xmlns="http://www.w3.org/2000/svg" xmlns:xlink="http://www.w3.org/1999/xlink" viewBox="0 0 144.85 151.69"><defs><style>.cls-1{fill:url(#linear-gradient);}.cls-2{fill:url(#linear-gradient-2);}.cls-3{fill:url(#linear-gradient-3);}.cls-4{fill:url(#linear-gradient-4);}.cls-5{fill:url(#linear-gradient-5);}.cls-6{opacity:0.7;fill:url(#linear-gradient-6);}.cls-7{fill:url(#linear-gradient-7);}.cls-8{fill:url(#linear-gradient-8);}.cls-9{fill:url(#linear-gradient-9);}.cls-10{fill:url(#linear-gradient-10);}.cls-11{fill:url(#linear-gradient-11);}.cls-12{fill:url(#linear-gradient-12);}.cls-13{fill:url(#linear-gradient-13);}.cls-14{fill:url(#linear-gradient-14);}.cls-15{fill:url(#linear-gradient-15);}.cls-16{opacity:0.1;fill:url(#linear-gradient-16);}.cls-17{fill:url(#linear-gradient-17);}.cls-18{fill:url(#linear-gradient-18);}.cls-19{fill:url(#linear-gradient-19);}.cls-20{fill:url(#linear-gradient-20);}.cls-21{fill:url(#linear-gradient-21);}.cls-22{fill:url(#linear-gradient-22);}.cls-23{fill:url(#linear-gradient-23);}.cls-24{fill:url(#linear-gradient-24);}.cls-25{fill:url(#linear-gradient-25);}.cls-26{fill:url(#linear-gradient-26);}.cls-27{fill:url(#linear-gradient-27);}.cls-28{fill:url(#linear-gradient-28);}.cls-29{fill:url(#linear-gradient-29);}.cls-30{fill:url(#linear-gradient-30);}.cls-31{fill:url(#linear-gradient-31);}.cls-32{fill:url(#linear-gradient-32);}.cls-33{fill:url(#linear-gradient-33);}.cls-34{fill:url(#linear-gradient-34);}.cls-35{fill:url(#linear-gradient-35);}.cls-36{fill:url(#linear-gradient-36);}.cls-37{fill:url(#linear-gradient-37);}.cls-38{fill:url(#linear-gradient-38);}.cls-39{fill:url(#linear-gradient-39);}.cls-40{fill:url(#linear-gradient-40);}.cls-41{fill:url(#linear-gradient-41);}.cls-42{fill:url(#linear-gradient-42);}.cls-43{fill:url(#linear-gradient-43);}.cls-44{fill:url(#linear-gradient-44);}.cls-45{fill:url(#linear-gradient-45);}.cls-46{fill:url(#linear-gradient-46);}.cls-47{fill:url(#linear-gradient-47);}.cls-48{fill:url(#linear-gradient-48);}.cls-49{fill:url(#linear-gradient-49);}.cls-50{fill:url(#linear-gradient-50);}.cls-51{fill:url(#linear-gradient-51);}.cls-52{fill:url(#linear-gradient-52);}.cls-53{fill:url(#linear-gradient-53);}.cls-54{fill:url(#linear-gradient-54);}.cls-55{fill:url(#linear-gradient-55);}.cls-56{fill:url(#linear-gradient-56);}.cls-57{fill:url(#linear-gradient-57);}</style><linearGradient id="linear-gradient" x1="399.08" y1="751.79" x2="392.06" y2="764.73" gradientTransform="translate(276.32 -789.67) rotate(45)" gradientUnits="userSpaceOnUse"><stop offset="0" stop-color="#535967"/><stop offset="1" stop-color="#40454d"/></linearGradient><linearGradient id="linear-gradient-2" x1="14.66" y1="126.75" x2="10.21" y2="134.95" gradientUnits="userSpaceOnUse"><stop offset="0" stop-color="#d6d6d8"/><stop offset="1" stop-color="#b2b3b5"/></linearGradient><linearGradient id="linear-gradient-3" x1="83.31" y1="0.69" x2="77.86" y2="10.75" gradientTransform="matrix(1, 0, 0, 1, 0, 0)" xlink:href="#linear-gradient"/><linearGradient id="linear-gradient-4" x1="125.1" y1="135.59" x2="132.66" y2="135.59" gradientTransform="translate(-58.13 130.85) rotate(-45)" gradientUnits="userSpaceOnUse"><stop offset="0" stop-color="#f9a033"/><stop offset="1" stop-color="#f47a20"/></linearGradient><linearGradient id="linear-gradient-5" x1="140.4" y1="59.79" x2="144.85" y2="59.79" gradientTransform="translate(-0.51 118.36) rotate(-45)" xlink:href="#linear-gradient"/><linearGradient id="linear-gradient-6" x1="30.29" y1="30.66" x2="36.29" y2="30.66" gradientTransform="matrix(1, 0, 0, 1, 0, 0)" xlink:href="#linear-gradient-4"/><linearGradient id="linear-gradient-7" x1="2.22" y1="97.68" x2="2.22" y2="40.78" gradientUnits="userSpaceOnUse"><stop offset="0" stop-color="#f9a033" stop-opacity="0"/><stop offset="0.09" stop-color="#f99f33" stop-opacity="0.03"/><stop offset="0.22" stop-color="#f99e32" stop-opacity="0.1"/><stop offset="0.37" stop-color="#f99c30" stop-opacity="0.23"/><stop offset="0.55" stop-color="#f8982f" stop-opacity="0.4"/><stop offset="0.73" stop-color="#f8942c" stop-opacity="0.62"/><stop offset="0.93" stop-color="#f78f29" stop-opacity="0.89"/><stop offset="1" stop-color="#f78d28"/></linearGradient><linearGradient id="linear-gradient-8" x1="2.19" y1="47.84" x2="2.22" y2="40.03" gradientTransform="matrix(1, 0, 0, 1, 0, 0)" xlink:href="#linear-gradient-4"/><linearGradient id="linear-gradient-9" x1="113.92" y1="71.53" x2="113.92" y2="14.63" gradientUnits="userSpaceOnUse"><stop offset="0" stop-color="#f9a033" stop-opacity="0"/><stop offset="0.15" stop-color="#f9a033" stop-opacity="0.01"/><stop offset="0.28" stop-color="#f99f32" stop-opacity="0.06"/><stop offset="0.4" stop-color="#f99e32" stop-opacity="0.13"/><stop offset="0.52" stop-color="#f99c30" stop-opacity="0.23"/><stop offset="0.64" stop-color="#f8992f" stop-opacity="0.37"/><stop offset="0.75" stop-color="#f8962d" stop-opacity="0.53"/><stop offset="0.87" stop-color="#f8922b" stop-opacity="0.73"/><stop offset="0.97" stop-color="#f78e29" stop-opacity="0.94"/><stop offset="1" stop-color="#f78d28"/></linearGradient><linearGradient id="linear-gradient-10" x1="113.87" y1="26.07" x2="113.93" y2="12.21" gradientTransform="matrix(1, 0, 0, 1, 0, 0)" xlink:href="#linear-gradient-4"/><linearGradient id="linear-gradient-11" x1="120.88" y1="67.1" x2="120.88" y2="31.31" gradientUnits="userSpaceOnUse"><stop offset="0" stop-color="#535967" stop-opacity="0"/><stop offset="0.27" stop-color="#525866" stop-opacity="0.04"/><stop offset="0.48" stop-color="#505663" stop-opacity="0.17"/><stop offset="0.68" stop-color="#4c515d" stop-opacity="0.39"/><stop offset="0.86" stop-color="#464b55" stop-opacity="0.69"/><stop offset="1" stop-color="#40454d"/></linearGradient><linearGradient id="linear-gradient-12" x1="120.86" y1="38.5" x2="120.89" y2="29.78" gradientTransform="matrix(1, 0, 0, 1, 0, 0)" xlink:href="#linear-gradient"/><linearGradient id="linear-gradient-13" x1="46.34" y1="140.37" x2="63.01" y2="118.15" gradientTransform="matrix(1, 0, 0, 1, 0, 0)" xlink:href="#linear-gradient-4"/><linearGradient id="linear-gradient-14" x1="52.71" y1="128.6" x2="75.6" y2="90.38" gradientUnits="userSpaceOnUse"><stop offset="0" stop-color="#faa434"/><stop offset="1" stop-color="#f6871f"/></linearGradient><linearGradient id="linear-gradient-15" x1="38.04" y1="116.28" x2="127.15" y2="63.42" xlink:href="#linear-gradient-2"/><linearGradient id="linear-gradient-16" x1="-46.36" y1="97.02" x2="133.03" y2="97.02" gradientUnits="userSpaceOnUse"><stop offset="0" stop-color="#888385"/><stop offset="1" stop-color="#40454d"/></linearGradient><linearGradient id="linear-gradient-17" x1="12.32" y1="87.83" x2="131.86" y2="87.83" gradientUnits="userSpaceOnUse"><stop offset="0" stop-color="#f3f6fb"/><stop offset="1" stop-color="#d6d6d8"/></linearGradient><linearGradient id="linear-gradient-18" x1="46.34" y1="112.19" x2="63.01" y2="89.96" gradientTransform="matrix(1, 0, 0, 1, 0, 0)" xlink:href="#linear-gradient-4"/><linearGradient id="linear-gradient-19" x1="47.54" y1="72.7" x2="175.26" y2="49.01" xlink:href="#linear-gradient-14"/><linearGradient id="linear-gradient-20" x1="38.04" y1="88.1" x2="127.15" y2="35.23" gradientUnits="userSpaceOnUse"><stop offset="0" stop-color="#f9a033"/><stop offset="0.94" stop-color="#f47a20"/></linearGradient><linearGradient id="linear-gradient-21" x1="-39.46" y1="68.07" x2="129.2" y2="68.07" gradientUnits="userSpaceOnUse"><stop offset="0" stop-color="#f47a20"/><stop offset="1" stop-color="#f26322"/></linearGradient><linearGradient id="linear-gradient-22" x1="17.54" y1="68.54" x2="128.06" y2="67.36" gradientTransform="matrix(1, 0, 0, 1, 0, 0)" xlink:href="#linear-gradient"/><linearGradient id="linear-gradient-23" x1="51.13" y1="117.19" x2="95.87" y2="67.11" gradientUnits="userSpaceOnUse"><stop offset="0" stop-color="#383d44"/><stop offset="1" stop-color="#24282f"/></linearGradient><linearGradient id="linear-gradient-24" x1="49.07" y1="115.35" x2="93.81" y2="65.28" xlink:href="#linear-gradient-23"/><linearGradient id="linear-gradient-25" x1="47.14" y1="113.62" x2="91.88" y2="63.55" xlink:href="#linear-gradient-23"/><linearGradient id="linear-gradient-26" x1="44.89" y1="111.62" x2="89.63" y2="61.54" xlink:href="#linear-gradient-23"/><linearGradient id="linear-gradient-27" x1="42.83" y1="109.78" x2="87.57" y2="59.7" xlink:href="#linear-gradient-23"/><linearGradient id="linear-gradient-28" x1="40.9" y1="108.05" x2="85.64" y2="57.98" xlink:href="#linear-gradient-23"/><linearGradient id="linear-gradient-29" x1="38.58" y1="105.98" x2="83.32" y2="55.91" xlink:href="#linear-gradient-23"/><linearGradient id="linear-gradient-30" x1="36.53" y1="104.14" x2="81.27" y2="54.07" xlink:href="#linear-gradient-23"/><linearGradient id="linear-gradient-31" x1="34.59" y1="102.42" x2="79.34" y2="52.34" xlink:href="#linear-gradient-23"/><linearGradient id="linear-gradient-32" x1="55.04" y1="120.68" x2="99.78" y2="70.61" xlink:href="#linear-gradient-23"/><linearGradient id="linear-gradient-33" x1="53.11" y1="118.96" x2="97.85" y2="68.88" xlink:href="#linear-gradient-23"/><linearGradient id="linear-gradient-34" x1="48.8" y1="115.11" x2="93.54" y2="65.04" xlink:href="#linear-gradient-23"/><linearGradient id="linear-gradient-35" x1="46.87" y1="113.38" x2="91.61" y2="63.31" xlink:href="#linear-gradient-23"/><linearGradient id="linear-gradient-36" x1="42.5" y1="109.48" x2="87.24" y2="59.4" xlink:href="#linear-gradient-23"/><linearGradient id="linear-gradient-37" x1="40.56" y1="107.75" x2="85.3" y2="57.68" xlink:href="#linear-gradient-23"/><linearGradient id="linear-gradient-38" x1="32.39" y1="100.45" x2="77.13" y2="50.38" xlink:href="#linear-gradient-23"/><linearGradient id="linear-gradient-39" x1="30.34" y1="98.61" x2="75.08" y2="48.54" xlink:href="#linear-gradient-23"/><linearGradient id="linear-gradient-40" x1="28.4" y1="96.89" x2="73.15" y2="46.81" xlink:href="#linear-gradient-23"/><linearGradient id="linear-gradient-41" x1="26.09" y1="94.82" x2="70.83" y2="44.74" xlink:href="#linear-gradient-23"/><linearGradient id="linear-gradient-42" x1="24.03" y1="92.98" x2="68.77" y2="42.91" xlink:href="#linear-gradient-23"/><linearGradient id="linear-gradient-43" x1="22.1" y1="91.25" x2="66.84" y2="41.18" xlink:href="#linear-gradient-23"/><linearGradient id="linear-gradient-44" x1="36.31" y1="103.95" x2="81.05" y2="53.87" xlink:href="#linear-gradient-23"/><linearGradient id="linear-gradient-45" x1="34.37" y1="102.22" x2="79.11" y2="52.15" xlink:href="#linear-gradient-23"/><linearGradient id="linear-gradient-46" x1="30" y1="98.31" x2="74.74" y2="48.24" xlink:href="#linear-gradient-23"/><linearGradient id="linear-gradient-47" x1="28.07" y1="96.59" x2="72.81" y2="46.51" xlink:href="#linear-gradient-23"/><linearGradient id="linear-gradient-48" x1="108.49" y1="128.93" x2="106.76" y2="126.09" gradientTransform="matrix(1, 0, 0, 1, 0, 0)" xlink:href="#linear-gradient"/><linearGradient id="linear-gradient-49" x1="111.6" y1="133.04" x2="103.9" y2="123.19" xlink:href="#linear-gradient-23"/><linearGradient id="linear-gradient-50" x1="108.21" y1="100.67" x2="106.38" y2="97.56" gradientTransform="matrix(1, 0, 0, 1, 0, 0)" xlink:href="#linear-gradient"/><linearGradient id="linear-gradient-51" x1="110.96" y1="103.75" x2="100.86" y2="92.25" xlink:href="#linear-gradient-23"/><linearGradient id="linear-gradient-52" x1="53.59" y1="105.83" x2="58.15" y2="112.32" gradientTransform="matrix(1, 0, 0, 1, 0, 0)" xlink:href="#linear-gradient-4"/><linearGradient id="linear-gradient-53" x1="48.27" y1="106.93" x2="53.15" y2="106.93" gradientTransform="matrix(1, 0, 0, 1, 0, 0)" xlink:href="#linear-gradient-4"/><linearGradient id="linear-gradient-54" x1="41.99" y1="103.06" x2="46.87" y2="103.06" gradientTransform="matrix(1, 0, 0, 1, 0, 0)" xlink:href="#linear-gradient-4"/><linearGradient id="linear-gradient-55" x1="57.66" y1="109.11" x2="54.82" y2="112.83" xlink:href="#linear-gradient-17"/><linearGradient id="linear-gradient-56" x1="47.69" y1="107.22" x2="52.56" y2="107.22" xlink:href="#linear-gradient-17"/><linearGradient id="linear-gradient-57" x1="41.4" y1="103.36" x2="46.28" y2="103.36" xlink:href="#linear-gradient-17"/></defs><title>ella_box</title><g id="Layer_2" data-name="Layer 2"><g id="Layer_1-2" data-name="Layer 1"><path class="cls-1" d="M19.85,33.89l-7.67-7.67,7.67-7.68,7.68,7.68Zm-3.43-7.67,3.43,3.43,3.44-3.43-3.44-3.44Z"/><path class="cls-2" d="M12.44,135.52a4.67,4.67,0,1,1,4.66-4.67A4.68,4.68,0,0,1,12.44,135.52Zm0-7.34a2.67,2.67,0,1,0,2.66,2.67A2.68,2.68,0,0,0,12.44,128.18Z"/><path class="cls-3" d="M80.59,11.44a5.72,5.72,0,1,1,5.72-5.72A5.72,5.72,0,0,1,80.59,11.44ZM80.59,1a4.72,4.72,0,1,0,4.72,4.72A4.72,4.72,0,0,0,80.59,1Z"/><rect class="cls-4" x="126.21" y="132.92" width="5.34" height="5.34" transform="translate(133.63 -51.42) rotate(45)"/><rect class="cls-5" x="141.05" y="58.22" width="3.14" height="3.14" transform="translate(84.05 -83.34) rotate(45)"/><circle class="cls-6" cx="33.29" cy="30.66" r="3"/><path class="cls-7" d="M2.67,41.52,2.22,97.26,1.76,41.52c0-.4.2-.74.45-.74s.46.33.46.73Z"/><circle class="cls-8" cx="2.22" cy="42.18" r="2.22"/><path class="cls-9" d="M114.65,15.37l-.73,55.74-.74-55.74a.74.74,0,1,1,1.47,0Z"/><circle class="cls-10" cx="113.92" cy="16.02" r="3.93"/><path class="cls-11" d="M121.35,31.77l-.47,35.07-.46-35.07a.47.47,0,0,1,.46-.47.48.48,0,0,1,.47.47Z"/><circle class="cls-12" cx="120.88" cy="32.18" r="2.47"/><path class="cls-13" d="M136.3,96.57v15.94a9.76,9.76,0,0,1-5,8.84L83.15,148.77a22.27,22.27,0,0,1-22.25-.13L12.75,120.51a9.75,9.75,0,0,1-4.86-9V96S71.79,61.2,72.59,61.4Z"/><path class="cls-14" d="M83.82,132.5l47.6-27.42a9.79,9.79,0,0,0,.09-16.91l-47.45-28A23.24,23.24,0,0,0,60.77,60l-48,27.34a9.79,9.79,0,0,0-.11,16.94L60.46,132.4A23.21,23.21,0,0,0,83.82,132.5Z"/><path class="cls-15" d="M83.59,131.62l47.35-27.28A9.12,9.12,0,0,0,131,88.59L83.82,60.78A22.75,22.75,0,0,0,61,60.61L13.28,87.81a9.11,9.11,0,0,0-.11,15.77L60.7,131.52A22.74,22.74,0,0,0,83.59,131.62Z"/><path class="cls-16" d="M130.71,101.22a5.19,5.19,0,0,1-.65.42L79.81,129.78a16,16,0,0,1-15.46,0L14.54,100.67a7.65,7.65,0,0,1-.67-.43,5.31,5.31,0,0,1,.64-8.94l49.84-27a15.92,15.92,0,0,1,15.5,0l50.2,28A5.32,5.32,0,0,1,130.71,101.22Z"/><path class="cls-17" d="M131.86,78.29V95.13c.09,3.2-1.45,4.43-4.62,6.23L82.39,126.88c-7.41,4.32-13,4.32-20.71-.12L16.86,100.58c-3.18-1.86-4.69-3.16-4.52-6.38V77.74S71.81,45.37,72.56,45.56Z"/><path class="cls-18" d="M136.3,68.39V84.33a9.76,9.76,0,0,1-5,8.84L83.15,120.59a22.27,22.27,0,0,1-22.25-.13L12.75,92.33a9.75,9.75,0,0,1-4.86-9V67.79S71.79,33,72.59,33.22Z"/><path class="cls-19" d="M83.82,104.32l47.6-27.43a9.78,9.78,0,0,0,.09-16.9L84.06,32a23.22,23.22,0,0,0-23.29-.17L12.8,59.2a9.78,9.78,0,0,0-.11,16.93l47.77,28.09A23.23,23.23,0,0,0,83.82,104.32Z"/><path class="cls-20" d="M83.59,103.43l47.35-27.28A9.11,9.11,0,0,0,131,60.41L83.82,32.59A22.75,22.75,0,0,0,61,32.43L13.28,59.63a9.11,9.11,0,0,0-.11,15.77L60.7,103.33A22.74,22.74,0,0,0,83.59,103.43Z"/><path class="cls-21" d="M127,72.13a5.41,5.41,0,0,1-.61.41L79.32,99.8a14.51,14.51,0,0,1-14.48,0L17.78,72.76a6.65,6.65,0,0,1-.62-.41,5.24,5.24,0,0,1,.6-8.66L64.84,36.34a14.51,14.51,0,0,1,14.52,0l47.05,27.14A5.25,5.25,0,0,1,127,72.13Z"/><path class="cls-22" d="M78.77,98.38l46.69-26.84a4.1,4.1,0,0,0,0-7.11L79,37.61a13.89,13.89,0,0,0-13.91-.1L18.63,64.66a4,4,0,0,0,0,6.86l46.18,26.8A13.86,13.86,0,0,0,78.77,98.38Z"/><path class="cls-23" d="M85.44,77.82l0,0a3.4,3.4,0,0,0,3.38,0h0a1.11,1.11,0,0,0,0-1.94h0a3.41,3.41,0,0,0-3.41,0h0A1.11,1.11,0,0,0,85.44,77.82Z"/><path class="cls-24" d="M77.9,82.13h0a3.42,3.42,0,0,0,3.39,0h0a1.12,1.12,0,0,0,0-2h0a3.41,3.41,0,0,0-3.41,0h0A1.12,1.12,0,0,0,77.9,82.13Z"/><path class="cls-25" d="M70.58,86.43l0,0a3.44,3.44,0,0,0,3.39,0h0a1.11,1.11,0,0,0,0-1.94l0,0a3.45,3.45,0,0,0-3.42,0h0A1.11,1.11,0,0,0,70.58,86.43Z"/><path class="cls-26" d="M78,73.57h0a3.4,3.4,0,0,0,3.38,0h0a1.11,1.11,0,0,0,0-1.94h0a3.41,3.41,0,0,0-3.41,0h0A1.12,1.12,0,0,0,78,73.57Z"/><path class="cls-27" d="M70.49,77.87h0a3.42,3.42,0,0,0,3.39,0h0a1.12,1.12,0,0,0,0-2h0a3.41,3.41,0,0,0-3.41,0h0A1.12,1.12,0,0,0,70.49,77.87Z"/><path class="cls-28" d="M63.17,82.17l0,0a3.44,3.44,0,0,0,3.39,0h0a1.11,1.11,0,0,0,0-1.94l0,0a3.45,3.45,0,0,0-3.42,0h0A1.11,1.11,0,0,0,63.17,82.17Z"/><path class="cls-29" d="M70.58,69.22h0a3.42,3.42,0,0,0,3.39,0h0a1.11,1.11,0,0,0,0-1.94h0a3.42,3.42,0,0,0-3.42,0h0A1.12,1.12,0,0,0,70.58,69.22Z"/><path class="cls-30" d="M63,73.52l0,0a3.42,3.42,0,0,0,3.38,0h0a1.12,1.12,0,0,0,0-1.94l0,0a3.41,3.41,0,0,0-3.41,0h0A1.12,1.12,0,0,0,63,73.52Z"/><path class="cls-31" d="M55.71,77.82l0,0a3.4,3.4,0,0,0,3.38,0h0a1.12,1.12,0,0,0,0-1.94h0a3.41,3.41,0,0,0-3.41,0h0A1.11,1.11,0,0,0,55.71,77.82Z"/><path class="cls-32" d="M100.13,69.26l0,0a3.44,3.44,0,0,0,3.39,0h0a1.11,1.11,0,0,0,0-1.94l0,0a3.41,3.41,0,0,0-3.41,0h0A1.12,1.12,0,0,0,100.13,69.26Z"/><path class="cls-33" d="M92.81,73.57h0a3.42,3.42,0,0,0,3.39,0h0a1.11,1.11,0,0,0,0-1.94h0a3.41,3.41,0,0,0-3.41,0h0A1.12,1.12,0,0,0,92.81,73.57Z"/><path class="cls-34" d="M92.72,65l0,0a3.44,3.44,0,0,0,3.39,0h0a1.11,1.11,0,0,0,0-1.94l0,0a3.41,3.41,0,0,0-3.41,0h0A1.12,1.12,0,0,0,92.72,65Z"/><path class="cls-35" d="M85.4,69.31h0a3.42,3.42,0,0,0,3.39,0h0a1.11,1.11,0,0,0,0-1.94h0a3.42,3.42,0,0,0-3.42,0h0A1.12,1.12,0,0,0,85.4,69.31Z"/><path class="cls-36" d="M85.26,60.65l0,0a3.42,3.42,0,0,0,3.38,0h0a1.12,1.12,0,0,0,0-1.94l0,0a3.46,3.46,0,0,0-3.41,0h0A1.13,1.13,0,0,0,85.26,60.65Z"/><path class="cls-37" d="M77.94,65h0a3.4,3.4,0,0,0,3.38,0h0a1.12,1.12,0,0,0,0-1.94h0a3.41,3.41,0,0,0-3.41,0h0A1.12,1.12,0,0,0,77.94,65Z"/><path class="cls-38" d="M63.21,65l0,0a3.42,3.42,0,0,0,3.38,0h0a1.12,1.12,0,0,0,0-1.94l0,0a3.41,3.41,0,0,0-3.41,0h0A1.12,1.12,0,0,0,63.21,65Z"/><path class="cls-39" d="M55.67,69.31h0a3.42,3.42,0,0,0,3.39,0h0a1.11,1.11,0,0,0,0-1.94h0a3.41,3.41,0,0,0-3.41,0h0A1.12,1.12,0,0,0,55.67,69.31Z"/><path class="cls-40" d="M48.35,73.61h0a3.42,3.42,0,0,0,3.39,0h0a1.12,1.12,0,0,0,0-1.95h0a3.42,3.42,0,0,0-3.42,0h0A1.12,1.12,0,0,0,48.35,73.61Z"/><path class="cls-41" d="M55.76,60.65l0,0a3.44,3.44,0,0,0,3.39,0h0a1.11,1.11,0,0,0,0-1.94l0,0a3.47,3.47,0,0,0-3.42,0h0A1.12,1.12,0,0,0,55.76,60.65Z"/><path class="cls-42" d="M48.21,65h0a3.4,3.4,0,0,0,3.38,0h0a1.12,1.12,0,0,0,0-1.94h0a3.41,3.41,0,0,0-3.41,0h0A1.12,1.12,0,0,0,48.21,65Z"/><path class="cls-43" d="M40.89,69.26l0,0a3.42,3.42,0,0,0,3.38,0h0a1.12,1.12,0,0,0,0-1.94l0,0a3.41,3.41,0,0,0-3.41,0h0A1.12,1.12,0,0,0,40.89,69.26Z"/><path class="cls-44" d="M77.9,56.44h0a3.42,3.42,0,0,0,3.39,0h0a1.11,1.11,0,0,0,0-1.94h0a3.41,3.41,0,0,0-3.41,0h0A1.12,1.12,0,0,0,77.9,56.44Z"/><path class="cls-45" d="M70.58,60.74l0,0a3.44,3.44,0,0,0,3.39,0h0a1.11,1.11,0,0,0,0-1.94l0,0a3.42,3.42,0,0,0-3.42,0h0A1.12,1.12,0,0,0,70.58,60.74Z"/><path class="cls-46" d="M70.44,52.09h0a3.4,3.4,0,0,0,3.38,0h0a1.13,1.13,0,0,0,0-2h0a3.41,3.41,0,0,0-3.41,0h0A1.12,1.12,0,0,0,70.44,52.09Z"/><path class="cls-47" d="M63.12,56.39l0,0a3.42,3.42,0,0,0,3.38,0h0a1.12,1.12,0,0,0,0-1.94l0,0a3.43,3.43,0,0,0-3.41,0h0A1.11,1.11,0,0,0,63.12,56.39Z"/><path class="cls-48" d="M131.34,113.4v.26a2.91,2.91,0,0,1-1.48,2.54L85.19,141.72a1.28,1.28,0,0,1-1.86-.76,1.1,1.1,0,0,1-.06-.37,2.94,2.94,0,0,1,1.47-2.5l44.69-25.8a1.3,1.3,0,0,1,.3-.13A1.28,1.28,0,0,1,131.34,113.4Z"/><path class="cls-49" d="M129.79,112.51v.26a3,3,0,0,1-1.48,2.55L83.63,140.83a1.3,1.3,0,0,1-.3.13,1.1,1.1,0,0,1-.06-.37,2.94,2.94,0,0,1,1.47-2.5l44.69-25.8a1.3,1.3,0,0,1,.3-.13A1,1,0,0,1,129.79,112.51Z"/><path class="cls-50" d="M131.34,85.55v.26a2.91,2.91,0,0,1-1.48,2.54L85.19,113.87a1.28,1.28,0,0,1-1.86-.76,1.1,1.1,0,0,1-.06-.37,2.94,2.94,0,0,1,1.47-2.5l44.69-25.8a1.3,1.3,0,0,1,.3-.13A1.28,1.28,0,0,1,131.34,85.55Z"/><path class="cls-51" d="M129.79,84.66v.26a3,3,0,0,1-1.48,2.55L83.63,113a1.3,1.3,0,0,1-.3.13,1.1,1.1,0,0,1-.06-.37,2.94,2.94,0,0,1,1.47-2.5l44.69-25.8a1.3,1.3,0,0,1,.3-.13A1,1,0,0,1,129.79,84.66Z"/><path class="cls-52" d="M54.08,109.06l.39.32a3.68,3.68,0,0,0,2.06,3.74l.13.46A2,2,0,0,0,59.51,112h0A5.07,5.07,0,0,0,57,107.55l0,0A2,2,0,0,0,54.08,109.06Z"/><path class="cls-53" d="M48.27,105.48v0a4.91,4.91,0,0,0,2.47,4.26h0a1.61,1.61,0,0,0,2.41-1.38h0a4.92,4.92,0,0,0-2.44-4.27h0A1.6,1.6,0,0,0,48.27,105.48Z"/><path class="cls-54" d="M42,101.62h0a4.94,4.94,0,0,0,2.46,4.27h0a1.61,1.61,0,0,0,2.41-1.38h0a4.92,4.92,0,0,0-2.44-4.27l0,0A1.6,1.6,0,0,0,42,101.62Z"/><path class="cls-55" d="M54,109.3v0a4.92,4.92,0,0,0,2.46,4.26h0a1.61,1.61,0,0,0,2.4-1.39h0a4.93,4.93,0,0,0-2.43-4.27h0A1.6,1.6,0,0,0,54,109.3Z"/><path class="cls-56" d="M47.69,105.78h0a4.89,4.89,0,0,0,2.46,4.26h0a1.6,1.6,0,0,0,2.4-1.38h0a4.9,4.9,0,0,0-2.44-4.27l0,0A1.6,1.6,0,0,0,47.69,105.78Z"/><path class="cls-57" d="M41.4,101.91v0a4.91,4.91,0,0,0,2.47,4.26h0a1.61,1.61,0,0,0,2.41-1.38h0a4.92,4.92,0,0,0-2.44-4.27h0A1.6,1.6,0,0,0,41.4,101.91Z"/></g></g></svg>