<svg xmlns="http://www.w3.org/2000/svg" xmlns:xlink="http://www.w3.org/1999/xlink" viewBox="0 0 282.8 270.75"><defs><style>.cls-1{isolation:isolate;}.cls-2{fill:url(#linear-gradient);}.cls-3{fill:url(#linear-gradient-2);}.cls-4{fill:url(#linear-gradient-3);}.cls-5{fill:url(#linear-gradient-4);}.cls-6{fill:url(#linear-gradient-5);}.cls-7{fill:url(#linear-gradient-6);}.cls-8{fill:url(#linear-gradient-7);}.cls-9{fill:url(#linear-gradient-8);}.cls-10{fill:url(#linear-gradient-9);}.cls-11{fill:url(#linear-gradient-10);}.cls-12{fill:url(#linear-gradient-11);}.cls-13{fill:url(#linear-gradient-12);}.cls-14{fill:url(#linear-gradient-13);}.cls-15{fill:url(#linear-gradient-14);}.cls-16{fill:url(#linear-gradient-15);}.cls-17{fill:url(#linear-gradient-16);}.cls-152,.cls-18,.cls-78,.cls-91{opacity:0.1;}.cls-18{fill:url(#linear-gradient-17);}.cls-19{fill:url(#linear-gradient-18);}.cls-20{fill:url(#linear-gradient-19);}.cls-21{fill:url(#linear-gradient-20);}.cls-22{fill:url(#linear-gradient-21);}.cls-23{fill:url(#linear-gradient-22);}.cls-24{fill:url(#linear-gradient-23);}.cls-25{fill:url(#linear-gradient-24);}.cls-26{fill:url(#linear-gradient-25);}.cls-27{fill:url(#linear-gradient-26);}.cls-28{fill:url(#linear-gradient-27);}.cls-29{fill:url(#linear-gradient-28);}.cls-30{fill:url(#linear-gradient-29);}.cls-31{fill:url(#linear-gradient-30);}.cls-32{fill:url(#linear-gradient-31);}.cls-33{fill:url(#linear-gradient-33);}.cls-34{fill:url(#linear-gradient-35);}.cls-35{fill:url(#linear-gradient-36);}.cls-36{fill:url(#linear-gradient-37);}.cls-37{fill:url(#linear-gradient-38);}.cls-38{fill:url(#linear-gradient-41);}.cls-39{fill:url(#linear-gradient-45);}.cls-40{fill:url(#linear-gradient-46);}.cls-41{fill:url(#linear-gradient-47);}.cls-42{fill:url(#linear-gradient-48);}.cls-43{fill:url(#linear-gradient-49);}.cls-44{fill:url(#linear-gradient-50);}.cls-45{fill:url(#linear-gradient-51);}.cls-46{fill:url(#linear-gradient-52);}.cls-47{fill:url(#linear-gradient-53);}.cls-48{fill:url(#linear-gradient-54);}.cls-49{fill:url(#linear-gradient-55);}.cls-50{fill:url(#linear-gradient-56);}.cls-51{fill:url(#linear-gradient-57);}.cls-52{fill:url(#linear-gradient-58);}.cls-53{fill:url(#linear-gradient-59);}.cls-54{fill:url(#linear-gradient-60);}.cls-55{fill:url(#linear-gradient-61);}.cls-56{mix-blend-mode:multiply;}.cls-57{fill:url(#linear-gradient-62);}.cls-58{fill:url(#linear-gradient-63);}.cls-59{fill:url(#linear-gradient-64);}.cls-60{fill:url(#linear-gradient-65);}.cls-61{fill:url(#linear-gradient-66);}.cls-62{fill:url(#linear-gradient-67);}.cls-63{fill:url(#linear-gradient-68);}.cls-64{fill:url(#linear-gradient-69);}.cls-65{fill:url(#linear-gradient-71);}.cls-66{fill:url(#linear-gradient-73);}.cls-67{fill:url(#linear-gradient-74);}.cls-68{fill:url(#linear-gradient-75);}.cls-69{fill:url(#linear-gradient-76);}.cls-70{fill:url(#linear-gradient-79);}.cls-71{fill:url(#linear-gradient-83);}.cls-72{fill:url(#linear-gradient-84);}.cls-73{fill:url(#linear-gradient-85);}.cls-74{fill:url(#linear-gradient-86);}.cls-75{fill:url(#linear-gradient-87);}.cls-76{fill:url(#linear-gradient-88);}.cls-77{fill:url(#linear-gradient-89);}.cls-78{fill:url(#linear-gradient-90);}.cls-79{fill:url(#linear-gradient-91);}.cls-80{fill:url(#linear-gradient-92);}.cls-81{fill:url(#linear-gradient-93);}.cls-82{fill:url(#linear-gradient-94);}.cls-83{fill:url(#linear-gradient-95);}.cls-84{fill:url(#linear-gradient-96);}.cls-85{fill:url(#linear-gradient-97);}.cls-86{fill:url(#linear-gradient-98);}.cls-87{fill:url(#linear-gradient-99);}.cls-88{fill:url(#linear-gradient-100);}.cls-89{fill:url(#linear-gradient-101);}.cls-90{fill:url(#linear-gradient-102);}.cls-91{fill:url(#linear-gradient-103);}.cls-92{fill:url(#linear-gradient-104);}.cls-93{fill:url(#linear-gradient-105);}.cls-94{fill:url(#linear-gradient-106);}.cls-95{fill:url(#linear-gradient-107);}.cls-96{fill:url(#linear-gradient-108);}.cls-97{fill:url(#linear-gradient-109);}.cls-98{fill:url(#linear-gradient-110);}.cls-99{fill:url(#linear-gradient-111);}.cls-100{fill:url(#linear-gradient-112);}.cls-101{fill:url(#linear-gradient-113);}.cls-102{fill:url(#linear-gradient-114);}.cls-103{fill:url(#linear-gradient-115);}.cls-104{fill:url(#linear-gradient-116);}.cls-105{fill:url(#linear-gradient-117);}.cls-106{fill:url(#linear-gradient-119);}.cls-107{fill:url(#linear-gradient-121);}.cls-108{fill:url(#linear-gradient-122);}.cls-109{fill:url(#linear-gradient-123);}.cls-110{fill:url(#linear-gradient-124);}.cls-111{fill:url(#linear-gradient-127);}.cls-112{fill:url(#linear-gradient-131);}.cls-113{fill:url(#linear-gradient-132);}.cls-114{fill:url(#linear-gradient-133);}.cls-115{fill:url(#linear-gradient-134);}.cls-116{fill:url(#linear-gradient-135);}.cls-117{fill:url(#linear-gradient-136);}.cls-118{fill:url(#linear-gradient-137);}.cls-119{fill:url(#linear-gradient-138);}.cls-120{fill:url(#linear-gradient-139);}.cls-121{fill:url(#linear-gradient-140);}.cls-122{fill:url(#linear-gradient-141);}.cls-123{fill:url(#linear-gradient-142);}.cls-124,.cls-131{opacity:0.6;}.cls-125{fill:url(#linear-gradient-143);}.cls-126{fill:url(#linear-gradient-144);}.cls-127{fill:url(#linear-gradient-145);}.cls-128{fill:url(#linear-gradient-146);}.cls-129{fill:url(#linear-gradient-147);}.cls-130{opacity:0.5;fill:url(#linear-gradient-148);}.cls-131{fill:url(#linear-gradient-149);}.cls-132{fill:url(#linear-gradient-150);}.cls-133{fill:url(#linear-gradient-151);}.cls-134{fill:url(#linear-gradient-152);}.cls-135{fill:url(#linear-gradient-153);}.cls-136{fill:url(#linear-gradient-154);}.cls-137{fill:url(#linear-gradient-155);}.cls-138{fill:url(#linear-gradient-156);}.cls-139{fill:url(#linear-gradient-157);}.cls-140{fill:url(#linear-gradient-158);}.cls-141{fill:url(#linear-gradient-159);}.cls-142{fill:url(#linear-gradient-160);}.cls-143{fill:url(#linear-gradient-161);}.cls-144{fill:url(#linear-gradient-162);}.cls-145{fill:url(#linear-gradient-163);}.cls-146{fill:url(#linear-gradient-164);}.cls-147{fill:url(#linear-gradient-165);}.cls-148{fill:url(#linear-gradient-166);}.cls-149,.cls-153,.cls-156,.cls-157,.cls-160,.cls-171{opacity:0.7;}.cls-149{fill:url(#linear-gradient-167);}.cls-150{fill:url(#linear-gradient-168);}.cls-151,.cls-154,.cls-158,.cls-170,.cls-174{opacity:0.4;}.cls-151{fill:url(#linear-gradient-169);}.cls-152{fill:url(#linear-gradient-170);}.cls-153{fill:url(#linear-gradient-171);}.cls-154{fill:url(#linear-gradient-172);}.cls-155{fill:url(#linear-gradient-173);}.cls-156{fill:url(#linear-gradient-174);}.cls-157{fill:url(#linear-gradient-175);}.cls-158{fill:url(#linear-gradient-176);}.cls-159{fill:url(#linear-gradient-177);}.cls-160{fill:url(#linear-gradient-178);}.cls-161{fill:url(#linear-gradient-179);}.cls-162{fill:url(#linear-gradient-180);}.cls-163{fill:url(#linear-gradient-181);}.cls-164{fill:url(#linear-gradient-182);}.cls-165{fill:url(#linear-gradient-183);}.cls-166{fill:url(#linear-gradient-184);}.cls-167{fill:url(#linear-gradient-185);}.cls-168{fill:url(#linear-gradient-186);}.cls-169{fill:url(#linear-gradient-187);}.cls-170{fill:url(#linear-gradient-188);}.cls-171{fill:url(#linear-gradient-189);}.cls-172,.cls-173{opacity:0.2;}.cls-172{fill:url(#linear-gradient-190);}.cls-173{fill:url(#linear-gradient-191);}.cls-174{fill:url(#linear-gradient-192);}.cls-175{fill:url(#linear-gradient-193);}.cls-176{fill:url(#linear-gradient-194);}.cls-177{fill:url(#linear-gradient-195);}.cls-178{fill:url(#linear-gradient-196);}.cls-179{fill:url(#linear-gradient-197);}.cls-180{fill:url(#linear-gradient-198);}.cls-181{fill:url(#linear-gradient-199);}.cls-182{fill:url(#linear-gradient-200);}.cls-183{fill:url(#linear-gradient-201);}.cls-184{fill:url(#linear-gradient-202);}.cls-185{fill:url(#linear-gradient-203);}.cls-186{fill:url(#linear-gradient-204);}.cls-187{fill:url(#linear-gradient-205);}.cls-188{fill:url(#linear-gradient-206);}.cls-189{fill:url(#linear-gradient-207);}.cls-190{fill:url(#linear-gradient-208);}.cls-191{fill:url(#linear-gradient-209);}.cls-192{fill:url(#linear-gradient-210);}.cls-193{fill:url(#linear-gradient-211);}.cls-194{fill:url(#linear-gradient-212);}.cls-195{fill:url(#linear-gradient-213);}.cls-196{fill:url(#linear-gradient-214);}.cls-197{fill:url(#linear-gradient-215);}.cls-198{fill:url(#linear-gradient-216);}.cls-199{fill:url(#linear-gradient-217);}.cls-200{fill:url(#linear-gradient-218);}.cls-201{fill:url(#linear-gradient-219);}.cls-202{fill:url(#linear-gradient-220);}.cls-203{fill:url(#linear-gradient-221);}.cls-204{fill:url(#linear-gradient-222);}.cls-205{fill:url(#linear-gradient-223);}.cls-206{fill:url(#linear-gradient-224);}</style><linearGradient id="linear-gradient" x1="184.99" y1="224.49" x2="167.16" y2="158.15" gradientUnits="userSpaceOnUse"><stop offset="0" stop-color="#f3f6fb"/><stop offset="1" stop-color="#d6d6d8"/></linearGradient><linearGradient id="linear-gradient-2" x1="182.92" y1="246.12" x2="174.21" y2="164.85" gradientUnits="userSpaceOnUse"><stop offset="0" stop-color="#f9a033"/><stop offset="0.51" stop-color="#f47a20"/><stop offset="1" stop-color="#f9a033"/></linearGradient><linearGradient id="linear-gradient-3" x1="180.39" y1="244.17" x2="175.55" y2="159.81" gradientUnits="userSpaceOnUse"><stop offset="0" stop-color="#40454d"/><stop offset="1" stop-color="#1f1f1f"/></linearGradient><linearGradient id="linear-gradient-4" x1="160.99" y1="221.98" x2="171.67" y2="207.74" gradientUnits="userSpaceOnUse"><stop offset="0" stop-color="#f9a033"/><stop offset="1" stop-color="#f47a20"/></linearGradient><linearGradient id="linear-gradient-5" x1="200.71" y1="214.72" x2="199.29" y2="212.3" gradientUnits="userSpaceOnUse"><stop offset="0" stop-color="#535967"/><stop offset="1" stop-color="#40454d"/></linearGradient><linearGradient id="linear-gradient-6" x1="200.65" y1="214.92" x2="196.85" y2="209.41" gradientUnits="userSpaceOnUse"><stop offset="0" stop-color="#383d44"/><stop offset="1" stop-color="#24282f"/></linearGradient><linearGradient id="linear-gradient-7" x1="165.64" y1="217.9" x2="168.56" y2="222.06" xlink:href="#linear-gradient-4"/><linearGradient id="linear-gradient-8" x1="162.23" y1="218.61" x2="165.35" y2="218.61" xlink:href="#linear-gradient-4"/><linearGradient id="linear-gradient-9" x1="158.2" y1="216.13" x2="161.32" y2="216.13" xlink:href="#linear-gradient-4"/><linearGradient id="linear-gradient-10" x1="168.24" y1="220.01" x2="166.42" y2="222.39" xlink:href="#linear-gradient"/><linearGradient id="linear-gradient-11" x1="161.85" y1="218.8" x2="164.97" y2="218.8" xlink:href="#linear-gradient"/><linearGradient id="linear-gradient-12" x1="157.82" y1="216.32" x2="160.95" y2="216.32" xlink:href="#linear-gradient"/><linearGradient id="linear-gradient-13" x1="185.48" y1="221.17" x2="158.19" y2="137.58" xlink:href="#linear-gradient"/><linearGradient id="linear-gradient-14" x1="219.02" y1="205.13" x2="98.47" y2="164.69" xlink:href="#linear-gradient-4"/><linearGradient id="linear-gradient-15" x1="165.07" y1="214.56" x2="179.74" y2="190.06" gradientUnits="userSpaceOnUse"><stop offset="0" stop-color="#faa434"/><stop offset="1" stop-color="#f6871f"/></linearGradient><linearGradient id="linear-gradient-16" x1="155.67" y1="206.66" x2="212.77" y2="172.78" gradientUnits="userSpaceOnUse"><stop offset="0" stop-color="#d6d6d8"/><stop offset="1" stop-color="#b2b3b5"/></linearGradient><linearGradient id="linear-gradient-17" x1="101.58" y1="194.32" x2="216.55" y2="194.32" gradientUnits="userSpaceOnUse"><stop offset="0" stop-color="#888385"/><stop offset="1" stop-color="#40454d"/></linearGradient><linearGradient id="linear-gradient-18" x1="139.19" y1="188.43" x2="215.79" y2="188.43" xlink:href="#linear-gradient"/><linearGradient id="linear-gradient-19" x1="160.99" y1="204.03" x2="171.67" y2="189.79" xlink:href="#linear-gradient-4"/><linearGradient id="linear-gradient-20" x1="161.75" y1="178.73" x2="243.61" y2="163.55" xlink:href="#linear-gradient-15"/><linearGradient id="linear-gradient-21" x1="155.67" y1="188.6" x2="212.77" y2="154.72" gradientUnits="userSpaceOnUse"><stop offset="0" stop-color="#f9a033"/><stop offset="0.94" stop-color="#f47a20"/></linearGradient><linearGradient id="linear-gradient-22" x1="106" y1="175.76" x2="214.09" y2="175.76" gradientUnits="userSpaceOnUse"><stop offset="0" stop-color="#f47a20"/><stop offset="1" stop-color="#f26322"/></linearGradient><linearGradient id="linear-gradient-23" x1="142.53" y1="176.06" x2="213.36" y2="175.31" xlink:href="#linear-gradient-5"/><linearGradient id="linear-gradient-24" x1="155.36" y1="181.4" x2="198.28" y2="181.4" xlink:href="#linear-gradient-6"/><linearGradient id="linear-gradient-25" x1="155.36" y1="184.15" x2="198.28" y2="184.15" xlink:href="#linear-gradient-6"/><linearGradient id="linear-gradient-26" x1="155.36" y1="186.91" x2="198.28" y2="186.91" xlink:href="#linear-gradient-6"/><linearGradient id="linear-gradient-27" x1="155.36" y1="178.67" x2="198.28" y2="178.67" xlink:href="#linear-gradient-6"/><linearGradient id="linear-gradient-28" x1="155.36" y1="181.42" x2="198.28" y2="181.42" xlink:href="#linear-gradient-6"/><linearGradient id="linear-gradient-29" x1="155.36" y1="184.18" x2="198.28" y2="184.18" xlink:href="#linear-gradient-6"/><linearGradient id="linear-gradient-30" x1="155.36" y1="175.88" x2="198.28" y2="175.88" xlink:href="#linear-gradient-6"/><linearGradient id="linear-gradient-31" x1="155.36" y1="178.64" x2="198.28" y2="178.64" xlink:href="#linear-gradient-6"/><linearGradient id="linear-gradient-33" x1="155.36" y1="175.91" x2="198.28" y2="175.91" xlink:href="#linear-gradient-6"/><linearGradient id="linear-gradient-35" x1="155.36" y1="173.18" x2="198.28" y2="173.18" xlink:href="#linear-gradient-6"/><linearGradient id="linear-gradient-36" x1="155.36" y1="175.94" x2="198.28" y2="175.94" xlink:href="#linear-gradient-6"/><linearGradient id="linear-gradient-37" x1="155.36" y1="170.39" x2="198.28" y2="170.39" xlink:href="#linear-gradient-6"/><linearGradient id="linear-gradient-38" x1="155.36" y1="173.15" x2="198.28" y2="173.15" xlink:href="#linear-gradient-6"/><linearGradient id="linear-gradient-41" x1="155.36" y1="178.69" x2="198.28" y2="178.69" xlink:href="#linear-gradient-6"/><linearGradient id="linear-gradient-45" x1="155.36" y1="167.69" x2="198.28" y2="167.69" xlink:href="#linear-gradient-6"/><linearGradient id="linear-gradient-46" x1="155.36" y1="170.45" x2="198.28" y2="170.45" xlink:href="#linear-gradient-6"/><linearGradient id="linear-gradient-47" x1="155.36" y1="164.9" x2="198.28" y2="164.9" xlink:href="#linear-gradient-6"/><linearGradient id="linear-gradient-48" x1="155.36" y1="167.66" x2="198.28" y2="167.66" xlink:href="#linear-gradient-6"/><linearGradient id="linear-gradient-49" x1="200.71" y1="196.78" x2="199.29" y2="194.36" xlink:href="#linear-gradient-5"/><linearGradient id="linear-gradient-50" x1="200.65" y1="196.97" x2="196.85" y2="191.47" xlink:href="#linear-gradient-6"/><linearGradient id="linear-gradient-51" x1="165.64" y1="199.96" x2="168.56" y2="204.12" xlink:href="#linear-gradient-4"/><linearGradient id="linear-gradient-52" x1="162.23" y1="200.66" x2="165.35" y2="200.66" xlink:href="#linear-gradient-4"/><linearGradient id="linear-gradient-53" x1="158.2" y1="198.19" x2="161.32" y2="198.19" xlink:href="#linear-gradient-4"/><linearGradient id="linear-gradient-54" x1="168.24" y1="202.06" x2="166.42" y2="204.45" xlink:href="#linear-gradient"/><linearGradient id="linear-gradient-55" x1="161.85" y1="200.85" x2="164.97" y2="200.85" xlink:href="#linear-gradient"/><linearGradient id="linear-gradient-56" x1="157.82" y1="198.38" x2="160.95" y2="198.38" xlink:href="#linear-gradient"/><linearGradient id="linear-gradient-57" x1="160.99" y1="162.28" x2="171.67" y2="148.04" xlink:href="#linear-gradient-4"/><linearGradient id="linear-gradient-58" x1="161.75" y1="136.97" x2="243.61" y2="121.79" xlink:href="#linear-gradient-15"/><linearGradient id="linear-gradient-59" x1="155.67" y1="146.84" x2="212.77" y2="112.96" xlink:href="#linear-gradient-21"/><linearGradient id="linear-gradient-60" x1="106" y1="134" x2="214.09" y2="134" xlink:href="#linear-gradient-22"/><linearGradient id="linear-gradient-61" x1="142.53" y1="134.31" x2="213.36" y2="133.55" xlink:href="#linear-gradient-5"/><linearGradient id="linear-gradient-62" x1="155.36" y1="139.64" x2="198.28" y2="139.64" xlink:href="#linear-gradient-5"/><linearGradient id="linear-gradient-63" x1="155.36" y1="142.4" x2="198.28" y2="142.4" xlink:href="#linear-gradient-5"/><linearGradient id="linear-gradient-64" x1="155.36" y1="145.16" x2="198.28" y2="145.16" xlink:href="#linear-gradient-5"/><linearGradient id="linear-gradient-65" x1="155.36" y1="136.91" x2="198.28" y2="136.91" xlink:href="#linear-gradient-5"/><linearGradient id="linear-gradient-66" x1="155.36" y1="139.67" x2="198.28" y2="139.67" xlink:href="#linear-gradient-5"/><linearGradient id="linear-gradient-67" x1="155.36" y1="142.43" x2="198.28" y2="142.43" xlink:href="#linear-gradient-5"/><linearGradient id="linear-gradient-68" x1="155.36" y1="134.12" x2="198.28" y2="134.12" xlink:href="#linear-gradient-5"/><linearGradient id="linear-gradient-69" x1="155.36" y1="136.88" x2="198.28" y2="136.88" xlink:href="#linear-gradient-5"/><linearGradient id="linear-gradient-71" x1="155.36" y1="134.15" x2="198.28" y2="134.15" xlink:href="#linear-gradient-5"/><linearGradient id="linear-gradient-73" x1="155.36" y1="131.42" x2="198.28" y2="131.42" xlink:href="#linear-gradient-5"/><linearGradient id="linear-gradient-74" x1="155.36" y1="134.18" x2="198.28" y2="134.18" xlink:href="#linear-gradient-5"/><linearGradient id="linear-gradient-75" x1="155.36" y1="128.64" x2="198.28" y2="128.64" xlink:href="#linear-gradient-5"/><linearGradient id="linear-gradient-76" x1="155.36" y1="131.39" x2="198.28" y2="131.39" xlink:href="#linear-gradient-5"/><linearGradient id="linear-gradient-79" x1="155.36" y1="136.94" x2="198.28" y2="136.94" xlink:href="#linear-gradient-5"/><linearGradient id="linear-gradient-83" x1="155.36" y1="125.93" x2="198.28" y2="125.93" xlink:href="#linear-gradient-5"/><linearGradient id="linear-gradient-84" x1="155.36" y1="128.69" x2="198.28" y2="128.69" xlink:href="#linear-gradient-5"/><linearGradient id="linear-gradient-85" x1="155.36" y1="123.15" x2="198.28" y2="123.15" xlink:href="#linear-gradient-5"/><linearGradient id="linear-gradient-86" x1="155.36" y1="125.91" x2="198.28" y2="125.91" xlink:href="#linear-gradient-5"/><linearGradient id="linear-gradient-87" x1="200.71" y1="155.02" x2="199.29" y2="152.6" xlink:href="#linear-gradient-5"/><linearGradient id="linear-gradient-88" x1="200.65" y1="155.22" x2="196.85" y2="149.71" xlink:href="#linear-gradient-6"/><linearGradient id="linear-gradient-89" x1="155.67" y1="146.68" x2="212.77" y2="112.8" xlink:href="#linear-gradient-16"/><linearGradient id="linear-gradient-90" x1="101.58" y1="134.33" x2="216.55" y2="134.33" xlink:href="#linear-gradient-17"/><linearGradient id="linear-gradient-91" x1="139.19" y1="128.44" x2="215.79" y2="128.44" xlink:href="#linear-gradient"/><linearGradient id="linear-gradient-92" x1="160.99" y1="144.05" x2="171.67" y2="129.81" xlink:href="#linear-gradient-4"/><linearGradient id="linear-gradient-93" x1="200.71" y1="136.79" x2="199.29" y2="134.37" xlink:href="#linear-gradient-5"/><linearGradient id="linear-gradient-94" x1="200.65" y1="136.99" x2="196.85" y2="131.48" xlink:href="#linear-gradient-6"/><linearGradient id="linear-gradient-95" x1="165.64" y1="139.97" x2="168.56" y2="144.14" xlink:href="#linear-gradient-4"/><linearGradient id="linear-gradient-96" x1="162.23" y1="140.68" x2="165.35" y2="140.68" xlink:href="#linear-gradient-4"/><linearGradient id="linear-gradient-97" x1="158.2" y1="138.2" x2="161.32" y2="138.2" xlink:href="#linear-gradient-4"/><linearGradient id="linear-gradient-98" x1="168.24" y1="142.08" x2="166.42" y2="144.46" xlink:href="#linear-gradient"/><linearGradient id="linear-gradient-99" x1="161.85" y1="140.87" x2="164.97" y2="140.87" xlink:href="#linear-gradient"/><linearGradient id="linear-gradient-100" x1="157.82" y1="138.39" x2="160.95" y2="138.39" xlink:href="#linear-gradient"/><linearGradient id="linear-gradient-101" x1="165.07" y1="136.63" x2="179.74" y2="112.13" xlink:href="#linear-gradient-15"/><linearGradient id="linear-gradient-102" x1="155.67" y1="128.73" x2="212.77" y2="94.85" xlink:href="#linear-gradient-16"/><linearGradient id="linear-gradient-103" x1="101.58" y1="116.39" x2="216.55" y2="116.39" xlink:href="#linear-gradient-17"/><linearGradient id="linear-gradient-104" x1="139.19" y1="110.5" x2="215.79" y2="110.5" xlink:href="#linear-gradient"/><linearGradient id="linear-gradient-105" x1="160.99" y1="126.1" x2="171.67" y2="111.86" xlink:href="#linear-gradient-4"/><linearGradient id="linear-gradient-106" x1="161.75" y1="100.8" x2="243.61" y2="85.62" xlink:href="#linear-gradient-15"/><linearGradient id="linear-gradient-107" x1="155.67" y1="110.67" x2="212.77" y2="76.79" xlink:href="#linear-gradient-21"/><linearGradient id="linear-gradient-108" x1="106" y1="97.83" x2="214.09" y2="97.83" xlink:href="#linear-gradient-22"/><linearGradient id="linear-gradient-109" x1="142.53" y1="98.14" x2="213.36" y2="97.38" xlink:href="#linear-gradient-5"/><linearGradient id="linear-gradient-110" x1="155.36" y1="103.47" x2="198.28" y2="103.47" xlink:href="#linear-gradient-6"/><linearGradient id="linear-gradient-111" x1="155.36" y1="106.23" x2="198.28" y2="106.23" xlink:href="#linear-gradient-6"/><linearGradient id="linear-gradient-112" x1="155.36" y1="108.98" x2="198.28" y2="108.98" xlink:href="#linear-gradient-6"/><linearGradient id="linear-gradient-113" x1="155.36" y1="100.74" x2="198.28" y2="100.74" xlink:href="#linear-gradient-6"/><linearGradient id="linear-gradient-114" x1="155.36" y1="103.5" x2="198.28" y2="103.5" xlink:href="#linear-gradient-6"/><linearGradient id="linear-gradient-115" x1="155.36" y1="106.25" x2="198.28" y2="106.25" xlink:href="#linear-gradient-6"/><linearGradient id="linear-gradient-116" x1="155.36" y1="97.95" x2="198.28" y2="97.95" xlink:href="#linear-gradient-6"/><linearGradient id="linear-gradient-117" x1="155.36" y1="100.71" x2="198.28" y2="100.71" xlink:href="#linear-gradient-6"/><linearGradient id="linear-gradient-119" x1="155.36" y1="97.98" x2="198.28" y2="97.98" xlink:href="#linear-gradient-6"/><linearGradient id="linear-gradient-121" x1="155.36" y1="95.25" x2="198.28" y2="95.25" xlink:href="#linear-gradient-6"/><linearGradient id="linear-gradient-122" x1="155.36" y1="98.01" x2="198.28" y2="98.01" xlink:href="#linear-gradient-6"/><linearGradient id="linear-gradient-123" x1="155.36" y1="92.46" x2="198.28" y2="92.46" xlink:href="#linear-gradient-6"/><linearGradient id="linear-gradient-124" x1="155.36" y1="95.22" x2="198.28" y2="95.22" xlink:href="#linear-gradient-6"/><linearGradient id="linear-gradient-127" x1="155.36" y1="100.77" x2="198.28" y2="100.77" xlink:href="#linear-gradient-6"/><linearGradient id="linear-gradient-131" x1="155.36" y1="89.76" x2="198.28" y2="89.76" xlink:href="#linear-gradient-6"/><linearGradient id="linear-gradient-132" x1="155.36" y1="92.52" x2="198.28" y2="92.52" xlink:href="#linear-gradient-6"/><linearGradient id="linear-gradient-133" x1="155.36" y1="86.97" x2="198.28" y2="86.97" xlink:href="#linear-gradient-6"/><linearGradient id="linear-gradient-134" x1="155.36" y1="89.73" x2="198.28" y2="89.73" xlink:href="#linear-gradient-6"/><linearGradient id="linear-gradient-135" x1="200.71" y1="118.85" x2="199.29" y2="116.43" xlink:href="#linear-gradient-5"/><linearGradient id="linear-gradient-136" x1="200.65" y1="119.04" x2="196.85" y2="113.54" xlink:href="#linear-gradient-6"/><linearGradient id="linear-gradient-137" x1="165.64" y1="122.03" x2="168.56" y2="126.19" xlink:href="#linear-gradient-4"/><linearGradient id="linear-gradient-138" x1="162.23" y1="122.73" x2="165.35" y2="122.73" xlink:href="#linear-gradient-4"/><linearGradient id="linear-gradient-139" x1="158.2" y1="120.26" x2="161.32" y2="120.26" xlink:href="#linear-gradient-4"/><linearGradient id="linear-gradient-140" x1="168.24" y1="124.13" x2="166.42" y2="126.52" xlink:href="#linear-gradient"/><linearGradient id="linear-gradient-141" x1="161.85" y1="122.92" x2="164.97" y2="122.92" xlink:href="#linear-gradient"/><linearGradient id="linear-gradient-142" x1="157.82" y1="120.45" x2="160.95" y2="120.45" xlink:href="#linear-gradient"/><linearGradient id="linear-gradient-143" x1="12.18" y1="238.83" x2="262.95" y2="245.03" gradientUnits="userSpaceOnUse"><stop offset="0" stop-color="#f47a20" stop-opacity="0"/><stop offset="0.5" stop-color="#f9a033"/><stop offset="1" stop-color="#f47a20" stop-opacity="0"/></linearGradient><linearGradient id="linear-gradient-144" x1="226.2" y1="253.97" x2="246.71" y2="267.9" gradientUnits="userSpaceOnUse"><stop offset="0" stop-color="#f9a033"/><stop offset="1" stop-color="#f47a20" stop-opacity="0"/></linearGradient><linearGradient id="linear-gradient-145" x1="54.06" y1="149.78" x2="90.99" y2="172.93" xlink:href="#linear-gradient-144"/><linearGradient id="linear-gradient-146" x1="84.89" y1="110.04" x2="108.91" y2="160.47" xlink:href="#linear-gradient-144"/><linearGradient id="linear-gradient-147" x1="123.75" y1="238.1" x2="100.91" y2="251.64" xlink:href="#linear-gradient-144"/><linearGradient id="linear-gradient-148" x1="143.86" y1="235.25" x2="112.71" y2="254.02" xlink:href="#linear-gradient-144"/><linearGradient id="linear-gradient-149" x1="299.27" y1="141.53" x2="249.35" y2="171.91" xlink:href="#linear-gradient-144"/><linearGradient id="linear-gradient-150" x1="254.07" y1="143.78" x2="227.76" y2="159.84" xlink:href="#linear-gradient-144"/><linearGradient id="linear-gradient-151" x1="44.2" y1="138.03" x2="50.78" y2="125.54" xlink:href="#linear-gradient-16"/><linearGradient id="linear-gradient-152" x1="1.19" y1="128.4" x2="53.3" y2="128.4" xlink:href="#linear-gradient-5"/><linearGradient id="linear-gradient-153" x1="37.75" y1="138.96" x2="53.4" y2="138.96" xlink:href="#linear-gradient-5"/><linearGradient id="linear-gradient-154" x1="40.99" y1="144.51" x2="51.26" y2="132.08" xlink:href="#linear-gradient-6"/><linearGradient id="linear-gradient-155" x1="41.93" y1="138.96" x2="49.22" y2="138.96" xlink:href="#linear-gradient-4"/><linearGradient id="linear-gradient-156" x1="23" y1="124.95" x2="12.53" y2="135.27" xlink:href="#linear-gradient-4"/><linearGradient id="linear-gradient-157" x1="24.21" y1="128.15" x2="34.19" y2="113.11" gradientUnits="userSpaceOnUse"><stop offset="0" stop-color="#f3f6fb"/><stop offset="0.15" stop-color="#ebeef2"/><stop offset="0.53" stop-color="#dcdcdf"/><stop offset="0.8" stop-color="#d6d6d8"/><stop offset="1" stop-color="#b6bbbf"/></linearGradient><linearGradient id="linear-gradient-158" x1="46.38" y1="133.45" x2="54.55" y2="127.83" gradientUnits="userSpaceOnUse"><stop offset="0" stop-color="#fff"/><stop offset="1" stop-color="#f3f6fb"/></linearGradient><linearGradient id="linear-gradient-159" x1="71.05" y1="98.95" x2="77.63" y2="86.47" xlink:href="#linear-gradient-16"/><linearGradient id="linear-gradient-160" x1="28.04" y1="89.32" x2="80.15" y2="89.32" xlink:href="#linear-gradient-5"/><linearGradient id="linear-gradient-161" x1="64.6" y1="99.88" x2="80.25" y2="99.88" xlink:href="#linear-gradient-5"/><linearGradient id="linear-gradient-162" x1="67.83" y1="105.43" x2="78.1" y2="93.01" xlink:href="#linear-gradient-6"/><linearGradient id="linear-gradient-163" x1="68.78" y1="99.88" x2="76.07" y2="99.88" xlink:href="#linear-gradient-4"/><linearGradient id="linear-gradient-164" x1="49.85" y1="85.88" x2="39.38" y2="96.2" xlink:href="#linear-gradient-4"/><linearGradient id="linear-gradient-165" x1="51.06" y1="89.08" x2="61.04" y2="74.04" xlink:href="#linear-gradient-157"/><linearGradient id="linear-gradient-166" x1="73.23" y1="94.37" x2="81.4" y2="88.75" xlink:href="#linear-gradient-158"/><linearGradient id="linear-gradient-167" x1="118.47" y1="241.54" x2="192.58" y2="241.54" xlink:href="#linear-gradient-4"/><linearGradient id="linear-gradient-168" x1="109.96" y1="237.07" x2="188.33" y2="237.07" xlink:href="#linear-gradient-4"/><linearGradient id="linear-gradient-169" x1="126.92" y1="246" x2="197.11" y2="246" xlink:href="#linear-gradient-4"/><linearGradient id="linear-gradient-170" x1="135.9" y1="250.46" x2="199.34" y2="250.46" xlink:href="#linear-gradient-4"/><linearGradient id="linear-gradient-171" x1="2983.91" y1="240.09" x2="3056.95" y2="240.09" gradientTransform="matrix(-1, 0, 0, 1, 3079, 0)" xlink:href="#linear-gradient-4"/><linearGradient id="linear-gradient-172" x1="2991.53" y1="243.34" x2="3054.94" y2="243.34" gradientTransform="matrix(-1, 0, 0, 1, 3079, 0)" xlink:href="#linear-gradient-4"/><linearGradient id="linear-gradient-173" x1="2977.06" y1="236.57" x2="3055.43" y2="236.57" gradientTransform="matrix(-1, 0, 0, 1, 3079, 0)" xlink:href="#linear-gradient-4"/><linearGradient id="linear-gradient-174" x1="121.02" y1="1381.6" x2="182.81" y2="1381.6" gradientTransform="matrix(1, 0, 0, -1, 87.17, 1625.63)" xlink:href="#linear-gradient-4"/><linearGradient id="linear-gradient-175" x1="110.97" y1="1375.79" x2="172.76" y2="1375.79" gradientTransform="matrix(1, 0, 0, -1, 87.17, 1625.63)" xlink:href="#linear-gradient-4"/><linearGradient id="linear-gradient-176" x1="127.47" y1="1384.35" x2="181.1" y2="1384.35" gradientTransform="matrix(1, 0, 0, -1, 87.17, 1625.63)" xlink:href="#linear-gradient-4"/><linearGradient id="linear-gradient-177" x1="115.23" y1="1378.62" x2="181.52" y2="1378.62" gradientTransform="matrix(1, 0, 0, -1, 87.17, 1625.63)" xlink:href="#linear-gradient-4"/><linearGradient id="linear-gradient-178" x1="180.03" y1="1472.78" x2="251.36" y2="1472.78" gradientTransform="matrix(1, 0, 0, -1, 87.17, 1625.63)" xlink:href="#linear-gradient-4"/><linearGradient id="linear-gradient-179" x1="148.98" y1="1478.82" x2="216.94" y2="1478.82" gradientTransform="matrix(1, 0, 0, -1, 87.17, 1625.63)" xlink:href="#linear-gradient-4"/><linearGradient id="linear-gradient-180" x1="-19.03" y1="1514.15" x2="53.77" y2="1514.15" gradientTransform="matrix(1, 0, 0, -1, 87.17, 1625.63)" xlink:href="#linear-gradient-4"/><linearGradient id="linear-gradient-181" x1="-45.58" y1="1475.31" x2="23.71" y2="1475.31" gradientTransform="matrix(1, 0, 0, -1, 87.17, 1625.63)" xlink:href="#linear-gradient-4"/><linearGradient id="linear-gradient-182" x1="124.13" y1="195.98" x2="124.13" y2="162.68" gradientUnits="userSpaceOnUse"><stop offset="0" stop-color="#f3f6fb" stop-opacity="0"/><stop offset="1" stop-color="#d6d6d8"/></linearGradient><linearGradient id="linear-gradient-183" x1="124.21" y1="157.95" x2="124.27" y2="141.73" xlink:href="#linear-gradient"/><linearGradient id="linear-gradient-184" x1="132.02" y1="195.71" x2="132.02" y2="125.44" gradientUnits="userSpaceOnUse"><stop offset="0" stop-color="#f9a033" stop-opacity="0"/><stop offset="0.1" stop-color="#f99d31" stop-opacity="0.18"/><stop offset="0.23" stop-color="#f8992f" stop-opacity="0.39"/><stop offset="0.36" stop-color="#f8952d" stop-opacity="0.58"/><stop offset="0.49" stop-color="#f8922b" stop-opacity="0.73"/><stop offset="0.62" stop-color="#f7902a" stop-opacity="0.85"/><stop offset="0.75" stop-color="#f78e29" stop-opacity="0.93"/><stop offset="0.88" stop-color="#f78d28" stop-opacity="0.98"/><stop offset="1" stop-color="#f78d28"/></linearGradient><linearGradient id="linear-gradient-185" x1="131.94" y1="136.95" x2="131.99" y2="123.32" xlink:href="#linear-gradient-4"/><linearGradient id="linear-gradient-186" x1="131.16" y1="228.24" x2="131.24" y2="209.65" xlink:href="#linear-gradient-4"/><linearGradient id="linear-gradient-187" x1="112.2" y1="179.05" x2="112.28" y2="160.46" xlink:href="#linear-gradient-4"/><linearGradient id="linear-gradient-188" x1="142.45" y1="205.93" x2="142.49" y2="197.68" xlink:href="#linear-gradient-4"/><linearGradient id="linear-gradient-189" x1="230.44" y1="181.37" x2="230.49" y2="169.39" xlink:href="#linear-gradient-4"/><linearGradient id="linear-gradient-190" x1="236.97" y1="167.83" x2="237.01" y2="159.82" xlink:href="#linear-gradient-4"/><linearGradient id="linear-gradient-191" x1="2615.29" y1="1820.39" x2="2615.31" y2="1815.17" gradientTransform="translate(3241.16 1197.9) rotate(163.22)" xlink:href="#linear-gradient-4"/><linearGradient id="linear-gradient-192" x1="2614.43" y1="1862.18" x2="2614.47" y2="1853.29" gradientTransform="translate(3241.16 1197.9) rotate(163.22)" xlink:href="#linear-gradient-4"/><linearGradient id="linear-gradient-193" x1="142.55" y1="163.53" x2="142.59" y2="154.87" xlink:href="#linear-gradient-4"/><linearGradient id="linear-gradient-194" x1="185.99" y1="238.58" x2="186.05" y2="223.71" xlink:href="#linear-gradient-4"/><linearGradient id="linear-gradient-195" x1="211.14" y1="210.5" x2="211.2" y2="195.63" xlink:href="#linear-gradient-4"/><linearGradient id="linear-gradient-196" x1="107.06" y1="186.57" x2="107.1" y2="175.44" xlink:href="#linear-gradient-4"/><linearGradient id="linear-gradient-197" x1="221.39" y1="192.74" x2="221.18" y2="159.43" gradientUnits="userSpaceOnUse"><stop offset="0" stop-color="#535967" stop-opacity="0"/><stop offset="1" stop-color="#40454d"/></linearGradient><linearGradient id="linear-gradient-198" x1="222.05" y1="159.89" x2="222.05" y2="155.88" xlink:href="#linear-gradient-184"/><linearGradient id="linear-gradient-199" x1="221.15" y1="168.4" x2="221.22" y2="152.18" xlink:href="#linear-gradient-5"/><linearGradient id="linear-gradient-200" x1="228.36" y1="198.88" x2="228.36" y2="118.04" xlink:href="#linear-gradient-184"/><linearGradient id="linear-gradient-201" x1="228.32" y1="129.55" x2="228.38" y2="115.92" xlink:href="#linear-gradient-4"/><linearGradient id="linear-gradient-202" x1="194.14" y1="220.97" x2="194.14" y2="168.49" xlink:href="#linear-gradient-184"/><linearGradient id="linear-gradient-203" x1="194.1" y1="180" x2="194.15" y2="166.36" xlink:href="#linear-gradient-4"/><linearGradient id="linear-gradient-204" x1="153.28" y1="216.1" x2="153.28" y2="175.06" xlink:href="#linear-gradient-184"/><linearGradient id="linear-gradient-205" x1="153.25" y1="184.17" x2="153.29" y2="173.38" xlink:href="#linear-gradient-4"/><linearGradient id="linear-gradient-206" x1="161.04" y1="217.92" x2="161.24" y2="173.65" xlink:href="#linear-gradient-182"/><linearGradient id="linear-gradient-207" x1="161.21" y1="181.86" x2="161.27" y2="167.92" xlink:href="#linear-gradient"/><linearGradient id="linear-gradient-208" x1="155.96" y1="92.1" x2="181.36" y2="94.99" xlink:href="#linear-gradient-157"/><linearGradient id="linear-gradient-209" x1="173.37" y1="105.77" x2="178.78" y2="87.63" xlink:href="#linear-gradient-157"/><linearGradient id="linear-gradient-210" x1="175.21" y1="93.9" x2="184.24" y2="86.05" xlink:href="#linear-gradient"/><linearGradient id="linear-gradient-211" x1="169.24" y1="81.08" x2="179.47" y2="81.19" xlink:href="#linear-gradient-157"/><linearGradient id="linear-gradient-212" x1="138.14" y1="28.4" x2="219.92" y2="74.77" xlink:href="#linear-gradient-157"/><linearGradient id="linear-gradient-213" x1="160.69" y1="72.64" x2="193.43" y2="43.31" xlink:href="#linear-gradient"/><linearGradient id="linear-gradient-214" x1="168.05" y1="82.94" x2="198.13" y2="16.57" xlink:href="#linear-gradient-157"/><linearGradient id="linear-gradient-215" x1="146.11" y1="55.64" x2="213.22" y2="55.64" xlink:href="#linear-gradient-5"/><linearGradient id="linear-gradient-216" x1="148" y1="55.14" x2="213.22" y2="55.14" xlink:href="#linear-gradient-6"/><linearGradient id="linear-gradient-217" x1="146.95" y1="50.17" x2="200.87" y2="76.09" xlink:href="#linear-gradient-21"/><linearGradient id="linear-gradient-218" x1="145.79" y1="52.58" x2="199.71" y2="78.51" xlink:href="#linear-gradient-21"/><linearGradient id="linear-gradient-219" x1="156.94" y1="29.39" x2="210.86" y2="55.32" xlink:href="#linear-gradient-21"/><linearGradient id="linear-gradient-220" x1="155.78" y1="31.81" x2="209.7" y2="57.73" xlink:href="#linear-gradient-21"/><linearGradient id="linear-gradient-221" x1="152.08" y1="49.01" x2="187.64" y2="41.01" xlink:href="#linear-gradient"/><linearGradient id="linear-gradient-222" x1="156.87" y1="70.28" x2="192.43" y2="62.28" xlink:href="#linear-gradient"/><linearGradient id="linear-gradient-223" x1="146.59" y1="24.62" x2="182.15" y2="16.62" xlink:href="#linear-gradient"/><linearGradient id="linear-gradient-224" x1="151.39" y1="45.94" x2="186.95" y2="37.94" xlink:href="#linear-gradient"/></defs><title>how-it-works</title><g class="cls-1"><g id="Layer_2" data-name="Layer 2"><g id="Layer_1-2" data-name="Layer 1"><path class="cls-2" d="M265.17,196.59l-85.85-49.72a4.28,4.28,0,0,0-4.28,0L90.23,196.33a1,1,0,0,0,0,1.81l85.08,49.46a4.26,4.26,0,0,0,4.26,0l85.59-49.2A1.06,1.06,0,0,0,265.17,196.59Zm-12.75,1.78-72.81,41.86a4.26,4.26,0,0,1-4.26,0L103,198.14a1.05,1.05,0,0,1,0-1.81l72.13-42.06a4.28,4.28,0,0,1,4.28,0l73,42.3A1.05,1.05,0,0,1,252.42,198.37Z"/><path class="cls-3" d="M174.59,152.47l-74,43.12a1.9,1.9,0,0,0,0,3.29L174.84,242a5.25,5.25,0,0,0,5.27,0l74.64-42.91a1.9,1.9,0,0,0,0-3.29l-74.88-43.37A5.27,5.27,0,0,0,174.59,152.47Z"/><path class="cls-4" d="M175.48,160.44l-61.77,36a.9.9,0,0,0,0,1.56l62,36a3.66,3.66,0,0,0,3.65,0l62.35-35.85a.9.9,0,0,0,0-1.56l-62.54-36.22A3.67,3.67,0,0,0,175.48,160.44Z"/><path class="cls-5" d="M218.64,193.91v10.22a6.25,6.25,0,0,1-3.17,5.66l-30.88,17.57a14.27,14.27,0,0,1-14.26-.08l-30.86-18a6.24,6.24,0,0,1-3.11-5.77v-10s41-22.28,41.47-22.15Z"/><path class="cls-6" d="M215.46,204.91v.16a1.87,1.87,0,0,1-.94,1.63l-28.63,16.36a.82.82,0,0,1-1.19-.49.64.64,0,0,1,0-.24,1.88,1.88,0,0,1,.94-1.6l28.64-16.54.19-.08A.82.82,0,0,1,215.46,204.91Z"/><path class="cls-7" d="M214.47,204.34v.16a1.91,1.91,0,0,1-.95,1.64l-28.63,16.35-.19.08a.64.64,0,0,1,0-.24,1.88,1.88,0,0,1,.94-1.6l28.64-16.54.19-.08A.59.59,0,0,1,214.47,204.34Z"/><path class="cls-8" d="M166,220l.25.2a2.37,2.37,0,0,0,1.32,2.4l.08.29a1.31,1.31,0,0,0,1.83-1h0a3.26,3.26,0,0,0-1.61-2.82h0A1.29,1.29,0,0,0,166,220Z"/><path class="cls-9" d="M162.23,217.68h0a3.14,3.14,0,0,0,1.58,2.73h0a1,1,0,0,0,1.54-.89h0a3.15,3.15,0,0,0-1.56-2.74h0A1,1,0,0,0,162.23,217.68Z"/><path class="cls-10" d="M158.2,215.2v0a3.16,3.16,0,0,0,1.58,2.73h0a1,1,0,0,0,1.54-.89h0a3.13,3.13,0,0,0-1.56-2.73h0A1,1,0,0,0,158.2,215.2Z"/><path class="cls-11" d="M165.88,220.13h0a3.15,3.15,0,0,0,1.57,2.73h0A1,1,0,0,0,169,222h0a3.15,3.15,0,0,0-1.56-2.74h0A1,1,0,0,0,165.88,220.13Z"/><path class="cls-12" d="M161.85,217.87h0a3.14,3.14,0,0,0,1.58,2.73h0a1,1,0,0,0,1.54-.88h0a3.15,3.15,0,0,0-1.56-2.74h0A1,1,0,0,0,161.85,217.87Z"/><path class="cls-13" d="M157.82,215.39h0a3.16,3.16,0,0,0,1.58,2.73h0a1,1,0,0,0,1.54-.89h0a3.15,3.15,0,0,0-1.56-2.73h0A1,1,0,0,0,157.82,215.39Z"/><path class="cls-14" d="M253.48,196.48l-73.92-42.8a4.61,4.61,0,0,0-4.64,0l-73,42.57a1.14,1.14,0,0,0,0,2l73.24,42.59a4.64,4.64,0,0,0,4.63,0l73.69-42.36A1.14,1.14,0,0,0,253.48,196.48Zm-21.09,1.91-52.53,30.2a4.62,4.62,0,0,1-4.63,0L123,198.22a1.14,1.14,0,0,1,0-2l52-30.34a4.61,4.61,0,0,1,4.64,0l52.7,30.52A1.14,1.14,0,0,1,232.39,198.39Z"/><path class="cls-15" d="M232.39,198.39l-3.38,2-6.46-3.74-6.48-3.75-3.1-1.8-9.28-5.37-24-13.9a4.59,4.59,0,0,0-4.64,0L143.7,190.07l-12.58,7.34-4.75,2.76L123,198.22a1.14,1.14,0,0,1,0-2l8.11-4.73,12.58-7.33,31.35-18.28a4.61,4.61,0,0,1,4.64,0l24,13.9,9.28,5.37,3.1,1.8,6.48,3.75,9.84,5.7A1.14,1.14,0,0,1,232.39,198.39Z"/><path class="cls-16" d="M185,217.05l30.5-17.57a6.26,6.26,0,0,0,.06-10.83l-30.41-17.92a14.89,14.89,0,0,0-14.93-.11l-30.74,17.52a6.27,6.27,0,0,0-.07,10.85L170,217A14.87,14.87,0,0,0,185,217.05Z"/><path class="cls-17" d="M184.86,216.49,215.21,199a5.84,5.84,0,0,0,0-10.09L185,171.09a14.57,14.57,0,0,0-14.63-.11L139.8,188.41a5.84,5.84,0,0,0-.07,10.11l30.46,17.9A14.58,14.58,0,0,0,184.86,216.49Z"/><path class="cls-18" d="M215.06,197a4.32,4.32,0,0,1-.42.27l-32.21,18a10.22,10.22,0,0,1-9.9,0L140.6,196.65l-.42-.27a3.41,3.41,0,0,1,.41-5.73l31.94-17.32a10.2,10.2,0,0,1,9.93,0l32.18,18A3.42,3.42,0,0,1,215.06,197Z"/><path class="cls-19" d="M215.79,182.31v10.8c.06,2-.93,2.83-3,4l-28.74,16.35c-4.75,2.77-8.32,2.77-13.27-.07L142.1,196.6c-2-1.2-3-2-2.9-4.09V182s38.12-20.74,38.6-20.62Z"/><path class="cls-20" d="M218.64,176v10.22a6.26,6.26,0,0,1-3.17,5.67l-30.88,17.57a14.27,14.27,0,0,1-14.26-.08l-30.86-18a6.24,6.24,0,0,1-3.11-5.77v-10s41-22.28,41.47-22.15Z"/><path class="cls-21" d="M185,199l30.5-17.57a6.27,6.27,0,0,0,.06-10.84l-30.41-17.92a14.89,14.89,0,0,0-14.93-.1l-30.74,17.52a6.27,6.27,0,0,0-.07,10.85l30.62,18A14.89,14.89,0,0,0,185,199Z"/><path class="cls-22" d="M184.86,198.43l30.35-17.49a5.84,5.84,0,0,0,0-10.09L185,153a14.57,14.57,0,0,0-14.63-.11L139.8,170.35a5.84,5.84,0,0,0-.07,10.11l30.46,17.9A14.6,14.6,0,0,0,184.86,198.43Z"/><path class="cls-23" d="M212.7,178.37a3.77,3.77,0,0,1-.39.26L182.12,196.1a9.29,9.29,0,0,1-9.28,0l-30.16-17.34c-.14-.08-.26-.17-.39-.26a3.36,3.36,0,0,1,.38-5.55l30.17-17.53a9.3,9.3,0,0,1,9.31,0l30.15,17.39A3.36,3.36,0,0,1,212.7,178.37Z"/><path class="cls-24" d="M181.77,195.18,211.69,178a2.62,2.62,0,0,0,0-4.55l-29.79-17.19a8.89,8.89,0,0,0-8.92-.06l-29.76,17.39a2.55,2.55,0,0,0,0,4.4l29.59,17.18A8.88,8.88,0,0,0,181.77,195.18Z"/><path class="cls-25" d="M186.05,182h0a2.18,2.18,0,0,0,2.17,0h0a.71.71,0,0,0,0-1.24h0a2.2,2.2,0,0,0-2.19,0h0A.72.72,0,0,0,186.05,182Z"/><path class="cls-26" d="M181.21,184.77h0a2.18,2.18,0,0,0,2.17,0h0a.71.71,0,0,0,0-1.24h0a2.2,2.2,0,0,0-2.19,0h0A.71.71,0,0,0,181.21,184.77Z"/><path class="cls-27" d="M176.52,187.53h0a2.19,2.19,0,0,0,2.16,0h0a.71.71,0,0,0,0-1.24h0a2.18,2.18,0,0,0-2.18,0h0A.71.71,0,0,0,176.52,187.53Z"/><path class="cls-28" d="M181.3,179.28h0a2.18,2.18,0,0,0,2.17,0h0a.71.71,0,0,0,0-1.24h0a2.18,2.18,0,0,0-2.18,0h0A.71.71,0,0,0,181.3,179.28Z"/><path class="cls-29" d="M176.46,182h0a2.18,2.18,0,0,0,2.17,0h0a.71.71,0,0,0,0-1.24h0a2.2,2.2,0,0,0-2.19,0h0A.71.71,0,0,0,176.46,182Z"/><path class="cls-30" d="M171.77,184.8h0a2.21,2.21,0,0,0,2.17,0h0a.71.71,0,0,0,0-1.24h0a2.2,2.2,0,0,0-2.19,0h0A.71.71,0,0,0,171.77,184.8Z"/><path class="cls-31" d="M176.52,176.5h0a2.19,2.19,0,0,0,2.16,0h0a.72.72,0,0,0,0-1.25h0a2.18,2.18,0,0,0-2.18,0h0A.72.72,0,0,0,176.52,176.5Z"/><path class="cls-32" d="M171.69,179.25h0a2.18,2.18,0,0,0,2.17,0h0a.72.72,0,0,0,0-1.25h0a2.2,2.2,0,0,0-2.19,0h0A.72.72,0,0,0,171.69,179.25Z"/><path class="cls-25" d="M167,182h0a2.18,2.18,0,0,0,2.17,0h0a.71.71,0,0,0,0-1.24h0a2.2,2.2,0,0,0-2.19,0h0A.71.71,0,0,0,167,182Z"/><path class="cls-33" d="M195.46,176.52h0a2.18,2.18,0,0,0,2.17,0h0a.72.72,0,0,0,0-1.25h0a2.18,2.18,0,0,0-2.18,0h0A.71.71,0,0,0,195.46,176.52Z"/><path class="cls-28" d="M190.77,179.28h0a2.18,2.18,0,0,0,2.17,0h0a.71.71,0,0,0,0-1.24h0a2.18,2.18,0,0,0-2.18,0h0A.71.71,0,0,0,190.77,179.28Z"/><path class="cls-34" d="M190.71,173.8h0a2.16,2.16,0,0,0,2.16,0h0a.72.72,0,0,0,0-1.25h0a2.18,2.18,0,0,0-2.18,0h0A.72.72,0,0,0,190.71,173.8Z"/><path class="cls-35" d="M186,176.55h0a2.18,2.18,0,0,0,2.17,0h0a.71.71,0,0,0,0-1.24h0a2.18,2.18,0,0,0-2.18,0h0A.71.71,0,0,0,186,176.55Z"/><path class="cls-36" d="M185.93,171h0a2.21,2.21,0,0,0,2.17,0h0a.72.72,0,0,0,0-1.25h0a2.2,2.2,0,0,0-2.19,0h0A.71.71,0,0,0,185.93,171Z"/><path class="cls-37" d="M181.24,173.77h0a2.21,2.21,0,0,0,2.17,0h0a.72.72,0,0,0,0-1.25h0a2.2,2.2,0,0,0-2.19,0h0A.72.72,0,0,0,181.24,173.77Z"/><path class="cls-34" d="M171.8,173.8h0a2.16,2.16,0,0,0,2.16,0h0a.72.72,0,0,0,0-1.25h0a2.18,2.18,0,0,0-2.18,0h0A.72.72,0,0,0,171.8,173.8Z"/><path class="cls-35" d="M167,176.55h0a2.18,2.18,0,0,0,2.17,0h0a.71.71,0,0,0,0-1.24h0a2.2,2.2,0,0,0-2.19,0h0A.72.72,0,0,0,167,176.55Z"/><path class="cls-38" d="M162.27,179.31h0a2.18,2.18,0,0,0,2.17,0h0a.71.71,0,0,0,0-1.24h0a2.2,2.2,0,0,0-2.19,0h0A.71.71,0,0,0,162.27,179.31Z"/><path class="cls-36" d="M167,171h0a2.21,2.21,0,0,0,2.17,0h0a.72.72,0,0,0,0-1.25h0a2.2,2.2,0,0,0-2.19,0h0A.71.71,0,0,0,167,171Z"/><path class="cls-37" d="M162.19,173.77h0a2.21,2.21,0,0,0,2.17,0h0a.72.72,0,0,0,0-1.25h0a2.18,2.18,0,0,0-2.18,0h0A.72.72,0,0,0,162.19,173.77Z"/><path class="cls-33" d="M157.5,176.52h0a2.18,2.18,0,0,0,2.17,0h0a.72.72,0,0,0,0-1.25h0a2.2,2.2,0,0,0-2.19,0h0A.72.72,0,0,0,157.5,176.52Z"/><path class="cls-39" d="M181.21,168.31h0a2.21,2.21,0,0,0,2.17,0h0a.72.72,0,0,0,0-1.25h0a2.2,2.2,0,0,0-2.19,0h0A.72.72,0,0,0,181.21,168.31Z"/><path class="cls-40" d="M176.52,171.07h0a2.16,2.16,0,0,0,2.16,0h0a.72.72,0,0,0,0-1.25h0a2.18,2.18,0,0,0-2.18,0h0A.72.72,0,0,0,176.52,171.07Z"/><path class="cls-41" d="M176.43,165.52h0a2.18,2.18,0,0,0,2.17,0h0a.71.71,0,0,0,0-1.24h0a2.2,2.2,0,0,0-2.19,0h0A.72.72,0,0,0,176.43,165.52Z"/><path class="cls-42" d="M171.74,168.28h0a2.21,2.21,0,0,0,2.17,0h0a.72.72,0,0,0,0-1.25h0a2.2,2.2,0,0,0-2.19,0h0A.71.71,0,0,0,171.74,168.28Z"/><path class="cls-43" d="M215.46,187v.17a1.89,1.89,0,0,1-.94,1.63l-28.63,16.35a.81.81,0,0,1-1.19-.49.59.59,0,0,1,0-.23,1.89,1.89,0,0,1,.94-1.61l28.64-16.53a.77.77,0,0,1,.19-.08A.81.81,0,0,1,215.46,187Z"/><path class="cls-44" d="M214.47,186.39v.17a1.9,1.9,0,0,1-.95,1.63l-28.63,16.35a.6.6,0,0,1-.19.08.59.59,0,0,1,0-.23,1.89,1.89,0,0,1,.94-1.61l28.64-16.53a.77.77,0,0,1,.19-.08A.54.54,0,0,1,214.47,186.39Z"/><path class="cls-45" d="M166,202l.25.2a2.36,2.36,0,0,0,1.32,2.4l.08.3a1.32,1.32,0,0,0,1.83-1h0a3.29,3.29,0,0,0-1.61-2.83h0A1.3,1.3,0,0,0,166,202Z"/><path class="cls-46" d="M162.23,199.74h0a3.14,3.14,0,0,0,1.58,2.73h0a1,1,0,0,0,1.54-.88h0a3.15,3.15,0,0,0-1.56-2.74h0A1,1,0,0,0,162.23,199.74Z"/><path class="cls-47" d="M158.2,197.26h0a3.14,3.14,0,0,0,1.58,2.73h0a1,1,0,0,0,1.54-.88h0a3.15,3.15,0,0,0-1.56-2.74h0A1,1,0,0,0,158.2,197.26Z"/><path class="cls-48" d="M165.88,202.19h0a3.15,3.15,0,0,0,1.57,2.73h0a1,1,0,0,0,1.54-.88h0a3.15,3.15,0,0,0-1.56-2.74h0A1,1,0,0,0,165.88,202.19Z"/><path class="cls-49" d="M161.85,199.93h0a3.15,3.15,0,0,0,1.58,2.73h0a1,1,0,0,0,1.54-.89h0a3.14,3.14,0,0,0-1.56-2.73h0A1,1,0,0,0,161.85,199.93Z"/><path class="cls-50" d="M157.82,197.45h0a3.16,3.16,0,0,0,1.58,2.73h0a1,1,0,0,0,1.54-.88h0a3.17,3.17,0,0,0-1.56-2.74h0A1,1,0,0,0,157.82,197.45Z"/><path class="cls-51" d="M218.64,134.21v10.22a6.25,6.25,0,0,1-3.17,5.66l-30.88,17.57a14.27,14.27,0,0,1-14.26-.08l-30.86-18a6.24,6.24,0,0,1-3.11-5.77v-10s41-22.28,41.47-22.15Z"/><path class="cls-52" d="M185,157.24l30.5-17.58a6.26,6.26,0,0,0,.06-10.83l-30.41-17.92a14.89,14.89,0,0,0-14.93-.11l-30.74,17.52a6.27,6.27,0,0,0-.07,10.85l30.62,18A14.89,14.89,0,0,0,185,157.24Z"/><path class="cls-53" d="M184.86,156.67l30.35-17.49a5.84,5.84,0,0,0,0-10.09L185,111.27a14.6,14.6,0,0,0-14.63-.11L139.8,128.59a5.84,5.84,0,0,0-.07,10.11l30.46,17.91A14.6,14.6,0,0,0,184.86,156.67Z"/><path class="cls-54" d="M212.7,136.61a2.65,2.65,0,0,1-.39.26l-30.19,17.47a9.32,9.32,0,0,1-9.28,0L142.68,137a3.3,3.3,0,0,1-.39-.26,3.36,3.36,0,0,1,.38-5.55l30.17-17.53a9.32,9.32,0,0,1,9.31,0l30.15,17.39A3.37,3.37,0,0,1,212.7,136.61Z"/><path class="cls-55" d="M181.77,153.43l29.92-17.2a2.63,2.63,0,0,0,0-4.56l-29.79-17.18a8.89,8.89,0,0,0-8.92-.07l-29.76,17.4a2.55,2.55,0,0,0,0,4.4l29.59,17.17A8.88,8.88,0,0,0,181.77,153.43Z"/><g class="cls-56"><path class="cls-57" d="M186.05,140.26h0a2.21,2.21,0,0,0,2.17,0h0a.72.72,0,0,0,0-1.25h0a2.2,2.2,0,0,0-2.19,0h0A.73.73,0,0,0,186.05,140.26Z"/><path class="cls-58" d="M181.21,143h0a2.18,2.18,0,0,0,2.17,0h0a.72.72,0,0,0,0-1.25h0a2.2,2.2,0,0,0-2.19,0h0A.72.72,0,0,0,181.21,143Z"/><path class="cls-59" d="M176.52,145.77h0a2.16,2.16,0,0,0,2.16,0h0a.71.71,0,0,0,0-1.24h0a2.18,2.18,0,0,0-2.18,0h0A.71.71,0,0,0,176.52,145.77Z"/><path class="cls-60" d="M181.3,137.53h0a2.21,2.21,0,0,0,2.17,0h0a.72.72,0,0,0,0-1.25h0a2.18,2.18,0,0,0-2.18,0h0A.71.71,0,0,0,181.3,137.53Z"/><path class="cls-61" d="M176.46,140.29h0a2.18,2.18,0,0,0,2.17,0h0a.72.72,0,0,0,0-1.25h0a2.2,2.2,0,0,0-2.19,0h0A.72.72,0,0,0,176.46,140.29Z"/><path class="cls-62" d="M171.77,143h0a2.18,2.18,0,0,0,2.17,0h0a.71.71,0,0,0,0-1.24h0a2.2,2.2,0,0,0-2.19,0h0A.71.71,0,0,0,171.77,143Z"/><path class="cls-63" d="M176.52,134.74h0a2.16,2.16,0,0,0,2.16,0h0a.71.71,0,0,0,0-1.24h0a2.18,2.18,0,0,0-2.18,0h0A.71.71,0,0,0,176.52,134.74Z"/><path class="cls-64" d="M171.69,137.5h0a2.21,2.21,0,0,0,2.17,0h0a.72.72,0,0,0,0-1.25h0a2.2,2.2,0,0,0-2.19,0h0A.72.72,0,0,0,171.69,137.5Z"/><path class="cls-57" d="M167,140.26h0a2.21,2.21,0,0,0,2.17,0h0a.72.72,0,0,0,0-1.25h0a2.2,2.2,0,0,0-2.19,0h0A.72.72,0,0,0,167,140.26Z"/><path class="cls-65" d="M195.46,134.77h0a2.21,2.21,0,0,0,2.17,0h0a.72.72,0,0,0,0-1.25h0a2.18,2.18,0,0,0-2.18,0h0A.71.71,0,0,0,195.46,134.77Z"/><path class="cls-60" d="M190.77,137.53h0a2.21,2.21,0,0,0,2.17,0h0a.72.72,0,0,0,0-1.25h0a2.18,2.18,0,0,0-2.18,0h0A.71.71,0,0,0,190.77,137.53Z"/><path class="cls-66" d="M190.71,132h0a2.19,2.19,0,0,0,2.16,0h0a.71.71,0,0,0,0-1.24h0a2.18,2.18,0,0,0-2.18,0h0A.71.71,0,0,0,190.71,132Z"/><path class="cls-67" d="M186,134.8h0a2.18,2.18,0,0,0,2.17,0h0a.72.72,0,0,0,0-1.25h0a2.18,2.18,0,0,0-2.18,0h0A.71.71,0,0,0,186,134.8Z"/><path class="cls-68" d="M185.93,129.25h0a2.18,2.18,0,0,0,2.17,0h0a.71.71,0,0,0,0-1.24h0a2.2,2.2,0,0,0-2.19,0h0A.71.71,0,0,0,185.93,129.25Z"/><path class="cls-69" d="M181.24,132h0a2.18,2.18,0,0,0,2.17,0h0a.71.71,0,0,0,0-1.24h0a2.2,2.2,0,0,0-2.19,0h0A.71.71,0,0,0,181.24,132Z"/><path class="cls-66" d="M171.8,132h0a2.19,2.19,0,0,0,2.16,0h0a.71.71,0,0,0,0-1.24h0a2.18,2.18,0,0,0-2.18,0h0A.71.71,0,0,0,171.8,132Z"/><path class="cls-67" d="M167,134.8h0a2.18,2.18,0,0,0,2.17,0h0a.72.72,0,0,0,0-1.25h0a2.2,2.2,0,0,0-2.19,0h0A.72.72,0,0,0,167,134.8Z"/><path class="cls-70" d="M162.27,137.56h0a2.18,2.18,0,0,0,2.17,0h0a.72.72,0,0,0,0-1.25h0a2.2,2.2,0,0,0-2.19,0h0A.72.72,0,0,0,162.27,137.56Z"/><path class="cls-68" d="M167,129.25h0a2.18,2.18,0,0,0,2.17,0h0a.71.71,0,0,0,0-1.24h0a2.2,2.2,0,0,0-2.19,0h0A.71.71,0,0,0,167,129.25Z"/><path class="cls-69" d="M162.19,132h0a2.18,2.18,0,0,0,2.17,0h0a.71.71,0,0,0,0-1.24h0a2.18,2.18,0,0,0-2.18,0h0A.71.71,0,0,0,162.19,132Z"/><path class="cls-65" d="M157.5,134.77h0a2.21,2.21,0,0,0,2.17,0h0a.72.72,0,0,0,0-1.25h0a2.2,2.2,0,0,0-2.19,0h0A.72.72,0,0,0,157.5,134.77Z"/><path class="cls-71" d="M181.21,126.55h0a2.18,2.18,0,0,0,2.17,0h0a.71.71,0,0,0,0-1.24h0a2.2,2.2,0,0,0-2.19,0h0A.71.71,0,0,0,181.21,126.55Z"/><path class="cls-72" d="M176.52,129.31h0a2.19,2.19,0,0,0,2.16,0h0a.71.71,0,0,0,0-1.24h0a2.18,2.18,0,0,0-2.18,0h0A.71.71,0,0,0,176.52,129.31Z"/><path class="cls-73" d="M176.43,123.76h0a2.18,2.18,0,0,0,2.17,0h0a.71.71,0,0,0,0-1.24h0a2.2,2.2,0,0,0-2.19,0h0A.72.72,0,0,0,176.43,123.76Z"/><path class="cls-74" d="M171.74,126.52h0a2.18,2.18,0,0,0,2.17,0h0a.71.71,0,0,0,0-1.24h0a2.2,2.2,0,0,0-2.19,0h0A.71.71,0,0,0,171.74,126.52Z"/></g><path class="cls-75" d="M215.46,145.21v.16a1.87,1.87,0,0,1-.94,1.63l-28.63,16.36a.82.82,0,0,1-1.19-.49.64.64,0,0,1,0-.24,1.88,1.88,0,0,1,.94-1.6l28.64-16.54.19-.08A.82.82,0,0,1,215.46,145.21Z"/><path class="cls-76" d="M214.47,144.64v.16a1.91,1.91,0,0,1-.95,1.64l-28.63,16.34-.19.09a.64.64,0,0,1,0-.24,1.88,1.88,0,0,1,.94-1.6l28.64-16.54.19-.08A.59.59,0,0,1,214.47,144.64Z"/><path class="cls-77" d="M184.86,156.5,215.21,139a5.84,5.84,0,0,0,0-10.09L185,111.1a14.6,14.6,0,0,0-14.63-.1L139.8,128.43a5.83,5.83,0,0,0-.07,10.1l30.46,17.91A14.58,14.58,0,0,0,184.86,156.5Z"/><path class="cls-78" d="M215.06,137a3,3,0,0,1-.42.27l-32.21,18a10.19,10.19,0,0,1-9.9,0L140.6,136.67c-.15-.09-.28-.18-.42-.28a3.4,3.4,0,0,1,.41-5.72l31.94-17.32a10.23,10.23,0,0,1,9.93,0l32.18,18A3.41,3.41,0,0,1,215.06,137Z"/><path class="cls-79" d="M215.79,122.33v10.79c.06,2-.93,2.83-3,4l-28.74,16.36c-4.75,2.77-8.32,2.77-13.27-.08L142.1,136.61c-2-1.19-3-2-2.9-4.09V122s38.12-20.74,38.6-20.62Z"/><path class="cls-80" d="M218.64,116V126.2a6.25,6.25,0,0,1-3.17,5.66l-30.88,17.57a14.27,14.27,0,0,1-14.26-.08l-30.86-18a6.23,6.23,0,0,1-3.11-5.76v-10s41-22.28,41.47-22.15Z"/><path class="cls-81" d="M215.46,127v.16a1.87,1.87,0,0,1-.94,1.63l-28.63,16.36a.82.82,0,0,1-1.19-.49.61.61,0,0,1,0-.24,1.89,1.89,0,0,1,.94-1.6l28.64-16.53a.79.79,0,0,1,1.22.71Z"/><path class="cls-82" d="M214.47,126.41v.16a1.91,1.91,0,0,1-.95,1.64l-28.63,16.35-.19.08a.61.61,0,0,1,0-.24,1.89,1.89,0,0,1,.94-1.6l28.64-16.53a.82.82,0,0,1,.19-.09A.59.59,0,0,1,214.47,126.41Z"/><path class="cls-83" d="M166,142.05l.25.2a2.37,2.37,0,0,0,1.32,2.4l.08.29a1.31,1.31,0,0,0,1.83-1h0a3.26,3.26,0,0,0-1.61-2.82h0A1.29,1.29,0,0,0,166,142.05Z"/><path class="cls-84" d="M162.23,139.75h0a3.14,3.14,0,0,0,1.58,2.73h0a1,1,0,0,0,1.54-.89h0a3.16,3.16,0,0,0-1.56-2.74h0A1,1,0,0,0,162.23,139.75Z"/><path class="cls-85" d="M158.2,137.28h0a3.16,3.16,0,0,0,1.58,2.73h0a1,1,0,0,0,1.54-.89h0a3.14,3.14,0,0,0-1.56-2.73h0A1,1,0,0,0,158.2,137.28Z"/><path class="cls-86" d="M165.88,142.2h0a3.15,3.15,0,0,0,1.57,2.73h0a1,1,0,0,0,1.54-.89h0a3.16,3.16,0,0,0-1.56-2.74h0A1,1,0,0,0,165.88,142.2Z"/><path class="cls-87" d="M161.85,139.94h0a3.14,3.14,0,0,0,1.58,2.73h0a1,1,0,0,0,1.54-.89h0a3.15,3.15,0,0,0-1.56-2.74h0A1,1,0,0,0,161.85,139.94Z"/><path class="cls-88" d="M157.82,137.46v0a3.18,3.18,0,0,0,1.58,2.73h0a1,1,0,0,0,1.54-.89h0a3.15,3.15,0,0,0-1.56-2.73h0A1,1,0,0,0,157.82,137.46Z"/><path class="cls-89" d="M185,139.13l30.5-17.58a6.26,6.26,0,0,0,.06-10.83L185.16,92.8a14.89,14.89,0,0,0-14.93-.11l-30.74,17.52a6.27,6.27,0,0,0-.07,10.85l30.62,18A14.89,14.89,0,0,0,185,139.13Z"/><path class="cls-90" d="M184.86,138.56l30.35-17.49a5.84,5.84,0,0,0,0-10.09L185,93.16a14.6,14.6,0,0,0-14.63-.11L139.8,110.48a5.84,5.84,0,0,0-.07,10.11l30.46,17.91A14.6,14.6,0,0,0,184.86,138.56Z"/><path class="cls-91" d="M215.06,119.08a4.32,4.32,0,0,1-.42.27l-32.21,18a10.22,10.22,0,0,1-9.9,0L140.6,118.72a3.74,3.74,0,0,1-.42-.27,3.41,3.41,0,0,1,.41-5.73L172.53,95.4a10.23,10.23,0,0,1,9.93,0l32.18,18A3.42,3.42,0,0,1,215.06,119.08Z"/><path class="cls-92" d="M215.79,104.39v10.79c.06,2-.93,2.83-3,4l-28.74,16.35c-4.75,2.77-8.32,2.77-13.27-.07L142.1,118.67c-2-1.2-3-2-2.9-4.09V104s38.12-20.74,38.6-20.62Z"/><path class="cls-93" d="M218.64,98v10.21a6.26,6.26,0,0,1-3.17,5.67l-30.88,17.57a14.27,14.27,0,0,1-14.26-.08l-30.86-18a6.24,6.24,0,0,1-3.11-5.77v-10s41-22.28,41.47-22.15Z"/><path class="cls-94" d="M185,121.06l30.5-17.57a6.27,6.27,0,0,0,.06-10.84L185.16,74.73a14.92,14.92,0,0,0-14.93-.1L139.49,92.15a6.27,6.27,0,0,0-.07,10.85L170,121A14.87,14.87,0,0,0,185,121.06Z"/><path class="cls-95" d="M184.86,120.5,215.21,103a5.84,5.84,0,0,0,0-10.09L185,75.1A14.57,14.57,0,0,0,170.38,75L139.8,92.42a5.84,5.84,0,0,0-.07,10.11l30.46,17.9A14.58,14.58,0,0,0,184.86,120.5Z"/><path class="cls-96" d="M212.7,100.44a3.77,3.77,0,0,1-.39.26l-30.19,17.47a9.29,9.29,0,0,1-9.28,0l-30.16-17.34c-.14-.08-.26-.17-.39-.26a3.36,3.36,0,0,1,.38-5.55L172.84,77.5a9.3,9.3,0,0,1,9.31,0L212.3,94.88A3.36,3.36,0,0,1,212.7,100.44Z"/><path class="cls-97" d="M181.77,117.26l29.92-17.21a2.62,2.62,0,0,0,0-4.55L181.91,78.31a8.89,8.89,0,0,0-8.92-.06L143.23,95.64a2.55,2.55,0,0,0,0,4.4l29.59,17.18A8.9,8.9,0,0,0,181.77,117.26Z"/><path class="cls-98" d="M186.05,104.08h0a2.18,2.18,0,0,0,2.17,0h0a.71.71,0,0,0,0-1.24h0a2.2,2.2,0,0,0-2.19,0h0A.72.72,0,0,0,186.05,104.08Z"/><path class="cls-99" d="M181.21,106.84h0a2.18,2.18,0,0,0,2.17,0h0a.71.71,0,0,0,0-1.24h0a2.2,2.2,0,0,0-2.19,0h0A.71.71,0,0,0,181.21,106.84Z"/><path class="cls-100" d="M176.52,109.6h0a2.16,2.16,0,0,0,2.16,0h0a.71.71,0,0,0,0-1.24h0a2.18,2.18,0,0,0-2.18,0h0A.71.71,0,0,0,176.52,109.6Z"/><path class="cls-101" d="M181.3,101.35h0a2.18,2.18,0,0,0,2.17,0h0a.71.71,0,0,0,0-1.24h0a2.18,2.18,0,0,0-2.18,0h0A.71.71,0,0,0,181.3,101.35Z"/><path class="cls-102" d="M176.46,104.11h0a2.18,2.18,0,0,0,2.17,0h0a.71.71,0,0,0,0-1.24h0a2.2,2.2,0,0,0-2.19,0h0A.71.71,0,0,0,176.46,104.11Z"/><path class="cls-103" d="M171.77,106.87h0a2.18,2.18,0,0,0,2.17,0h0a.71.71,0,0,0,0-1.24h0a2.2,2.2,0,0,0-2.19,0h0A.71.71,0,0,0,171.77,106.87Z"/><path class="cls-104" d="M176.52,98.57h0a2.16,2.16,0,0,0,2.16,0h0a.72.72,0,0,0,0-1.25h0a2.18,2.18,0,0,0-2.18,0h0A.71.71,0,0,0,176.52,98.57Z"/><path class="cls-105" d="M171.69,101.33h0a2.18,2.18,0,0,0,2.17,0h0a.72.72,0,0,0,0-1.25h0a2.2,2.2,0,0,0-2.19,0h0A.73.73,0,0,0,171.69,101.33Z"/><path class="cls-98" d="M167,104.08h0a2.18,2.18,0,0,0,2.17,0h0a.71.71,0,0,0,0-1.24h0a2.2,2.2,0,0,0-2.19,0h0A.71.71,0,0,0,167,104.08Z"/><path class="cls-106" d="M195.46,98.6h0a2.21,2.21,0,0,0,2.17,0h0a.72.72,0,0,0,0-1.25h0a2.18,2.18,0,0,0-2.18,0h0A.72.72,0,0,0,195.46,98.6Z"/><path class="cls-101" d="M190.77,101.35h0a2.18,2.18,0,0,0,2.17,0h0a.71.71,0,0,0,0-1.24h0a2.18,2.18,0,0,0-2.18,0h0A.71.71,0,0,0,190.77,101.35Z"/><path class="cls-107" d="M190.71,95.87h0a2.19,2.19,0,0,0,2.16,0h0a.72.72,0,0,0,0-1.25h0a2.18,2.18,0,0,0-2.18,0h0A.72.72,0,0,0,190.71,95.87Z"/><path class="cls-108" d="M186,98.62h0a2.18,2.18,0,0,0,2.17,0h0a.72.72,0,0,0,0-1.25h0a2.18,2.18,0,0,0-2.18,0h0A.71.71,0,0,0,186,98.62Z"/><path class="cls-109" d="M185.93,93.08h0a2.21,2.21,0,0,0,2.17,0h0a.71.71,0,0,0,0-1.24h0a2.2,2.2,0,0,0-2.19,0h0A.71.71,0,0,0,185.93,93.08Z"/><path class="cls-110" d="M181.24,95.84h0a2.18,2.18,0,0,0,2.17,0h0a.72.72,0,0,0,0-1.25h0a2.22,2.22,0,0,0-2.19,0h0A.71.71,0,0,0,181.24,95.84Z"/><path class="cls-107" d="M171.8,95.87h0a2.19,2.19,0,0,0,2.16,0h0a.72.72,0,0,0,0-1.25h0a2.18,2.18,0,0,0-2.18,0h0A.72.72,0,0,0,171.8,95.87Z"/><path class="cls-108" d="M167,98.62h0a2.18,2.18,0,0,0,2.17,0h0a.72.72,0,0,0,0-1.25h0a2.2,2.2,0,0,0-2.19,0h0A.72.72,0,0,0,167,98.62Z"/><path class="cls-111" d="M162.27,101.38h0a2.18,2.18,0,0,0,2.17,0h0a.71.71,0,0,0,0-1.24h0a2.2,2.2,0,0,0-2.19,0h0A.71.71,0,0,0,162.27,101.38Z"/><path class="cls-109" d="M167,93.08h0a2.21,2.21,0,0,0,2.17,0h0a.71.71,0,0,0,0-1.24h0a2.2,2.2,0,0,0-2.19,0h0A.71.71,0,0,0,167,93.08Z"/><path class="cls-110" d="M162.19,95.84h0a2.18,2.18,0,0,0,2.17,0h0a.72.72,0,0,0,0-1.25h0a2.2,2.2,0,0,0-2.18,0h0A.71.71,0,0,0,162.19,95.84Z"/><path class="cls-106" d="M157.5,98.6h0a2.21,2.21,0,0,0,2.17,0h0a.72.72,0,0,0,0-1.25h0a2.2,2.2,0,0,0-2.19,0h0A.73.73,0,0,0,157.5,98.6Z"/><path class="cls-112" d="M181.21,90.38h0a2.18,2.18,0,0,0,2.17,0h0a.72.72,0,0,0,0-1.25h0a2.22,2.22,0,0,0-2.19,0h0A.71.71,0,0,0,181.21,90.38Z"/><path class="cls-113" d="M176.52,93.14h0a2.19,2.19,0,0,0,2.16,0h0a.72.72,0,0,0,0-1.25h0a2.18,2.18,0,0,0-2.18,0h0A.72.72,0,0,0,176.52,93.14Z"/><path class="cls-114" d="M176.43,87.59h0a2.18,2.18,0,0,0,2.17,0h0a.71.71,0,0,0,0-1.24h0a2.2,2.2,0,0,0-2.19,0h0A.72.72,0,0,0,176.43,87.59Z"/><path class="cls-115" d="M171.74,90.35h0a2.21,2.21,0,0,0,2.17,0h0a.71.71,0,0,0,0-1.24h0a2.2,2.2,0,0,0-2.19,0h0A.71.71,0,0,0,171.74,90.35Z"/><path class="cls-116" d="M215.46,109v.17a1.89,1.89,0,0,1-.94,1.63l-28.63,16.35a.81.81,0,0,1-1.19-.48.67.67,0,0,1,0-.24,1.86,1.86,0,0,1,.94-1.6l28.64-16.54a.77.77,0,0,1,.19-.08A.82.82,0,0,1,215.46,109Z"/><path class="cls-117" d="M214.47,108.46v.17a1.9,1.9,0,0,1-.95,1.63l-28.63,16.35-.19.09a.67.67,0,0,1,0-.24,1.86,1.86,0,0,1,.94-1.6l28.64-16.54a.77.77,0,0,1,.19-.08A.57.57,0,0,1,214.47,108.46Z"/><path class="cls-118" d="M166,124.1l.25.21a2.35,2.35,0,0,0,1.32,2.39l.08.3a1.31,1.31,0,0,0,1.83-1h0a3.29,3.29,0,0,0-1.61-2.83h0A1.3,1.3,0,0,0,166,124.1Z"/><path class="cls-119" d="M162.23,121.81h0a3.14,3.14,0,0,0,1.58,2.73h0a1,1,0,0,0,1.54-.88h0a3.15,3.15,0,0,0-1.56-2.74h0A1,1,0,0,0,162.23,121.81Z"/><path class="cls-120" d="M158.2,119.33h0a3.14,3.14,0,0,0,1.58,2.73h0a1,1,0,0,0,1.54-.89h0a3.15,3.15,0,0,0-1.56-2.74h0A1,1,0,0,0,158.2,119.33Z"/><path class="cls-121" d="M165.88,124.26h0a3.15,3.15,0,0,0,1.57,2.73h0a1,1,0,0,0,1.54-.88h0a3.15,3.15,0,0,0-1.56-2.74h0A1,1,0,0,0,165.88,124.26Z"/><path class="cls-122" d="M161.85,122h0a3.14,3.14,0,0,0,1.58,2.73h0a1,1,0,0,0,1.54-.88h0a3.15,3.15,0,0,0-1.56-2.74h0A1,1,0,0,0,161.85,122Z"/><path class="cls-123" d="M157.82,119.52h0a3.16,3.16,0,0,0,1.58,2.73h0a1,1,0,0,0,1.54-.88h0a3.17,3.17,0,0,0-1.56-2.74h0A1,1,0,0,0,157.82,119.52Z"/><g class="cls-124"><polygon class="cls-125" points="178.15 270.75 105.3 228.67 69.31 249.85 5.23 212.26 7.76 210.91 69.29 244.56 105.28 223.37 178.14 265.46 261.16 218.38 263.93 220.02 178.15 270.75"/></g><path class="cls-126" d="M250.07,268.19l-11.51-6.3-11.47-6.39c-3.82-2.14-7.72-4.13-11.42-6.47-.85-.54-2.2-1.38-1.79-2.21l.09-.17c.48-.5,1.89.23,2.69.69,3.85,2.09,7.49,4.52,11.22,6.81L239.05,261l11.12,7Z"/><path class="cls-127" d="M95.11,174.15l-.1.17-13.79-7.6-24.29-14c-1-.56-2-1.11-3-1.66a.86.86,0,0,1,0-1.49h0a.84.84,0,0,1,.88,0c1,.6,1.94,1.2,2.92,1.79l24,14.5Z"/><path class="cls-128" d="M96.29,134.63,85.17,141c6.29,3.81,25.15,14.51,31.42,18.35l-.1.17c-6.7-3.74-26-14.26-32.73-18l-.84-.48.84-.51,11.78-7.13L105.89,127c-4.61-2.67-9.22-5.33-13.8-8.06q-5.72-3.36-11.39-6.78a.91.91,0,0,1-.15-1.46h0a.91.91,0,0,1,1.07-.12q5.76,3.3,11.48,6.63c5.08,2.94,10.12,6,15.16,9l1.43.84-1.42.81Z"/><path class="cls-129" d="M94.72,255.1c3-1.94,6-3.85,9-5.77l9.08-5.7c3-1.89,6-3.92,9.13-5.61s2.72-1.12,3.59-1.2l.1.16c0,.73.32.8-2.69,2.73s-6.21,3.53-9.33,5.27l-9.39,5.19c-3.14,1.7-6.27,3.42-9.43,5.1Z"/><path class="cls-130" d="M111.19,254.52c2.27-1.51,4.56-3,6.84-4.47l6.89-4.39c2.31-1.45,4.52-3,6.94-4.3.81-.52,1.18-.28,1.49,0l.09.16c.21.29.41.86-.59,1.53-2.27,1.5-4.74,2.66-7.13,4l-7.19,3.88c-2.41,1.27-4.81,2.56-7.24,3.8Z"/><path class="cls-131" d="M248.72,171.18l9.91-6.15,10-6.06c3.33-2,6.57-4.16,10-6,1.43-.89,2.88-1.57,3.51-1l.1.17c.63,1-1.55,1.89-2.63,2.55-3.3,2.06-6.8,3.77-10.21,5.63l-10.26,5.55-10.3,5.47Z"/><path class="cls-132" d="M225.89,160.15c2.39-1.56,4.8-3.07,7.2-4.6l7.26-4.51c2.42-1.49,4.76-3.13,7.3-4.43,1.43-.6,1.77-1.08,2.83-.53l.1.17c.2.82-.92,1.45-2,2.06-2.4,1.54-5,2.74-7.5,4.09l-7.55,4c-2.53,1.3-5.05,2.63-7.6,3.92Z"/><path class="cls-133" d="M55.17,128.37a.61.61,0,0,0-.86-.79L40.1,136.09A6.72,6.72,0,0,0,37.39,139l-.34,6.63L48.91,141Z"/><path class="cls-134" d="M53.3,127.52a1.24,1.24,0,0,0-1.75-.58l-11.89,6.95a3.85,3.85,0,0,0-1.91,3.34V149.9a1.78,1.78,0,0,0,.51,1C36,149.78,2.07,127.46,1.57,127a.57.57,0,0,1-.13-.38A1.16,1.16,0,0,1,1.3,126l-.11-10.17a3.83,3.83,0,0,1,.32-1.54,3.48,3.48,0,0,1,.22-.43,3.7,3.7,0,0,1,1.38-1.37l11.37-6.44a1.19,1.19,0,0,1,.91-.14.74.74,0,0,1,.53.1c1.08.62,35.52,20,36.88,20.82A1,1,0,0,1,53.3,127.52Z"/><path class="cls-135" d="M53.4,128v12.67A3.87,3.87,0,0,1,51.49,144L39.61,151a1.22,1.22,0,0,1-1.52-.22h0a1.25,1.25,0,0,1-.33-.85V137.23a3.85,3.85,0,0,1,1.91-3.34l11.89-6.95a1.24,1.24,0,0,1,1.75.58,0,0,0,0,1,0,0A1.11,1.11,0,0,1,53.4,128Z"/><path class="cls-136" d="M45.38,132.32l-.75.44a10.6,10.6,0,0,0-5.26,9.16h0a4.25,4.25,0,0,0,6.4,3.67l.75-.43A10.63,10.63,0,0,0,51.78,136h0A4.25,4.25,0,0,0,45.38,132.32Z"/><path class="cls-137" d="M46.72,134.71a2.45,2.45,0,0,0-1.26.35l-.44.25a6.25,6.25,0,0,0-3.09,5.39,2.5,2.5,0,0,0,3.76,2.16l.44-.26a6.25,6.25,0,0,0,3.09-5.39A2.5,2.5,0,0,0,46.72,134.71Zm-.7,7.17-.35.2a2,2,0,0,1-3-1.73A5,5,0,0,1,45.13,136l.35-.2a2,2,0,0,1,3,1.73A5,5,0,0,1,46,141.88Z"/><path class="cls-138" d="M48.66,124.43a1.2,1.2,0,0,0-.84.15l-12,7A3.88,3.88,0,0,0,33.9,135v12.78c0,.34,0,.61-.12.56-9.64-5.48-33.1-21.61-33.51-22a.49.49,0,0,1-.13-.38,1.19,1.19,0,0,1-.14-.56V115.22a3.83,3.83,0,0,1,.32-1.54,2.49,2.49,0,0,1,.22-.43,3.75,3.75,0,0,1,1.37-1.37l11.89-6.95a1.22,1.22,0,0,1,.91-.13.8.8,0,0,1,.53.09Z"/><path class="cls-139" d="M55.09,127.71a.59.59,0,0,0-.78-.13l-14.21,8.5a6.75,6.75,0,0,0-2.71,3l-1.85,3.89a2,2,0,0,1-3.08.74L13,128.66l-2.78-2.15-7.51-5.8a3,3,0,0,1-1.16-2.37h0c0-2.74.38-3.46,2.8-4.89l12.39-7.24a2.22,2.22,0,0,1,2.16-.07h0l.14.06c1.61.81,35.48,20.84,35.48,20.84A1.11,1.11,0,0,1,55.09,127.71Z"/><path class="cls-140" d="M55.09,127.71a.59.59,0,0,0-.78-.13l-14.21,8.5a6.75,6.75,0,0,0-2.71,3l-1.85,3.89a2,2,0,0,1-2.62,1,2,2,0,0,0,1.88-1.17l1.84-3.89a6.81,6.81,0,0,1,2.71-3l14.75-8.81a.53.53,0,0,1,.54,0A1,1,0,0,1,55.09,127.71Z"/><path class="cls-141" d="M82,89.3a.61.61,0,0,0-.86-.8L66.94,97a6.76,6.76,0,0,0-2.7,2.95l-.34,6.64,11.86-4.67Z"/><path class="cls-142" d="M80.15,88.44a1.24,1.24,0,0,0-1.76-.57L66.51,94.81a3.87,3.87,0,0,0-1.91,3.35v12.66a1.75,1.75,0,0,0,.51,1c-2.24-1.12-36.19-23.43-36.69-23.93a.52.52,0,0,1-.13-.38,1.2,1.2,0,0,1-.14-.57L28,76.78a3.84,3.84,0,0,1,.32-1.55,4.25,4.25,0,0,1,.21-.43A3.94,3.94,0,0,1,30,73.43L41.32,67a1.24,1.24,0,0,1,.91-.13.82.82,0,0,1,.54.09c1.08.62,35.52,20,36.88,20.82A1,1,0,0,1,80.15,88.44Z"/><path class="cls-143" d="M80.25,88.94v12.67A3.89,3.89,0,0,1,78.34,105l-11.89,6.94a1.22,1.22,0,0,1-1.51-.21h0a1.19,1.19,0,0,1-.33-.85V98.16a3.87,3.87,0,0,1,1.91-3.35l11.88-6.94a1.24,1.24,0,0,1,1.76.57s0,0,0,0A1.19,1.19,0,0,1,80.25,88.94Z"/><path class="cls-144" d="M72.23,93.24l-.75.44a10.6,10.6,0,0,0-5.26,9.17h0a4.25,4.25,0,0,0,6.4,3.67l.75-.44a10.62,10.62,0,0,0,5.26-9.16h0A4.26,4.26,0,0,0,72.23,93.24Z"/><path class="cls-145" d="M73.56,95.63a2.42,2.42,0,0,0-1.25.35l-.44.26a6.23,6.23,0,0,0-3.09,5.38,2.51,2.51,0,0,0,2.51,2.51,2.44,2.44,0,0,0,1.25-.35l.44-.26a6.22,6.22,0,0,0,3.09-5.38A2.51,2.51,0,0,0,73.56,95.63Zm-.69,7.17-.35.21a2,2,0,0,1-1,.27,2,2,0,0,1-2-2A5,5,0,0,1,72,97l.35-.21a2,2,0,0,1,1-.27,2,2,0,0,1,2,2A5,5,0,0,1,72.87,102.8Z"/><path class="cls-146" d="M75.5,85.35a1.28,1.28,0,0,0-.84.15l-12,7a3.89,3.89,0,0,0-1.93,3.37v12.78c0,.35,0,.61-.13.57-9.64-5.49-33.09-21.61-33.51-22a.57.57,0,0,1-.13-.37,1.33,1.33,0,0,1-.13-.57V76.14a3.83,3.83,0,0,1,.32-1.54,3.42,3.42,0,0,1,.21-.43,3.86,3.86,0,0,1,1.38-1.37l11.88-6.94a1.2,1.2,0,0,1,.91-.14.77.77,0,0,1,.54.1Z"/><path class="cls-147" d="M81.94,88.64a.59.59,0,0,0-.79-.14L66.94,97A6.9,6.9,0,0,0,64.23,100l-1.84,3.9a2,2,0,0,1-3.09.74l-19.42-15-2.77-2.14L29.6,81.63a3,3,0,0,1-1.17-2.37h0c0-2.74.39-3.46,2.81-4.89l12.39-7.24a2.22,2.22,0,0,1,2.16-.07l0,0a.38.38,0,0,1,.13.06C47.57,67.94,81.45,88,81.45,88A1.11,1.11,0,0,1,81.94,88.64Z"/><path class="cls-148" d="M81.94,88.64a.59.59,0,0,0-.79-.14L66.94,97A6.9,6.9,0,0,0,64.23,100l-1.84,3.9a2,2,0,0,1-2.62,1,2,2,0,0,0,1.87-1.16l1.85-3.9a6.86,6.86,0,0,1,2.71-3L81,88a.55.55,0,0,1,.54,0A1.06,1.06,0,0,1,81.94,88.64Z"/><path class="cls-149" d="M130.26,242.6l0,0a3.78,3.78,0,0,0,3.74,0h0a1.24,1.24,0,0,0,0-2.15h0a3.74,3.74,0,0,0-3.77,0h0A1.23,1.23,0,0,0,130.26,242.6Z"/><path class="cls-150" d="M122.42,238.2l0,0a4,4,0,0,0,4,0h0a1.3,1.3,0,0,0,0-2.27l0,0a4,4,0,0,0-4,0h0A1.31,1.31,0,0,0,122.42,238.2Z"/><path class="cls-151" d="M138.09,247h0a3.6,3.6,0,0,0,3.55,0h0a1.18,1.18,0,0,0,0-2h0a3.56,3.56,0,0,0-3.57,0h0A1.17,1.17,0,0,0,138.09,247Z"/><path class="cls-152" d="M146,251.37l0,0a3.25,3.25,0,0,0,3.21,0h0a1.06,1.06,0,0,0,0-1.84h0a3.22,3.22,0,0,0-3.23,0h0A1.05,1.05,0,0,0,146,251.37Z"/><path class="cls-153" d="M83.47,241.14h0a3.71,3.71,0,0,1-3.69,0h0a1.22,1.22,0,0,1,0-2.11l0,0a3.74,3.74,0,0,1,3.72,0h0A1.22,1.22,0,0,1,83.47,241.14Z"/><path class="cls-154" d="M77.38,244.25h0a3.25,3.25,0,0,1-3.21,0h0a1.06,1.06,0,0,1,0-1.84l0,0a3.24,3.24,0,0,1,3.23,0h0A1.05,1.05,0,0,1,77.38,244.25Z"/><path class="cls-155" d="M89.47,237.69l0,0a4,4,0,0,1-4,0h0a1.31,1.31,0,0,1,0-2.27l0,0a4,4,0,0,1,4,0h0A1.3,1.3,0,0,1,89.47,237.69Z"/><path class="cls-156" d="M218,243.14h0a3.13,3.13,0,0,1,3.12,0h0a1,1,0,0,1,0,1.79h0a3.14,3.14,0,0,1-3.14,0h0A1,1,0,0,1,218,243.14Z"/><path class="cls-157" d="M208,249l0,0a3.2,3.2,0,0,1,3.13,0h0a1,1,0,0,1,0,1.79l0,0a3.16,3.16,0,0,1-3.15,0h0A1,1,0,0,1,208,249Z"/><path class="cls-158" d="M223.17,240.51h0a2.71,2.71,0,0,1,2.71,0h0a.9.9,0,0,1,0,1.56h0a2.72,2.72,0,0,1-2.73,0h0A.89.89,0,0,1,223.17,240.51Z"/><path class="cls-159" d="M212.94,246.06l0,0a3.37,3.37,0,0,1,3.35,0h0a1.1,1.1,0,0,1,0,1.92l0,0a3.37,3.37,0,0,1-3.38,0h0A1.1,1.1,0,0,1,212.94,246.06Z"/><path class="cls-160" d="M278.55,151.83l0,0a3.66,3.66,0,0,1,3.61,0h0a1.19,1.19,0,0,1,0,2.07l0,0a3.65,3.65,0,0,1-3.63,0h0A1.18,1.18,0,0,1,278.55,151.83Z"/><path class="cls-161" d="M247,145.83h0a3.46,3.46,0,0,1,3.44,0h0a1.13,1.13,0,0,1,0,2h0a3.47,3.47,0,0,1-3.47,0h0A1.14,1.14,0,0,1,247,145.83Z"/><path class="cls-162" d="M79.71,110.43l0,0a3.74,3.74,0,0,1,3.68,0h0a1.22,1.22,0,0,1,0,2.11l0,0a3.72,3.72,0,0,1-3.71,0h0A1.22,1.22,0,0,1,79.71,110.43Z"/><path class="cls-163" d="M52.61,149.33l0,0a3.53,3.53,0,0,1,3.5,0h0a1.16,1.16,0,0,1,0,2h0a3.53,3.53,0,0,1-3.53,0h0A1.15,1.15,0,0,1,52.61,149.33Z"/><path class="cls-164" d="M124.94,145.41v0l.11,51.64-1.06.73-.78-52.37a.87.87,0,0,1,1.73,0Z"/><circle class="cls-165" cx="124.26" cy="146.19" r="4.6"/><path class="cls-166" d="M132.84,126.3h0l.09,68-1.4.85-.41-68.88a.86.86,0,1,1,1.72,0Z"/><circle class="cls-167" cx="131.98" cy="127.07" r="3.87"/><circle class="cls-168" cx="131.22" cy="214.76" r="5.27"/><circle class="cls-169" cx="112.26" cy="165.58" r="5.27"/><circle class="cls-170" cx="142.48" cy="199.95" r="2.34"/><circle class="cls-171" cx="230.48" cy="172.69" r="3.4"/><circle class="cls-172" cx="237" cy="162.02" r="2.27"/><circle class="cls-173" cx="212.7" cy="213.87" r="1.48"/><circle class="cls-174" cx="202.21" cy="176.16" r="2.52"/><circle class="cls-175" cx="142.58" cy="157.25" r="2.45"/><circle class="cls-176" cx="186.03" cy="227.8" r="4.22"/><circle class="cls-177" cx="211.19" cy="199.72" r="4.22"/><circle class="cls-178" cx="107.09" cy="178.5" r="3.16"/><path class="cls-179" d="M222,159.31l-.29,35.46-1-.67-.37-34.22c0-.48.38-4.87.86-4.87S221.92,158,222,159.31Z"/><path class="cls-180" d="M222.07,155.88v4c0-.08,0-.28,0-.55Z"/><circle class="cls-181" cx="221.2" cy="156.64" r="4.6"/><path class="cls-182" d="M229.22,118.9h0l-.51,79.37-.91-.91-.3-78.46a.86.86,0,1,1,1.72,0Z"/><circle class="cls-183" cx="228.36" cy="119.67" r="3.87"/><path class="cls-184" d="M195,169.34h0L194.49,220l-.91.56-.3-51.23a.86.86,0,1,1,1.72,0Z"/><circle class="cls-185" cx="194.14" cy="170.12" r="3.87"/><path class="cls-186" d="M154,175.74h0l-.4,40.05-.72-.5-.24-39.55a.67.67,0,0,1,.67-.69A.68.68,0,0,1,154,175.74Z"/><circle class="cls-187" cx="153.28" cy="176.35" r="3.06"/><path class="cls-188" d="M161.93,171.14h0l-.4,49.43-.72-.5-.24-48.93a.68.68,0,0,1,.68-.69A.67.67,0,0,1,161.93,171.14Z"/><circle class="cls-189" cx="161.25" cy="171.76" r="3.95"/><path class="cls-190" d="M193.58,92v4a2.46,2.46,0,0,1-1.25,2.22l-12.07,6.87a5.57,5.57,0,0,1-5.57,0l-12.07-7a2.48,2.48,0,0,1-1.22-2.26V91.89s16-8.72,16.22-8.67Z"/><path class="cls-191" d="M180.43,101l11.93-6.87a2.46,2.46,0,0,0,0-4.24l-11.89-7a5.83,5.83,0,0,0-5.84-.05l-12,6.85a2.46,2.46,0,0,0,0,4.25l12,7A5.83,5.83,0,0,0,180.43,101Z"/><path class="cls-192" d="M180.3,100.58l11.55-6.65a2.22,2.22,0,0,0,0-3.84L180.35,83.3a5.57,5.57,0,0,0-5.57,0L163.14,89.9a2.22,2.22,0,0,0,0,3.84l11.59,6.82A5.56,5.56,0,0,0,180.3,100.58Z"/><path class="cls-193" d="M180.85,70.8V91.34a.51.51,0,0,1-.26.46l-2.52,1.44a1.17,1.17,0,0,1-1.16,0l-2.52-1.47a.52.52,0,0,1-.26-.47V70.76s3.34-1.81,3.39-1.8Z"/><path class="cls-194" d="M223.33,45.27v56.66a2,2,0,0,1-1.43,1.93,4,4,0,0,1-.43.27c-1.33.72-4.65,2.79-5.59,3.15a0,0,0,0,1,0,0,2,2,0,0,1-2.11,0L145.89,68.12a6.66,6.66,0,0,1-3.33-5.77V5.68a2,2,0,0,1,1.24-1.86h0c1.45-1.17,5.26-3.48,6.46-3.72a1.9,1.9,0,0,1,.46,0h0a2,2,0,0,1,1.39.23L220,39.49A6.68,6.68,0,0,1,223.33,45.27Z"/><path class="cls-195" d="M213.76,107.34,145.89,68.12a6.68,6.68,0,0,1-3.34-5.78V5.68a2,2,0,0,1,3-1.74l67.87,39.22a6.65,6.65,0,0,1,3.34,5.77V105.6A2,2,0,0,1,213.76,107.34Z"/><path class="cls-196" d="M217.81,105.41a2,2,0,0,1-.34,1,16.35,16.35,0,0,1-1.58.83,2,2,0,0,0,.89-1.68V48.93a6.66,6.66,0,0,0-3.33-5.77L145.57,3.94a2,2,0,0,0-1.76-.13,17.32,17.32,0,0,1,1.52-1.09h0a2.13,2.13,0,0,1,1.23.22l67.88,39.22a6.66,6.66,0,0,1,3.33,5.77Z"/><path class="cls-197" d="M213.22,49.34v52.47a.66.66,0,0,1-1,.58L148.05,65.31a3.9,3.9,0,0,1-1.94-3.37V9.47a.67.67,0,0,1,1-.58l.89.51L211.28,46A3.9,3.9,0,0,1,213.22,49.34Z"/><path class="cls-198" d="M213.22,49.34v51.54L149.94,64.31A3.9,3.9,0,0,1,148,60.94V9.4L211.28,46A3.9,3.9,0,0,1,213.22,49.34Z"/><path class="cls-199" d="M175.93,76.36,154.43,64a3.52,3.52,0,0,1-1.76-3.05V42.29a1,1,0,0,1,1.54-.89l21.5,12.4a3.53,3.53,0,0,1,1.77,3.05V75.47A1,1,0,0,1,175.93,76.36Z"/><path class="cls-200" d="M207.9,95,182.19,80a3.52,3.52,0,0,1-1.76-3V58.34a1,1,0,0,1,1.55-.89l25.71,15a3.53,3.53,0,0,1,1.75,3V94.08A1,1,0,0,1,207.9,95Z"/><path class="cls-201" d="M175.93,50.79l-21.5-12.4a3.54,3.54,0,0,1-1.76-3.06V16.72a1,1,0,0,1,1.54-.89l21.5,12.4a3.52,3.52,0,0,1,1.77,3.05V49.89A1,1,0,0,1,175.93,50.79Z"/><path class="cls-202" d="M207.9,69.39l-25.71-15a3.52,3.52,0,0,1-1.76-3V32.77a1,1,0,0,1,1.55-.89l25.71,15a3.51,3.51,0,0,1,1.75,3V68.5A1,1,0,0,1,207.9,69.39Z"/><path class="cls-203" d="M159.42,51.43,155,48.9a.71.71,0,0,1-.36-.62V44.47a.21.21,0,0,1,.31-.18l4.4,2.53a.73.73,0,0,1,.36.63v3.8A.21.21,0,0,1,159.42,51.43Z"/><path class="cls-204" d="M187.67,67.48l-4.9-2.85a.67.67,0,0,1-.34-.58V60.51a.2.2,0,0,1,.3-.17l4.9,2.85a.68.68,0,0,1,.33.58v3.54A.19.19,0,0,1,187.67,67.48Z"/><path class="cls-205" d="M159.39,25.81,155,23.28a.73.73,0,0,1-.36-.63v-3.8a.21.21,0,0,1,.32-.18l4.39,2.53a.73.73,0,0,1,.36.62v3.81A.21.21,0,0,1,159.39,25.81Z"/><path class="cls-206" d="M187.67,41.91l-4.9-2.85a.67.67,0,0,1-.34-.58V34.93a.2.2,0,0,1,.3-.17l4.9,2.85a.69.69,0,0,1,.33.58v3.55A.19.19,0,0,1,187.67,41.91Z"/></g></g></g></svg>