<svg xmlns="http://www.w3.org/2000/svg" xmlns:xlink="http://www.w3.org/1999/xlink" viewBox="0 0 227.2 206.57"><defs><style>.cls-1{fill:url(#linear-gradient);}.cls-2{fill:url(#linear-gradient-2);}.cls-3{fill:url(#linear-gradient-3);}.cls-4,.cls-40{opacity:0.7;}.cls-4{fill:url(#linear-gradient-4);}.cls-5{fill:url(#linear-gradient-5);}.cls-6{fill:url(#linear-gradient-6);}.cls-7{fill:url(#linear-gradient-7);}.cls-8{fill:url(#linear-gradient-8);}.cls-9{fill:url(#linear-gradient-9);}.cls-10{fill:url(#linear-gradient-10);}.cls-11{fill:url(#linear-gradient-11);}.cls-12{opacity:0.1;fill:url(#linear-gradient-12);}.cls-13{fill:url(#linear-gradient-13);}.cls-14{fill:url(#linear-gradient-14);}.cls-15{fill:url(#linear-gradient-15);}.cls-16{fill:url(#linear-gradient-16);}.cls-17{fill:url(#linear-gradient-17);}.cls-18{fill:url(#linear-gradient-18);}.cls-19{fill:url(#linear-gradient-19);}.cls-20{fill:url(#linear-gradient-20);}.cls-21{fill:url(#linear-gradient-21);}.cls-22{fill:url(#linear-gradient-22);}.cls-23{fill:url(#linear-gradient-23);}.cls-24{fill:url(#linear-gradient-24);}.cls-25{fill:url(#linear-gradient-25);}.cls-26{fill:url(#linear-gradient-26);}.cls-27{fill:url(#linear-gradient-27);}.cls-28{fill:url(#linear-gradient-28);}.cls-29{fill:#e2e2e2;}.cls-30,.cls-32{fill:#010101;}.cls-31{fill:#fff;}.cls-32{stroke:#010101;stroke-miterlimit:10;stroke-width:0.5px;}.cls-33{fill:url(#linear-gradient-29);}.cls-34{fill:url(#linear-gradient-30);}.cls-35{fill:url(#linear-gradient-31);}.cls-36{fill:url(#linear-gradient-32);}.cls-37{fill:url(#linear-gradient-33);}.cls-38{fill:url(#linear-gradient-34);}.cls-39,.cls-43{opacity:0.4;}.cls-39{fill:url(#linear-gradient-35);}.cls-40{fill:url(#linear-gradient-36);}.cls-41,.cls-42{opacity:0.2;}.cls-41{fill:url(#linear-gradient-37);}.cls-42{fill:url(#linear-gradient-38);}.cls-43{fill:url(#linear-gradient-39);}.cls-44{fill:url(#linear-gradient-40);}.cls-45{fill:url(#linear-gradient-41);}.cls-46{fill:url(#linear-gradient-42);}.cls-47{fill:url(#linear-gradient-43);}.cls-48{fill:url(#linear-gradient-44);}.cls-49{fill:url(#linear-gradient-45);}.cls-50{fill:url(#linear-gradient-46);}.cls-51{fill:url(#linear-gradient-47);}</style><linearGradient id="linear-gradient" x1="-349.09" y1="1080.37" x2="-352.32" y2="1086.32" gradientTransform="translate(1064.17 -463.33) rotate(45)" gradientUnits="userSpaceOnUse"><stop offset="0" stop-color="#535967"/><stop offset="1" stop-color="#40454d"/></linearGradient><linearGradient id="linear-gradient-2" x1="129.3" y1="55.57" x2="123.85" y2="65.63" gradientTransform="matrix(1, 0, 0, 1, 0, 0)" xlink:href="#linear-gradient"/><linearGradient id="linear-gradient-3" x1="186.39" y1="114.67" x2="190.84" y2="114.67" gradientTransform="translate(-25.84 166.96) rotate(-45)" xlink:href="#linear-gradient"/><linearGradient id="linear-gradient-4" x1="72.13" y1="90.28" x2="78.13" y2="90.28" gradientUnits="userSpaceOnUse"><stop offset="0" stop-color="#f9a033"/><stop offset="1" stop-color="#f47a20"/></linearGradient><linearGradient id="linear-gradient-5" x1="44.41" y1="153.51" x2="44.41" y2="96.61" gradientUnits="userSpaceOnUse"><stop offset="0" stop-color="#f3f6fb" stop-opacity="0.1"/><stop offset="1" stop-color="#d6d6d8"/></linearGradient><linearGradient id="linear-gradient-6" x1="44.39" y1="103.67" x2="44.42" y2="95.86" gradientUnits="userSpaceOnUse"><stop offset="0" stop-color="#f3f6fb"/><stop offset="1" stop-color="#d6d6d8"/></linearGradient><linearGradient id="linear-gradient-7" x1="166.87" y1="121.98" x2="166.87" y2="86.18" gradientUnits="userSpaceOnUse"><stop offset="0" stop-color="#535967" stop-opacity="0"/><stop offset="0.27" stop-color="#525866" stop-opacity="0.04"/><stop offset="0.48" stop-color="#505663" stop-opacity="0.17"/><stop offset="0.68" stop-color="#4c515d" stop-opacity="0.39"/><stop offset="0.86" stop-color="#464b55" stop-opacity="0.69"/><stop offset="1" stop-color="#40454d"/></linearGradient><linearGradient id="linear-gradient-8" x1="166.85" y1="93.38" x2="166.88" y2="84.66" gradientTransform="matrix(1, 0, 0, 1, 0, 0)" xlink:href="#linear-gradient"/><linearGradient id="linear-gradient-9" x1="92.33" y1="195.25" x2="109" y2="173.03" xlink:href="#linear-gradient-4"/><linearGradient id="linear-gradient-10" x1="98.7" y1="183.48" x2="121.59" y2="145.26" gradientUnits="userSpaceOnUse"><stop offset="0" stop-color="#faa434"/><stop offset="1" stop-color="#f6871f"/></linearGradient><linearGradient id="linear-gradient-11" x1="84.03" y1="171.16" x2="173.14" y2="118.3" gradientUnits="userSpaceOnUse"><stop offset="0" stop-color="#d6d6d8"/><stop offset="1" stop-color="#b2b3b5"/></linearGradient><linearGradient id="linear-gradient-12" x1="-0.37" y1="151.9" x2="179.02" y2="151.9" gradientUnits="userSpaceOnUse"><stop offset="0" stop-color="#888385"/><stop offset="1" stop-color="#40454d"/></linearGradient><linearGradient id="linear-gradient-13" x1="58.31" y1="142.71" x2="177.85" y2="142.71" xlink:href="#linear-gradient-6"/><linearGradient id="linear-gradient-14" x1="92.33" y1="167.06" x2="109" y2="144.84" xlink:href="#linear-gradient-4"/><linearGradient id="linear-gradient-15" x1="93.53" y1="127.58" x2="221.25" y2="103.89" xlink:href="#linear-gradient-10"/><linearGradient id="linear-gradient-16" x1="84.03" y1="142.98" x2="173.14" y2="90.11" gradientUnits="userSpaceOnUse"><stop offset="0" stop-color="#f9a033"/><stop offset="0.94" stop-color="#f47a20"/></linearGradient><linearGradient id="linear-gradient-17" x1="6.53" y1="122.95" x2="175.19" y2="122.95" gradientUnits="userSpaceOnUse"><stop offset="0" stop-color="#f47a20"/><stop offset="1" stop-color="#f26322"/></linearGradient><linearGradient id="linear-gradient-18" x1="63.53" y1="123.42" x2="174.05" y2="122.24" gradientTransform="matrix(1, 0, 0, 1, 0, 0)" xlink:href="#linear-gradient"/><linearGradient id="linear-gradient-19" x1="154.31" y1="183.59" x2="152.09" y2="179.81" gradientTransform="matrix(1, 0, 0, 1, 0, 0)" xlink:href="#linear-gradient"/><linearGradient id="linear-gradient-20" x1="154.22" y1="183.9" x2="148.3" y2="175.31" gradientUnits="userSpaceOnUse"><stop offset="0" stop-color="#383d44"/><stop offset="1" stop-color="#24282f"/></linearGradient><linearGradient id="linear-gradient-21" x1="154.31" y1="155.74" x2="152.09" y2="151.96" gradientTransform="matrix(1, 0, 0, 1, 0, 0)" xlink:href="#linear-gradient"/><linearGradient id="linear-gradient-22" x1="154.22" y1="156.05" x2="148.3" y2="147.45" xlink:href="#linear-gradient-20"/><linearGradient id="linear-gradient-23" x1="99.58" y1="160.71" x2="104.14" y2="167.2" xlink:href="#linear-gradient-4"/><linearGradient id="linear-gradient-24" x1="94.26" y1="161.81" x2="99.14" y2="161.81" xlink:href="#linear-gradient-4"/><linearGradient id="linear-gradient-25" x1="87.98" y1="157.94" x2="92.86" y2="157.94" xlink:href="#linear-gradient-4"/><linearGradient id="linear-gradient-26" x1="103.65" y1="163.99" x2="100.81" y2="167.71" xlink:href="#linear-gradient-6"/><linearGradient id="linear-gradient-27" x1="93.68" y1="162.1" x2="98.55" y2="162.1" xlink:href="#linear-gradient-6"/><linearGradient id="linear-gradient-28" x1="87.39" y1="158.23" x2="92.27" y2="158.23" xlink:href="#linear-gradient-6"/><linearGradient id="linear-gradient-29" x1="212.45" y1="141.44" x2="212.45" y2="27.01" gradientUnits="userSpaceOnUse"><stop offset="0" stop-color="#f9a033" stop-opacity="0"/><stop offset="0.1" stop-color="#f99d31" stop-opacity="0.18"/><stop offset="0.23" stop-color="#f8992f" stop-opacity="0.39"/><stop offset="0.36" stop-color="#f8952d" stop-opacity="0.58"/><stop offset="0.49" stop-color="#f8922b" stop-opacity="0.73"/><stop offset="0.62" stop-color="#f7902a" stop-opacity="0.85"/><stop offset="0.75" stop-color="#f78e29" stop-opacity="0.93"/><stop offset="0.88" stop-color="#f78d28" stop-opacity="0.98"/><stop offset="1" stop-color="#f78d28"/></linearGradient><linearGradient id="linear-gradient-30" x1="212.39" y1="43.94" x2="212.47" y2="23.42" xlink:href="#linear-gradient-4"/><linearGradient id="linear-gradient-31" x1="222.21" y1="150.24" x2="222.21" y2="2.83" xlink:href="#linear-gradient-29"/><linearGradient id="linear-gradient-32" x1="222.16" y1="17.39" x2="222.23" y2="0.15" xlink:href="#linear-gradient-4"/><linearGradient id="linear-gradient-33" x1="191.27" y1="93.3" x2="191.37" y2="69.79" xlink:href="#linear-gradient-4"/><linearGradient id="linear-gradient-34" x1="208.61" y1="113" x2="208.71" y2="89.49" xlink:href="#linear-gradient-4"/><linearGradient id="linear-gradient-35" x1="206.65" y1="131.86" x2="206.69" y2="121.42" xlink:href="#linear-gradient-4"/><linearGradient id="linear-gradient-36" x1="222.86" y1="128.38" x2="222.92" y2="113.24" xlink:href="#linear-gradient-4"/><linearGradient id="linear-gradient-37" x1="204.29" y1="151.58" x2="204.33" y2="141.44" xlink:href="#linear-gradient-4"/><linearGradient id="linear-gradient-38" x1="4107.98" y1="2084.66" x2="4108" y2="2078.05" gradientTransform="translate(4566.1 961.75) rotate(163.22)" xlink:href="#linear-gradient-4"/><linearGradient id="linear-gradient-39" x1="4114.73" y1="2101.5" x2="4114.77" y2="2090.26" gradientTransform="translate(4566.1 961.75) rotate(163.22)" xlink:href="#linear-gradient-4"/><linearGradient id="linear-gradient-40" x1="55.3" y1="94.71" x2="55.35" y2="83.77" xlink:href="#linear-gradient-4"/><linearGradient id="linear-gradient-41" x1="45.28" y1="91.15" x2="45.35" y2="72.34" xlink:href="#linear-gradient-4"/><linearGradient id="linear-gradient-42" x1="5.28" y1="115.52" x2="5.35" y2="96.71" xlink:href="#linear-gradient-4"/><linearGradient id="linear-gradient-43" x1="183.74" y1="98.91" x2="183.8" y2="84.83" xlink:href="#linear-gradient-4"/><linearGradient id="linear-gradient-44" x1="14.89" y1="147.17" x2="14.89" y2="62.95" xlink:href="#linear-gradient-29"/><linearGradient id="linear-gradient-45" x1="14.82" y1="79.89" x2="14.91" y2="59.37" xlink:href="#linear-gradient-4"/><linearGradient id="linear-gradient-46" x1="26.73" y1="156.26" x2="26.73" y2="39.07" xlink:href="#linear-gradient-29"/><linearGradient id="linear-gradient-47" x1="26.67" y1="53.63" x2="26.75" y2="36.39" xlink:href="#linear-gradient-4"/></defs><title>meet-ella_machine-learning</title><g id="Layer_2" data-name="Layer 2"><g id="Layer_1-2" data-name="Layer 1"><path class="cls-1" d="M50.14,58.25l-3.53-3.53,3.53-3.53,3.53,3.53Zm-1.58-3.53,1.58,1.58,1.58-1.58-1.58-1.58Z"/><path class="cls-2" d="M126.58,66.32a5.72,5.72,0,1,1,5.72-5.72A5.73,5.73,0,0,1,126.58,66.32Zm0-10.44a4.72,4.72,0,1,0,4.72,4.72A4.73,4.73,0,0,0,126.58,55.88Z"/><rect class="cls-3" x="187.04" y="113.1" width="3.14" height="3.14" transform="translate(136.33 -99.78) rotate(45)"/><circle class="cls-4" cx="75.13" cy="90.28" r="3"/><path class="cls-5" d="M44.87,97.35l-.46,55.74L44,97.35c0-.4.2-.74.45-.74s.45.33.46.73Z"/><circle class="cls-6" cx="44.41" cy="98.01" r="2.22"/><path class="cls-7" d="M167.34,86.65l-.47,35.06-.46-35.06a.46.46,0,0,1,.46-.47.48.48,0,0,1,.47.46Z"/><circle class="cls-8" cx="166.87" cy="87.06" r="2.47"/><path class="cls-9" d="M182.29,151.45v15.94a9.76,9.76,0,0,1-5,8.84l-48.18,27.42a22.27,22.27,0,0,1-22.25-.13L58.74,175.39a9.75,9.75,0,0,1-4.86-9V150.85s63.91-34.77,64.71-34.57Z"/><path class="cls-10" d="M129.81,187.38,177.41,160a9.78,9.78,0,0,0,.08-16.91l-47.44-28a23.24,23.24,0,0,0-23.29-.17l-48,27.34a9.78,9.78,0,0,0-.11,16.93l47.77,28.09A23.23,23.23,0,0,0,129.81,187.38Z"/><path class="cls-11" d="M129.58,186.5l47.35-27.29a9.11,9.11,0,0,0,.08-15.74l-47.2-27.81a22.73,22.73,0,0,0-22.82-.17l-47.72,27.2a9.11,9.11,0,0,0-.11,15.77l47.53,27.94A22.76,22.76,0,0,0,129.58,186.5Z"/><path class="cls-12" d="M176.7,156.1a5.19,5.19,0,0,1-.65.42l-50.26,28.14a16,16,0,0,1-15.45,0L60.52,155.54c-.23-.13-.44-.27-.66-.42a5.31,5.31,0,0,1,.64-8.94l49.84-27a16,16,0,0,1,15.5,0l50.2,28A5.32,5.32,0,0,1,176.7,156.1Z"/><path class="cls-13" d="M177.85,133.17V150c.09,3.19-1.45,4.42-4.62,6.23l-44.84,25.52c-7.41,4.32-13,4.32-20.71-.12L62.85,155.46c-3.18-1.86-4.69-3.16-4.52-6.38V132.61s59.48-32.36,60.23-32.17Z"/><path class="cls-14" d="M182.29,123.26v16a9.76,9.76,0,0,1-5,8.84l-48.18,27.42a22.27,22.27,0,0,1-22.25-.13L58.74,147.21a9.75,9.75,0,0,1-4.86-9V122.66s63.91-34.77,64.71-34.57Z"/><path class="cls-15" d="M129.81,159.2l47.6-27.43a9.78,9.78,0,0,0,.08-16.9l-47.44-28a23.22,23.22,0,0,0-23.29-.17l-48,27.34A9.78,9.78,0,0,0,58.68,131l47.77,28.08A23.21,23.21,0,0,0,129.81,159.2Z"/><path class="cls-16" d="M129.58,158.31,176.93,131a9.12,9.12,0,0,0,.08-15.75l-47.2-27.81A22.78,22.78,0,0,0,107,87.3L59.27,114.5a9.11,9.11,0,0,0-.11,15.77l47.53,27.94A22.74,22.74,0,0,0,129.58,158.31Z"/><path class="cls-17" d="M173,127a5.41,5.41,0,0,1-.61.41l-47.1,27.26a14.51,14.51,0,0,1-14.48,0L63.77,127.64a6.65,6.65,0,0,1-.62-.41,5.24,5.24,0,0,1,.6-8.66l47.08-27.35a14.51,14.51,0,0,1,14.52,0l47.05,27.14A5.25,5.25,0,0,1,173,127Z"/><path class="cls-18" d="M124.76,153.26l46.69-26.85a4.1,4.1,0,0,0,0-7.11L125,92.49a13.86,13.86,0,0,0-13.91-.1L64.62,119.53a4,4,0,0,0,0,6.87l46.18,26.8A13.89,13.89,0,0,0,124.76,153.26Z"/><path class="cls-19" d="M177.33,168.28v.26a2.91,2.91,0,0,1-1.48,2.54L131.18,196.6a1.28,1.28,0,0,1-1.86-.76,1.1,1.1,0,0,1-.06-.37,2.94,2.94,0,0,1,1.47-2.5l44.69-25.8a1.3,1.3,0,0,1,.3-.13A1.28,1.28,0,0,1,177.33,168.28Z"/><path class="cls-20" d="M175.78,167.39v.26a3,3,0,0,1-1.48,2.55l-44.68,25.51a1.3,1.3,0,0,1-.3.13,1.1,1.1,0,0,1-.06-.37,2.94,2.94,0,0,1,1.47-2.5l44.69-25.8a1.3,1.3,0,0,1,.3-.13A1,1,0,0,1,175.78,167.39Z"/><path class="cls-21" d="M177.33,140.43v.26a2.91,2.91,0,0,1-1.48,2.54l-44.67,25.52a1.28,1.28,0,0,1-1.86-.76,1.1,1.1,0,0,1-.06-.37,2.94,2.94,0,0,1,1.47-2.5l44.69-25.8a1.3,1.3,0,0,1,.3-.13A1.28,1.28,0,0,1,177.33,140.43Z"/><path class="cls-22" d="M175.78,139.54v.26a3,3,0,0,1-1.48,2.55l-44.68,25.51a1.3,1.3,0,0,1-.3.13,1.1,1.1,0,0,1-.06-.37,2.94,2.94,0,0,1,1.47-2.5l44.69-25.8a1.3,1.3,0,0,1,.3-.13A1,1,0,0,1,175.78,139.54Z"/><path class="cls-23" d="M100.07,163.94l.39.32a3.68,3.68,0,0,0,2.06,3.74l.13.46a2,2,0,0,0,2.85-1.62h0a5.06,5.06,0,0,0-2.52-4.41l0,0A2,2,0,0,0,100.07,163.94Z"/><path class="cls-24" d="M94.26,160.36v0a4.91,4.91,0,0,0,2.47,4.26h0a1.61,1.61,0,0,0,2.41-1.38h0A4.91,4.91,0,0,0,96.7,159l0,0A1.61,1.61,0,0,0,94.26,160.36Z"/><path class="cls-25" d="M88,156.49v0a4.91,4.91,0,0,0,2.46,4.26h0a1.6,1.6,0,0,0,2.4-1.38h0a4.92,4.92,0,0,0-2.43-4.28h0A1.6,1.6,0,0,0,88,156.49Z"/><path class="cls-26" d="M100,164.18v0a4.92,4.92,0,0,0,2.46,4.26h0a1.6,1.6,0,0,0,2.4-1.38h0a4.93,4.93,0,0,0-2.43-4.27h0A1.6,1.6,0,0,0,100,164.18Z"/><path class="cls-27" d="M93.68,160.65v0a4.9,4.9,0,0,0,2.46,4.26h0a1.61,1.61,0,0,0,2.4-1.39h0a4.92,4.92,0,0,0-2.44-4.27h0A1.6,1.6,0,0,0,93.68,160.65Z"/><path class="cls-28" d="M87.39,156.79v0a4.92,4.92,0,0,0,2.47,4.26h0a1.61,1.61,0,0,0,2.41-1.38h0a4.91,4.91,0,0,0-2.44-4.27l0,0A1.61,1.61,0,0,0,87.39,156.79Z"/><path class="cls-29" d="M96.88,103c-.54,1.57-2.54,4.12-7.53,4.36a6.67,6.67,0,0,0-6.26,5.07c-.62,2.65-.15,6.33,3.42,11.07.21.29.74,1.07.93,1.37,1,1.51,4.62,6.43,11.25,3.19a7.14,7.14,0,0,0,3.45-4.4c.53-2.91.16-8-2.38-14.76L97.7,103C97.35,102.25,97.15,102.21,96.88,103Z"/><path class="cls-29" d="M138,101c1.09,2.9,2.45,6.06,7.84,6.25a5.33,5.33,0,0,1,4.54,2.66c1.18,2.1,1.84,5.34-.15,9.61,0,0-3.78,10-12.23,9.63a6.58,6.58,0,0,1-5.88-4.37c-1.11-3.07-2.31-7.14,1.77-14.46.09-.16.95-2.43,1-2.6l.63-1.66C136.87,102.25,137.44,99.34,138,101Z"/><path class="cls-29" d="M140.76,71.47a7.26,7.26,0,0,0-1.3-2.24c-.8-1.1-4-1.88-5.69-2-2.61-.19-16,11.83-28.19,2.3a9.14,9.14,0,0,0-10.4-.23l-.07,0s-7.12,5.5-2.56,20.3a21,21,0,0,0,.79,2.13c1.77,4.12,7.4,17.94,7.79,21.33a11.46,11.46,0,0,0,.23,1.28c.49,2.07,1.55,7.59,0,11.9a4.69,4.69,0,0,1-.34.67c-.88,1.45-4.27,8.08,7.37,7.56h.08c.45,0,4.72,0,7.45-1.1a3,3,0,0,1,2.22-.09c2.23.8,7.24,2.2,11.84.65a5.62,5.62,0,0,0,3.74-6.44,12.41,12.41,0,0,0-.62-2,1.73,1.73,0,0,0-.16-.3c-.53-.77-3.17-6,4.81-25.51a4,4,0,0,1,.22-.47C138.91,97.45,146.2,84,140.76,71.47ZM117,133.24l.29-20.12S118.17,128.16,117,133.24Z"/><path class="cls-29" d="M135.21,10.34c-6.67,2.68-7.39,6.08-7.54,6.63a.08.08,0,0,1-.12.06c-7.37-3.09-20-.59-21.18-.34-.05,0-.09,0-.1-.08-.08-.63-.92-4.21-9.21-3.33-.56.06-1.94.06-2.23.05a16.89,16.89,0,0,1-10.11-4s-9-8-17.68,2.39h0s-18,18.46-5.93,41.53a23.38,23.38,0,0,0,5,6.49c3.9,3.54,11.23,10.6,12.31,14.63,0,0,2.39,9.9,7.17,3.74A17,17,0,0,1,87,76.57c5-5.12,6.62-16,7-19.3h.2a10.81,10.81,0,0,0,1.51,2.92,7.55,7.55,0,0,0,1.67,1.76l.14.11a4.94,4.94,0,0,1,1.86,3.13c1,6.5,6.25,10.85,7.26,11.65a.47.47,0,0,1,.19.34,18.49,18.49,0,0,0,2,5.68h0c1.4,3.58.7,11,.45,13.17a5.28,5.28,0,0,1-.31,1.23c-5.26,13.57-3.83,19-3.83,19h0c2.58,16.58,16,12.9,16,12.9,6.81-1.48,4.06-5.89,4.06-5.9h0c-1.78-4.27-3.74-2.18-3.87-2h0c-4,2.39-5.89,0-5.89,0-8.84-8.47,2.94-22.46,3-22.47h0c5.89-8.75,8.15-20.77,8.28-21.52a.09.09,0,0,1,0-.06c5.68-3.68,6-6.77,6-6.77.53-3.88,2.09-5.27,2.21-5.37h0a30.26,30.26,0,0,0,3.89-7.42.3.3,0,0,1,.59.08c.62,8.9,4.85,16.64,6.48,19.26a6.92,6.92,0,0,0,1.74,2c4.29,3.21,5.71-2.61,5.72-2.62h0a29.82,29.82,0,0,1,9.21-12.53c8.84-6.82,11.42-13.63,11.42-13.63,4.8-11.17,2.39-21.14-1.22-28.3h0c-1.4-2.05-2.5-4.33-4.26-6.16A23.37,23.37,0,0,0,162.25,11a11.2,11.2,0,0,0-3.5-1.07h-.17c-4.6.27-9.13,1-13.75.47-1.18-.15-2.42-.37-3.68-.58A13.1,13.1,0,0,0,138,9.68h-.08a7,7,0,0,0-1.58.26A6.88,6.88,0,0,0,135.21,10.34Z"/><path class="cls-30" d="M106.86,76.91a22.42,22.42,0,0,1-4.17-4.57A17.79,17.79,0,0,1,99.84,67c-.15-.5-.26-1-.36-1.51a6.09,6.09,0,0,0-.42-1.5,5,5,0,0,0-.84-1.31,9.4,9.4,0,0,0-1.18-1,9.5,9.5,0,0,1-1.9-2.42,8.6,8.6,0,0,1-1-2.58,6.9,6.9,0,0,0,1,2.61A9.21,9.21,0,0,0,97,61.66a8.82,8.82,0,0,1,1.17,1A4.71,4.71,0,0,1,99,64a5.45,5.45,0,0,1,.42,1.48A13.41,13.41,0,0,0,99.77,67a18.07,18.07,0,0,0,2.75,5.54,22.65,22.65,0,0,0,3.66,4,2.16,2.16,0,0,1,.71,1.27,12.53,12.53,0,0,0,.63,2.25,16.39,16.39,0,0,0,1.06,2.43s.42,1,.42,1a7.3,7.3,0,0,1,.51,2.81c.1,1.15.14,2.31.13,3.47a63.81,63.81,0,0,1-.45,6.61A2.18,2.18,0,0,1,109,97l-.78,2-.83,2.38c-.51,1.59-1,3.2-1.4,4.84a41.5,41.5,0,0,0-.93,5,17.09,17.09,0,0,0,0,5h0a20.87,20.87,0,0,0,2.58,7.62,11.61,11.61,0,0,0,6.16,5,13.89,13.89,0,0,0,8,.21,5.77,5.77,0,0,0,3.85-2.54,2.43,2.43,0,0,0,.25-.79,4.41,4.41,0,0,0-.57-2.64l-.1-.17a2.08,2.08,0,0,1-.2-.36,3.14,3.14,0,0,0-.28-.52,5.15,5.15,0,0,0-1-1.19,1.56,1.56,0,0,0-1.24-.47,1.57,1.57,0,0,0-1,.48,3.48,3.48,0,0,1-.51.34l-.37.2h0l-.69.3h0a5.94,5.94,0,0,1-1.5.34,3.85,3.85,0,0,1-1.51-.18,3,3,0,0,1-1.26-.82h0a10.19,10.19,0,0,1-3-5.27,13.54,13.54,0,0,1,.24-6.1,24.89,24.89,0,0,1,2.3-5.73,34.44,34.44,0,0,1,3.42-5.16h0a46.84,46.84,0,0,0,2.89-5.06,57.46,57.46,0,0,0,2.28-5.36,72.31,72.31,0,0,0,2.94-11.08.35.35,0,0,1,.16-.23,22.5,22.5,0,0,0,3-2.07,12.76,12.76,0,0,0,2.47-3,5,5,0,0,0,.69-1.85,14.58,14.58,0,0,1,.4-1.83,7.35,7.35,0,0,1,1.71-3.2l0,0h0a61.61,61.61,0,0,0,3.32-6.18.47.47,0,0,1,.89.13l.92,5.15v0a44.66,44.66,0,0,0,2.72,7.68c.56,1.24,1.18,2.45,1.85,3.64.33.59.67,1.17,1.05,1.76a7.42,7.42,0,0,0,1.4,1.56,5.81,5.81,0,0,0,1.85,1,2.78,2.78,0,0,0,2.17-.17,4.1,4.1,0,0,0,1.51-1.53,7.91,7.91,0,0,0,.82-1.94v0a27.5,27.5,0,0,1,4.83-8.2,31.73,31.73,0,0,1,3.35-3.41c1.2-1,2.53-2,3.71-3.09A40.53,40.53,0,0,0,172,54.32a24.22,24.22,0,0,0,2.36-4.26c.29-.76.61-1.5.87-2.27s.52-1.54.7-2.33a32.11,32.11,0,0,0-.88-19.15,36.44,36.44,0,0,0-1.5-3.6,24.84,24.84,0,0,0-3.64-5.53l.45.69a41.42,41.42,0,0,1,4.24,8.6,31.63,31.63,0,0,1,.83,18.86c-.18.78-.47,1.52-.7,2.29s-.58,1.49-.87,2.24A24.19,24.19,0,0,1,171.56,54a40.41,40.41,0,0,1-6.34,7.17c-1.19,1.09-2.45,2-3.71,3.08a32,32,0,0,0-3.4,3.49,27.78,27.78,0,0,0-4.91,8.37h0v0a5.16,5.16,0,0,1-2.06,3.13,2.22,2.22,0,0,1-1.77.13,5,5,0,0,1-1.67-.94,10.37,10.37,0,0,1-2.34-3.17c-.66-1.17-1.28-2.37-1.84-3.6a44.55,44.55,0,0,1-2.71-7.59v0l-1.12-6.86a.53.53,0,0,0-.35-.46.29.29,0,0,0-.3.11,28.21,28.21,0,0,0-1.63,3.74v0a28.37,28.37,0,0,1-2.53,4.2l0,0a7.19,7.19,0,0,0-1.58,3.4,19.5,19.5,0,0,0-.49,2.14,4.84,4.84,0,0,1-.65,1.67,13.08,13.08,0,0,1-2.71,3,7.84,7.84,0,0,1-.86.66l-2,1.33,0,.08a69.11,69.11,0,0,1-2.9,11,56.12,56.12,0,0,1-2.72,6.29,31.84,31.84,0,0,1-2.33,4.1l0,0-.74,1a28.76,28.76,0,0,0-3.08,4.87A23.58,23.58,0,0,0,112.6,110a13.79,13.79,0,0,0-.06,6.23s0,0,0,0a11.55,11.55,0,0,0,3.1,5.07l0,0,.47.34.06,0a3.44,3.44,0,0,0,2.15.46,7.4,7.4,0,0,0,1.72-.4h0l.83-.39,0,0,.37-.24.22-.15.33-.21c.45-.26.32-.25.73-.29s.71.27,1,.54a3.73,3.73,0,0,1,.69.79,8.85,8.85,0,0,1,.67,1.25l0,.06a1.86,1.86,0,0,0,.1.2l.14.27a2.82,2.82,0,0,1,0,3.34A6,6,0,0,1,122,128.9a14.63,14.63,0,0,1-8.14-.17,11.38,11.38,0,0,1-6-5,20.72,20.72,0,0,1-2.57-7.53h0a17.31,17.31,0,0,1,0-5,41.15,41.15,0,0,1,.92-4.93c.39-1.63.87-3.24,1.39-4.83l.82-2.38.64-1.7.2-.53.07-.3h0a43.46,43.46,0,0,0,.56-5.8c0-1.16.08-2.74,0-3.9a13.12,13.12,0,0,0-.71-3.32l-.15-.43-.21-.52-.13-.25a18.79,18.79,0,0,1-.79-2.16,14,14,0,0,1-1-3.19"/><ellipse class="cls-30" cx="102.35" cy="51.2" rx="4.66" ry="6.91"/><ellipse class="cls-30" cx="131.54" cy="51.2" rx="4.66" ry="6.91"/><path class="cls-31" d="M130.26,46.84c1.38-1,3.57-1.26,4.3,2,0,0,.15.91.16.92,0,.33.53,4.37-.1,3.75,0,0-.84-7.22-4.13-6.2A.25.25,0,0,1,130.26,46.84Z"/><path class="cls-31" d="M103.94,46.8c-1.39-1-3.57-1.26-4.3,2,0,0-.16.9-.16.92,0,.32-.54,4.36.1,3.74,0,0,.84-7.21,4.13-6.19A.25.25,0,0,0,103.94,46.8Z"/><path class="cls-30" d="M113.48,53.84l-.2-.63a6.8,6.8,0,0,1,8,0l-.07.78C117.63,51.37,113.63,53.73,113.48,53.84Z"/><path class="cls-31" d="M100.34,110.17s0-.1,0-.1,0,.1,0,.1Z"/><path class="cls-32" d="M134.06,65.07c-7.33,0-13.29-6.22-13.29-13.87s6-13.87,13.29-13.87,13.3,6.22,13.3,13.87S141.39,65.07,134.06,65.07Zm0-27.28c-6.51,0-12.88,6.58-12.88,13.41s6.37,13.57,12.88,13.57S146.62,58,146.62,51.2,140.58,37.79,134.06,37.79Z"/><path class="cls-32" d="M100.76,65.14c-7.31,0-13.26-6.29-13.26-14s6-14,13.26-14S114,43.39,114,51.12,108.07,65.14,100.76,65.14Zm0-27.57c-6.5,0-12.85,6.64-12.85,13.55s6.35,13.72,12.85,13.72S113.28,58,113.28,51.12,107.25,37.57,100.76,37.57Z"/><path class="cls-33" d="M213.54,28.1l-1.09,112.49L211.36,28.1a1.09,1.09,0,0,1,2.18,0Z"/><circle class="cls-34" cx="212.45" cy="29.07" r="5.82"/><path class="cls-35" d="M223.31,3.92l-1.1,145.23L221.12,3.92a1.1,1.1,0,1,1,2.19,0Z"/><circle class="cls-36" cx="222.21" cy="4.89" r="4.89"/><circle class="cls-37" cx="191.34" cy="76.26" r="6.67"/><circle class="cls-38" cx="208.68" cy="95.96" r="6.67"/><circle class="cls-39" cx="206.68" cy="124.3" r="2.96"/><circle class="cls-40" cx="222.9" cy="117.41" r="4.3"/><circle class="cls-41" cx="204.32" cy="144.23" r="2.87"/><circle class="cls-42" cx="32.52" cy="156.7" r="1.87"/><circle class="cls-43" cx="22.15" cy="145.74" r="3.19"/><circle class="cls-44" cx="55.33" cy="86.78" r="3.1"/><circle class="cls-45" cx="45.33" cy="77.52" r="5.33"/><circle class="cls-46" cx="5.33" cy="101.89" r="5.33"/><circle class="cls-47" cx="183.78" cy="88.7" r="3.99"/><path class="cls-48" d="M16,64.05l-1.09,82.49-1.1-82.49A1.1,1.1,0,0,1,16,64Z"/><circle class="cls-49" cx="14.89" cy="65.01" r="5.82"/><path class="cls-50" d="M27.82,40.17,26.73,155.39,25.63,40.17a1.1,1.1,0,0,1,2.19,0Z"/><circle class="cls-51" cx="26.73" cy="41.13" r="4.89"/></g></g></svg>