<svg xmlns="http://www.w3.org/2000/svg" viewBox="0 0 53.4 66.86"><defs><style>.cls-1{fill:#40454d;}</style></defs><title>notifications_icon</title><g id="Layer_2" data-name="Layer 2"><g id="Layer_1-2" data-name="Layer 1"><path class="cls-1" d="M50,47.29l-.15-.08,0,0c-.84-.43-1.07-.55-1.1-2.84V29.23A22,22,0,0,0,31.6,7.79,5.43,5.43,0,1,0,21.27,5.43a5.31,5.31,0,0,0,.54,2.36A22,22,0,0,0,4.72,29.23V44.81c0,1.88-.24,2-1.13,2.4a6,6,0,0,0-1,.62h0L2.42,48a3.33,3.33,0,0,0-.39.36l-.12.12a3.71,3.71,0,0,0-.27.29l-.15.15v0A6.46,6.46,0,0,0,0,53.07v.78a6.53,6.53,0,0,0,6.52,6.52H18.44a8.5,8.5,0,0,0,16.52,0H46.88a6.53,6.53,0,0,0,6.52-6.52V53A6.42,6.42,0,0,0,50,47.29ZM24.88,5.43a1.83,1.83,0,1,1,2,1.82h-.37A1.82,1.82,0,0,1,24.88,5.43ZM26.7,63.25a4.87,4.87,0,0,1-4.45-2.88h8.91A4.9,4.9,0,0,1,26.7,63.25Zm23.09-9.4a2.91,2.91,0,0,1-2.91,2.91H6.52a2.91,2.91,0,0,1-2.91-2.91v-.78a2.83,2.83,0,0,1,.5-1.63l.09-.14a2.23,2.23,0,0,1,.73-.7l.17-.1,0,0c2.58-1.24,3.11-2.92,3.19-5.59V29.23A18.38,18.38,0,0,1,26.41,10.86H27A18.57,18.57,0,0,1,45.07,29.39v15c0,2.54.28,4.59,3,6l.1,0,0,0h0A2.8,2.8,0,0,1,49.79,53Z"/><path class="cls-1" d="M26.52,13.34A16.09,16.09,0,0,0,11.66,23.77a1.8,1.8,0,0,0,1,2.34,1.77,1.77,0,0,0,.67.13A1.81,1.81,0,0,0,15,25.1,12.5,12.5,0,0,1,26.52,17a1.81,1.81,0,1,0,0-3.61Z"/><path class="cls-1" d="M12.31,27.82a1.79,1.79,0,0,0-1.88,1.72c0,.08,0,.16,0,.24a1.81,1.81,0,0,0,1.75,1.86h.05A1.81,1.81,0,0,0,14,29.89V29.7A1.79,1.79,0,0,0,12.31,27.82Z"/></g></g></svg>