<svg xmlns="http://www.w3.org/2000/svg" xmlns:xlink="http://www.w3.org/1999/xlink" viewBox="0 0 287.75 206.83"><defs><style>.cls-1{fill:url(#linear-gradient);}.cls-17,.cls-18,.cls-192,.cls-2,.cls-25{opacity:0.6;}.cls-2{fill:url(#linear-gradient-2);}.cls-188,.cls-20,.cls-213,.cls-3,.cls-30,.cls-34,.cls-37,.cls-38,.cls-4,.cls-43,.cls-44,.cls-47,.cls-7,.cls-9{opacity:0.7;}.cls-3{fill:url(#linear-gradient-3);}.cls-4{fill:url(#linear-gradient-4);}.cls-5{fill:url(#linear-gradient-5);}.cls-6{fill:url(#linear-gradient-6);}.cls-7{fill:url(#linear-gradient-7);}.cls-21,.cls-212,.cls-218,.cls-32,.cls-35,.cls-39,.cls-8{opacity:0.4;}.cls-8{fill:url(#linear-gradient-8);}.cls-9{fill:url(#linear-gradient-9);}.cls-10{fill:url(#linear-gradient-10);}.cls-11,.cls-12{opacity:0.8;}.cls-11{fill:url(#linear-gradient-11);}.cls-12{fill:url(#linear-gradient-12);}.cls-13,.cls-14,.cls-15,.cls-29,.cls-49{opacity:0.5;}.cls-13{fill:url(#linear-gradient-13);}.cls-14{fill:url(#linear-gradient-14);}.cls-15{fill:url(#linear-gradient-15);}.cls-16,.cls-48{opacity:0.3;}.cls-16{fill:url(#linear-gradient-16);}.cls-17{fill:url(#linear-gradient-17);}.cls-18{fill:url(#linear-gradient-18);}.cls-19{fill:url(#linear-gradient-19);}.cls-20{fill:url(#linear-gradient-20);}.cls-21{fill:url(#linear-gradient-21);}.cls-190,.cls-214,.cls-22{opacity:0.2;}.cls-22{fill:url(#linear-gradient-22);}.cls-23{fill:url(#linear-gradient-23);}.cls-24{fill:url(#linear-gradient-24);}.cls-26{fill:url(#linear-gradient-25);}.cls-27{fill:url(#linear-gradient-26);}.cls-28{fill:url(#linear-gradient-27);}.cls-29{fill:url(#linear-gradient-28);}.cls-30{fill:url(#linear-gradient-29);}.cls-31{fill:url(#linear-gradient-30);}.cls-32{fill:url(#linear-gradient-31);}.cls-33{opacity:0.1;fill:url(#linear-gradient-32);}.cls-34{fill:url(#linear-gradient-33);}.cls-35{fill:url(#linear-gradient-34);}.cls-36{fill:url(#linear-gradient-35);}.cls-37{fill:url(#linear-gradient-36);}.cls-38{fill:url(#linear-gradient-37);}.cls-39{fill:url(#linear-gradient-38);}.cls-40{fill:url(#linear-gradient-39);}.cls-41{fill:url(#linear-gradient-40);}.cls-42{fill:url(#linear-gradient-41);}.cls-43{fill:url(#linear-gradient-42);}.cls-44{fill:url(#linear-gradient-43);}.cls-45{fill:url(#linear-gradient-44);}.cls-46{fill:url(#linear-gradient-45);}.cls-47{fill:url(#linear-gradient-46);}.cls-48{fill:url(#linear-gradient-47);}.cls-49{fill:url(#linear-gradient-48);}.cls-50{fill:url(#linear-gradient-49);}.cls-51{fill:url(#linear-gradient-50);}.cls-52{fill:url(#linear-gradient-51);}.cls-53{fill:url(#linear-gradient-52);}.cls-54{fill:url(#linear-gradient-53);}.cls-55{fill:url(#linear-gradient-54);}.cls-56{fill:url(#linear-gradient-55);}.cls-57{fill:url(#linear-gradient-56);}.cls-58{fill:url(#linear-gradient-57);}.cls-59{fill:url(#linear-gradient-58);}.cls-60{fill:url(#linear-gradient-59);}.cls-61{fill:url(#linear-gradient-60);}.cls-62{fill:url(#linear-gradient-61);}.cls-63{fill:url(#linear-gradient-62);}.cls-64{fill:url(#linear-gradient-63);}.cls-65{fill:url(#linear-gradient-64);}.cls-66{fill:url(#linear-gradient-65);}.cls-67{fill:url(#linear-gradient-66);}.cls-68{fill:url(#linear-gradient-67);}.cls-69{fill:url(#linear-gradient-68);}.cls-70{fill:url(#linear-gradient-69);}.cls-71{fill:url(#linear-gradient-70);}.cls-72{fill:url(#linear-gradient-71);}.cls-73{fill:url(#linear-gradient-72);}.cls-74{fill:url(#linear-gradient-73);}.cls-75{fill:url(#linear-gradient-74);}.cls-76{fill:url(#linear-gradient-75);}.cls-77{fill:url(#linear-gradient-76);}.cls-78{fill:url(#linear-gradient-77);}.cls-79{fill:url(#linear-gradient-78);}.cls-80{fill:url(#linear-gradient-79);}.cls-81{fill:url(#linear-gradient-80);}.cls-82{fill:url(#linear-gradient-81);}.cls-83{fill:url(#linear-gradient-82);}.cls-84{fill:url(#linear-gradient-83);}.cls-85{fill:url(#linear-gradient-84);}.cls-86{fill:url(#linear-gradient-85);}.cls-87{fill:url(#linear-gradient-86);}.cls-88{fill:url(#linear-gradient-87);}.cls-89{fill:url(#linear-gradient-88);}.cls-90{fill:url(#linear-gradient-89);}.cls-91{fill:url(#linear-gradient-90);}.cls-92{fill:url(#linear-gradient-91);}.cls-93{fill:url(#linear-gradient-92);}.cls-94{fill:url(#linear-gradient-93);}.cls-95{fill:url(#linear-gradient-94);}.cls-96{fill:url(#linear-gradient-95);}.cls-97{fill:url(#linear-gradient-96);}.cls-98{fill:url(#linear-gradient-97);}.cls-99{fill:url(#radial-gradient);}.cls-100{fill:url(#linear-gradient-98);}.cls-101{fill:url(#radial-gradient-2);}.cls-102{fill:url(#radial-gradient-3);}.cls-103{fill:url(#linear-gradient-99);}.cls-104{fill:url(#linear-gradient-100);}.cls-105{fill:url(#linear-gradient-101);}.cls-106{fill:url(#linear-gradient-102);}.cls-107{fill:url(#linear-gradient-103);}.cls-108{fill:url(#linear-gradient-104);}.cls-109{fill:url(#linear-gradient-105);}.cls-110{fill:url(#linear-gradient-106);}.cls-111{fill:url(#linear-gradient-107);}.cls-112{fill:url(#linear-gradient-108);}.cls-113{fill:url(#linear-gradient-109);}.cls-114{fill:url(#linear-gradient-110);}.cls-115{fill:url(#linear-gradient-111);}.cls-116{fill:url(#linear-gradient-112);}.cls-117{fill:url(#linear-gradient-113);}.cls-118{fill:url(#linear-gradient-114);}.cls-119{fill:url(#linear-gradient-115);}.cls-120{fill:url(#linear-gradient-116);}.cls-121{fill:url(#linear-gradient-117);}.cls-122{fill:url(#linear-gradient-118);}.cls-123{fill:url(#linear-gradient-119);}.cls-124{fill:url(#linear-gradient-120);}.cls-125{fill:url(#linear-gradient-121);}.cls-126{fill:url(#linear-gradient-122);}.cls-127{fill:url(#linear-gradient-123);}.cls-128{fill:url(#linear-gradient-124);}.cls-129{fill:url(#linear-gradient-125);}.cls-130{fill:url(#linear-gradient-126);}.cls-131{fill:url(#linear-gradient-127);}.cls-132{fill:url(#linear-gradient-128);}.cls-133{fill:url(#linear-gradient-129);}.cls-134{fill:url(#linear-gradient-130);}.cls-135{fill:url(#linear-gradient-131);}.cls-136{fill:url(#linear-gradient-132);}.cls-137{fill:url(#linear-gradient-133);}.cls-138{fill:url(#linear-gradient-134);}.cls-139{fill:url(#linear-gradient-135);}.cls-140{fill:url(#linear-gradient-136);}.cls-141{fill:url(#linear-gradient-137);}.cls-142{fill:url(#linear-gradient-138);}.cls-143{fill:url(#linear-gradient-139);}.cls-144{fill:url(#linear-gradient-140);}.cls-145{fill:url(#linear-gradient-141);}.cls-146{fill:url(#linear-gradient-142);}.cls-147{fill:url(#linear-gradient-143);}.cls-148{fill:url(#linear-gradient-144);}.cls-149{fill:url(#linear-gradient-145);}.cls-150{fill:url(#linear-gradient-146);}.cls-151{fill:url(#radial-gradient-4);}.cls-152{fill:url(#radial-gradient-5);}.cls-153{fill:url(#linear-gradient-147);}.cls-154{fill:url(#linear-gradient-148);}.cls-155{fill:url(#linear-gradient-149);}.cls-156{fill:url(#linear-gradient-150);}.cls-157{fill:url(#linear-gradient-151);}.cls-158{fill:url(#linear-gradient-152);}.cls-159{fill:url(#linear-gradient-153);}.cls-160{fill:url(#linear-gradient-154);}.cls-161{fill:url(#linear-gradient-155);}.cls-162{fill:url(#linear-gradient-156);}.cls-163{fill:url(#linear-gradient-157);}.cls-164{fill:url(#linear-gradient-158);}.cls-165{fill:url(#linear-gradient-159);}.cls-166{fill:url(#linear-gradient-160);}.cls-167{fill:url(#linear-gradient-161);}.cls-168{fill:url(#linear-gradient-162);}.cls-169{fill:url(#linear-gradient-163);}.cls-170{fill:url(#linear-gradient-164);}.cls-171{fill:url(#linear-gradient-165);}.cls-172{fill:url(#linear-gradient-166);}.cls-173{fill:url(#linear-gradient-167);}.cls-174{fill:url(#linear-gradient-168);}.cls-175{fill:url(#linear-gradient-169);}.cls-176{fill:url(#linear-gradient-170);}.cls-177{fill:url(#linear-gradient-171);}.cls-178{fill:url(#linear-gradient-172);}.cls-179{fill:url(#linear-gradient-173);}.cls-180{fill:url(#linear-gradient-174);}.cls-181{fill:url(#linear-gradient-175);}.cls-182{fill:url(#linear-gradient-176);}.cls-183{fill:url(#linear-gradient-177);}.cls-184{fill:url(#linear-gradient-178);}.cls-185{fill:url(#linear-gradient-179);}.cls-186{fill:url(#linear-gradient-180);}.cls-187{fill:url(#linear-gradient-181);}.cls-188{fill:url(#linear-gradient-182);}.cls-189{fill:url(#linear-gradient-183);}.cls-190{fill:url(#linear-gradient-184);}.cls-191{fill:url(#linear-gradient-185);}.cls-192{fill:url(#linear-gradient-186);}.cls-193{fill:url(#linear-gradient-187);}.cls-194{fill:url(#linear-gradient-188);}.cls-195{fill:url(#linear-gradient-189);}.cls-196{fill:url(#linear-gradient-190);}.cls-197{fill:url(#linear-gradient-191);}.cls-198{fill:url(#linear-gradient-192);}.cls-199{fill:url(#linear-gradient-193);}.cls-200{fill:url(#linear-gradient-194);}.cls-201{fill:url(#linear-gradient-195);}.cls-202{fill:url(#linear-gradient-196);}.cls-203{fill:url(#linear-gradient-197);}.cls-204{fill:url(#linear-gradient-198);}.cls-205{fill:url(#linear-gradient-199);}.cls-206{fill:url(#linear-gradient-200);}.cls-207{fill:url(#linear-gradient-201);}.cls-208{fill:url(#linear-gradient-202);}.cls-209{fill:url(#linear-gradient-203);}.cls-210{fill:url(#linear-gradient-204);}.cls-211{fill:url(#linear-gradient-205);}.cls-212{fill:url(#linear-gradient-206);}.cls-213{fill:url(#linear-gradient-207);}.cls-214{fill:url(#linear-gradient-208);}.cls-215{fill:url(#linear-gradient-209);}.cls-216{fill:url(#linear-gradient-210);}.cls-217{fill:url(#linear-gradient-211);}.cls-218{fill:url(#linear-gradient-212);}</style><linearGradient id="linear-gradient" x1="3201.73" y1="470.5" x2="3234.17" y2="490.83" gradientTransform="translate(3440.65 531.85) rotate(180)" gradientUnits="userSpaceOnUse"><stop offset="0" stop-color="#f9a033"/><stop offset="1" stop-color="#f47a20" stop-opacity="0"/></linearGradient><linearGradient id="linear-gradient-2" x1="3110.22" y1="384.35" x2="3171.09" y2="384.35" gradientTransform="matrix(-1, 0, 0, 1, 3353.49, -319.36)" gradientUnits="userSpaceOnUse"><stop offset="0" stop-color="#f9a033"/><stop offset="1" stop-color="#f47a20"/></linearGradient><linearGradient id="linear-gradient-3" x1="267.56" y1="31.96" x2="184.51" y2="94.66" gradientUnits="userSpaceOnUse"><stop offset="0" stop-color="#f9a033" stop-opacity="0"/><stop offset="0.44" stop-color="#f9a033"/><stop offset="0.49" stop-color="#f99f32" stop-opacity="0.97"/><stop offset="0.56" stop-color="#f89b31" stop-opacity="0.88"/><stop offset="0.66" stop-color="#f8962e" stop-opacity="0.73"/><stop offset="0.77" stop-color="#f78e2a" stop-opacity="0.53"/><stop offset="0.89" stop-color="#f58425" stop-opacity="0.27"/><stop offset="1" stop-color="#f47a20" stop-opacity="0"/></linearGradient><linearGradient id="linear-gradient-4" x1="278.59" y1="116.83" x2="209.63" y2="76.68" gradientUnits="userSpaceOnUse"><stop offset="0.01" stop-color="#f9a033" stop-opacity="0"/><stop offset="0.79" stop-color="#f9a033"/><stop offset="1" stop-color="#f47a20" stop-opacity="0"/></linearGradient><linearGradient id="linear-gradient-5" x1="106.18" y1="772.46" x2="187.54" y2="772.46" gradientTransform="matrix(1, 0, 0, -1, 87.17, 851.21)" xlink:href="#linear-gradient-2"/><linearGradient id="linear-gradient-6" x1="137.86" y1="790.13" x2="211.35" y2="790.13" gradientTransform="matrix(1, 0, 0, -1, 87.17, 851.21)" xlink:href="#linear-gradient-2"/><linearGradient id="linear-gradient-7" x1="145" y1="793.66" x2="211.94" y2="793.66" gradientTransform="matrix(1, 0, 0, -1, 87.17, 851.21)" xlink:href="#linear-gradient-2"/><linearGradient id="linear-gradient-8" x1="152.78" y1="797.69" x2="215.49" y2="797.69" gradientTransform="matrix(1, 0, 0, -1, 87.17, 851.21)" xlink:href="#linear-gradient-2"/><linearGradient id="linear-gradient-9" x1="13.94" y1="170.59" x2="58.57" y2="66.6" gradientUnits="userSpaceOnUse"><stop offset="0" stop-color="#f47a20" stop-opacity="0"/><stop offset="0.86" stop-color="#f9a033"/><stop offset="0.95" stop-color="#f47a20" stop-opacity="0"/></linearGradient><linearGradient id="linear-gradient-10" x1="3851.42" y1="707.16" x2="3932.27" y2="707.16" gradientTransform="matrix(-1, -0.01, 0.01, -1, 3886.52, 865.4)" xlink:href="#linear-gradient-2"/><linearGradient id="linear-gradient-11" x1="3847.91" y1="703.8" x2="3914.72" y2="703.8" gradientTransform="matrix(-1, -0.01, 0.01, -1, 3886.52, 865.4)" xlink:href="#linear-gradient-2"/><linearGradient id="linear-gradient-12" x1="3860.58" y1="710.3" x2="3919.36" y2="710.3" gradientTransform="matrix(-1, -0.01, 0.01, -1, 3886.52, 865.4)" xlink:href="#linear-gradient-2"/><linearGradient id="linear-gradient-13" x1="3843.26" y1="700.21" x2="3902.05" y2="700.21" gradientTransform="matrix(-1, -0.01, 0.01, -1, 3886.52, 865.4)" xlink:href="#linear-gradient-2"/><linearGradient id="linear-gradient-14" x1="39.6" y1="162.18" x2="57.51" y2="174.34" gradientTransform="matrix(1, 0, 0, 1, 0, 0)" xlink:href="#linear-gradient"/><linearGradient id="linear-gradient-15" x1="16.79" y1="156.28" x2="85.21" y2="156.28" gradientTransform="matrix(1, 0, 0, 1, 0, 0)" xlink:href="#linear-gradient-2"/><linearGradient id="linear-gradient-16" x1="12.23" y1="159.68" x2="71.74" y2="159.68" gradientTransform="matrix(1, 0, 0, 1, 0, 0)" xlink:href="#linear-gradient-2"/><linearGradient id="linear-gradient-17" x1="116.68" y1="3.4" x2="242.26" y2="137.95" gradientUnits="userSpaceOnUse"><stop offset="0" stop-color="#f47a20" stop-opacity="0"/><stop offset="0.57" stop-color="#f9a033"/><stop offset="0.89" stop-color="#f47a20" stop-opacity="0"/></linearGradient><linearGradient id="linear-gradient-18" x1="177.96" y1="12.12" x2="117.04" y2="49.19" gradientTransform="matrix(1, 0, 0, 1, 0, 0)" xlink:href="#linear-gradient"/><linearGradient id="linear-gradient-19" x1="169.97" y1="27.42" x2="137.86" y2="47.02" gradientTransform="matrix(1, 0, 0, 1, 0, 0)" xlink:href="#linear-gradient"/><linearGradient id="linear-gradient-20" x1="51.66" y1="825.27" x2="138.7" y2="825.27" gradientTransform="matrix(1, 0, 0, -1, 87.17, 851.21)" xlink:href="#linear-gradient-2"/><linearGradient id="linear-gradient-21" x1="45.73" y1="829.88" x2="119.71" y2="829.88" gradientTransform="matrix(1, 0, 0, -1, 87.17, 851.21)" xlink:href="#linear-gradient-2"/><linearGradient id="linear-gradient-22" x1="37.93" y1="834.35" x2="111.91" y2="834.35" gradientTransform="matrix(1, 0, 0, -1, 87.17, 851.21)" xlink:href="#linear-gradient-2"/><linearGradient id="linear-gradient-23" x1="60.92" y1="820.09" x2="143.86" y2="820.09" gradientTransform="matrix(1, 0, 0, -1, 87.17, 851.21)" xlink:href="#linear-gradient-2"/><linearGradient id="linear-gradient-24" x1="71.15" y1="93.75" x2="26.18" y2="22.16" gradientTransform="matrix(1, 0, 0, 1, 0, 0)" xlink:href="#linear-gradient"/><linearGradient id="linear-gradient-25" x1="36" y1="-524.94" x2="286.76" y2="-518.75" gradientTransform="matrix(1, 0, 0, -1, 0, -346.04)" gradientUnits="userSpaceOnUse"><stop offset="0" stop-color="#f47a20" stop-opacity="0"/><stop offset="0.5" stop-color="#f9a033"/><stop offset="1" stop-color="#f47a20" stop-opacity="0"/></linearGradient><linearGradient id="linear-gradient-26" x1="249.72" y1="-510.05" x2="270.23" y2="-496.12" gradientTransform="matrix(1, 0, 0, -1, 0, -346.04)" xlink:href="#linear-gradient"/><linearGradient id="linear-gradient-27" x1="147.27" y1="-525.92" x2="124.44" y2="-512.38" gradientTransform="matrix(1, 0, 0, -1, 0, -346.04)" xlink:href="#linear-gradient"/><linearGradient id="linear-gradient-28" x1="167.39" y1="-528.77" x2="136.23" y2="-510" gradientTransform="matrix(1, 0, 0, -1, 0, -346.04)" xlink:href="#linear-gradient"/><linearGradient id="linear-gradient-29" x1="142" y1="-522.48" x2="216.1" y2="-522.48" gradientTransform="matrix(1, 0, 0, -1, 0, -346.04)" xlink:href="#linear-gradient-2"/><linearGradient id="linear-gradient-30" x1="133.48" y1="-526.94" x2="211.85" y2="-526.94" gradientTransform="matrix(1, 0, 0, -1, 0, -346.04)" xlink:href="#linear-gradient-2"/><linearGradient id="linear-gradient-31" x1="150.45" y1="-518.02" x2="220.64" y2="-518.02" gradientTransform="matrix(1, 0, 0, -1, 0, -346.04)" xlink:href="#linear-gradient-2"/><linearGradient id="linear-gradient-32" x1="159.42" y1="-513.56" x2="222.86" y2="-513.56" gradientTransform="matrix(1, 0, 0, -1, 0, -346.04)" xlink:href="#linear-gradient-2"/><linearGradient id="linear-gradient-33" x1="2983.35" y1="-523.93" x2="3056.39" y2="-523.93" gradientTransform="translate(3101.96 -346.04) rotate(180)" xlink:href="#linear-gradient-2"/><linearGradient id="linear-gradient-34" x1="2990.97" y1="-520.68" x2="3054.38" y2="-520.68" gradientTransform="translate(3101.96 -346.04) rotate(180)" xlink:href="#linear-gradient-2"/><linearGradient id="linear-gradient-35" x1="2976.5" y1="-527.45" x2="3054.87" y2="-527.45" gradientTransform="translate(3101.96 -346.04) rotate(180)" xlink:href="#linear-gradient-2"/><linearGradient id="linear-gradient-36" x1="144.55" y1="1371.2" x2="206.33" y2="1371.2" gradientTransform="translate(87.17 -1197.25)" xlink:href="#linear-gradient-2"/><linearGradient id="linear-gradient-37" x1="134.5" y1="1365.4" x2="196.28" y2="1365.4" gradientTransform="translate(87.17 -1197.25)" xlink:href="#linear-gradient-2"/><linearGradient id="linear-gradient-38" x1="149.51" y1="1372.47" x2="203.15" y2="1372.47" gradientTransform="translate(87.17 -1197.25)" xlink:href="#linear-gradient-2"/><linearGradient id="linear-gradient-39" x1="138.75" y1="1368.22" x2="205.05" y2="1368.22" gradientTransform="translate(87.17 -1197.25)" xlink:href="#linear-gradient-2"/><linearGradient id="linear-gradient-40" x1="4182.18" y1="-597.32" x2="4155.87" y2="-581.26" gradientTransform="translate(4401.49 -506.3) rotate(180)" xlink:href="#linear-gradient"/><linearGradient id="linear-gradient-41" x1="4077.09" y1="1445.5" x2="4145.05" y2="1445.5" gradientTransform="matrix(-1, 0, 0, 1, 4314.32, -1357.51)" xlink:href="#linear-gradient-2"/><linearGradient id="linear-gradient-42" x1="183" y1="98.7" x2="198.11" y2="96.11" gradientTransform="matrix(1, 0, 0, 1, 0, 0)" xlink:href="#linear-gradient"/><linearGradient id="linear-gradient-43" x1="4039.33" y1="757.6" x2="4102.3" y2="757.6" gradientTransform="translate(4234 851.21) rotate(180)" xlink:href="#linear-gradient-2"/><linearGradient id="linear-gradient-44" x1="25.81" y1="68.86" x2="67.65" y2="68.99" gradientTransform="matrix(1, 0, 0, 1, 0, 0)" xlink:href="#linear-gradient"/><linearGradient id="linear-gradient-45" x1="3912.77" y1="1553.79" x2="3991.64" y2="1553.79" gradientTransform="matrix(-1, 0, 0, 1, 3990.16, -1476.13)" xlink:href="#linear-gradient-2"/><linearGradient id="linear-gradient-46" x1="3919.73" y1="1550.41" x2="3992.79" y2="1550.41" gradientTransform="matrix(-1, 0, 0, 1, 3990.16, -1476.13)" xlink:href="#linear-gradient-2"/><linearGradient id="linear-gradient-47" x1="3934.53" y1="1542.63" x2="4002.68" y2="1542.63" gradientTransform="matrix(-1, 0, 0, 1, 3990.16, -1476.13)" xlink:href="#linear-gradient-2"/><linearGradient id="linear-gradient-48" x1="3927.19" y1="1546.79" x2="3995.35" y2="1546.79" gradientTransform="matrix(-1, 0, 0, 1, 3990.16, -1476.13)" xlink:href="#linear-gradient-2"/><linearGradient id="linear-gradient-49" x1="110.77" y1="123.23" x2="122.07" y2="123.37" gradientUnits="userSpaceOnUse"><stop offset="0" stop-color="#d6d6d8"/><stop offset="1" stop-color="#b2b3b5"/></linearGradient><linearGradient id="linear-gradient-50" x1="99.53" y1="142.83" x2="122.31" y2="106.16" gradientUnits="userSpaceOnUse"><stop offset="0" stop-color="#f9f9fd"/><stop offset="1" stop-color="#efecea"/></linearGradient><linearGradient id="linear-gradient-51" x1="117.1" y1="87.33" x2="114.87" y2="144" gradientUnits="userSpaceOnUse"><stop offset="0" stop-color="#f3f6fb"/><stop offset="1" stop-color="#d6d6d8"/></linearGradient><linearGradient id="linear-gradient-52" x1="119.18" y1="145.81" x2="113.83" y2="95.9" gradientUnits="userSpaceOnUse"><stop offset="0" stop-color="#f9a033"/><stop offset="0.51" stop-color="#f47a20"/><stop offset="1" stop-color="#f9a033"/></linearGradient><linearGradient id="linear-gradient-53" x1="118.88" y1="142.95" x2="114.04" y2="97.79" xlink:href="#linear-gradient-51"/><linearGradient id="linear-gradient-54" x1="116.67" y1="122.32" x2="114.12" y2="98.45" gradientUnits="userSpaceOnUse"><stop offset="0" stop-color="#383d44"/><stop offset="1" stop-color="#24282f"/></linearGradient><linearGradient id="linear-gradient-55" x1="106.77" y1="152.95" x2="119.44" y2="103.95" gradientUnits="userSpaceOnUse"><stop offset="0" stop-color="#535967"/><stop offset="1" stop-color="#40454d"/></linearGradient><linearGradient id="linear-gradient-56" x1="85.04" y1="123.25" x2="137.85" y2="109.85" xlink:href="#linear-gradient-49"/><linearGradient id="linear-gradient-57" x1="124.6" y1="140.18" x2="136.17" y2="153.26" xlink:href="#linear-gradient-55"/><linearGradient id="linear-gradient-58" x1="130.46" y1="137.35" x2="134.7" y2="145.72" xlink:href="#linear-gradient-55"/><linearGradient id="linear-gradient-59" x1="134.22" y1="135.45" x2="138.45" y2="143.82" xlink:href="#linear-gradient-55"/><linearGradient id="linear-gradient-60" x1="137.98" y1="133.55" x2="142.21" y2="141.92" xlink:href="#linear-gradient-55"/><linearGradient id="linear-gradient-61" x1="141.67" y1="131.68" x2="145.9" y2="140.06" xlink:href="#linear-gradient-55"/><linearGradient id="linear-gradient-62" x1="145.39" y1="129.8" x2="149.62" y2="138.18" xlink:href="#linear-gradient-55"/><linearGradient id="linear-gradient-63" x1="149.15" y1="127.9" x2="153.38" y2="136.28" xlink:href="#linear-gradient-55"/><linearGradient id="linear-gradient-64" x1="152.83" y1="126.04" x2="157.06" y2="134.41" xlink:href="#linear-gradient-55"/><linearGradient id="linear-gradient-65" x1="156.58" y1="124.14" x2="160.82" y2="132.52" xlink:href="#linear-gradient-55"/><linearGradient id="linear-gradient-66" x1="160.31" y1="122.25" x2="164.55" y2="130.63" xlink:href="#linear-gradient-55"/><linearGradient id="linear-gradient-67" x1="106.27" y1="137.75" x2="100.15" y2="149.89" xlink:href="#linear-gradient-55"/><linearGradient id="linear-gradient-68" x1="102.51" y1="135.86" x2="96.39" y2="147.99" xlink:href="#linear-gradient-55"/><linearGradient id="linear-gradient-69" x1="98.75" y1="133.96" x2="92.63" y2="146.1" xlink:href="#linear-gradient-55"/><linearGradient id="linear-gradient-70" x1="94.99" y1="132.07" x2="88.88" y2="144.21" xlink:href="#linear-gradient-55"/><linearGradient id="linear-gradient-71" x1="91.3" y1="130.21" x2="85.18" y2="142.34" xlink:href="#linear-gradient-55"/><linearGradient id="linear-gradient-72" x1="87.58" y1="128.33" x2="81.46" y2="140.47" xlink:href="#linear-gradient-55"/><linearGradient id="linear-gradient-73" x1="83.82" y1="126.44" x2="77.7" y2="138.58" xlink:href="#linear-gradient-55"/><linearGradient id="linear-gradient-74" x1="80.13" y1="124.58" x2="74.02" y2="136.72" xlink:href="#linear-gradient-55"/><linearGradient id="linear-gradient-75" x1="76.37" y1="122.69" x2="70.26" y2="134.83" xlink:href="#linear-gradient-55"/><linearGradient id="linear-gradient-76" x1="72.64" y1="120.81" x2="66.53" y2="132.95" xlink:href="#linear-gradient-55"/><linearGradient id="linear-gradient-77" x1="107.35" y1="91.94" x2="91.98" y2="89.26" gradientUnits="userSpaceOnUse"><stop offset="0" stop-color="#535967"/><stop offset="0.18" stop-color="#505663"/><stop offset="0.36" stop-color="#464c56"/><stop offset="0.5" stop-color="#3b4048"/><stop offset="0.7" stop-color="#353a41"/><stop offset="1" stop-color="#32373d"/></linearGradient><linearGradient id="linear-gradient-78" x1="124.93" y1="92.03" x2="141.17" y2="90.58" xlink:href="#linear-gradient-77"/><linearGradient id="linear-gradient-79" x1="103.75" y1="93.77" x2="88.34" y2="91.7" xlink:href="#linear-gradient-77"/><linearGradient id="linear-gradient-80" x1="128.56" y1="94.61" x2="144.18" y2="92.35" xlink:href="#linear-gradient-77"/><linearGradient id="linear-gradient-81" x1="99.81" y1="95.83" x2="84.48" y2="93.71" xlink:href="#linear-gradient-77"/><linearGradient id="linear-gradient-82" x1="96.57" y1="98.07" x2="81.46" y2="95.86" xlink:href="#linear-gradient-77"/><linearGradient id="linear-gradient-83" x1="92.96" y1="100.09" x2="77.98" y2="98.01" xlink:href="#linear-gradient-77"/><linearGradient id="linear-gradient-84" x1="89.33" y1="102.36" x2="74.01" y2="99.89" xlink:href="#linear-gradient-77"/><linearGradient id="linear-gradient-85" x1="85.86" y1="104.22" x2="70.36" y2="102.23" xlink:href="#linear-gradient-77"/><linearGradient id="linear-gradient-86" x1="82.54" y1="106.28" x2="66.09" y2="104.29" xlink:href="#linear-gradient-77"/><linearGradient id="linear-gradient-87" x1="78.6" y1="108.64" x2="62.58" y2="106.04" xlink:href="#linear-gradient-77"/><linearGradient id="linear-gradient-88" x1="74.63" y1="110.55" x2="59.43" y2="108.3" xlink:href="#linear-gradient-77"/><linearGradient id="linear-gradient-89" x1="132.1" y1="96.46" x2="147.78" y2="94.64" xlink:href="#linear-gradient-77"/><linearGradient id="linear-gradient-90" x1="135.84" y1="98.53" x2="151.08" y2="96.84" xlink:href="#linear-gradient-77"/><linearGradient id="linear-gradient-91" x1="139.72" y1="100.61" x2="155.47" y2="98.8" xlink:href="#linear-gradient-77"/><linearGradient id="linear-gradient-92" x1="143.44" y1="102.74" x2="159.12" y2="100.86" xlink:href="#linear-gradient-77"/><linearGradient id="linear-gradient-93" x1="146.9" y1="104.68" x2="162.2" y2="103.18" xlink:href="#linear-gradient-77"/><linearGradient id="linear-gradient-94" x1="150.77" y1="106.7" x2="166.07" y2="105.26" xlink:href="#linear-gradient-77"/><linearGradient id="linear-gradient-95" x1="153.73" y1="109.03" x2="170.29" y2="107.09" xlink:href="#linear-gradient-77"/><linearGradient id="linear-gradient-96" x1="157.76" y1="111.07" x2="173.63" y2="109.19" xlink:href="#linear-gradient-77"/><linearGradient id="linear-gradient-97" x1="150.54" y1="83.42" x2="58.05" y2="97.97" gradientUnits="userSpaceOnUse"><stop offset="0" stop-color="#d6d6d8"/><stop offset="0.03" stop-color="#d9dadc" stop-opacity="0.93"/><stop offset="0.13" stop-color="#e3e4e7" stop-opacity="0.74"/><stop offset="0.22" stop-color="#eaecf0" stop-opacity="0.59"/><stop offset="0.32" stop-color="#eff1f6" stop-opacity="0.49"/><stop offset="0.41" stop-color="#f2f5fa" stop-opacity="0.42"/><stop offset="0.5" stop-color="#f3f6fb" stop-opacity="0.4"/><stop offset="0.53" stop-color="#f0f2f7" stop-opacity="0.47"/><stop offset="0.63" stop-color="#e6e8ec" stop-opacity="0.66"/><stop offset="0.72" stop-color="#dfe0e3" stop-opacity="0.81"/><stop offset="0.82" stop-color="#dadbdd" stop-opacity="0.91"/><stop offset="0.91" stop-color="#d7d7d9" stop-opacity="0.98"/><stop offset="1" stop-color="#d6d6d8"/></linearGradient><radialGradient id="radial-gradient" cx="115.96" cy="117.8" r="29.86" gradientTransform="translate(0 40.24) scale(1 0.66)" gradientUnits="userSpaceOnUse"><stop offset="0" stop-color="#d6d6d8"/><stop offset="0.07" stop-color="#dcdde0" stop-opacity="0.8"/><stop offset="0.17" stop-color="#e3e5e8" stop-opacity="0.59"/><stop offset="0.26" stop-color="#e9ebef" stop-opacity="0.41"/><stop offset="0.35" stop-color="#edf0f4" stop-opacity="0.28"/><stop offset="0.44" stop-color="#f0f3f8" stop-opacity="0.18"/><stop offset="0.53" stop-color="#f2f5fa" stop-opacity="0.12"/><stop offset="0.62" stop-color="#f3f6fb" stop-opacity="0.1"/><stop offset="0.63" stop-color="#eff1f6" stop-opacity="0.23"/><stop offset="0.65" stop-color="#e9ebef" stop-opacity="0.41"/><stop offset="0.68" stop-color="#e4e5e9" stop-opacity="0.57"/><stop offset="0.7" stop-color="#dfe0e3" stop-opacity="0.71"/><stop offset="0.73" stop-color="#dcdddf" stop-opacity="0.81"/><stop offset="0.76" stop-color="#d9dadc" stop-opacity="0.9"/><stop offset="0.79" stop-color="#d7d8da" stop-opacity="0.96"/><stop offset="0.84" stop-color="#d6d6d8" stop-opacity="0.99"/><stop offset="0.96" stop-color="#d6d6d8"/></radialGradient><linearGradient id="linear-gradient-98" x1="126.99" y1="128.68" x2="100.3" y2="102.36" gradientUnits="userSpaceOnUse"><stop offset="0" stop-color="#a6a19a" stop-opacity="0.7"/><stop offset="0.08" stop-color="#bbb9b5" stop-opacity="0.78"/><stop offset="0.16" stop-color="#cfcfce" stop-opacity="0.86"/><stop offset="0.25" stop-color="#dfe0e2" stop-opacity="0.92"/><stop offset="0.33" stop-color="#eaecf0" stop-opacity="0.97"/><stop offset="0.42" stop-color="#f1f4f8" stop-opacity="0.99"/><stop offset="0.5" stop-color="#f3f6fb"/><stop offset="0.53" stop-color="#ebedf1" stop-opacity="0.97"/><stop offset="0.64" stop-color="#d6d4d5" stop-opacity="0.87"/><stop offset="0.74" stop-color="#c5c0bf" stop-opacity="0.8"/><stop offset="0.84" stop-color="#b9b2b0" stop-opacity="0.74"/><stop offset="0.93" stop-color="#b2aaa6" stop-opacity="0.71"/><stop offset="1" stop-color="#afa7a3" stop-opacity="0.7"/></linearGradient><radialGradient id="radial-gradient-2" cx="116.05" cy="115.87" r="18.2" gradientTransform="matrix(1, 0.01, 0, 0.66, 0.39, 38.56)" gradientUnits="userSpaceOnUse"><stop offset="0" stop-color="#d6d6d8" stop-opacity="0.2"/><stop offset="0.43" stop-color="#d7d7d9" stop-opacity="0.21"/><stop offset="0.59" stop-color="#d9d9dc" stop-opacity="0.23"/><stop offset="0.7" stop-color="#dddee1" stop-opacity="0.27"/><stop offset="0.79" stop-color="#e3e5e8" stop-opacity="0.34"/><stop offset="0.86" stop-color="#ebedf1" stop-opacity="0.42"/><stop offset="0.92" stop-color="#f3f6fb" stop-opacity="0.5"/></radialGradient><radialGradient id="radial-gradient-3" cx="117.08" cy="117.11" r="21.85" gradientTransform="matrix(0.99, -0.15, 0.07, 0.48, -7.01, 78.01)" gradientUnits="userSpaceOnUse"><stop offset="0.52" stop-color="#f9a033"/><stop offset="0.57" stop-color="#f89a30" stop-opacity="0.84"/><stop offset="0.65" stop-color="#f7902b" stop-opacity="0.59"/><stop offset="0.73" stop-color="#f68827" stop-opacity="0.38"/><stop offset="0.81" stop-color="#f58224" stop-opacity="0.22"/><stop offset="0.87" stop-color="#f47e22" stop-opacity="0.1"/><stop offset="0.93" stop-color="#f47b20" stop-opacity="0.03"/><stop offset="0.97" stop-color="#f47a20" stop-opacity="0"/></radialGradient><linearGradient id="linear-gradient-99" x1="116.72" y1="214.92" x2="122.33" y2="223.37" gradientTransform="translate(9.74 -122.57) rotate(4.54)" xlink:href="#linear-gradient-2"/><linearGradient id="linear-gradient-100" x1="111.21" y1="231.22" x2="110.38" y2="233.25" gradientTransform="translate(9.74 -122.57) rotate(4.54)" gradientUnits="userSpaceOnUse"><stop offset="0" stop-color="#f47a20"/><stop offset="1" stop-color="#f26322"/></linearGradient><linearGradient id="linear-gradient-101" x1="113.16" y1="227.74" x2="113.43" y2="226.07" xlink:href="#linear-gradient-100"/><linearGradient id="linear-gradient-102" x1="112.34" y1="224.16" x2="110.25" y2="227.83" gradientTransform="translate(9.74 -122.57) rotate(4.54)" xlink:href="#linear-gradient-2"/><linearGradient id="linear-gradient-103" x1="112.19" y1="222.53" x2="112.35" y2="222.53" gradientTransform="translate(9.74 -122.57) rotate(4.54)" xlink:href="#linear-gradient-2"/><linearGradient id="linear-gradient-104" x1="111.67" y1="220.96" x2="113.61" y2="219.74" xlink:href="#linear-gradient-100"/><linearGradient id="linear-gradient-105" x1="113.12" y1="222.56" x2="116.89" y2="224.53" xlink:href="#linear-gradient-100"/><linearGradient id="linear-gradient-106" x1="115.02" y1="219.2" x2="115.68" y2="220.72" xlink:href="#linear-gradient-100"/><linearGradient id="linear-gradient-107" x1="117.81" y1="216.43" x2="127.13" y2="228.16" gradientTransform="translate(9.74 -122.57) rotate(4.54)" xlink:href="#linear-gradient-2"/><linearGradient id="linear-gradient-108" x1="116.87" y1="218.53" x2="119.38" y2="221.52" xlink:href="#linear-gradient-100"/><linearGradient id="linear-gradient-109" x1="123.41" y1="213.66" x2="123.43" y2="213.66" gradientTransform="translate(9.74 -122.57) rotate(4.54)" xlink:href="#linear-gradient-2"/><linearGradient id="linear-gradient-110" x1="120.13" y1="215.27" x2="119.54" y2="217.56" xlink:href="#linear-gradient-100"/><linearGradient id="linear-gradient-111" x1="123.99" y1="212.1" x2="120.29" y2="213.83" xlink:href="#linear-gradient-100"/><linearGradient id="linear-gradient-112" x1="127.39" y1="212.7" x2="127.24" y2="215.26" xlink:href="#linear-gradient-100"/><linearGradient id="linear-gradient-113" x1="128.3" y1="211.59" x2="122.95" y2="224.9" gradientTransform="translate(9.74 -122.57) rotate(4.54)" xlink:href="#linear-gradient-2"/><linearGradient id="linear-gradient-114" x1="131.21" y1="212.15" x2="130.04" y2="219.85" gradientTransform="translate(9.74 -122.57) rotate(4.54)" xlink:href="#linear-gradient-2"/><linearGradient id="linear-gradient-115" x1="109.88" y1="225.19" x2="112.03" y2="230.86" xlink:href="#linear-gradient-100"/><linearGradient id="linear-gradient-116" x1="108.02" y1="227.27" x2="114.02" y2="227.27" gradientTransform="translate(9.74 -122.57) rotate(4.54)" xlink:href="#linear-gradient-2"/><linearGradient id="linear-gradient-117" x1="120.08" y1="219.03" x2="136.64" y2="238.28" gradientTransform="translate(9.74 -122.57) rotate(4.54)" xlink:href="#linear-gradient-2"/><linearGradient id="linear-gradient-118" x1="112.43" y1="229.51" x2="116.21" y2="229.51" xlink:href="#linear-gradient-100"/><linearGradient id="linear-gradient-119" x1="135.95" y1="231.46" x2="131.98" y2="233.69" xlink:href="#linear-gradient-100"/><linearGradient id="linear-gradient-120" x1="138.43" y1="227.95" x2="137.26" y2="225.38" xlink:href="#linear-gradient-100"/><linearGradient id="linear-gradient-121" x1="127.38" y1="223.23" x2="140.93" y2="223.23" xlink:href="#linear-gradient-100"/><linearGradient id="linear-gradient-122" x1="138.64" y1="218.07" x2="137.77" y2="217.74" xlink:href="#linear-gradient-100"/><linearGradient id="linear-gradient-123" x1="134.73" y1="217.97" x2="129.84" y2="217.55" xlink:href="#linear-gradient-100"/><linearGradient id="linear-gradient-124" x1="122.03" y1="220.97" x2="129.16" y2="217.66" xlink:href="#linear-gradient-100"/><linearGradient id="linear-gradient-125" x1="123.79" y1="215.68" x2="122.63" y2="218.48" xlink:href="#linear-gradient-100"/><linearGradient id="linear-gradient-126" x1="127.66" y1="230.03" x2="122.62" y2="229.59" xlink:href="#linear-gradient-100"/><linearGradient id="linear-gradient-127" x1="132.67" y1="228.05" x2="129" y2="228.11" xlink:href="#linear-gradient-100"/><linearGradient id="linear-gradient-128" x1="122.38" y1="228.47" x2="129.43" y2="227.18" xlink:href="#linear-gradient-100"/><linearGradient id="linear-gradient-129" x1="125.46" y1="227.57" x2="123.04" y2="225.13" xlink:href="#linear-gradient-100"/><linearGradient id="linear-gradient-130" x1="115.76" y1="227.27" x2="120.51" y2="233.27" xlink:href="#linear-gradient-100"/><linearGradient id="linear-gradient-131" x1="132.19" y1="232.46" x2="127.77" y2="235.12" xlink:href="#linear-gradient-100"/><linearGradient id="linear-gradient-132" x1="128.51" y1="233.4" x2="122.99" y2="237.05" xlink:href="#linear-gradient-100"/><linearGradient id="linear-gradient-133" x1="124.26" y1="234.96" x2="118.38" y2="234.87" xlink:href="#linear-gradient-100"/><linearGradient id="linear-gradient-134" x1="118.6" y1="232.28" x2="111.35" y2="235.86" xlink:href="#linear-gradient-100"/><linearGradient id="linear-gradient-135" x1="134.1" y1="225.06" x2="131.98" y2="220.95" gradientTransform="translate(9.74 -122.57) rotate(4.54)" xlink:href="#linear-gradient-2"/><linearGradient id="linear-gradient-136" x1="132.38" y1="216.42" x2="136.35" y2="214.92" gradientTransform="translate(9.74 -122.57) rotate(4.54)" xlink:href="#linear-gradient-2"/><linearGradient id="linear-gradient-137" x1="129.18" y1="220.91" x2="127.12" y2="223.54" gradientTransform="translate(9.74 -122.57) rotate(4.54)" xlink:href="#linear-gradient-2"/><linearGradient id="linear-gradient-138" x1="131.78" y1="225.9" x2="130.85" y2="230.23" gradientTransform="translate(9.74 -122.57) rotate(4.54)" xlink:href="#linear-gradient-2"/><linearGradient id="linear-gradient-139" x1="116.57" y1="227.87" x2="115.43" y2="230.25" gradientTransform="translate(9.74 -122.57) rotate(4.54)" xlink:href="#linear-gradient-2"/><linearGradient id="linear-gradient-140" x1="129.05" y1="215.13" x2="132.01" y2="214.77" gradientTransform="translate(9.74 -122.57) rotate(4.54)" xlink:href="#linear-gradient-2"/><linearGradient id="linear-gradient-141" x1="119.36" y1="221.58" x2="122.02" y2="219.94" gradientTransform="translate(9.74 -122.57) rotate(4.54)" xlink:href="#linear-gradient-2"/><linearGradient id="linear-gradient-142" x1="129.22" y1="229.78" x2="128.24" y2="233.48" gradientTransform="translate(9.74 -122.57) rotate(4.54)" xlink:href="#linear-gradient-2"/><linearGradient id="linear-gradient-143" x1="122.77" y1="232.28" x2="123.96" y2="235.48" gradientTransform="translate(9.74 -122.57) rotate(4.54)" xlink:href="#linear-gradient-2"/><linearGradient id="linear-gradient-144" x1="117.63" y1="224.72" x2="121.66" y2="226.39" xlink:href="#linear-gradient-100"/><linearGradient id="linear-gradient-145" x1="118.64" y1="222.64" x2="131.21" y2="222.64" xlink:href="#linear-gradient-100"/><linearGradient id="linear-gradient-146" x1="131.99" y1="219.95" x2="137.87" y2="219.02" xlink:href="#linear-gradient-100"/><radialGradient id="radial-gradient-4" cx="108.65" cy="104.47" r="22.31" gradientTransform="matrix(0.97, -0.24, 0.17, 0.68, -14.23, 58.78)" gradientUnits="userSpaceOnUse"><stop offset="0" stop-color="#f47a20" stop-opacity="0"/><stop offset="0.91" stop-color="#f26322"/></radialGradient><radialGradient id="radial-gradient-5" cx="123.2" cy="218.62" fy="225.60163481554264" r="25.69" gradientTransform="matrix(0.94, -0.35, 0.22, 0.59, -47.94, 18.57)" gradientUnits="userSpaceOnUse"><stop offset="0.28" stop-color="#fcb23b" stop-opacity="0.4"/><stop offset="0.93" stop-color="#f47a20" stop-opacity="0"/></radialGradient><linearGradient id="linear-gradient-147" x1="139.18" y1="102.33" x2="92.61" y2="99.91" gradientUnits="userSpaceOnUse"><stop offset="0" stop-color="#d6d6d8"/><stop offset="0" stop-color="#d7d7d9" stop-opacity="0.96"/><stop offset="0.03" stop-color="#dddee0" stop-opacity="0.76"/><stop offset="0.06" stop-color="#e2e4e7" stop-opacity="0.58"/><stop offset="0.09" stop-color="#e7e9ec" stop-opacity="0.42"/><stop offset="0.13" stop-color="#ebedf1" stop-opacity="0.29"/><stop offset="0.16" stop-color="#eef0f5" stop-opacity="0.18"/><stop offset="0.21" stop-color="#f0f3f7" stop-opacity="0.1"/><stop offset="0.26" stop-color="#f2f5fa" stop-opacity="0.04"/><stop offset="0.33" stop-color="#f3f6fb" stop-opacity="0.01"/><stop offset="0.5" stop-color="#f3f6fb" stop-opacity="0"/><stop offset="0.67" stop-color="#f3f6fb" stop-opacity="0.01"/><stop offset="0.74" stop-color="#f2f5fa" stop-opacity="0.04"/><stop offset="0.79" stop-color="#f0f3f7" stop-opacity="0.1"/><stop offset="0.84" stop-color="#eef0f5" stop-opacity="0.18"/><stop offset="0.87" stop-color="#ebedf1" stop-opacity="0.29"/><stop offset="0.91" stop-color="#e7e9ec" stop-opacity="0.42"/><stop offset="0.94" stop-color="#e2e4e7" stop-opacity="0.58"/><stop offset="0.97" stop-color="#dddee0" stop-opacity="0.76"/><stop offset="1" stop-color="#d7d7d9" stop-opacity="0.96"/><stop offset="1" stop-color="#d6d6d8"/></linearGradient><linearGradient id="linear-gradient-148" x1="109.29" y1="86.89" x2="119.27" y2="64.31" xlink:href="#linear-gradient-51"/><linearGradient id="linear-gradient-149" x1="90.41" y1="73.7" x2="141.5" y2="73.7" xlink:href="#linear-gradient-54"/><linearGradient id="linear-gradient-150" x1="111.2" y1="82.12" x2="116.52" y2="70.55" gradientUnits="userSpaceOnUse"><stop offset="0" stop-color="#585e6c"/><stop offset="1" stop-color="#3d4249"/></linearGradient><linearGradient id="linear-gradient-151" x1="91.96" y1="71.28" x2="128.08" y2="71.19" xlink:href="#linear-gradient-55"/><linearGradient id="linear-gradient-152" x1="107.39" y1="67.35" x2="120.84" y2="71.54" xlink:href="#linear-gradient-51"/><linearGradient id="linear-gradient-153" x1="112.01" y1="74.34" x2="122.3" y2="61.12" gradientUnits="userSpaceOnUse"><stop offset="0" stop-color="#f8fafd"/><stop offset="1" stop-color="#eaeae8"/></linearGradient><linearGradient id="linear-gradient-154" x1="109.05" y1="66.44" x2="122.88" y2="67.16" gradientUnits="userSpaceOnUse"><stop offset="0.01" stop-color="#f58022"/><stop offset="0.45" stop-color="#f7922b"/><stop offset="1" stop-color="#f47a20"/></linearGradient><linearGradient id="linear-gradient-155" x1="111.58" y1="68.25" x2="120.08" y2="62.92" gradientUnits="userSpaceOnUse"><stop offset="0" stop-color="#fcb125"/><stop offset="1" stop-color="#f68a27"/></linearGradient><linearGradient id="linear-gradient-156" x1="111.35" y1="64.21" x2="120.56" y2="64.21" xlink:href="#linear-gradient-54"/><linearGradient id="linear-gradient-157" x1="118.67" y1="60.59" x2="114.19" y2="64.42" xlink:href="#linear-gradient-55"/><linearGradient id="linear-gradient-158" x1="99.98" y1="87.58" x2="97.01" y2="87.76" gradientTransform="matrix(1, 0, 0, 1, 0, 0)" xlink:href="#linear-gradient-100"/><linearGradient id="linear-gradient-159" x1="131.86" y1="87.28" x2="135.16" y2="87.75" gradientTransform="matrix(1, 0, 0, 1, 0, 0)" xlink:href="#linear-gradient-100"/><linearGradient id="linear-gradient-160" x1="101.76" y1="86.87" x2="91.61" y2="86.84" gradientUnits="userSpaceOnUse"><stop offset="0.01" stop-color="#f58022"/><stop offset="0.26" stop-color="#f68a27"/><stop offset="0.58" stop-color="#f7922b"/><stop offset="0.67" stop-color="#f68726"/><stop offset="0.81" stop-color="#f47d21"/><stop offset="1" stop-color="#f47a20"/></linearGradient><linearGradient id="linear-gradient-161" x1="140.41" y1="86.86" x2="130.39" y2="86.79" gradientUnits="userSpaceOnUse"><stop offset="0.01" stop-color="#f58022"/><stop offset="0.2" stop-color="#f58424"/><stop offset="0.39" stop-color="#f78f2a"/><stop offset="0.42" stop-color="#f7922b"/><stop offset="0.66" stop-color="#f68c28"/><stop offset="0.99" stop-color="#f47b20"/><stop offset="1" stop-color="#f47a20"/></linearGradient><linearGradient id="linear-gradient-162" x1="99.86" y1="81.4" x2="92.51" y2="79.27" xlink:href="#linear-gradient-155"/><linearGradient id="linear-gradient-163" x1="129.19" y1="80.3" x2="140.25" y2="80.54" xlink:href="#linear-gradient-155"/><linearGradient id="linear-gradient-164" x1="135" y1="64.34" x2="137.1" y2="62.5" gradientTransform="matrix(1, 0, 0, 1, 0, 0)" xlink:href="#linear-gradient-100"/><linearGradient id="linear-gradient-165" x1="96.71" y1="64.34" x2="95.2" y2="62.42" gradientTransform="matrix(1, 0, 0, 1, 0, 0)" xlink:href="#linear-gradient-100"/><linearGradient id="linear-gradient-166" x1="92.51" y1="62.04" x2="102.49" y2="62.04" gradientUnits="userSpaceOnUse"><stop offset="0.01" stop-color="#f58022"/><stop offset="0.55" stop-color="#f7922b"/><stop offset="0.64" stop-color="#f68626"/><stop offset="0.77" stop-color="#f47d21"/><stop offset="0.95" stop-color="#f47a20"/></linearGradient><linearGradient id="linear-gradient-167" x1="139.3" y1="62.12" x2="129.59" y2="62.05" gradientUnits="userSpaceOnUse"><stop offset="0.01" stop-color="#f58022"/><stop offset="0.54" stop-color="#f7922b"/><stop offset="0.55" stop-color="#f7902a"/><stop offset="0.63" stop-color="#f58324"/><stop offset="0.75" stop-color="#f47c21"/><stop offset="1" stop-color="#f47a20"/></linearGradient><linearGradient id="linear-gradient-168" x1="138.59" y1="58.81" x2="131.14" y2="59.16" xlink:href="#linear-gradient-155"/><linearGradient id="linear-gradient-169" x1="93.86" y1="59.39" x2="100.23" y2="58.72" xlink:href="#linear-gradient-155"/><linearGradient id="linear-gradient-170" x1="138.92" y1="80.25" x2="131.36" y2="79.62" xlink:href="#linear-gradient-155"/><linearGradient id="linear-gradient-171" x1="94.12" y1="81.08" x2="100.1" y2="78.35" xlink:href="#linear-gradient-155"/><linearGradient id="linear-gradient-172" x1="132.32" y1="58.99" x2="138.37" y2="57.65" xlink:href="#linear-gradient-155"/><linearGradient id="linear-gradient-173" x1="98.7" y1="58.98" x2="93.91" y2="57.12" xlink:href="#linear-gradient-155"/><linearGradient id="linear-gradient-174" x1="-244.56" y1="535.76" x2="-249.11" y2="544.14" gradientTransform="translate(608.98 -98.15) rotate(45)" xlink:href="#linear-gradient-55"/><linearGradient id="linear-gradient-175" x1="-254.16" y1="493.86" x2="-257.37" y2="499.76" gradientTransform="translate(608.98 -98.15) rotate(45)" xlink:href="#linear-gradient-49"/><linearGradient id="linear-gradient-176" x1="125.05" y1="84.01" x2="122.17" y2="89.32" xlink:href="#linear-gradient-49"/><linearGradient id="linear-gradient-177" x1="65.09" y1="84.75" x2="62.21" y2="90.06" gradientTransform="matrix(1, 0, 0, 1, 0, 0)" xlink:href="#linear-gradient-2"/><linearGradient id="linear-gradient-178" x1="135.29" y1="33.57" x2="131.76" y2="40.08" xlink:href="#linear-gradient-55"/><linearGradient id="linear-gradient-179" x1="113.78" y1="42.81" x2="118.67" y2="42.81" gradientTransform="translate(3.77 94.72) rotate(-45)" xlink:href="#linear-gradient-2"/><linearGradient id="linear-gradient-180" x1="81.9" y1="62.15" x2="86.79" y2="62.15" gradientTransform="translate(-19.25 77.84) rotate(-45)" xlink:href="#linear-gradient-2"/><linearGradient id="linear-gradient-181" x1="155.64" y1="87.41" x2="158.52" y2="87.41" gradientTransform="translate(-15.8 136.67) rotate(-45)" xlink:href="#linear-gradient-55"/><linearGradient id="linear-gradient-182" x1="119.29" y1="83.19" x2="123.17" y2="83.19" gradientTransform="matrix(1, 0, 0, 1, 0, 0)" xlink:href="#linear-gradient-2"/><linearGradient id="linear-gradient-183" x1="75.34" y1="51.67" x2="75.4" y2="36.39" gradientTransform="matrix(1, 0, 0, 1, 0, 0)" xlink:href="#linear-gradient-2"/><linearGradient id="linear-gradient-184" x1="2831.22" y1="1255.56" x2="2831.24" y2="1251.27" gradientTransform="translate(3151.82 436.66) rotate(163.22)" xlink:href="#linear-gradient-2"/><linearGradient id="linear-gradient-185" x1="82.9" y1="53.87" x2="82.93" y2="46.75" gradientTransform="matrix(1, 0, 0, 1, 0, 0)" xlink:href="#linear-gradient-2"/><linearGradient id="linear-gradient-186" x1="99.45" y1="766.57" x2="159.7" y2="766.57" gradientTransform="matrix(1, 0, 0, -1, 87.17, 851.21)" xlink:href="#linear-gradient-2"/><linearGradient id="linear-gradient-187" x1="163.64" y1="127.09" x2="163.64" y2="84.79" gradientUnits="userSpaceOnUse"><stop offset="0" stop-color="#f9a033" stop-opacity="0"/><stop offset="0.1" stop-color="#f99d31" stop-opacity="0.18"/><stop offset="0.23" stop-color="#f8992f" stop-opacity="0.39"/><stop offset="0.36" stop-color="#f8952d" stop-opacity="0.58"/><stop offset="0.49" stop-color="#f8922b" stop-opacity="0.73"/><stop offset="0.62" stop-color="#f7902a" stop-opacity="0.85"/><stop offset="0.75" stop-color="#f78e29" stop-opacity="0.93"/><stop offset="0.88" stop-color="#f78d28" stop-opacity="0.98"/><stop offset="1" stop-color="#f78d28"/></linearGradient><linearGradient id="linear-gradient-188" x1="163.61" y1="92.55" x2="163.65" y2="82.89" gradientTransform="matrix(1, 0, 0, 1, 0, 0)" xlink:href="#linear-gradient-2"/><linearGradient id="linear-gradient-189" x1="114.98" y1="163.13" x2="114.98" y2="128.11" xlink:href="#linear-gradient-187"/><linearGradient id="linear-gradient-190" x1="114.95" y1="135.87" x2="114.99" y2="126.22" gradientTransform="matrix(1, 0, 0, 1, 0, 0)" xlink:href="#linear-gradient-2"/><linearGradient id="linear-gradient-191" x1="81.37" y1="113.97" x2="81.37" y2="71.67" xlink:href="#linear-gradient-187"/><linearGradient id="linear-gradient-192" x1="81.35" y1="77.93" x2="81.38" y2="70.34" gradientTransform="matrix(1, 0, 0, 1, 0, 0)" xlink:href="#linear-gradient-2"/><linearGradient id="linear-gradient-193" x1="169.25" y1="128.42" x2="169.25" y2="73.93" xlink:href="#linear-gradient-187"/><linearGradient id="linear-gradient-194" x1="169.23" y1="79.31" x2="169.26" y2="72.93" gradientTransform="matrix(1, 0, 0, 1, 0, 0)" xlink:href="#linear-gradient-2"/><linearGradient id="linear-gradient-195" x1="110.58" y1="165.27" x2="110.58" y2="135.04" xlink:href="#linear-gradient-187"/><linearGradient id="linear-gradient-196" x1="110.56" y1="140.42" x2="110.59" y2="134.05" gradientTransform="matrix(1, 0, 0, 1, 0, 0)" xlink:href="#linear-gradient-2"/><linearGradient id="linear-gradient-197" x1="149.39" y1="105.62" x2="149.24" y2="85.02" gradientUnits="userSpaceOnUse"><stop offset="0" stop-color="#535967" stop-opacity="0"/><stop offset="1" stop-color="#40454d"/></linearGradient><linearGradient id="linear-gradient-198" x1="149.21" y1="88.82" x2="149.24" y2="81.23" xlink:href="#linear-gradient-55"/><linearGradient id="linear-gradient-199" x1="76.28" y1="111.17" x2="76.13" y2="90.58" xlink:href="#linear-gradient-197"/><linearGradient id="linear-gradient-200" x1="76.09" y1="94.37" x2="76.13" y2="86.79" xlink:href="#linear-gradient-55"/><linearGradient id="linear-gradient-201" x1="55.3" y1="120.28" x2="55.45" y2="102.06" gradientUnits="userSpaceOnUse"><stop offset="0" stop-color="#f3f6fb" stop-opacity="0"/><stop offset="1" stop-color="#d6d6d8"/></linearGradient><linearGradient id="linear-gradient-202" x1="55.43" y1="106.61" x2="55.46" y2="100.23" xlink:href="#linear-gradient-51"/><linearGradient id="linear-gradient-203" x1="144.19" y1="132.95" x2="144.34" y2="114.73" xlink:href="#linear-gradient-201"/><linearGradient id="linear-gradient-204" x1="144.32" y1="119.28" x2="144.35" y2="112.91" xlink:href="#linear-gradient-51"/><linearGradient id="linear-gradient-205" x1="154.75" y1="65.6" x2="154.81" y2="50.31" gradientTransform="matrix(1, 0, 0, 1, 0, 0)" xlink:href="#linear-gradient-2"/><linearGradient id="linear-gradient-206" x1="159.07" y1="75.44" x2="159.1" y2="68.65" gradientTransform="matrix(1, 0, 0, 1, 0, 0)" xlink:href="#linear-gradient-2"/><linearGradient id="linear-gradient-207" x1="149.43" y1="69.95" x2="149.47" y2="60.11" gradientTransform="matrix(1, 0, 0, 1, 0, 0)" xlink:href="#linear-gradient-2"/><linearGradient id="linear-gradient-208" x1="177.08" y1="108.48" x2="177.1" y2="101.89" gradientTransform="matrix(1, 0, 0, 1, 0, 0)" xlink:href="#linear-gradient-2"/><linearGradient id="linear-gradient-209" x1="64.45" y1="117.11" x2="64.5" y2="104.88" gradientTransform="matrix(1, 0, 0, 1, 0, 0)" xlink:href="#linear-gradient-2"/><linearGradient id="linear-gradient-210" x1="88.69" y1="106.54" x2="88.72" y2="99.05" gradientTransform="matrix(1, 0, 0, 1, 0, 0)" xlink:href="#linear-gradient-2"/><linearGradient id="linear-gradient-211" x1="136.69" y1="124.07" x2="136.73" y2="114.91" gradientTransform="matrix(1, 0, 0, 1, 0, 0)" xlink:href="#linear-gradient-2"/><linearGradient id="linear-gradient-212" x1="2849.07" y1="1181.52" x2="2849.1" y2="1174.21" gradientTransform="translate(3151.82 436.66) rotate(163.22)" xlink:href="#linear-gradient-2"/></defs><title>technology-that-learns</title><g id="Layer_2" data-name="Layer 2"><g id="Layer_1-2" data-name="Layer 1"><path class="cls-1" d="M202.86,39.94l.09-.15,12.11,6.67,21.34,12.3L239,60.22a.75.75,0,0,1,0,1.3h0a.75.75,0,0,1-.78,0L235.71,60,214.63,47.2Z"/><path class="cls-2" d="M233.58,65.86h0a3.11,3.11,0,0,1-3.08,0h0a1,1,0,0,1,0-1.77h0a3.12,3.12,0,0,1,3.1,0h0A1,1,0,0,1,233.58,65.86Z"/><path class="cls-3" d="M278.33,39.65l-2,1.16L182.67,94.67l-1.82-1.45,92-53.63-18.45-11.3a1.28,1.28,0,0,1,0-2.18h0a2.08,2.08,0,0,1,2.2,0l19.76,12.28Z"/><path class="cls-4" d="M285.8,116.31l-7.79,4-.82.42-.73-.44L208.66,80a.75.75,0,0,1,0-1.26h0a1.23,1.23,0,0,1,1.29-.06l67.34,38.45,5.25-2.8Z"/><path class="cls-5" d="M206.29,77.58h0a4.16,4.16,0,0,1,4.11,0h0a1.36,1.36,0,0,1,0,2.36l0,0a4.14,4.14,0,0,1-4.14,0h0A1.36,1.36,0,0,1,206.29,77.58Z"/><path class="cls-6" d="M236.71,60l0,0a3.74,3.74,0,0,1,3.72,0h0a1.23,1.23,0,0,1,0,2.13h0a3.75,3.75,0,0,1-3.75,0h0A1.22,1.22,0,0,1,236.71,60Z"/><path class="cls-7" d="M242.82,56.59h0a3.42,3.42,0,0,1,3.39,0h0a1.12,1.12,0,0,1,0,2h0a3.41,3.41,0,0,1-3.41,0h0A1.12,1.12,0,0,1,242.82,56.59Z"/><path class="cls-8" d="M249.92,52.62h0a3.2,3.2,0,0,1,3.17,0h0a1,1,0,0,1,0,1.82h0a3.21,3.21,0,0,1-3.2,0h0A1.05,1.05,0,0,1,249.92,52.62Z"/><polygon class="cls-9" points="74.45 83.88 12.53 119.92 51.2 142.9 53.57 144.26 51.18 145.64 3.45 172.96 0 170.79 47.25 144.2 8.9 121.16 7.25 120.17 8.92 119.24 71.42 83.53 36.28 62.67 38.24 61.93 74.46 83.21 75.02 83.54 74.45 83.88"/><path class="cls-10" d="M27.61,128.42l0,0a4.12,4.12,0,0,0-4.09-.05h0a1.35,1.35,0,0,0,0,2.35l0,0a4.15,4.15,0,0,0,4.12,0h0A1.35,1.35,0,0,0,27.61,128.42Z"/><path class="cls-11" d="M33.32,132h0a3.42,3.42,0,0,0-3.38,0h0a1.12,1.12,0,0,0,0,1.94h0a3.41,3.41,0,0,0,3.41,0h0A1.12,1.12,0,0,0,33.32,132Z"/><path class="cls-12" d="M22,125.55h0a3,3,0,0,0-3,0h0a1,1,0,0,0,0,1.71h0a3,3,0,0,0,3,0h0A1,1,0,0,0,22,125.55Z"/><path class="cls-13" d="M39.22,135.77h0a3,3,0,0,0-3,0h0a1,1,0,0,0,0,1.71h0a3,3,0,0,0,3,0h0A1,1,0,0,0,39.22,135.77Z"/><path class="cls-14" d="M60.45,174.59l-10.06-5.5-10-5.57c-3.33-1.87-6.74-3.61-10-5.65-.74-.48-1.91-1.21-1.56-1.94l.08-.14c.42-.44,1.65.19,2.35.6,3.36,1.83,6.54,4,9.79,6l9.76,6,9.71,6.1Z"/><path class="cls-15" d="M27.67,157.27h0a3.47,3.47,0,0,0,3.46,0h0a1.14,1.14,0,0,0,0-2h0a3.48,3.48,0,0,0-3.49,0h0A1.14,1.14,0,0,0,27.67,157.27Z"/><path class="cls-16" d="M21.69,160.53l0,0a3,3,0,0,0,3,0h0a1,1,0,0,0,0-1.73h0a3.05,3.05,0,0,0-3,0h0A1,1,0,0,0,21.69,160.53Z"/><path class="cls-17" d="M231.5,121l-1.06.59a1.7,1.7,0,0,1-1.69,0L146.82,74.09l-1.08-.62,1.07-.64,42.34-25.38L110,1.72,112.84,0,192,46.45l2.3,1.12-1.66,1L149.91,73.19Z"/><path class="cls-18" d="M116.27,48.3l12.1-7.5,12.16-7.39c4.06-2.45,8-5.08,12.22-7.29,1.74-1.09,3.51-1.92,4.28-1.24l.12.21c.77,1.24-1.89,2.3-3.21,3.1-4,2.51-8.3,4.6-12.46,6.88L129,41.84l-12.57,6.67Z"/><path class="cls-19" d="M135.57,47.39c2.92-1.89,5.87-3.74,8.8-5.61l8.85-5.5c3-1.82,5.82-3.82,8.91-5.4,1.75-.74,2.16-1.33,3.46-.65l.12.21c.24,1-1.12,1.77-2.38,2.51-2.93,1.88-6.09,3.34-9.16,5L145,42.82c-3.09,1.59-6.16,3.21-9.27,4.78Z"/><path class="cls-20" d="M152.67,24.69l0,0a4.43,4.43,0,0,1,4.4,0h0a1.45,1.45,0,0,1,0,2.52l0,0a4.44,4.44,0,0,1-4.43,0h0A1.45,1.45,0,0,1,152.67,24.69Z"/><path class="cls-21" d="M144.66,20.27l0,0a3.78,3.78,0,0,1,3.74,0h0a1.24,1.24,0,0,1,0,2.15h0a3.79,3.79,0,0,1-3.77,0h0A1.24,1.24,0,0,1,144.66,20.27Z"/><path class="cls-22" d="M136.87,15.79h0a3.78,3.78,0,0,1,3.74,0v0a1.23,1.23,0,0,1,0,2.14l0,0a3.79,3.79,0,0,1-3.77,0h0A1.24,1.24,0,0,1,136.87,15.79Z"/><path class="cls-23" d="M161.28,29.93l0,0a4.25,4.25,0,0,1,4.2,0h0a1.39,1.39,0,0,1,0,2.41l0,0a4.26,4.26,0,0,1-4.23,0h0A1.39,1.39,0,0,1,161.28,29.93Z"/><path class="cls-24" d="M44.26,50.18l13.17-7.52C50,38.14,27.65,25.48,20.23,20.93l.12-.2c7.94,4.43,30.84,16.89,38.75,21.36l1,.57-1,.6L45.16,51.7,32.9,59.18c5.46,3.16,10.92,6.32,16.34,9.55,4.51,2.65,9,5.34,13.49,8a1.09,1.09,0,0,1,.18,1.73h0a1.09,1.09,0,0,1-1.28.14Q54.82,74.73,48,70.78c-6-3.48-12-7.05-17.95-10.59l-1.69-1,1.68-1Z"/><g class="cls-25"><polygon class="cls-26" points="201.96 146.99 129.12 189.07 93.13 167.88 29.05 205.48 31.57 206.83 93.11 173.18 129.1 194.36 201.95 152.27 284.98 199.35 287.75 197.72 201.96 146.99"/></g><path class="cls-27" d="M273.6,149.79l-11.52,6.3-11.47,6.39c-3.82,2.14-7.72,4.13-11.42,6.47-.85.54-2.19,1.38-1.79,2.21l.1.17c.47.5,1.88-.23,2.68-.69,3.85-2.09,7.49-4.53,11.22-6.81l11.17-6.89,11.13-7Z"/><path class="cls-28" d="M118.25,162.87c3,1.95,6,3.86,9,5.78l9.08,5.7c3,1.89,6,3.92,9.14,5.61s2.71,1.11,3.59,1.2l.1-.17c-.05-.73.31-.79-2.7-2.72s-6.21-3.53-9.33-5.27l-9.38-5.19c-3.15-1.7-6.28-3.43-9.43-5.11Z"/><path class="cls-29" d="M134.72,163.45c2.26,1.52,4.56,3,6.84,4.48l6.89,4.39c2.3,1.45,4.52,3.05,6.94,4.3.81.52,1.17.28,1.48,0l.1-.17c.2-.28.4-.85-.59-1.52-2.28-1.5-4.75-2.66-7.14-4l-7.19-3.89c-2.41-1.26-4.81-2.55-7.23-3.79Z"/><path class="cls-30" d="M153.78,175.38l0,0a3.77,3.77,0,0,1,3.75,0h0a1.24,1.24,0,0,1,0,2.15h0a3.81,3.81,0,0,1-3.78,0h0A1.24,1.24,0,0,1,153.78,175.38Z"/><path class="cls-31" d="M146,179.78l0,0a4,4,0,0,1,4,0h0a1.31,1.31,0,0,1,0,2.27l0,0a4,4,0,0,1-4,0h0A1.3,1.3,0,0,1,146,179.78Z"/><path class="cls-32" d="M161.61,171l0,0a3.59,3.59,0,0,1,3.55,0h0a1.17,1.17,0,0,1,0,2h0a3.58,3.58,0,0,1-3.58,0h0A1.17,1.17,0,0,1,161.61,171Z"/><path class="cls-33" d="M169.51,166.6h0a3.23,3.23,0,0,1,3.2,0h0a1.06,1.06,0,0,1,0,1.84h0a3.22,3.22,0,0,1-3.23,0h0A1.06,1.06,0,0,1,169.51,166.6Z"/><path class="cls-34" d="M107,176.84h0a3.73,3.73,0,0,0-3.7,0h0a1.22,1.22,0,0,0,0,2.12l0,0a3.74,3.74,0,0,0,3.72,0h0A1.22,1.22,0,0,0,107,176.84Z"/><path class="cls-35" d="M100.91,173.73l0,0a3.23,3.23,0,0,0-3.2,0h0a1.06,1.06,0,0,0,0,1.84h0a3.22,3.22,0,0,0,3.23,0h0A1.06,1.06,0,0,0,100.91,173.73Z"/><path class="cls-36" d="M113,180.28h0a4,4,0,0,0-4,0h0a1.31,1.31,0,0,0,0,2.28h0a4,4,0,0,0,4,0h0A1.31,1.31,0,0,0,113,180.28Z"/><path class="cls-37" d="M241.54,174.83l0,0a3.16,3.16,0,0,0,3.12,0h0a1,1,0,0,0,0-1.79h0a3.14,3.14,0,0,0-3.15,0h0A1,1,0,0,0,241.54,174.83Z"/><path class="cls-38" d="M231.49,169h0a3.13,3.13,0,0,0,3.12,0h0a1,1,0,0,0,0-1.8h0a3.16,3.16,0,0,0-3.15,0h0A1,1,0,0,0,231.49,169Z"/><path class="cls-39" d="M245.21,176h0a2.73,2.73,0,0,0,2.71,0h0a.89.89,0,0,0,0-1.55l0,0a2.74,2.74,0,0,0-2.73,0h0A.89.89,0,0,0,245.21,176Z"/><path class="cls-40" d="M236.46,171.92l0,0a3.39,3.39,0,0,0,3.35,0h0a1.1,1.1,0,0,0,0-1.92l0,0a3.4,3.4,0,0,0-3.38,0h0A1.11,1.11,0,0,0,236.46,171.92Z"/><path class="cls-41" d="M247.49,74.65c-2.38,1.56-4.8,3.07-7.2,4.6L233,83.76c-2.42,1.5-4.76,3.14-7.3,4.43-1.43.6-1.77,1.09-2.83.53l-.1-.17c-.19-.82.92-1.45,1.95-2.06,2.4-1.54,5-2.74,7.5-4.09l7.55-4c2.53-1.3,5-2.63,7.6-3.91Z"/><path class="cls-42" d="M226.43,89h0A3.44,3.44,0,0,1,223,89h0a1.14,1.14,0,0,1,0-2h0a3.45,3.45,0,0,1,3.46,0h0A1.14,1.14,0,0,1,226.43,89Z"/><path class="cls-43" d="M181.32,93.59l.76.43,22.68,13.27c.25-.15.8-.29,1.06-.45L184.37,93.73l13.88-8.37a.74.74,0,0,0-.11-1.32h0a1.7,1.7,0,0,0-1.52.13l-14.53,8.94Z"/><path class="cls-44" d="M184.66,92.71l0,0a3.24,3.24,0,0,0-3.19,0h0a1.05,1.05,0,0,0,0,1.83h0a3.23,3.23,0,0,0,3.21,0h0A1.05,1.05,0,0,0,184.66,92.71Z"/><polygon class="cls-45" points="75.06 83.64 73.2 84.79 68.97 87.41 66.4 85.75 70.04 83.67 42.26 67 41.27 66.42 42.25 65.87 69.66 50.59 71.1 51.36 44.82 66.34 73.19 82.6 75.06 83.64"/><path class="cls-46" d="M64.84,78.8h0a4,4,0,0,1-4,0h0a1.32,1.32,0,0,1,0-2.29l0,0a4,4,0,0,1,4,0h0A1.32,1.32,0,0,1,64.84,78.8Z"/><path class="cls-47" d="M58.8,75.32l0,0a3.73,3.73,0,0,1-3.7,0h0a1.22,1.22,0,0,1,0-2.12h0a3.76,3.76,0,0,1,3.73,0h0A1.22,1.22,0,0,1,58.8,75.32Z"/><path class="cls-48" d="M44.79,67.48h0a3.46,3.46,0,0,1-3.44,0h0a1.14,1.14,0,0,1,0-2l0,0a3.47,3.47,0,0,1,3.47,0h0A1.14,1.14,0,0,1,44.79,67.48Z"/><path class="cls-49" d="M52.12,71.64l0,0a3.51,3.51,0,0,1-3.45,0h0a1.14,1.14,0,0,1,0-2h0a3.47,3.47,0,0,1,3.47,0h0A1.14,1.14,0,0,1,52.12,71.64Z"/><path class="cls-50" d="M107.2,95.21,65,113.75c-1.67,1-.9,7.81-.91,9.5a5,5,0,0,0,2.52,4.4l40.83,23.73a16.85,16.85,0,0,0,16.89,0l41.05-23.59a5,5,0,0,0,2.54-4.39c0-1.7.76-8.71-.92-9.69L124.15,95.19A16.87,16.87,0,0,0,107.2,95.21Z"/><path class="cls-51" d="M107.2,88.21,66.58,111.9a5.06,5.06,0,0,0,0,8.75l40.83,23.73a16.85,16.85,0,0,0,16.89,0l41.05-23.59a5.07,5.07,0,0,0,0-8.78L124.15,88.19A16.87,16.87,0,0,0,107.2,88.21Z"/><path class="cls-52" d="M107.43,88.52l-39.52,23a4.93,4.93,0,0,0,0,8.52l39.72,23.09a16.41,16.41,0,0,0,16.43,0l39.94-23a4.93,4.93,0,0,0,0-8.54L123.93,88.5A16.42,16.42,0,0,0,107.43,88.52Z"/><path class="cls-53" d="M109.11,89.7,72.2,111.22a5.27,5.27,0,0,0,0,9.11l37.09,21.56a13.11,13.11,0,0,0,13.13,0l37.29-21.43a5.28,5.28,0,0,0,0-9.14L122.29,89.68A13.08,13.08,0,0,0,109.11,89.7Z"/><path class="cls-54" d="M108.69,92.48,75,112.14a4.21,4.21,0,0,0,0,7.27l33.88,19.7a14,14,0,0,0,14,0L157,119.55a4.2,4.2,0,0,0,0-7.28L122.76,92.46A14,14,0,0,0,108.69,92.48Z"/><path class="cls-55" d="M151.89,117.39a3.45,3.45,0,0,0-1.43-1.56L121.69,99.17a11.79,11.79,0,0,0-11.84,0L81.49,115.72a3.4,3.4,0,0,0-1.41,1.56,3.52,3.52,0,0,1,1.41-4.56l28.36-16.53a11.79,11.79,0,0,1,11.84,0l28.77,16.66A3.53,3.53,0,0,1,151.89,117.39Z"/><path class="cls-56" d="M151.89,117.39a3.45,3.45,0,0,1-1.44,1.57l-28.66,16.47a11.8,11.8,0,0,1-11.79,0L81.5,118.84a3.43,3.43,0,0,1-1.42-1.56,3.4,3.4,0,0,1,1.41-1.56l28.36-16.53a11.79,11.79,0,0,1,11.84,0l28.77,16.66A3.45,3.45,0,0,1,151.89,117.39Z"/><path class="cls-57" d="M151.53,112.34,121.87,94.91a12,12,0,0,0-12.21,0L80.42,112.22A3.71,3.71,0,0,0,79,117a3.47,3.47,0,0,0,1.46,1.63L109.81,136A12,12,0,0,0,122,136l29.55-17.23a3.53,3.53,0,0,0,1.48-1.64A3.71,3.71,0,0,0,151.53,112.34Zm.36,5a3.45,3.45,0,0,1-1.44,1.57l-28.66,16.47a11.8,11.8,0,0,1-11.79,0L81.5,118.84a3.43,3.43,0,0,1-1.42-1.56,3.52,3.52,0,0,1,1.41-4.56l28.36-16.53a11.79,11.79,0,0,1,11.84,0l28.77,16.66A3.53,3.53,0,0,1,151.89,117.39Z"/><path class="cls-58" d="M137.13,154.73a.87.87,0,0,1-.41-.11l-5.83-3.24a.86.86,0,0,1-.42-.58L129,143.72l-5.45-3.11a.84.84,0,1,1,.83-1.47l5.79,3.3a.84.84,0,0,1,.41.56l1.43,7.09,5.49,3a.85.85,0,0,1-.41,1.59Z"/><path class="cls-59" d="M140.8,152.66a.87.87,0,0,1-.41-.11l-5.83-3.24a.86.86,0,0,1-.42-.58l-1.43-7.08-5.45-3.11a.84.84,0,1,1,.83-1.47l5.79,3.3a.84.84,0,0,1,.41.56l1.43,7.09,5.49,3a.85.85,0,0,1-.41,1.59Z"/><path class="cls-60" d="M144.47,150.59a.87.87,0,0,1-.41-.11l-5.84-3.24a.88.88,0,0,1-.41-.58l-1.43-7.08-5.45-3.11a.84.84,0,0,1,.83-1.47l5.79,3.3a.84.84,0,0,1,.41.56l1.43,7.09,5.49,3.05a.85.85,0,0,1-.41,1.59Z"/><path class="cls-61" d="M148.14,148.52a.87.87,0,0,1-.41-.11l-5.83-3.24a.86.86,0,0,1-.42-.58l-1.43-7.08-5.45-3.11a.84.84,0,0,1,.83-1.47l5.79,3.3a.84.84,0,0,1,.41.56l1.43,7.09,5.49,3.05a.85.85,0,0,1-.41,1.59Z"/><path class="cls-62" d="M151.71,146.42a.9.9,0,0,1-.41-.11l-5.83-3.25a.84.84,0,0,1-.42-.57l-1.43-7.09-5.45-3.1a.84.84,0,0,1-.32-1.15.85.85,0,0,1,1.16-.32l5.79,3.29a.88.88,0,0,1,.41.57l1.42,7.08,5.5,3.06a.85.85,0,0,1,.33,1.15A.87.87,0,0,1,151.71,146.42Z"/><path class="cls-63" d="M155.32,144.32a.87.87,0,0,1-.41-.11L149.08,141a.84.84,0,0,1-.42-.57l-1.43-7.09-5.45-3.1a.84.84,0,0,1-.32-1.15.85.85,0,0,1,1.16-.32L148.4,132a.86.86,0,0,1,.41.57l1.43,7.08,5.49,3.06a.85.85,0,0,1-.41,1.59Z"/><path class="cls-64" d="M159,142.25a.87.87,0,0,1-.41-.11l-5.83-3.25a.84.84,0,0,1-.42-.57l-1.43-7.09-5.45-3.1a.84.84,0,0,1-.32-1.15.85.85,0,0,1,1.16-.32l5.78,3.29a.86.86,0,0,1,.41.57l1.43,7.08,5.49,3.06a.85.85,0,0,1-.41,1.59Z"/><path class="cls-65" d="M162.54,140.11a.9.9,0,0,1-.42-.1l-5.83-3.25a.84.84,0,0,1-.42-.57l-1.43-7.09L149,126a.86.86,0,0,1-.32-1.16.85.85,0,0,1,1.16-.31l5.79,3.29a.86.86,0,0,1,.41.57l1.43,7.08,5.49,3.06a.84.84,0,0,1-.41,1.58Z"/><path class="cls-66" d="M166.2,138a.88.88,0,0,1-.41-.1L160,134.69a.84.84,0,0,1-.42-.57L158.11,127l-5.45-3.1a.85.85,0,1,1,.84-1.47l5.78,3.29a.84.84,0,0,1,.42.57l1.42,7.08,5.5,3.06a.84.84,0,0,1-.42,1.58Z"/><path class="cls-67" d="M169.81,135.91a.77.77,0,0,1-.41-.11l-5.83-3.24a.84.84,0,0,1-.42-.58l-1.43-7.08-5.45-3.1a.85.85,0,0,1,.84-1.48l5.78,3.3a.81.81,0,0,1,.41.57l1.43,7.08,5.49,3a.85.85,0,0,1-.41,1.59Z"/><path class="cls-68" d="M95.11,154.73a.87.87,0,0,1-.75-.44.85.85,0,0,1,.33-1.15l5.5-3,1.42-7.09a.84.84,0,0,1,.41-.56l5.79-3.3a.85.85,0,0,1,1.16.32.84.84,0,0,1-.32,1.15l-5.45,3.11-1.43,7.08a.86.86,0,0,1-.42.58l-5.83,3.24A.9.9,0,0,1,95.11,154.73Z"/><path class="cls-69" d="M91.44,152.66a.87.87,0,0,1-.75-.44.85.85,0,0,1,.33-1.15l5.5-3,1.42-7.09a.82.82,0,0,1,.42-.56l5.78-3.3a.85.85,0,0,1,1.16.32.84.84,0,0,1-.32,1.15l-5.45,3.11-1.43,7.08a.86.86,0,0,1-.42.58l-5.83,3.24A.9.9,0,0,1,91.44,152.66Z"/><path class="cls-70" d="M87.77,150.59a.84.84,0,0,1-.74-.44.85.85,0,0,1,.32-1.15l5.5-3.05,1.42-7.09a.82.82,0,0,1,.42-.56l5.78-3.3a.85.85,0,0,1,1.16.32.84.84,0,0,1-.32,1.15l-5.45,3.11-1.43,7.08a.86.86,0,0,1-.42.58l-5.83,3.24A.87.87,0,0,1,87.77,150.59Z"/><path class="cls-71" d="M84.1,148.52a.84.84,0,0,1-.74-.44.85.85,0,0,1,.32-1.15l5.5-3.05,1.42-7.09a.82.82,0,0,1,.42-.56l5.78-3.3a.85.85,0,0,1,1.16.32.84.84,0,0,1-.32,1.15l-5.45,3.11-1.43,7.08a.86.86,0,0,1-.42.58l-5.83,3.24A.87.87,0,0,1,84.1,148.52Z"/><path class="cls-72" d="M80.52,146.42a.85.85,0,0,1-.41-1.59l5.49-3.06L87,134.69a.88.88,0,0,1,.41-.57l5.79-3.29a.84.84,0,0,1,.83,1.47l-5.45,3.1-1.43,7.09a.86.86,0,0,1-.41.57l-5.84,3.25A.87.87,0,0,1,80.52,146.42Z"/><path class="cls-73" d="M76.91,144.32a.86.86,0,0,1-.74-.44.85.85,0,0,1,.33-1.15L82,139.67l1.43-7.08a.86.86,0,0,1,.41-.57l5.79-3.29a.85.85,0,1,1,.84,1.47L85,133.3l-1.43,7.09a.84.84,0,0,1-.42.57l-5.83,3.25A.91.91,0,0,1,76.91,144.32Z"/><path class="cls-74" d="M73.24,142.25a.86.86,0,0,1-.74-.44.85.85,0,0,1,.33-1.15l5.49-3.06,1.43-7.08a.86.86,0,0,1,.41-.57L86,126.66a.85.85,0,1,1,.84,1.47l-5.45,3.1-1.43,7.09a.84.84,0,0,1-.42.57l-5.83,3.25A.91.91,0,0,1,73.24,142.25Z"/><path class="cls-75" d="M69.7,140.11a.83.83,0,0,1-.74-.43.84.84,0,0,1,.33-1.15l5.49-3.06,1.43-7.08a.86.86,0,0,1,.41-.57l5.79-3.29a.84.84,0,0,1,1.15.31.85.85,0,0,1-.32,1.16l-5.45,3.1-1.43,7.09a.86.86,0,0,1-.41.57L70.11,140A.86.86,0,0,1,69.7,140.11Z"/><path class="cls-76" d="M66,138a.84.84,0,0,1-.41-1.58l5.49-3.06,1.43-7.08a.86.86,0,0,1,.41-.57l5.79-3.29a.84.84,0,1,1,.83,1.47L74.12,127l-1.43,7.09a.83.83,0,0,1-.41.57l-5.84,3.25A.86.86,0,0,1,66,138Z"/><path class="cls-77" d="M62.42,135.91a.87.87,0,0,1-.74-.43.86.86,0,0,1,.33-1.16l5.49-3,1.43-7.08a.84.84,0,0,1,.41-.57l5.79-3.3a.85.85,0,0,1,1.16.32A.86.86,0,0,1,76,121.8l-5.45,3.1L69.09,132a.84.84,0,0,1-.42.58l-5.83,3.24A.83.83,0,0,1,62.42,135.91Z"/><path class="cls-78" d="M98.12,93.47a.88.88,0,0,1-.42-.11l-5.79-3.3a.84.84,0,0,1-.32-1.15.85.85,0,0,1,1.16-.32l5.17,3,2.89-3.46a.83.83,0,0,1,1.07-.19l5.78,3.29a.84.84,0,0,1,.32,1.15.85.85,0,0,1-1.16.32l-5.17-2.94-2.88,3.45A.86.86,0,0,1,98.12,93.47Z"/><path class="cls-79" d="M135,94.36a.85.85,0,0,1-.64-.29L131,90.17l-5.18,3a.84.84,0,0,1-1.15-.31.85.85,0,0,1,.32-1.16l5.78-3.29a.84.84,0,0,1,1.06.18l3.36,3.9,5.18-3a.85.85,0,0,1,.84,1.47l-5.79,3.29A.8.8,0,0,1,135,94.36Z"/><path class="cls-80" d="M94.51,95.6a.91.91,0,0,1-.42-.11L88.3,92.2A.86.86,0,0,1,88,91a.85.85,0,0,1,1.15-.32l5.17,3,2.89-3.46A.85.85,0,0,1,98.27,90l5.79,3.29a.86.86,0,0,1,.31,1.16.84.84,0,0,1-1.15.31l-5.17-2.94L95.16,95.3A.88.88,0,0,1,94.51,95.6Z"/><path class="cls-81" d="M138.57,96.5a.85.85,0,0,1-.64-.3l-3.36-3.89-5.18,3a.85.85,0,0,1-.84-1.48l5.79-3.29a.86.86,0,0,1,1.06.18l3.36,3.9,5.18-2.95a.84.84,0,0,1,.83,1.47L139,96.39A.91.91,0,0,1,138.57,96.5Z"/><path class="cls-82" d="M90.84,97.67a.91.91,0,0,1-.42-.11l-5.78-3.29a.85.85,0,0,1,.83-1.48l5.17,2.95,2.89-3.46a.85.85,0,0,1,1.07-.19l5.79,3.29a.86.86,0,0,1,.31,1.16.84.84,0,0,1-1.15.31l-5.17-2.94-2.89,3.46A.88.88,0,0,1,90.84,97.67Z"/><path class="cls-83" d="M87.3,99.8a.78.78,0,0,1-.42-.11L81.09,96.4a.85.85,0,1,1,.84-1.47l5.17,2.94L90,94.41a.85.85,0,0,1,1.07-.19l5.78,3.3a.84.84,0,0,1,.32,1.15A.85.85,0,0,1,96,99L90.83,96,88,99.5A.85.85,0,0,1,87.3,99.8Z"/><path class="cls-84" d="M83.63,101.87a.78.78,0,0,1-.42-.11l-5.79-3.29A.85.85,0,1,1,78.26,97l5.17,2.94,2.89-3.46a.85.85,0,0,1,1.07-.19l5.78,3.29a.85.85,0,1,1-.84,1.48l-5.17-3-2.88,3.46A.85.85,0,0,1,83.63,101.87Z"/><path class="cls-85" d="M80,104a.8.8,0,0,1-.42-.11l-5.79-3.29a.85.85,0,0,1,.84-1.47L79.82,102l2.89-3.45a.85.85,0,0,1,1.07-.2l5.79,3.3a.85.85,0,0,1-.84,1.47l-5.17-2.94-2.89,3.45A.85.85,0,0,1,80,104Z"/><path class="cls-86" d="M76.44,106.08A.78.78,0,0,1,76,106l-5.79-3.29a.84.84,0,0,1-.32-1.15.85.85,0,0,1,1.16-.32l5.17,2.94,2.88-3.45a.85.85,0,0,1,1.07-.2l5.79,3.3a.84.84,0,0,1,.32,1.15.85.85,0,0,1-1.16.32L80,102.32l-2.89,3.45A.83.83,0,0,1,76.44,106.08Z"/><path class="cls-87" d="M72.77,108.15a.78.78,0,0,1-.41-.12l-5.79-3.29a.84.84,0,0,1-.32-1.15.85.85,0,0,1,1.16-.32l5.17,2.94,2.89-3.45a.83.83,0,0,1,1.06-.2l5.79,3.3a.84.84,0,0,1,.32,1.15.85.85,0,0,1-1.16.32l-5.17-2.94-2.88,3.45A.86.86,0,0,1,72.77,108.15Z"/><path class="cls-88" d="M69.11,110.22a.79.79,0,0,1-.42-.12l-5.79-3.29a.84.84,0,0,1-.32-1.15.85.85,0,0,1,1.16-.32l5.17,2.94,2.89-3.45a.83.83,0,0,1,1.06-.2l5.79,3.3a.84.84,0,0,1,.32,1.15.85.85,0,0,1-1.16.32l-5.17-2.94-2.88,3.45A.86.86,0,0,1,69.11,110.22Z"/><path class="cls-89" d="M65.44,112.29a.88.88,0,0,1-.42-.11l-5.79-3.3a.84.84,0,0,1-.32-1.15.85.85,0,0,1,1.16-.32l5.17,2.94,2.89-3.45a.85.85,0,0,1,1.07-.2L75,110a.84.84,0,0,1,.32,1.15.85.85,0,0,1-1.16.32L69,108.53,66.09,112A.86.86,0,0,1,65.44,112.29Z"/><path class="cls-90" d="M142.24,98.57a.85.85,0,0,1-.64-.3l-3.36-3.89-5.18,3a.84.84,0,0,1-1.15-.32.85.85,0,0,1,.31-1.16L138,92.56a.86.86,0,0,1,1.06.18l3.36,3.9,5.18-3a.84.84,0,0,1,.83,1.47l-5.78,3.3A.91.91,0,0,1,142.24,98.57Z"/><path class="cls-91" d="M145.78,100.7a.83.83,0,0,1-.64-.3l-3.35-3.89-5.19,2.95a.84.84,0,1,1-.83-1.47l5.78-3.3a.84.84,0,0,1,1.06.19L146,98.77l5.18-3A.85.85,0,0,1,152,97.3l-5.79,3.29A.88.88,0,0,1,145.78,100.7Z"/><path class="cls-92" d="M149.45,102.77a.83.83,0,0,1-.64-.3l-3.36-3.89-5.18,3a.84.84,0,0,1-.83-1.47l5.78-3.3a.84.84,0,0,1,1.06.19l3.36,3.89,5.18-3a.85.85,0,0,1,.84,1.47l-5.79,3.3A.91.91,0,0,1,149.45,102.77Z"/><path class="cls-93" d="M153.06,104.87a.84.84,0,0,1-.64-.29l-3.36-3.9-5.18,2.95a.85.85,0,0,1-.84-1.47l5.79-3.3a.86.86,0,0,1,1.06.19l3.36,3.89,5.18-3a.84.84,0,0,1,1.15.32.85.85,0,0,1-.32,1.16l-5.78,3.29A.91.91,0,0,1,153.06,104.87Z"/><path class="cls-94" d="M156.63,107a.85.85,0,0,1-.64-.29l-3.35-3.9-5.18,3a.85.85,0,0,1-1.16-.32.84.84,0,0,1,.32-1.15L152.4,101a.85.85,0,0,1,1.07.18l3.35,3.89L162,102.1a.85.85,0,1,1,.84,1.47l-5.79,3.29A.88.88,0,0,1,156.63,107Z"/><path class="cls-95" d="M160.3,109a.85.85,0,0,1-.64-.29l-3.35-3.9-5.19,3a.84.84,0,1,1-.83-1.47l5.79-3.29a.85.85,0,0,1,1.06.18l3.35,3.89,5.18-2.94a.85.85,0,1,1,.84,1.47l-5.79,3.29A.88.88,0,0,1,160.3,109Z"/><path class="cls-96" d="M164,111.11a.85.85,0,0,1-.64-.29l-3.35-3.9-5.19,3a.84.84,0,0,1-.83-1.47l5.78-3.29a.84.84,0,0,1,1.06.18l3.36,3.89,5.18-2.94a.85.85,0,1,1,.84,1.47L164.39,111A.88.88,0,0,1,164,111.11Z"/><path class="cls-97" d="M167.64,113.18a.85.85,0,0,1-.64-.29l-3.35-3.9-5.19,3a.84.84,0,1,1-.83-1.47l5.78-3.29a.84.84,0,0,1,1.06.18l3.36,3.89,5.18-2.94a.85.85,0,1,1,.84,1.47l-5.79,3.29A.88.88,0,0,1,167.64,113.18Z"/><path class="cls-98" d="M139,71.81v46c0-8.33-10.32-15.08-23-15.08s-23,6.75-23,15.08v-46c0-8.33,10.31-15.08,23-15.08S139,63.48,139,71.81Z"/><ellipse class="cls-99" cx="115.96" cy="117.8" rx="23.03" ry="15.08"/><ellipse class="cls-100" cx="115.96" cy="117.8" rx="20.89" ry="13.68"/><ellipse class="cls-101" cx="115.96" cy="115.91" rx="17.9" ry="11.72"/><ellipse class="cls-102" cx="115.96" cy="117.7" rx="23.1" ry="15.08"/><path class="cls-103" d="M119.94,116.32a85.87,85.87,0,0,1-15.4,2.61l-.46,0s-2.63.26-3.57-1.38a3,3,0,0,1-.13-2.87.73.73,0,0,1,.07-.13,2.83,2.83,0,0,1-.31-.36,3.92,3.92,0,0,1-.58-1.18,2.9,2.9,0,0,1,0-1.5,2.17,2.17,0,0,1,.07-.24h0a3.87,3.87,0,0,1,1-1.56,5.1,5.1,0,0,1,1.18-.84.12.12,0,0,1,0-.05,4.38,4.38,0,0,1,0-1.37,2.89,2.89,0,0,1,1.89-2.36,4.74,4.74,0,0,1,1.12-.26h0a4.69,4.69,0,0,1,.18-.89,3.07,3.07,0,0,1,2.48-2.34,1.87,1.87,0,0,1,.34,0H108a2.92,2.92,0,0,1,.3-.74c.45-.8,1.5-1.86,3.85-1.31l.56.15a2.73,2.73,0,0,1,2.38-1.6,3.43,3.43,0,0,1,2.05.49,1.42,1.42,0,0,1,.33.28h0a5.92,5.92,0,0,1,1.72-.55,2.22,2.22,0,0,1,2.55,1.18,1.71,1.71,0,0,1,.3-.14,2.48,2.48,0,0,1,2.7.35h0a2.66,2.66,0,0,1,.54.81s2.19-.16,2.17,2.5S127.27,114.21,119.94,116.32Z"/><path class="cls-104" d="M104.54,118.93l-.46,0s-2.63.26-3.57-1.38a3,3,0,0,1-.06-3,2.83,2.83,0,0,1-.31-.36c.52-.08.88.7,1,1.73.17,1.58,3.17,1.54,3.17,1.54C105.4,117.48,105,118.24,104.54,118.93Z"/><path class="cls-105" d="M102.42,112s1.23,1.69,3.22-.15,1.34,1.42,1.34,1.42S102.61,114.67,102.42,112Z"/><path class="cls-106" d="M102,109.87c-.51.29-.13.65.39.69s0,.85,1,1.47,1.7-.38,1.66-1.24S103.07,109.22,102,109.87Z"/><path class="cls-107" d="M104,108.11l.07-.09C104,108.27,103.84,108.39,104,108.11Z"/><path class="cls-108" d="M103.71,105.12a4.62,4.62,0,0,1,1.16-.26,4.69,4.69,0,0,1,.18-.89l.31.29a25.74,25.74,0,0,1,.46,2.87,4.08,4.08,0,0,0-1.71.89c.2-.32.45-.84.12-.91-.6-.13-.69-.36-.1-.47S104.39,105.46,103.71,105.12Z"/><path class="cls-109" d="M108.35,110.82c-.69.38-2.41,1-2.68.66s0-1.76-1.34-2.25a5.33,5.33,0,0,0-2.5-.38,4.38,4.38,0,0,1,0-1.37c.19.49.73,1.06,2.18,1.1,2.61.06,3.24-1.31,3.24-1.31s1.58.51,1.58.81S109,110.43,108.35,110.82Z"/><path class="cls-110" d="M109.14,108.52s-3-.38-3.79-2a6.91,6.91,0,0,1-.52-1.63h0a4.69,4.69,0,0,1,.18-.89,3,3,0,0,1,2.82-2.37l-.13.05c-.71.25-1.5.84-1.45,3s2.27,3,3.29,3.17S110.65,108.58,109.14,108.52Z"/><path class="cls-111" d="M110.1,103.38a1.6,1.6,0,0,0-.22,1.08c.12.56,1.13.58,1.51.26s.89-1.53.19-2.08a1.54,1.54,0,0,0-1.92,0c-.46.26-.4.9,0,.58S110.31,103.17,110.1,103.38Z"/><path class="cls-112" d="M109,102.85a2.37,2.37,0,0,0-.8,2.9,3.89,3.89,0,0,0,3.15,2.12c.57.15.51-1.58.51-1.58S107.87,106.16,109,102.85Z"/><path class="cls-113" d="M115.82,100.33a.64.64,0,0,1,0-.2C115.88,100,115.87,100.09,115.82,100.33Z"/><path class="cls-114" d="M116.59,102.9s-.81,1.89-.85,2a13.46,13.46,0,0,1-1.95.39c-.08,0-.46.27-1.18-1.71s-3.42-.85-3.42-.85a1.89,1.89,0,0,0-1.66-1.07,1.87,1.87,0,0,1,.34,0H108a2.92,2.92,0,0,1,.3-.74,14.83,14.83,0,0,0,2.71.6c1.37,0,2.34,1.58,3.41,1.31.77-.2,1.22-1.78,1.36-2.43a3.07,3.07,0,0,0,.79,1.89C117.24,103,116.59,102.9,116.59,102.9Z"/><path class="cls-115" d="M116.4,99.43a1.91,1.91,0,0,0-2.05.5c-.27.36-.55,1.43-.64.91s-.84-.89-1.42-1.24l-.1-.06.56.15a2.73,2.73,0,0,1,2.38-1.6,2.84,2.84,0,0,1,2.38.77h0C118.27,99.57,117.06,99.79,116.4,99.43Z"/><path class="cls-116" d="M122.43,101.53l-.93.67-1.57,1.46-2.7-.57a4,4,0,0,0,1.1-2.11c.09-1.11-1.14-2.17-1.14-2.17v-.23a1.42,1.42,0,0,1,.33.28h0a5.92,5.92,0,0,1,1.72-.55c-.15.27-.35.66-.5.91a1.44,1.44,0,0,0,.6,1.8,2.31,2.31,0,0,0,2,0c.09-.13.55-.69.46-.29S122.43,101.53,122.43,101.53Z"/><path class="cls-117" d="M120.25,98.58a.87.87,0,0,0-.89.92c0,.93,1.13,1,1.47.78s1-.69.4-1.26S120.25,98.58,120.25,98.58Z"/><path class="cls-118" d="M125,100.91c-.07.9-.69.41-.82.31s0-.38-.25-1-1-.07-1.56-.31c-.26-.11-.29-.34-.22-.59a2.48,2.48,0,0,1,2.7.35h0A3.22,3.22,0,0,1,125,100.91Z"/><path class="cls-119" d="M105.05,115.38a4.72,4.72,0,0,1-4.33-.39,2.42,2.42,0,0,1-.34-.28.73.73,0,0,1,.07-.13,2.83,2.83,0,0,1-.31-.36,3.92,3.92,0,0,1-.58-1.18,2.9,2.9,0,0,1,0-1.5,2.17,2.17,0,0,1,.07-.24h0a3.87,3.87,0,0,1,1-1.56.19.19,0,0,0,0,.08c-.52,1.71.1,3.6,1.34,4.17a5.15,5.15,0,0,0,3,.09S105.52,115,105.05,115.38Z"/><path class="cls-120" d="M105.05,115.38a4.72,4.72,0,0,1-4.33-.39,2.42,2.42,0,0,1-.34-.28.73.73,0,0,1,.07-.13,2.83,2.83,0,0,1-.31-.36,3.92,3.92,0,0,1-.58-1.18,2.9,2.9,0,0,1,0-1.5,2.17,2.17,0,0,1,.07-.24h0a3.87,3.87,0,0,1,1-1.56.19.19,0,0,0,0,.08c-.52,1.71.1,3.6,1.34,4.17a5.15,5.15,0,0,0,3,.09S105.52,115,105.05,115.38Z"/><path class="cls-121" d="M133,113a3.5,3.5,0,0,1-2.51,2.52,3.09,3.09,0,0,1-1,2.12,2.71,2.71,0,0,1-1.16.56,3.74,3.74,0,0,1-.69.09,3.13,3.13,0,0,1-.57,0,.39.39,0,0,1,0,.11,2.67,2.67,0,0,1-.86,2.49c-1.14,1.06-2.88.39-3.24.23l-.07,0c0,.14-.08.26-.12.38-.89,2.21-3.86,1.28-3.86,1.28a3.45,3.45,0,0,1-.42.43,3.61,3.61,0,0,1-3.89.34h0c-3.81,1.53-5.55-.58-6-1.27-.08-.13-.12-.21-.12-.21h0c-.53.47-4,.16-5.08-2.2a2.82,2.82,0,0,1-.2-2.28,2.54,2.54,0,0,1,.3-.57,2.61,2.61,0,0,1,.73-.73c-.29-2.12.62-2.66.92-2.77a.25.25,0,0,1,.1,0c0-3.25,2-3.44,2-3.44.65-3.25,3.22-2.82,3.22-2.82.81-2.88,4.08-2.92,4.08-2.92,1.5-3.39,5.69-1.8,5.69-1.8,1.51-2.13,4.38-.64,4.38-.64a4.51,4.51,0,0,1,3.86.23c2.19,1.08,1.9,2.62,1.9,2.62l0,0a4.49,4.49,0,0,1,.75.44,3.81,3.81,0,0,1,1.16,1.53,5.43,5.43,0,0,1,.39,2.26c0,.24,0,.38,0,.38l0,0C133.14,109.66,133.54,110.9,133,113Z"/><path class="cls-122" d="M106.79,117.16c-.7-.17-.15-.67-1.47-.75a3.35,3.35,0,0,0-1.83.52,2.61,2.61,0,0,1,.73-.73c-.29-2.12.62-2.66.92-2.77.07,0,.06.11,0,.18a1.35,1.35,0,0,0-.36,1.7c.22.62,1.38.4,2,.61S107.5,117.32,106.79,117.16Z"/><path class="cls-123" d="M127.06,118.23a.39.39,0,0,1,0,.11,2.67,2.67,0,0,1-.86,2.49c-1.14,1.06-2.88.39-3.24.23l-.07,0c0,.14-.08.26-.12.38l0,0c-.49-.67.25-2.36.25-2.36s1.62,1.66,2.79.6.42-2,.42-2l1.33.26s0,.13.06.33A3.13,3.13,0,0,1,127.06,118.23Z"/><path class="cls-124" d="M133,113a3.5,3.5,0,0,1-2.51,2.52,3.09,3.09,0,0,1-1,2.12l-.63.33a3,3,0,0,1-.53.23,3,3,0,0,1-1.23.17c-1.72-.12-3-1.68-2.57-2.78a1.7,1.7,0,0,0-.43-2.13c-.6-.65-1-.23,1.11-.47s.94-1.92,1.42-1.41,0,2.06-.52,2.49-.45,1.16-.14,2.39,2.55,1,3.29.15.08-3.07.08-3.07a1.37,1.37,0,0,1,1.49.48c.68.8,1.18-1,1.26-1.4s0-.88-1-.66-1.24-.24-1.24-.24a14.29,14.29,0,0,0,1.59-.72c.56-.34,1-2.14,1-2.14l.18,0c0,.24,0,.38,0,.38C133.13,109.63,133.55,110.87,133,113Z"/><path class="cls-125" d="M132.68,109.28a4.58,4.58,0,0,1-.8,1.56c-1.06,1.2-1.6,1.47-3.58,1.33,0,0,.07-2.08-1.31-2.8s-1.93-.53-1.93-.53A2.27,2.27,0,0,0,123,110c-.68,1.22-.23,2.87.68,3.1,0,0-1.48-.07-1.74,1.21s-.64-.41-.12-1.06,0-2,0-2a2.43,2.43,0,0,0,.57-2.62c-.65-1.49-1.79-1.54-2.43-1.12s-.8-.94-.48-1,1,.27,1.41,0,1-.86,1-.6-.12,1.9.57,2.25a6.6,6.6,0,0,0,3.1.18c.6-.16,2.76.08,3.08,1.72s1.94,1.3,2.73.31a3.81,3.81,0,0,0,1-3.29.53.53,0,0,1,0-.46,5.43,5.43,0,0,1,.39,2.26c0,.24,0,.38,0,.38Z"/><path class="cls-126" d="M131.14,105.09a2,2,0,0,1-1.87,1,2.19,2.19,0,0,0,1.12-1.49A4.49,4.49,0,0,1,131.14,105.09Z"/><path class="cls-127" d="M126.74,103.47s.74.26.32,1.31-1.92.81-2.52.45a1.84,1.84,0,0,1-.69-2.08,1.11,1.11,0,0,1-1.1.86c-.92,0-.34-1.13-2.32-1.31,0,0,2,1.15,1.62,2.71,0,0-.24.43.25,0s1.32-.73,2.77.22a1,1,0,0,1,.24,1.18c-.31.79.14-.68.91-.78a1.45,1.45,0,0,0,1.24-1.36A.94.94,0,0,0,126.74,103.47Z"/><path class="cls-128" d="M118.87,103.65c-.36.16-.43.89-.28,1.58s-.6,1.61-2.11,1.67-2.06-.66-2.66-.44,0,.79.07,1.36.13.88-.38,1.11.82.11.87-.8-.14-.73.51-.5a3.05,3.05,0,0,0,2.9-.09c1-.75,1.2-1.18,1.22-1.49s-.18.59,1,.66a1.76,1.76,0,0,0,1.94-1.17,1.87,1.87,0,0,0-.49-1.83c-.49-.33.5.53-.17,1.33s-1.45.67-1.7-.11S119.26,103.48,118.87,103.65Z"/><path class="cls-129" d="M112.25,105a4.11,4.11,0,0,1,3.67.06c2.06,1-.18-.46.09-1.31a2.3,2.3,0,0,1,2.08-1.63c1.16-.16-2.37-.37-3.09,1.5,0,0-.09.6-.34.63S112.9,104.12,112.25,105Z"/><path class="cls-130" d="M111.47,114.18a4,4,0,0,1,1.4,3.39c-.34,2-.45.21,1,.24s3.21,1.17,4.84.14a10.39,10.39,0,0,0,2.13-1.63l-.41-.55s-.44-.35-.72,0a3.72,3.72,0,0,1-3.23,1.7c-2-.12-2.73-.11-3.24-.8a2.76,2.76,0,0,1,.21-2.57c.33-.51.08-1.07-.39-.75S111.22,113.74,111.47,114.18Z"/><path class="cls-131" d="M124.52,115.56a2.94,2.94,0,0,1-2.72,1.19,5.4,5.4,0,0,1-2.19-.69s-.09-1.69.5-1.17,1.87,1.54,3.14,1.1a1.65,1.65,0,0,0,1.12-2.2C124.05,113.36,125.08,114.14,124.52,115.56Z"/><path class="cls-132" d="M113.07,116.44c.27.63,1.21,1.47,3.88,1.12a3.93,3.93,0,0,0,3.46-3.32,6.29,6.29,0,0,0-.42-2.43l-1.76-.44s1.72,2.39.32,4.25-3.56,1.18-4.15,1-1.7-.61-1.1-2.29A2.66,2.66,0,0,0,113.07,116.44Z"/><path class="cls-133" d="M116.1,115.54s.76-1.56-.29-2.23-2.08-.41-2.27,0,.63-1.18.28-1.84.73-.7.73-.7a1.28,1.28,0,0,0,.87,1.77c1.44.57,1.73.27,2.31-.22a1,1,0,0,1-.88,1.14S117.35,115.37,116.1,115.54Z"/><path class="cls-134" d="M110.51,119.58a2.13,2.13,0,0,0-.81-1.77,7.72,7.72,0,0,0-1.18-.7,1.37,1.37,0,0,0-.08-1.75c-.72-1.09-1.23-1.54-1.88-1.5a3.74,3.74,0,0,1-1.18-.12,3.12,3.12,0,0,1,.32-2.6c.81-1.21.4.08.44,1s.26.06,2,.92a3.1,3.1,0,0,1,1.86,2.79c.07.64-.23.66.41,1.11s1.41,1,1.25,1.5.77.46,1,0-.25.88-1.23,1.52S110.51,119.58,110.51,119.58Z"/><path class="cls-135" d="M123,121.06l-.07,0c-.68,2.69-4,1.66-4,1.66a3.45,3.45,0,0,1-.42.43,2.53,2.53,0,0,1-.47-.44,1.48,1.48,0,0,1,.32-.9c.32-.33.72-2,1-1.11s.7,1.11,2.25.49,1.11-3.53,1.1-3.61A4.49,4.49,0,0,1,123,121.06Z"/><path class="cls-136" d="M119.12,119.68a3.31,3.31,0,0,1-.51,3.27c-1.25,1.67-3.61.61-4,.31s1.29-2.1,1.3-2.23.21-1,.21-1a.68.68,0,0,1,.91.72c.06,1,1.59.6,1.6-.07s-.4-2-.1-2.41S118.87,119.19,119.12,119.68Z"/><path class="cls-137" d="M115.57,122.3a8,8,0,0,1-.94,1.16h0c-3.81,1.53-5.55-.58-6-1.27-.08-.13-.12-.21-.12-.21h0a1.91,1.91,0,0,1,.7-1.36c.38-.35,2.4-2.28,2.8-1.05a2.85,2.85,0,0,1-1.14,1.84c-1,.68-.38,1.45.53,1.5s3.26,0,4-1.3.83-2.23.35-2.76S117.19,119.94,115.57,122.3Z"/><path class="cls-138" d="M108.6,122.18c-.08-.13-.12-.21-.12-.21-.5.48-4,.18-5.09-2.19a2.82,2.82,0,0,1-.2-2.28l0,0A3.64,3.64,0,0,0,105,120.4c1.74,1,3.59.6,4.15-.21s1-1.69.93-2,.39-.47.52.78A3,3,0,0,1,108.6,122.18Z"/><path class="cls-139" d="M122.91,110.17c-.23.43-.65,2.49,1,3s2.67-.26,2.62-1.3a1.35,1.35,0,0,0-1.48-1.46c-.85,0-.28.74-.87.83s-.6-.95-.13-1.54a2.67,2.67,0,0,1,3-.32S124.22,107.74,122.91,110.17Z"/><path class="cls-140" d="M126.19,103.29c.29.16.94.91.27,1.44s-2.57.09-2.65-.82.29-2.29,2.68-2.34a2.14,2.14,0,0,1,2.48,2.12c0,.3-.43-.23-.86-.83a2.16,2.16,0,0,0-2.29-.29C125.44,102.88,125.7,103,126.19,103.29Z"/><path class="cls-141" d="M120,110.28a1.59,1.59,0,1,1,1.71-2.61c.53.72.21,1.32-.23,1.47s-1.09-.09-1.11.36S120.53,110.39,120,110.28Z"/><path class="cls-142" d="M122.63,115.38s-.89-.36-.85-.85a1.4,1.4,0,0,1,1.32-1.44c1,0,1,.68.79,1.11s-1.22.13-1.12.57S122.94,115.45,122.63,115.38Z"/><path class="cls-143" d="M106,113.25c-.43,0-1.34.79-1.19,1.41s1.21.64,2,.45,1.83.77,1.4,1.57-.2,1.69.31,1a2.76,2.76,0,0,0,.27-2.92A2.53,2.53,0,0,0,106,113.25Z"/><path class="cls-144" d="M124.24,101.84a3.87,3.87,0,0,0-2.78-.29c-1.16.51.3,1.37.89,1.17S123.26,101.74,124.24,101.84Z"/><path class="cls-145" d="M113.5,106c-.65.29-.52.81-.42,1.29s.32,1.3-.53,1.64-1.55-.35-1.36-1.86a2.27,2.27,0,0,1,2.56-2C114.94,105.07,114.47,105.53,113.5,106Z"/><path class="cls-146" d="M119,116.71a1.64,1.64,0,0,0-.35,2.13,1.44,1.44,0,0,0,2.28.38c.44-.44.59-1,.39-1.2s-1.23-.62-1-1a1.18,1.18,0,0,1,1.4-.29C122.21,117,120.52,115.62,119,116.71Z"/><path class="cls-147" d="M114.2,121.18a1.3,1.3,0,0,1-1.84-.35,1.94,1.94,0,0,1,.82-2.43,2.91,2.91,0,0,1,2.48.45c.48.46.38,2-.59,1.52s-1.52-.61-1.43,0S114.54,120.78,114.2,121.18Z"/><path class="cls-148" d="M109.52,107.8a.82.82,0,0,0-1.09,0,3.25,3.25,0,0,0-1.14,3.13,4.09,4.09,0,0,0,3.78,3.58c1.41,0,2.38-.53,2.65-1.68s-.57,0-1.17.22-2.89-.29-3.06-2.08C109.35,109.5,110.11,108.38,109.52,107.8Z"/><path class="cls-149" d="M111.09,106a3.77,3.77,0,0,0-.1,4.06,3.21,3.21,0,0,0,4,1.11c.58-.25,1.43-1,1.36-1.83a3.88,3.88,0,0,0,2,2.52c2,.92,3.23.35,4-.69a2.25,2.25,0,0,0,.16-2.59l-.83-.9s1.16,1.57.32,2.76a2.77,2.77,0,0,1-3.61.57,4.21,4.21,0,0,1-1.39-3.19c.07-.84-2.29-.54-2.29-.54s1.09,1.23.49,2.33-3.2,1.23-3.89-.19A4.27,4.27,0,0,1,111.09,106Z"/><path class="cls-150" d="M127.89,106s-1.13,2-2.68,2.08-2.57-.14-2.89-1.2.88-1.77,1.79-1.7a1.75,1.75,0,0,0-2.2.53c-1,1.19.12,2.52.81,2.8a4.15,4.15,0,0,0,3.85-.37c1.66-1,.32-.56,1.59.31s3.06.24,3.14-.52a2.57,2.57,0,0,0-.14-1.26s0,1.34-1.08,1.35-1.89-.13-2-.84S128.2,105.68,127.89,106Z"/><path class="cls-151" d="M127.22,101.57a4.23,4.23,0,0,0-2.64.21s-2.87-1.49-4.39.65c0,0-4.18-1.6-5.68,1.79,0,0-3.27,0-4.08,2.91,0,0-2.58-.42-3.22,2.82,0,0-2,.2-2,3.44l-.08,0c-.31.13-1.22.66-.93,2.77a2.92,2.92,0,0,0-.73.74,2.54,2.54,0,0,0-.3.57,2.62,2.62,0,0,0-.09,1.45,3.22,3.22,0,0,1-2.58-1.38,3,3,0,0,1-.14-2.86.73.73,0,0,1,.07-.13,4.34,4.34,0,0,1-.31-.36,3.6,3.6,0,0,1-.58-1.18,2.9,2.9,0,0,1,0-1.5,2.17,2.17,0,0,1,.07-.24,3.91,3.91,0,0,1,1-1.57,5.31,5.31,0,0,1,1.17-.83.18.18,0,0,0,0-.05,4.49,4.49,0,0,1,0-1.37,2.9,2.9,0,0,1,1.89-2.36,5.28,5.28,0,0,1,1.12-.26h0a4.85,4.85,0,0,1,.18-.88,3.07,3.07,0,0,1,2.49-2.34,1.69,1.69,0,0,1,.33,0H108a3.06,3.06,0,0,1,.3-.75c.44-.78,1.5-1.86,3.86-1.3l.55.15a2.73,2.73,0,0,1,2.38-1.6,3.44,3.44,0,0,1,2.05.48,1.9,1.9,0,0,1,.34.29h0a5.4,5.4,0,0,1,1.71-.55,2.23,2.23,0,0,1,2.55,1.17l.3-.13a2.47,2.47,0,0,1,2.69.35,2.69,2.69,0,0,1,.56.81A2,2,0,0,1,127.22,101.57Z"/><path class="cls-152" d="M133,113a3.5,3.5,0,0,1-2.51,2.52,3.09,3.09,0,0,1-1,2.12,2.71,2.71,0,0,1-1.16.56,3.74,3.74,0,0,1-.69.09,3.13,3.13,0,0,1-.57,0,.39.39,0,0,1,0,.11,2.67,2.67,0,0,1-.86,2.49c-1.14,1.06-2.88.39-3.24.23l-.07,0c0,.14-.08.26-.12.38-.89,2.21-3.86,1.28-3.86,1.28a3.45,3.45,0,0,1-.42.43,3.61,3.61,0,0,1-3.89.34h0c-3.81,1.53-5.55-.58-6-1.27-.08-.13-.12-.21-.12-.21h0c-.53.47-4,.16-5.08-2.2a2.82,2.82,0,0,1-.2-2.28,2.54,2.54,0,0,1,.3-.57,2.61,2.61,0,0,1,.73-.73c-.29-2.12.62-2.66.92-2.77a.25.25,0,0,1,.1,0c0-3.25,2-3.44,2-3.44.65-3.25,3.22-2.82,3.22-2.82.81-2.88,4.08-2.92,4.08-2.92,1.5-3.39,5.69-1.8,5.69-1.8,1.51-2.13,4.38-.64,4.38-.64a4.51,4.51,0,0,1,3.86.23c2.19,1.08,1.9,2.62,1.9,2.62l0,0a4.49,4.49,0,0,1,.75.44,3.81,3.81,0,0,1,1.16,1.53,5.43,5.43,0,0,1,.39,2.26c0,.24,0,.38,0,.38l0,0C133.14,109.66,133.54,110.9,133,113Z"/><path class="cls-153" d="M136.84,71.81v46c0,7.56-9.34,13.68-20.89,13.68s-20.89-6.12-20.89-13.68v-46c0,7.56,9.36,13.68,20.89,13.68S136.84,79.37,136.84,71.81Z"/><path class="cls-154" d="M116,56.73c-12.71,0-23,6.75-23,15.08s10.31,15.08,23,15.08,23-6.75,23-15.08S128.67,56.73,116,56.73Zm0,28.76c-11.53,0-20.89-6.12-20.89-13.68S104.42,58.13,116,58.13s20.89,6.12,20.89,13.68S127.5,85.49,116,85.49Z"/><path class="cls-155" d="M141.5,71.78v3.83c0,9.24-11.44,16.74-25.55,16.74s-25.54-7.5-25.54-16.74V71.78c0-9.24,11.43-16.73,25.54-16.73S141.5,62.54,141.5,71.78Z"/><path class="cls-156" d="M141.5,71.78c0,9.24-11.44,16.73-25.55,16.73S90.41,81,90.41,71.78,101.84,55.05,116,55.05,141.5,62.54,141.5,71.78Z"/><path class="cls-157" d="M140.17,71.22c0,8.76-10.84,15.86-24.22,15.86S91.74,80,91.74,71.22,102.58,55.36,116,55.36,140.17,62.46,140.17,71.22Z"/><path class="cls-158" d="M129.7,70c0,5-6.16,9-13.75,9s-13.74-4-13.74-9,6.15-9,13.74-9S129.7,65,129.7,70Z"/><path class="cls-159" d="M128.27,69.27c0,4.45-5.51,8.06-12.32,8.06s-12.31-3.61-12.31-8.06S109.15,61.2,116,61.2,128.27,64.81,128.27,69.27Z"/><path class="cls-160" d="M122.94,65.51V68.1c0,2.53-3.13,4.57-7,4.57s-7-2-7-4.57V65.51c0-2.53,3.12-4.58,7-4.58S122.94,63,122.94,65.51Z"/><path class="cls-161" d="M122.94,65.51c0,2.52-3.13,4.57-7,4.57s-7-2-7-4.57,3.13-4.58,7-4.58S122.94,63,122.94,65.51Z"/><path class="cls-162" d="M120.56,62.91v2.6c0,1.66-2.07,3-4.61,3s-4.6-1.34-4.6-3v-2.6c0-1.66,2.07-3,4.6-3S120.56,61.25,120.56,62.91Z"/><path class="cls-163" d="M120.55,62.91c0,1.66-2.06,3-4.59,3s-4.6-1.35-4.6-3,2.06-3,4.6-3S120.55,61.25,120.55,62.91Z"/><path class="cls-164" d="M100.22,88.79,99,89.52h0L96.34,91a1.16,1.16,0,0,1-1.19,0A22.73,22.73,0,0,1,91.57,88a.36.36,0,0,1-.1-.18v-.11a.37.37,0,0,1,.18-.29l3.62-2c.56-.31,1.07-.61,1.47-.84a1.12,1.12,0,0,1,1.36.18l.24.24a1.75,1.75,0,0,0,0,.4v2.29A21.41,21.41,0,0,0,100.22,88.79Z"/><path class="cls-165" d="M140.43,87.78v.09a.23.23,0,0,1-.08.17A23.13,23.13,0,0,1,136.76,91a1.13,1.13,0,0,1-1.19,0L133,89.52l-1.27-.73a21.41,21.41,0,0,0,1.93-1.1V85.4a1.75,1.75,0,0,0-.05-.4l.24-.24a1.12,1.12,0,0,1,1.36-.18l1.48.84,3.26,1.85C140.25,87.46,140.4,87.63,140.43,87.78Z"/><path class="cls-166" d="M101.69,89.85a.36.36,0,0,1-.17.36l-5.18,2.93a1.13,1.13,0,0,1-1.19,0,22.14,22.14,0,0,1-3.58-2.91.34.34,0,0,1-.1-.28.17.17,0,0,1,0-.08V85.89a.32.32,0,0,1,0-.14.24.24,0,0,0,0,.12V82.19s0-1.25,0-1.59a.72.72,0,0,1,0-.17.4.4,0,0,0,.11.27l.09.09a22.84,22.84,0,0,0,3.48,2.81,0,0,0,0,0,0,0,1.13,1.13,0,0,0,1.19,0l1.6-.9,3.58-2a.33.33,0,0,0,.17-.28.1.1,0,0,1,0,0V82a1.22,1.22,0,0,1,0,.21v0a.35.35,0,0,1-.17.35l-2.3,1.29-.09,0a1.67,1.67,0,0,0-.79,1,1.75,1.75,0,0,0,0,.4v3.73a.44.44,0,0,0,.65.39h0l1.27-.73c.48.25,1,.49,1.48.71A1.75,1.75,0,0,1,101.69,89.85Z"/><path class="cls-167" d="M140.44,80.63V86s0,0,0,0v3.92a.28.28,0,0,1-.08.26,23.13,23.13,0,0,1-3.59,2.91,1.13,1.13,0,0,1-1.19,0l-5.18-2.92a.36.36,0,0,1-.17-.33.39.39,0,0,1,0-.11V89.5c.51-.22,1-.46,1.49-.71l1.27.73a.45.45,0,0,0,.66-.39V85.4a1.75,1.75,0,0,0-.05-.4,1.66,1.66,0,0,0-.8-1l-.08,0-2.29-1.29a.4.4,0,0,1-.18-.28.21.21,0,0,1,0-.1V80.55a.58.58,0,0,1,0-.21.34.34,0,0,0,.17.37l3.58,2,1.6.91a1.13,1.13,0,0,0,1.19,0h0a22.65,22.65,0,0,0,3.49-2.8h0l.1-.08a.33.33,0,0,0,.09-.21A.5.5,0,0,1,140.44,80.63Z"/><path class="cls-168" d="M101.52,80.71l-5.18,2.93a1.16,1.16,0,0,1-1.19,0,22.73,22.73,0,0,1-3.58-2.92.37.37,0,0,1,.08-.58l5.09-2.88a1.14,1.14,0,0,1,1.36.18,17.54,17.54,0,0,0,3.42,2.67A.37.37,0,0,1,101.52,80.71Z"/><path class="cls-169" d="M140.35,80.69a23.13,23.13,0,0,1-3.59,2.91,1.13,1.13,0,0,1-1.19,0l-5.17-2.93a.36.36,0,0,1,0-.63,17.24,17.24,0,0,0,3.42-2.67,1.14,1.14,0,0,1,1.36-.18l4.74,2.69C140.47,80.23,140.52,80.52,140.35,80.69Z"/><path class="cls-170" d="M139.2,64.85a15.69,15.69,0,0,0-1.57-1.92q-.24-.26-.48-.48a.15.15,0,0,0-.07,0l-2.48,1.4a1.13,1.13,0,0,1-1.31-.13,15.75,15.75,0,0,0-1.24-1l1.36-.77.83-.47a7.3,7.3,0,0,1,1.29-.44,3.72,3.72,0,0,1,1-.15.29.29,0,0,1,.17,0c1.43.83,1.39,2.32,2.55,3.32A.37.37,0,0,1,139.2,64.85Z"/><path class="cls-171" d="M98.51,62l1.36.77a15.38,15.38,0,0,0-1.23,1,1.12,1.12,0,0,1-1.33.15l-2.54-1.44a7.5,7.5,0,0,0-.56.57c-.22.23-.43.46-.63.7a13.22,13.22,0,0,0-.87,1.14.38.38,0,0,1-.19-.33.29.29,0,0,1,0-.18s0,0,0,0h0s0,0,0,0c1.16-1,.4-2.21,1.83-3a4,4,0,0,1,1.4,0l.3,0a5.55,5.55,0,0,1,1.5.27Z"/><path class="cls-172" d="M102.48,59.06a.28.28,0,0,0,0-.12.36.36,0,0,1-.19.32,19.48,19.48,0,0,0-3.65,2.59.58.58,0,0,1-.12.1,1.13,1.13,0,0,1-1.2,0l-.83-.47-.41-.23-.2-.12-3.16-1.78a.37.37,0,0,1-.18-.23c0,.35,0,1.38,0,1.7v4.27l.2-.28a13.22,13.22,0,0,1,.87-1.14c.2-.24.41-.47.63-.7v-.26a.37.37,0,0,1,.55-.32h0l2.54,1.44a1.12,1.12,0,0,0,1.33-.15,15.38,15.38,0,0,1,1.23-1,19.24,19.24,0,0,1,2.41-1.57.37.37,0,0,0,.19-.34s0-.05,0-.08C102.51,60.35,102.48,59.06,102.48,59.06Zm-9.89,5.25h0s0,0,0,0l0,0Z"/><path class="cls-173" d="M139.41,65.16a2.11,2.11,0,0,0-.21-.31,15.69,15.69,0,0,0-1.57-1.92V62.8a.36.36,0,0,0-.48-.35.15.15,0,0,0-.07,0l-2.48,1.4a1.13,1.13,0,0,1-1.31-.13,15.75,15.75,0,0,0-1.24-1,20,20,0,0,0-2.41-1.57.36.36,0,0,1-.18-.42h0V59a.32.32,0,0,0,.18.22,19.82,19.82,0,0,1,3.65,2.59.58.58,0,0,0,.12.1,1.11,1.11,0,0,0,1.19,0l.83-.47.41-.23.71-.4,2.65-1.5a.38.38,0,0,0,.19-.31.18.18,0,0,1,0,.05s0,1.11,0,1.58Z"/><path class="cls-174" d="M139.2,59.39,134.6,62a1.13,1.13,0,0,1-1.32-.13,18.87,18.87,0,0,0-3.64-2.6.37.37,0,0,1,0-.64l4.61-2.6a1.14,1.14,0,0,1,1.13,0,26.11,26.11,0,0,1,3.9,2.77A.37.37,0,0,1,139.2,59.39Z"/><path class="cls-175" d="M97.67,56l4.61,2.6a.36.36,0,0,1,0,.64,18.64,18.64,0,0,0-3.65,2.6,1.13,1.13,0,0,1-1.32.13l-4.6-2.6a.37.37,0,0,1-.07-.6A25.21,25.21,0,0,1,96.54,56,1.14,1.14,0,0,1,97.67,56Z"/><path class="cls-176" d="M139.38,80.21a17.81,17.81,0,0,1-2.87,2.29.93.93,0,0,1-1,0c-1-.58-3.35-1.78-4.33-2.33a.31.31,0,0,1,0-.53,13.51,13.51,0,0,0,2.73-2.17.92.92,0,0,1,1.12-.14l4,2.2C139.48,79.83,139.52,80.07,139.38,80.21Z"/><path class="cls-177" d="M92.52,80.21a17.3,17.3,0,0,0,2.86,2.29.94.94,0,0,0,1,0c1-.58,3.35-1.78,4.33-2.33a.31.31,0,0,0,0-.53A13.31,13.31,0,0,1,98,77.5a.92.92,0,0,0-1.12-.14l-4,2.2C92.41,79.83,92.37,80.07,92.52,80.21Z"/><path class="cls-178" d="M138.41,58.8,134.57,61a.94.94,0,0,1-1.1-.12,14,14,0,0,0-2.87-2.11.31.31,0,0,1,0-.54l3.73-2.14a1,1,0,0,1,1,0,21.22,21.22,0,0,1,3.19,2.23A.31.31,0,0,1,138.41,58.8Z"/><path class="cls-179" d="M97.56,56.12l3.69,2.12a.31.31,0,0,1,0,.53,13.71,13.71,0,0,0-2.83,2,.9.9,0,0,1-1.07.11l-3.74-2.11a.31.31,0,0,1-.06-.49,18.93,18.93,0,0,1,3.08-2.15A1,1,0,0,1,97.56,56.12Z"/><path class="cls-180" d="M52.64,114.09l-5-5,5-5,5,5Zm-2.22-5,2.22,2.22,2.22-2.22-2.22-2.23Z"/><path class="cls-181" d="M76.83,75.8l-3.51-3.5,3.51-3.51,3.51,3.51Zm-1.57-3.5,1.57,1.56L78.4,72.3l-1.57-1.57Z"/><path class="cls-182" d="M123.61,89.69a3,3,0,1,1,3-3A3,3,0,0,1,123.61,89.69Zm0-4.75a1.73,1.73,0,1,0,1.72,1.73A1.73,1.73,0,0,0,123.61,84.94Z"/><path class="cls-183" d="M63.65,90.43a3,3,0,1,1,3-3A3,3,0,0,1,63.65,90.43Zm0-4.75a1.73,1.73,0,1,0,1.73,1.73A1.73,1.73,0,0,0,63.65,85.68Z"/><path class="cls-184" d="M133.53,40.52a3.7,3.7,0,1,1,3.7-3.7A3.71,3.71,0,0,1,133.53,40.52Zm0-6.75a3.06,3.06,0,1,0,3.05,3A3.06,3.06,0,0,0,133.53,33.77Z"/><rect class="cls-185" x="114.49" y="41.09" width="3.46" height="3.46" transform="translate(64.32 -69.64) rotate(45)"/><rect class="cls-186" x="82.61" y="60.43" width="3.46" height="3.46" transform="translate(68.65 -41.43) rotate(45)"/><rect class="cls-187" x="156.06" y="86.39" width="2.03" height="2.03" transform="translate(107.81 -85.47) rotate(45)"/><circle class="cls-188" cx="121.23" cy="83.19" r="1.94"/><circle class="cls-189" cx="75.39" cy="40.59" r="4.34"/><circle class="cls-190" cx="79.54" cy="55.11" r="1.22"/><circle class="cls-191" cx="82.92" cy="48.71" r="2.02"/><path class="cls-192" d="M196.2,83.78l0,0a3.08,3.08,0,0,1,3,0h0a1,1,0,0,1,0,1.75h0a3.06,3.06,0,0,1-3.07,0h0A1,1,0,0,1,196.2,83.78Z"/><path class="cls-193" d="M164.3,85.19l-.66,41.59L163,85.19c0-.22.29-.4.65-.41s.66.18.66.41Z"/><circle class="cls-194" cx="163.64" cy="85.55" r="2.74"/><path class="cls-195" d="M115.63,128.52,115,162.87l-.66-34.35c0-.22.29-.41.65-.41s.66.18.66.4Z"/><circle class="cls-196" cx="114.98" cy="128.88" r="2.74"/><path class="cls-197" d="M81.77,72.07l-.4,41.59L81,72.07a.41.41,0,0,1,.81,0Z"/><circle class="cls-198" cx="81.37" cy="72.43" r="2.15"/><path class="cls-199" d="M169.65,74.33l-.4,53.69-.4-53.69a.4.4,0,1,1,.8,0Z"/><circle class="cls-200" cx="169.25" cy="74.69" r="1.81"/><path class="cls-201" d="M111,135.44l-.41,29.61-.4-29.61a.41.41,0,0,1,.81,0Z"/><circle class="cls-202" cx="110.58" cy="135.8" r="1.81"/><path class="cls-203" d="M149.63,83l-.4,30.5L148.82,83a.4.4,0,0,1,.4-.4.39.39,0,0,1,.41.4Z"/><circle class="cls-204" cx="149.23" cy="83.32" r="2.15"/><path class="cls-205" d="M76.52,88.52l-.4,30.5-.41-30.5a.41.41,0,0,1,.4-.41.4.4,0,0,1,.41.4Z"/><circle class="cls-206" cx="76.12" cy="88.88" r="2.15"/><path class="cls-207" d="M55.85,101.63l-.4,42.6-.4-42.6a.4.4,0,1,1,.8,0Z"/><circle class="cls-208" cx="55.45" cy="101.99" r="1.81"/><path class="cls-209" d="M144.74,114.3l-.4,42.6-.4-42.6a.4.4,0,1,1,.8,0Z"/><circle class="cls-210" cx="144.34" cy="114.66" r="1.81"/><circle class="cls-211" cx="154.79" cy="54.52" r="4.34"/><circle class="cls-212" cx="159.09" cy="70.52" r="1.93"/><circle class="cls-213" cx="149.46" cy="62.81" r="2.79"/><circle class="cls-214" cx="177.1" cy="103.7" r="1.87"/><circle class="cls-215" cx="64.49" cy="108.24" r="3.47"/><circle class="cls-216" cx="88.71" cy="101.11" r="2.13"/><circle class="cls-217" cx="136.72" cy="117.43" r="2.6"/><circle class="cls-218" cx="84.45" cy="133.24" r="2.07"/></g></g></svg>