<svg xmlns="http://www.w3.org/2000/svg" viewBox="0 0 381.92 408.18"><defs><style>.cls-1{fill:#e2e2e2;}.cls-2{fill:#fff;}.cls-3{stroke:#000;stroke-miterlimit:10;stroke-width:0.5px;}</style></defs><title>ella_svg</title><g id="Layer_2" data-name="Layer 2"><g id="Layer_1-2" data-name="Layer 1"><path class="cls-1" d="M127,307.37c-1.71,5-8.09,13.1-24,13.86a21.28,21.28,0,0,0-19.92,16.15c-2,8.42-.48,20.12,10.88,35.22.69.91,2.37,3.38,3,4.34,3,4.8,14.7,20.45,35.77,10.16,4.84-2.36,10-8.72,11-14,1.72-9.25.53-25.42-7.54-47l-6.57-18.75C128.51,305,127.86,304.88,127,307.37Z"/><path class="cls-1" d="M258,300.88c3.46,9.23,7.78,19.29,25,19.87a17,17,0,0,1,14.43,8.46c3.74,6.71,5.84,17-.47,30.58,0,0-12,31.71-38.92,30.64a20.92,20.92,0,0,1-18.71-13.91c-3.52-9.74-7.34-22.72,5.65-46,.28-.51,3-7.75,3.19-8.3l2-5.28C254.23,305,256,295.76,258,300.88Z"/><path class="cls-1" d="M266.63,207.08c-1.14-2.63-.83-2.54-4.15-7.13-2.55-3.51-12.63-6-18.09-6.37-8.33-.59-50.77,37.64-89.72,7.33-9-7-23.8-7.47-33-.73l-.24.17s-22.66,17.48-8.15,64.56a68.26,68.26,0,0,0,2.52,6.79c5.62,13.1,23.55,57.09,24.79,67.86a34.85,34.85,0,0,0,.72,4.06c1.57,6.59,4.92,24.17-.17,37.86a12.08,12.08,0,0,1-1.06,2.13c-2.8,4.63-13.59,25.73,23.44,24.08h.26c1.43,0,15,.16,23.71-3.52a9.65,9.65,0,0,1,7.05-.27c7.08,2.55,23,7,37.68,2a17.84,17.84,0,0,0,11.88-20.48,37.17,37.17,0,0,0-2-6.46,4.63,4.63,0,0,0-.5-.93c-1.67-2.46-10.08-19.14,15.29-81.18a12,12,0,0,1,.72-1.49C260.73,289.74,283.92,247,266.63,207.08ZM190.89,403.59l.92-64S194.74,387.45,190.89,403.59Z"/><path class="cls-1" d="M249,12.61c-21.22,8.51-23.52,19.32-24,21.09a.28.28,0,0,1-.39.19c-23.46-9.83-63.5-1.9-67.37-1.1a.27.27,0,0,1-.33-.23c-.27-2-2.93-13.42-29.3-10.6-1.79.19-6.19.19-7.09.16-4.93-.17-18.44-1.44-32.17-12.71,0,0-28.73-25.58-56.27,7.62h0S-25.09,75.75,13.22,149.14a74.17,74.17,0,0,0,16,20.66C41.64,181,65,203.51,68.4,216.33c0,0,7.6,31.49,22.81,11.9a58.79,58.79,0,0,1,4.41-4.93c15.9-16.27,21.07-51,22.29-61.39l.65,0a34,34,0,0,0,4.79,9.29,24.76,24.76,0,0,0,5.31,5.6l.45.35a15.63,15.63,0,0,1,5.92,10c3.34,20.65,19.9,34.52,23.1,37a1.64,1.64,0,0,1,.61,1.11c.84,8.05,6.32,18,6.38,18.06h0c4.45,11.37,2.23,34.82,1.42,41.89a15.79,15.79,0,0,1-1,3.9c-16.74,43.19-12.18,60.3-12.18,60.3h0c8.2,52.76,51,41,51,41,21.66-4.68,12.91-18.72,12.89-18.75h0c-5.66-13.59-11.87-6.93-12.29-6.47l-.05.05c-12.87,7.58-18.73,0-18.73,0-28.12-27,9.36-71.49,9.38-71.52h0c18.73-27.81,25.92-66.06,26.36-68.46a.28.28,0,0,1,.13-.19c18.07-11.69,19.23-21.53,19.23-21.53,1.7-12.33,6.66-16.76,7-17.07l0,0a95.77,95.77,0,0,0,12.37-23.62,1,1,0,0,1,1.89.27c2,28.31,15.43,52.94,20.62,61.28a22.2,22.2,0,0,0,5.54,6.2c13.65,10.2,18.17-8.32,18.18-8.35h0c8.79-24.62,29.31-39.86,29.31-39.86C364.42,160.64,372.63,139,372.63,139c15.27-35.53,7.59-67.23-3.88-90,0,0,0,0,0,0-4.43-6.51-7.94-13.78-13.54-19.58A74.14,74.14,0,0,0,335,14.63a35,35,0,0,0-11.13-3.39h0a3.37,3.37,0,0,0-.55,0c-14.62.88-29.05,3.3-43.72,1.5-3.77-.46-7.72-1.17-11.73-1.83a41.42,41.42,0,0,0-10-.4h-.26a22.1,22.1,0,0,0-5,.82A19.73,19.73,0,0,0,249,12.61Z"/><path d="M158.77,224.4c-5.17-4-9.41-9.23-13.27-14.54s-7.26-10.85-9.07-17.17a46.31,46.31,0,0,1-1.14-4.79,18.88,18.88,0,0,0-1.35-4.76,16,16,0,0,0-2.67-4.17,29.45,29.45,0,0,0-3.74-3.24,29.26,29.26,0,0,1-6.07-7.68,26.74,26.74,0,0,1-3.25-8.22c.18,2.7,1.67,5.76,3.1,8.31a29.53,29.53,0,0,0,6.09,7.75,28.66,28.66,0,0,1,3.71,3.22,15.62,15.62,0,0,1,2.63,4.12,19.06,19.06,0,0,1,1.32,4.71,46.81,46.81,0,0,0,1.13,4.82A57.68,57.68,0,0,0,145,210.4a71.28,71.28,0,0,0,11.64,12.65,6.76,6.76,0,0,1,2.25,4,44.75,44.75,0,0,0,2,7.18,52.84,52.84,0,0,0,3.38,7.71l1.34,3.22c1.75,4.54,1.23,5.29,1.61,8.92a110.08,110.08,0,0,1,.41,11.05,192.22,192.22,0,0,1-1.41,21,8.22,8.22,0,0,1-.48,1.94l-2.47,6.52-2.64,7.57c-1.65,5.09-3.21,10.2-4.46,15.4a128.09,128.09,0,0,0-3,15.77c-.6,5.31-1,10.69-.06,16.07v0c1.36,8.43,3.72,16.85,8.23,24.21a36.77,36.77,0,0,0,19.58,16.06,44.22,44.22,0,0,0,25.45.65c4.7-1.28,9.67-3.27,12.25-8.06a7.32,7.32,0,0,0,.79-2.53,13.8,13.8,0,0,0-1.79-8.38l-.34-.55a7,7,0,0,1-.62-1.14,8.9,8.9,0,0,0-.91-1.66,16.56,16.56,0,0,0-3.17-3.79,4.88,4.88,0,0,0-3.93-1.49c-1.49.18-1.7.34-3.22,1.53a13.26,13.26,0,0,1-1.62,1.06l-1.2.64-.09.05-2.2.94-.1,0a18.47,18.47,0,0,1-4.78,1.07,12.32,12.32,0,0,1-4.83-.57,9.32,9.32,0,0,1-4-2.59l0,0h0a32.4,32.4,0,0,1-9.5-16.75,42.77,42.77,0,0,1,.77-19.41,80.19,80.19,0,0,1,7.32-18.24A108.23,108.23,0,0,1,196,294.06l0,0h0a145.73,145.73,0,0,0,9.19-16.11c2.67-5.57,5.16-11.24,7.27-17,4.21-11.45,7-23.28,9.36-35.27a1.18,1.18,0,0,1,.5-.75c3.28-2.11,6.75-3.94,9.65-6.58a40.7,40.7,0,0,0,7.86-9.41,16.38,16.38,0,0,0,2.19-5.87,46.42,46.42,0,0,1,1.26-5.82c1.1-3.74,2.79-7.59,5.45-10.2l.1-.09,0,0c2.48-3.39,7.44-13.31,10.57-19.66a1.5,1.5,0,0,1,2.82.4l2.94,16.4s0,.06,0,.09a144.78,144.78,0,0,0,8.66,24.43q2.7,5.91,5.89,11.58c1.07,1.89,2.15,3.74,3.35,5.6a23.37,23.37,0,0,0,4.46,5A18.05,18.05,0,0,0,293.5,234a8.84,8.84,0,0,0,6.9-.54,13,13,0,0,0,4.8-4.87,24.33,24.33,0,0,0,2.6-6.17l0,.09a87.18,87.18,0,0,1,15.38-26.07,101.23,101.23,0,0,1,10.65-10.87c3.8-3.22,8.05-6.36,11.81-9.84A128.61,128.61,0,0,0,366,152.54,77.75,77.75,0,0,0,373.54,139c.91-2.4,1.93-4.77,2.76-7.21s1.68-4.88,2.24-7.41a102,102,0,0,0-2.8-60.92c-1.38-3.9-3-7.7-4.76-11.45-6.84-12.94-7.44-11.87-11.59-17.59.49.73,1,1.45,1.44,2.2A130.1,130.1,0,0,1,374.3,63.91a100.45,100.45,0,0,1,2.64,60c-.56,2.48-1.5,4.85-2.23,7.28s-1.84,4.75-2.74,7.13a76.17,76.17,0,0,1-7.38,13.25,126.69,126.69,0,0,1-20.17,22.79c-3.78,3.47-7.79,6.42-11.8,9.82a102.89,102.89,0,0,0-10.81,11.09,88.84,88.84,0,0,0-15.63,26.63v0l0,.07c-1.11,3.88-3.09,8-6.53,10a7.17,7.17,0,0,1-5.64.43,16.23,16.23,0,0,1-5.31-3c-3.28-2.58-5.32-6.37-7.46-10.09s-4.07-7.55-5.85-11.45a141.91,141.91,0,0,1-8.62-24.14s0-.07,0-.1l-3.58-21.83c-.19-1-.72-1.35-1.1-1.45a.91.91,0,0,0-1,.33c-1.52,2.05-4.91,11.23-5.16,11.92,0,0,0,0,0,.08A91,91,0,0,1,247.8,186l.12-.13c-3.13,3.1-3.85,6.9-5,10.82a63.85,63.85,0,0,0-1.55,6.81,14.8,14.8,0,0,1-2.08,5.32c-2.06,3.56-5.44,6.78-8.6,9.57a23.35,23.35,0,0,1-2.76,2.1l-6.48,4.22-.05.28a221.85,221.85,0,0,1-9.23,34.84,174.73,174.73,0,0,1-8.67,20A96.49,96.49,0,0,1,196,292.92l0,.05-2.38,3.27c-4.19,5.2-6.63,9.64-9.79,15.49a75.83,75.83,0,0,0-6.82,18,43.91,43.91,0,0,0-.18,19.82.83.83,0,0,0,0,.15,36.83,36.83,0,0,0,9.85,16.13l.15.12,1.52,1.06a.75.75,0,0,0,.17.1c3.61,1.74,4.28,1.47,6.84,1.46a23,23,0,0,0,5.48-1.26l.12,0,2.66-1.23.14-.07,1.18-.75.71-.5,1-.66c1.46-.81,1-.79,2.32-.93s2.28.85,3.32,1.73a10.9,10.9,0,0,1,2.2,2.52,24,24,0,0,1,2.12,4l.08.18a6.09,6.09,0,0,0,.3.63l.46.87c2,3.51,2.44,7.31-.15,10.62s-6.44,5.05-10.46,6.14a46.43,46.43,0,0,1-25.89-.53c-8.07-2.64-14.75-8.74-19.13-16s-6.82-15.58-8.19-24v0c-.95-5.16-.55-10.58,0-15.84a128.73,128.73,0,0,1,2.92-15.7c1.24-5.19,2.78-10.3,4.42-15.38l2.61-7.56,2.05-5.41.64-1.7.21-.93v0c.89-7.34,1.69-11,1.76-18.43,0-3.7.26-8.73-.09-12.41A41.1,41.1,0,0,0,166,245.36l-.47-1.36-.69-1.67-.39-.79c-1.5-3.12-1.36-3.77-2.52-6.87s-2.83-6.85-3.11-10.15"/><ellipse cx="144.41" cy="142.6" rx="14.84" ry="21.98"/><ellipse cx="237.28" cy="142.6" rx="14.84" ry="21.98"/><path class="cls-2" d="M233.2,128.72c4.4-3.16,11.36-4,13.68,6.24,0,.06.5,2.88.51,2.94.14,1,1.71,13.89-.31,11.9,0,0-2.68-23-13.14-19.7A.79.79,0,0,1,233.2,128.72Z"/><path class="cls-2" d="M149.46,128.61c-4.39-3.16-11.35-4-13.68,6.24,0,.06-.5,2.88-.5,2.94-.15,1-1.71,13.89.31,11.9,0,0,2.67-23,13.14-19.7A.79.79,0,0,0,149.46,128.61Z"/><path d="M179.83,151l-.65-2c.13-.09,12.6-9.44,25.36,0l-.23,2.48C193,143.12,180.31,150.66,179.83,151Z"/><path class="cls-2" d="M138,330.11s0-.1,0-.1,0,.1,0,.1Z"/><path class="cls-3" d="M245.31,186.73c-23.33,0-42.3-19.8-42.3-44.13s19-44.13,42.3-44.13,42.3,19.79,42.3,44.13S268.63,186.73,245.31,186.73Zm0-86.79c-20.73,0-41,20.92-41,42.66s20.27,43.16,41,43.16,39.94-21.43,39.94-43.16S266,99.94,245.31,99.94Z"/><path class="cls-3" d="M139.35,187c-23.26,0-42.18-20-42.18-44.62s18.92-44.62,42.18-44.62,42.18,20,42.18,44.62S162.61,187,139.35,187Zm0-87.75c-20.67,0-40.88,21.15-40.88,43.13S118.68,186,139.35,186s39.83-21.67,39.83-43.64S160,99.21,139.35,99.21Z"/></g></g></svg>