<svg xmlns="http://www.w3.org/2000/svg" viewBox="0 0 114.21 56.95"><title>ella_black</title><g id="Layer_2" data-name="Layer 2"><g id="Layer_1-2" data-name="Layer 1"><path d="M34.39,47.5a3.37,3.37,0,0,1,.72,2.22c0,1.54-1,2.83-2.86,3.89a25.15,25.15,0,0,1-6.08,2.46,24.76,24.76,0,0,1-6.31.88q-9.22,0-14.54-5.36T0,36.93A23,23,0,0,1,2.34,26.37a17.23,17.23,0,0,1,6.6-7.15,18.43,18.43,0,0,1,9.64-2.54q7.79,0,12.32,5t4.52,13.5q0,3.18-2.86,3.18H8q.8,12.31,11.84,12.31a14.65,14.65,0,0,0,5.08-.79,36.8,36.8,0,0,0,4.53-2.07c.16-.1.59-.33,1.31-.67a4.24,4.24,0,0,1,1.78-.52A2.25,2.25,0,0,1,34.39,47.5Zm-23-22A13.65,13.65,0,0,0,8,33.75H28.51q-.24-5.4-2.74-8.29a8.75,8.75,0,0,0-7-2.9A9.67,9.67,0,0,0,11.36,25.5Z"/><path d="M45.39,55.83A3.46,3.46,0,0,1,44.24,53V3.89A3.62,3.62,0,0,1,45.39,1a4.29,4.29,0,0,1,2.9-1,4.15,4.15,0,0,1,2.86,1,3.7,3.7,0,0,1,1.11,2.9V53a3.54,3.54,0,0,1-1.11,2.85,4.23,4.23,0,0,1-2.86,1A4.37,4.37,0,0,1,45.39,55.83Z"/><path d="M64.61,55.83A3.46,3.46,0,0,1,63.46,53V3.89A3.62,3.62,0,0,1,64.61,1a4.29,4.29,0,0,1,2.9-1,4.15,4.15,0,0,1,2.86,1,3.7,3.7,0,0,1,1.11,2.9V53a3.54,3.54,0,0,1-1.11,2.85,4.23,4.23,0,0,1-2.86,1A4.37,4.37,0,0,1,64.61,55.83Z"/><path d="M110.44,20.57q3.77,3.9,3.77,11.83V53a3.75,3.75,0,0,1-1,2.81,3.94,3.94,0,0,1-2.86,1A3.57,3.57,0,0,1,106.5,53V50A11.16,11.16,0,0,1,102,55.16a13.29,13.29,0,0,1-7,1.79,15.78,15.78,0,0,1-7-1.55,12.07,12.07,0,0,1-5-4.33,11.22,11.22,0,0,1-1.78-6.2,9.53,9.53,0,0,1,2.18-6.63q2.19-2.41,7.23-3.45a72.33,72.33,0,0,1,13.86-1h1.82v-2.3c0-3-.6-5.11-1.82-6.43s-3.18-2-5.88-2a18.59,18.59,0,0,0-5.24.72,38.62,38.62,0,0,0-5.4,2.06,7.7,7.7,0,0,1-3,1.19,2.48,2.48,0,0,1-2-.87,3.28,3.28,0,0,1-.75-2.22A3.39,3.39,0,0,1,83,21.8,7,7,0,0,1,85.22,20a27.36,27.36,0,0,1,6.51-2.42A30.34,30.34,0,0,1,99,16.68Q106.66,16.68,110.44,20.57ZM103.65,48a10.78,10.78,0,0,0,2.77-7.66V38.28H105a62.05,62.05,0,0,0-9.54.56A9.36,9.36,0,0,0,90.7,40.7a4.9,4.9,0,0,0-1.43,3.78,6,6,0,0,0,2.06,4.68A7.51,7.51,0,0,0,96.5,51,9.34,9.34,0,0,0,103.65,48Z"/></g></g></svg>